<?xml version="1.0" encoding="UTF-8" standalone="no"?>
<svg
   xmlns:dc="http://purl.org/dc/elements/1.1/"
   xmlns:cc="http://creativecommons.org/ns#"
   xmlns:rdf="http://www.w3.org/1999/02/22-rdf-syntax-ns#"
   xmlns:svg="http://www.w3.org/2000/svg"
   xmlns="http://www.w3.org/2000/svg"
   xmlns:sodipodi="http://sodipodi.sourceforge.net/DTD/sodipodi-0.dtd"
   xmlns:inkscape="http://www.inkscape.org/namespaces/inkscape"
   inkscape:export-ydpi="96"
   inkscape:export-xdpi="96"
   inkscape:export-filename="D:\Calcatz\Icon Pack\VN Game Orient Express Theme\Visual Novel GUI\png\Gallery\gallery_item_padlock.png"
   sodipodi:docname="gallery_item_padlock.svg"
   inkscape:version="1.0 (4035a4fb49, 2020-05-01)"
   id="svg1354"
   version="1.1"
   viewBox="0 0 121.25963 80.374085"
   height="303.77606"
   width="458.30411">
  <defs
     id="defs1348" />
  <sodipodi:namedview
     inkscape:window-maximized="1"
     inkscape:window-y="-8"
     inkscape:window-x="-8"
     inkscape:window-height="705"
     inkscape:window-width="1366"
     fit-margin-bottom="0"
     fit-margin-right="0"
     fit-margin-left="0"
     fit-margin-top="0"
     units="px"
     showgrid="false"
     inkscape:document-rotation="0"
     inkscape:current-layer="layer1"
     inkscape:document-units="mm"
     inkscape:cy="190.3927"
     inkscape:cx="83.816927"
     inkscape:zoom="0.33557348"
     inkscape:pageshadow="2"
     inkscape:pageopacity="0.0"
     borderopacity="1.0"
     bordercolor="#666666"
     pagecolor="#ffffff"
     id="base" />
  <metadata
     id="metadata1351">
    <rdf:RDF>
      <cc:Work
         rdf:about="">
        <dc:format>image/svg+xml</dc:format>
        <dc:type
           rdf:resource="http://purl.org/dc/dcmitype/StillImage" />
        <dc:title></dc:title>
      </cc:Work>
    </rdf:RDF>
  </metadata>
  <g
     transform="translate(-146.73287,-97.791932)"
     id="layer1"
     inkscape:groupmode="layer"
     inkscape:label="Layer 1">
    <g
       transform="matrix(2.0763317,0,0,2.0763338,-898.58473,39.838122)"
       id="g1785">
      <path
         transform="matrix(0.12742826,0,0,0.12742813,-351.14692,-47.239061)"
         d="m 6911.1367,733.60547 c -1.8301,0 -3.3047,1.47459 -3.3047,3.30469 v 39.06836 c 0,1.83009 1.4746,3.30468 3.3047,3.30468 h 48.9317 c 1.8301,0 3.3027,-1.47459 3.3027,-3.30468 v -39.06836 c 0,-1.8301 -1.4726,-3.30469 -3.3027,-3.30469 z m 24.668,15.25586 a 3.8998748,3.8998788 0 0 1 3.9004,3.90039 3.8998748,3.8998788 0 0 1 -1.6055,3.15234 l 2.9609,9.37305 h -10.5117 l 2.9629,-9.37305 a 3.8998748,3.8998788 0 0 1 -1.6055,-3.15234 3.8998748,3.8998788 0 0 1 3.8985,-3.90039 z"
         style="fill:#1a0707;fill-opacity:1;stroke:none;stroke-width:7.11675;stroke-linecap:round;stroke-linejoin:round;stroke-miterlimit:4;stroke-dasharray:none;stroke-opacity:1;paint-order:fill markers stroke"
         id="rect1777" />
      <path
         style="fill:none;stroke:#1a0707;stroke-width:0.532661;stroke-linecap:round;stroke-linejoin:miter;stroke-miterlimit:4;stroke-dasharray:none;stroke-opacity:1;paint-order:fill markers stroke"
         d="m 530.57009,46.46121 c 0,-2.510385 0.42834,-3.725558 2.06672,-3.725558 1.6487,0 2.01293,1.267988 2.01293,3.725558"
         id="path1779"
         sodipodi:nodetypes="csc" />
    </g>
  </g>
</svg>
