<?xml version="1.0" encoding="UTF-8" standalone="no"?>
<svg
   xmlns:dc="http://purl.org/dc/elements/1.1/"
   xmlns:cc="http://creativecommons.org/ns#"
   xmlns:rdf="http://www.w3.org/1999/02/22-rdf-syntax-ns#"
   xmlns:svg="http://www.w3.org/2000/svg"
   xmlns="http://www.w3.org/2000/svg"
   xmlns:xlink="http://www.w3.org/1999/xlink"
   xmlns:sodipodi="http://sodipodi.sourceforge.net/DTD/sodipodi-0.dtd"
   xmlns:inkscape="http://www.inkscape.org/namespaces/inkscape"
   sodipodi:docname="book_and_paper.svg"
   inkscape:version="1.0 (4035a4fb49, 2020-05-01)"
   id="svg2598"
   version="1.1"
   viewBox="0 0 226.49899 248.00919"
   height="937.35754"
   width="856.0592">
  <defs
     id="defs2592">
    <filter
       inkscape:collect="always"
       style="color-interpolation-filters:sRGB"
       id="filter11792"
       x="-0.022237713"
       width="1.0444754"
       y="-0.019175168"
       height="1.0383503">
      <feGaussianBlur
         inkscape:collect="always"
         stdDeviation="0.50167385"
         id="feGaussianBlur11794" />
    </filter>
    <filter
       inkscape:collect="always"
       style="color-interpolation-filters:sRGB"
       id="filter8890"
       x="-0.034513816"
       width="1.0690275"
       y="-0.032055385"
       height="1.0641108">
      <feGaussianBlur
         inkscape:collect="always"
         stdDeviation="0.85522844"
         id="feGaussianBlur8892" />
    </filter>
    <filter
       inkscape:collect="always"
       style="color-interpolation-filters:sRGB"
       id="filter8898"
       x="-0.054267094"
       width="1.1085342"
       y="-0.038196225"
       height="1.0763924">
      <feGaussianBlur
         inkscape:collect="always"
         stdDeviation="0.85522843"
         id="feGaussianBlur8900" />
    </filter>
    <clipPath
       id="clipPath5006-1-2-7-1"
       clipPathUnits="userSpaceOnUse">
      <path
         id="path5008-7-6-3"
         style="opacity:0.999;fill:#f8eeca;fill-opacity:1;stroke:none;stroke-width:0.564999;stroke-linecap:round;stroke-miterlimit:4;stroke-dasharray:none;stroke-opacity:1;paint-order:fill markers stroke"
         d="m 590.92457,158.3781 c 12.51858,-0.6629 19.69439,0.54763 36.2952,0 1.28976,13.03917 -1.5875,33.58517 0,52.759 -12.09839,0 -19.38475,-1.31238 -36.2952,0 0.92604,-16.26342 -0.62505,-27.67221 0,-52.759 z"
         sodipodi:nodetypes="ccccc" />
    </clipPath>
    <filter
       height="1.05206"
       y="-0.026029995"
       width="1.0749429"
       x="-0.037471503"
       id="filter4982-8"
       style="color-interpolation-filters:sRGB"
       inkscape:collect="always">
      <feGaussianBlur
         id="feGaussianBlur4984-1"
         stdDeviation="0.57443107"
         inkscape:collect="always" />
    </filter>
    <clipPath
       id="clipPath3181"
       clipPathUnits="userSpaceOnUse">
      <path
         id="path3179"
         style="opacity:0.999;fill:#f8eeca;fill-opacity:1;stroke:none;stroke-width:0.564999;stroke-linecap:round;stroke-miterlimit:4;stroke-dasharray:none;stroke-opacity:1;paint-order:fill markers stroke"
         d="m 590.92457,158.3781 c 12.51858,-0.6629 19.69439,0.54763 36.2952,0 1.28976,13.03917 -1.5875,33.58517 0,52.759 -12.09839,0 -19.38475,-1.31238 -36.2952,0 0.92604,-16.26342 -0.62505,-27.67221 0,-52.759 z"
         sodipodi:nodetypes="ccccc" />
    </clipPath>
    <clipPath
       id="clipPath3189"
       clipPathUnits="userSpaceOnUse">
      <path
         id="path3187"
         style="opacity:0.999;fill:#f8eeca;fill-opacity:1;stroke:none;stroke-width:0.564999;stroke-linecap:round;stroke-miterlimit:4;stroke-dasharray:none;stroke-opacity:1;paint-order:fill markers stroke"
         d="m 590.92457,158.3781 c 12.51858,-0.6629 19.69439,0.54763 36.2952,0 1.28976,13.03917 -1.5875,33.58517 0,52.759 -12.09839,0 -19.38475,-1.31238 -36.2952,0 0.92604,-16.26342 -0.62505,-27.67221 0,-52.759 z"
         sodipodi:nodetypes="ccccc" />
    </clipPath>
    <filter
       inkscape:collect="always"
       style="color-interpolation-filters:sRGB"
       id="filter11780"
       x="-0.017450774"
       width="1.0349015"
       y="-0.017112536"
       height="1.0342251">
      <feGaussianBlur
         inkscape:collect="always"
         stdDeviation="0.38840903"
         id="feGaussianBlur11782" />
    </filter>
    <radialGradient
       r="32.387913"
       fy="408.74673"
       fx="1284.3154"
       cy="408.74673"
       cx="1284.3154"
       gradientTransform="matrix(0.45834499,0.10883764,-0.10297464,0.43365435,733.7286,93.630638)"
       gradientUnits="userSpaceOnUse"
       id="radialGradient2000"
       xlink:href="#linearGradient5171"
       inkscape:collect="always" />
    <linearGradient
       id="linearGradient5171"
       inkscape:collect="always">
      <stop
         id="stop5167"
         offset="0"
         style="stop-color:#5e3819;stop-opacity:1" />
      <stop
         style="stop-color:#5e3819;stop-opacity:0.30241936"
         offset="0.57295126"
         id="stop5175" />
      <stop
         id="stop5169"
         offset="1"
         style="stop-color:#5e3819;stop-opacity:0" />
    </linearGradient>
    <linearGradient
       y2="12.659595"
       x2="358.59573"
       y1="12.663688"
       x1="355.4671"
       gradientTransform="translate(-1.2717546,0.09729981)"
       gradientUnits="userSpaceOnUse"
       id="linearGradient2002"
       xlink:href="#linearGradient5148"
       inkscape:collect="always" />
    <linearGradient
       id="linearGradient5148"
       inkscape:collect="always">
      <stop
         id="stop5144"
         offset="0"
         style="stop-color:#d09200;stop-opacity:1;" />
      <stop
         id="stop5146"
         offset="1"
         style="stop-color:#885f00;stop-opacity:1" />
    </linearGradient>
  </defs>
  <sodipodi:namedview
     inkscape:window-maximized="1"
     inkscape:window-y="-8"
     inkscape:window-x="-8"
     inkscape:window-height="705"
     inkscape:window-width="1366"
     fit-margin-bottom="0"
     fit-margin-right="0"
     fit-margin-left="0"
     fit-margin-top="0"
     units="px"
     showgrid="false"
     inkscape:document-rotation="0"
     inkscape:current-layer="layer1"
     inkscape:document-units="mm"
     inkscape:cy="513.14341"
     inkscape:cx="696.91076"
     inkscape:zoom="0.33557348"
     inkscape:pageshadow="2"
     inkscape:pageopacity="0.0"
     borderopacity="1.0"
     bordercolor="#666666"
     pagecolor="#ffffff"
     id="base" />
  <metadata
     id="metadata2595">
    <rdf:RDF>
      <cc:Work
         rdf:about="">
        <dc:format>image/svg+xml</dc:format>
        <dc:type
           rdf:resource="http://purl.org/dc/dcmitype/StillImage" />
        <dc:title></dc:title>
      </cc:Work>
    </rdf:RDF>
  </metadata>
  <g
     transform="translate(-79.132615,-12.397472)"
     id="layer1"
     inkscape:groupmode="layer"
     inkscape:label="Layer 1">
    <g
       inkscape:export-ydpi="96"
       inkscape:export-xdpi="96"
       inkscape:export-filename="D:\Calcatz\Icon Pack\VN Game Orient Express Theme\Visual Novel GUI\png\Evidence\customizable_background\book_and_paper.png"
       transform="matrix(2.6799427,-0.58409432,0.58409432,2.6799427,-838.93868,139.40041)"
       clip-path="none"
       id="g1948">
      <g
         id="g1928">
        <g
           style="fill:#000000;fill-opacity:1;filter:url(#filter11792)"
           id="g1918"
           transform="matrix(0.79012759,-0.15219361,0.15219361,0.79012759,-104.07554,52.901144)">
          <path
             sodipodi:nodetypes="ccccc"
             d="m 553.78247,142.93573 c 12.51857,-0.6629 19.6944,0.54763 36.2952,0 1.28976,13.03917 -1.5875,33.58517 0,52.759 -12.0984,0 -19.38474,-1.31238 -36.2952,0 0.92604,-16.26342 -0.62504,-27.67221 0,-52.759 z"
             style="opacity:0.999;fill:#000000;fill-opacity:1;stroke:none;stroke-width:0.564999;stroke-linecap:round;stroke-miterlimit:4;stroke-dasharray:none;stroke-opacity:1;paint-order:fill markers stroke"
             id="path1916" />
        </g>
        <g
           style="fill:#000000;fill-opacity:1;filter:url(#filter8890)"
           transform="matrix(0.74913515,-0.29370229,0.29370229,0.74913515,-99.185763,127.80808)"
           id="g1922">
          <path
             id="path1920"
             style="opacity:0.999;fill:#000000;fill-opacity:1;stroke:none;stroke-width:0.564999;stroke-linecap:round;stroke-miterlimit:4;stroke-dasharray:none;stroke-opacity:1;paint-order:fill markers stroke"
             d="m 553.78247,142.93573 c 12.51857,-0.6629 19.6944,0.54763 36.2952,0 1.28976,13.03917 -1.5875,33.58517 0,52.759 -12.0984,0 -19.38474,-1.31238 -36.2952,0 0.92604,-16.26342 -0.62504,-27.67221 0,-52.759 z"
             sodipodi:nodetypes="ccccc" />
        </g>
        <g
           style="fill:#000000;fill-opacity:1;filter:url(#filter8898)"
           id="g1926"
           transform="matrix(0.78147796,0.19172043,-0.19172043,0.78147796,-55.829449,-148.49344)">
          <path
             sodipodi:nodetypes="ccccc"
             d="m 553.78247,142.93573 c 12.51857,-0.6629 19.6944,0.54763 36.2952,0 1.28976,13.03917 -1.5875,33.58517 0,52.759 -12.0984,0 -19.38474,-1.31238 -36.2952,0 0.92604,-16.26342 -0.62504,-27.67221 0,-52.759 z"
             style="opacity:0.999;fill:#000000;fill-opacity:1;stroke:none;stroke-width:0.564999;stroke-linecap:round;stroke-miterlimit:4;stroke-dasharray:none;stroke-opacity:1;paint-order:fill markers stroke"
             id="path1924" />
        </g>
      </g>
      <g
         id="g1934"
         transform="matrix(0.79012759,-0.15219361,0.15219361,0.79012759,-104.07554,52.901144)">
        <path
           sodipodi:nodetypes="ccccc"
           d="m 553.78247,142.93573 c 12.51857,-0.6629 19.6944,0.54763 36.2952,0 1.28976,13.03917 -1.5875,33.58517 0,52.759 -12.0984,0 -19.38474,-1.31238 -36.2952,0 0.92604,-16.26342 -0.62504,-27.67221 0,-52.759 z"
           style="opacity:0.999;fill:#ddc6b5;fill-opacity:1;stroke:none;stroke-width:0.564999;stroke-linecap:round;stroke-miterlimit:4;stroke-dasharray:none;stroke-opacity:1;paint-order:fill markers stroke"
           id="path1930" />
        <path
           transform="translate(-37.1421,-15.44237)"
           clip-path="url(#clipPath5006-1-2-7-1)"
           id="path1932"
           style="opacity:0.999;fill:none;fill-opacity:1;stroke:#805a55;stroke-width:0.564999;stroke-linecap:round;stroke-miterlimit:4;stroke-dasharray:none;stroke-opacity:1;paint-order:fill markers stroke;filter:url(#filter4982-8)"
           d="m 590.67902,158.35471 c 12.51857,-0.6629 19.93995,0.57102 36.54075,0.0234 1.28976,13.03917 -2.07861,33.18761 -0.49111,52.36144 -12.0984,0 -18.47268,-1.47609 -35.38314,-0.16371 0.92604,-16.26342 -1.29154,-27.13433 -0.6665,-52.22112 z"
           sodipodi:nodetypes="cccccc" />
      </g>
      <g
         transform="matrix(0.74913515,-0.29370229,0.29370229,0.74913515,-99.185763,127.80808)"
         id="g1940">
        <path
           id="path1936"
           style="opacity:0.999;fill:#ddc6b5;fill-opacity:1;stroke:none;stroke-width:0.564999;stroke-linecap:round;stroke-miterlimit:4;stroke-dasharray:none;stroke-opacity:1;paint-order:fill markers stroke"
           d="m 553.78247,142.93573 c 12.51857,-0.6629 19.6944,0.54763 36.2952,0 1.28976,13.03917 -1.5875,33.58517 0,52.759 -12.0984,0 -19.38474,-1.31238 -36.2952,0 0.92604,-16.26342 -0.62504,-27.67221 0,-52.759 z"
           sodipodi:nodetypes="ccccc" />
        <path
           sodipodi:nodetypes="cccccc"
           d="m 590.67902,158.35471 c 12.51857,-0.6629 19.93995,0.57102 36.54075,0.0234 1.28976,13.03917 -2.07861,33.18761 -0.49111,52.36144 -12.0984,0 -18.47268,-1.47609 -35.38314,-0.16371 0.92604,-16.26342 -1.29154,-27.13433 -0.6665,-52.22112 z"
           style="opacity:0.999;fill:none;fill-opacity:1;stroke:#805a55;stroke-width:0.564999;stroke-linecap:round;stroke-miterlimit:4;stroke-dasharray:none;stroke-opacity:1;paint-order:fill markers stroke;filter:url(#filter4982-8)"
           id="path1938"
           clip-path="url(#clipPath5006-1-2-7-1)"
           transform="translate(-37.1421,-15.44237)" />
      </g>
      <g
         id="g1946"
         transform="matrix(0.78147796,0.19172043,-0.19172043,0.78147796,-55.829449,-148.49344)">
        <path
           sodipodi:nodetypes="ccccc"
           d="m 553.78247,142.93573 c 12.51857,-0.6629 19.6944,0.54763 36.2952,0 1.28976,13.03917 -1.5875,33.58517 0,52.759 -12.0984,0 -19.38474,-1.31238 -36.2952,0 0.92604,-16.26342 -0.62504,-27.67221 0,-52.759 z"
           style="opacity:0.999;fill:#ddc6b5;fill-opacity:1;stroke:none;stroke-width:0.564999;stroke-linecap:round;stroke-miterlimit:4;stroke-dasharray:none;stroke-opacity:1;paint-order:fill markers stroke"
           id="path1942" />
        <path
           transform="translate(-37.1421,-15.44237)"
           clip-path="url(#clipPath5006-1-2-7-1)"
           id="path1944"
           style="opacity:0.999;fill:none;fill-opacity:1;stroke:#805a55;stroke-width:0.564999;stroke-linecap:round;stroke-miterlimit:4;stroke-dasharray:none;stroke-opacity:1;paint-order:fill markers stroke;filter:url(#filter4982-8)"
           d="m 590.67902,158.35471 c 12.51857,-0.6629 19.93995,0.57102 36.54075,0.0234 1.28976,13.03917 -2.07861,33.18761 -0.49111,52.36144 -12.0984,0 -18.47268,-1.47609 -35.38314,-0.16371 0.92604,-16.26342 -1.29154,-27.13433 -0.6665,-52.22112 z"
           sodipodi:nodetypes="cccccc" />
      </g>
    </g>
    <g
       inkscape:export-ydpi="96"
       inkscape:export-xdpi="96"
       inkscape:export-filename="D:\Calcatz\Icon Pack\VN Game Orient Express Theme\Visual Novel GUI\png\Evidence\customizable_background\book_and_paper.png"
       id="g1966"
       transform="matrix(3.0234699,1.7141485,-1.7141485,3.0234699,-623.26123,-739.79325)"
       style="fill:#000000;fill-opacity:1;stroke:none;stroke-opacity:1;filter:url(#filter11780)">
      <path
         sodipodi:nodetypes="ccccccc"
         d="m 321.65598,77.629236 26.37632,7.839455 -7.24411,23.821459 -0.10658,0.35861 -5.8407,20.20315 -26.37631,-7.83946 z"
         style="opacity:0.999;fill:#000000;fill-opacity:1;stroke:none;stroke-width:0.065;stroke-linecap:round;stroke-miterlimit:4;stroke-dasharray:none;stroke-opacity:1;paint-order:fill markers stroke"
         id="path1950" />
      <path
         sodipodi:nodetypes="cccccccc"
         d="m 342.21736,104.59 -1.65521,4.47053 -0.16536,0.49609 -5.9123,20.18946 0.73692,0.15555 5.46012,-20.25303 0.10644,-0.35863 z"
         style="opacity:0.999;fill:#000000;fill-opacity:1;stroke:none;stroke-width:0.0649999;stroke-linecap:round;stroke-miterlimit:4;stroke-dasharray:none;stroke-opacity:1;paint-order:fill markers stroke"
         id="path1952" />
      <path
         sodipodi:nodetypes="ccccccc"
         d="m 322.85835,77.669817 26.10502,8.700307 -8.40119,22.690436 -0.16534,0.4961 -6.07341,20.74016 -26.10501,-8.7003 z"
         style="opacity:0.999;fill:#000000;fill-opacity:1;stroke:none;stroke-width:0.065;stroke-linecap:round;stroke-miterlimit:4;stroke-dasharray:none;stroke-opacity:1;paint-order:fill markers stroke"
         id="path1954" />
      <path
         id="path1956"
         style="opacity:0.999;fill:#000000;fill-opacity:1;stroke:none;stroke-width:0.065;stroke-linecap:round;stroke-miterlimit:4;stroke-dasharray:none;stroke-opacity:1;paint-order:fill markers stroke"
         d="m 320.85234,78.148874 26.34096,6.565899 -0.007,1.363875 -7.21333,23.885352 -0.0823,0.28831 -5.2932,19.97475 -26.45892,-7.55593 z"
         sodipodi:nodetypes="cccccccc" />
      <path
         sodipodi:nodetypes="ccccccc"
         d="m 320.68145,77.112347 26.51185,7.602426 -7.39167,24.212687 -0.0823,0.28831 -5.2932,19.97475 -26.45892,-7.55593 z"
         style="opacity:0.999;fill:#000000;fill-opacity:1;stroke:none;stroke-width:0.065;stroke-linecap:round;stroke-miterlimit:4;stroke-dasharray:none;stroke-opacity:1;paint-order:fill markers stroke"
         id="path1958" />
      <path
         sodipodi:nodetypes="ccccccc"
         d="m 328.66733,-15.001517 h 27.51666 c 0.47686,8.8229414 -0.82656,17.7885463 0.35434,26.562356 v 0.229414 c -0.71526,6.466921 -0.35434,13.012052 -0.35434,19.510312 h -27.51666 z"
         style="opacity:0.999;fill:#000000;fill-opacity:1;stroke:none;stroke-width:0.564999;stroke-linecap:round;stroke-miterlimit:4;stroke-dasharray:none;stroke-opacity:1;paint-order:fill markers stroke"
         id="path1960"
         transform="rotate(15.937872)" />
      <path
         transform="scale(0.26458333)"
         d="m 1242.8438,367.35742 -16.6583,59.03711 47.92,13.51953 c 2.7588,-9.14669 5.7886,-18.19707 9.4043,-27.03515 l 0.2382,-0.83399 c 1.5347,-10.5557 4.0133,-20.91993 6.9102,-31.19726 z"
         style="opacity:0.999;fill:#000000;fill-opacity:1;stroke:none;stroke-width:0.245669;stroke-linecap:round;stroke-miterlimit:4;stroke-dasharray:none;stroke-opacity:1;paint-order:fill markers stroke"
         id="path1962" />
      <path
         sodipodi:nodetypes="cccccc"
         d="m 329.09523,12.380444 h 28.60792 c 0.11059,0.02821 -0.0103,0.151629 -0.0126,0.386933 0.008,0.145023 0.0841,0.301315 0.0126,0.297727 H 329.0836 Z"
         transform="rotate(15.761775)"
         style="opacity:0.999;fill:#000000;fill-opacity:1;stroke:none;stroke-width:0.0418389;stroke-linecap:round;stroke-miterlimit:4;stroke-dasharray:none;stroke-opacity:1;paint-order:fill markers stroke"
         id="path1964" />
    </g>
    <g
       inkscape:export-ydpi="96"
       inkscape:export-xdpi="96"
       inkscape:export-filename="D:\Calcatz\Icon Pack\VN Game Orient Express Theme\Visual Novel GUI\png\Evidence\customizable_background\book_and_paper.png"
       transform="matrix(3.0234699,1.7141485,-1.7141485,3.0234699,-623.44266,-737.43467)"
       id="g1984">
      <path
         id="path1968"
         style="opacity:0.999;fill:#d4cdae;fill-opacity:1;stroke:none;stroke-width:0.065;stroke-linecap:round;stroke-miterlimit:4;stroke-dasharray:none;stroke-opacity:1;paint-order:fill markers stroke"
         d="m 321.65598,77.629236 26.37632,7.839455 -7.24411,23.821459 -0.10658,0.35861 -5.8407,20.20315 -26.37631,-7.83946 z"
         sodipodi:nodetypes="ccccccc" />
      <path
         id="path1970"
         style="opacity:0.999;fill:#baa798;fill-opacity:1;stroke:none;stroke-width:0.0649999;stroke-linecap:round;stroke-miterlimit:4;stroke-dasharray:none;stroke-opacity:1;paint-order:fill markers stroke"
         d="m 342.21736,104.59 -1.65521,4.47053 -0.16536,0.49609 -5.9123,20.18946 0.73692,0.15555 5.46012,-20.25303 0.10644,-0.35863 z"
         sodipodi:nodetypes="cccccccc" />
      <path
         id="path1972"
         style="opacity:0.999;fill:#c2ae9f;fill-opacity:1;stroke:none;stroke-width:0.065;stroke-linecap:round;stroke-miterlimit:4;stroke-dasharray:none;stroke-opacity:1;paint-order:fill markers stroke"
         d="m 322.85835,77.669817 26.10502,8.700307 -8.40119,22.690436 -0.16534,0.4961 -6.07341,20.74016 -26.10501,-8.7003 z"
         sodipodi:nodetypes="ccccccc" />
      <path
         sodipodi:nodetypes="cccccccc"
         d="m 320.85234,78.148874 26.34096,6.565899 -0.007,1.363875 -7.21333,23.885352 -0.0823,0.28831 -5.2932,19.97475 -26.45892,-7.55593 z"
         style="opacity:0.999;fill:#ccb7a7;fill-opacity:1;stroke:none;stroke-width:0.065;stroke-linecap:round;stroke-miterlimit:4;stroke-dasharray:none;stroke-opacity:1;paint-order:fill markers stroke"
         id="path1974" />
      <path
         id="path1976"
         style="opacity:0.999;fill:#ddc6b5;fill-opacity:1;stroke:none;stroke-width:0.065;stroke-linecap:round;stroke-miterlimit:4;stroke-dasharray:none;stroke-opacity:1;paint-order:fill markers stroke"
         d="m 320.68145,77.112347 26.51185,7.602426 -7.39167,24.212687 -0.0823,0.28831 -5.2932,19.97475 -26.45892,-7.55593 z"
         sodipodi:nodetypes="ccccccc" />
      <path
         id="path1978"
         style="opacity:0.999;fill:#81522e;fill-opacity:1;stroke:none;stroke-width:0.564999;stroke-linecap:round;stroke-miterlimit:4;stroke-dasharray:none;stroke-opacity:1;paint-order:fill markers stroke"
         transform="rotate(15.937872)"
         d="m 328.66733,-15.001517 h 27.51666 c 0.47686,8.8229414 -0.82656,17.7885463 0.35434,26.562356 v 0.229414 c -0.71526,6.466921 -0.35434,13.012052 -0.35434,19.510312 h -27.51666 z"
         sodipodi:nodetypes="ccccccc" />
      <path
         id="path1980"
         style="opacity:0.999;fill:url(#radialGradient2000);fill-opacity:1;stroke:none;stroke-width:0.245669;stroke-linecap:round;stroke-miterlimit:4;stroke-dasharray:none;stroke-opacity:1;paint-order:fill markers stroke"
         d="m 1242.8438,367.35742 -16.6583,59.03711 47.92,13.51953 c 2.7588,-9.14669 5.7886,-18.19707 9.4043,-27.03515 l 0.2382,-0.83399 c 1.5347,-10.5557 4.0133,-20.91993 6.9102,-31.19726 z"
         transform="scale(0.26458333)" />
      <path
         id="path1982"
         style="opacity:0.999;fill:url(#linearGradient2002);fill-opacity:1;stroke:none;stroke-width:0.0418389;stroke-linecap:round;stroke-miterlimit:4;stroke-dasharray:none;stroke-opacity:1;paint-order:fill markers stroke"
         transform="rotate(15.761775)"
         d="m 328.65234,12.380444 h 29.05081 c 0.11059,0.02821 -0.0103,0.151629 -0.0126,0.386933 0.008,0.145023 0.0841,0.301315 0.0126,0.297727 h -29.04702 z"
         sodipodi:nodetypes="cccccc" />
    </g>
  </g>
</svg>
