<?xml version="1.0" encoding="UTF-8" standalone="no"?>
<svg
   xmlns:dc="http://purl.org/dc/elements/1.1/"
   xmlns:cc="http://creativecommons.org/ns#"
   xmlns:rdf="http://www.w3.org/1999/02/22-rdf-syntax-ns#"
   xmlns:svg="http://www.w3.org/2000/svg"
   xmlns="http://www.w3.org/2000/svg"
   xmlns:xlink="http://www.w3.org/1999/xlink"
   xmlns:sodipodi="http://sodipodi.sourceforge.net/DTD/sodipodi-0.dtd"
   xmlns:inkscape="http://www.inkscape.org/namespaces/inkscape"
   sodipodi:docname="choices.svg"
   inkscape:version="1.0 (4035a4fb49, 2020-05-01)"
   id="svg2658"
   version="1.1"
   viewBox="0 0 194.95872 29.990176"
   height="113.34869"
   width="736.85187">
  <defs
     id="defs2652">
    <linearGradient
       y2="57.96983"
       x2="97.732643"
       y1="57.96983"
       x1="66.314598"
       gradientTransform="matrix(3.2914272,0,0,3.2914272,-131.04909,-64.651351)"
       gradientUnits="userSpaceOnUse"
       id="linearGradient11140"
       xlink:href="#linearGradient1435"
       inkscape:collect="always" />
    <linearGradient
       id="linearGradient1435"
       inkscape:collect="always">
      <stop
         id="stop1431"
         offset="0"
         style="stop-color:#180606;stop-opacity:1;" />
      <stop
         id="stop1433"
         offset="1"
         style="stop-color:#180606;stop-opacity:0;" />
    </linearGradient>
    <linearGradient
       y2="68.633881"
       x2="97.732643"
       y1="68.633881"
       x1="66.314598"
       gradientTransform="matrix(3.2914272,0,0,3.2914272,-131.04909,-99.751301)"
       gradientUnits="userSpaceOnUse"
       id="linearGradient11142"
       xlink:href="#linearGradient1000"
       inkscape:collect="always" />
    <linearGradient
       inkscape:collect="always"
       id="linearGradient1000">
      <stop
         style="stop-color:#e6b200;stop-opacity:1;"
         offset="0"
         id="stop996" />
      <stop
         style="stop-color:#e6b200;stop-opacity:0;"
         offset="1"
         id="stop998" />
    </linearGradient>
    <linearGradient
       y2="57.96983"
       x2="97.732643"
       y1="57.96983"
       x1="66.314598"
       gradientUnits="userSpaceOnUse"
       id="linearGradient11144"
       xlink:href="#linearGradient1915"
       inkscape:collect="always" />
    <linearGradient
       inkscape:collect="always"
       id="linearGradient1915">
      <stop
         style="stop-color:#664d00;stop-opacity:0.10196079"
         offset="0"
         id="stop1911" />
      <stop
         style="stop-color:#261505;stop-opacity:0;"
         offset="1"
         id="stop1913" />
    </linearGradient>
    <clipPath
       id="clipPath1089-6"
       clipPathUnits="userSpaceOnUse">
      <path
         id="path1091-75"
         style="stroke-width:0.00257679"
         d="m 43.260198,48.520964 0.885216,1.914612 0.0011,0.0031 0.86093,1.862936 0.95653,2.06964 -4.903576,3.486094 v 0.314709 l 5.013129,-3.563607 1.168921,2.528528 -1.355989,5.908167 -3.498493,-2.095479 -0.0041,-0.0026 -1.323433,-0.792715 v 0.299206 l 1.133779,0.679027 0.238747,6.714321 h 0.256831 l -0.233061,-6.557225 3.44682,2.064991 0.0026,0.0016 1.596281,0.956016 -1.623668,3.534667 h 0.282665 l 1.116729,-2.431894 0.445969,-0.969965 4.036962,2.418974 0.0031,0.0016 1.638141,0.981337 h 0.499195 l -1.973006,-1.181841 -2.273763,-4.920113 1.133263,-1.069183 3.972885,-3.748609 0.426847,4.84828 0.534334,6.071466 h 0.25784 l -0.53485,-6.071466 -0.446485,-5.073076 1.788004,-1.686716 2.44171,-2.304769 1.124479,2.304769 0.22066,0.452687 -2.160593,6.280753 -5.29e-4,0.0021 -0.0083,0.02429 -2.088245,6.071465 h 0.27182 l 1.936313,-5.629632 1.62936,5.629632 h 0.267684 l -1.719276,-5.937623 2.030884,-0.133842 1.936316,-0.12764 1.226799,-0.08062 -0.939996,2.003496 -0.0021,0.0047 -2.002977,4.271576 h 0.283186 l 1.866037,-3.978569 3.193603,3.978569 h 0.329179 l -0.04599,-0.05736 5.405355,-5.033285 5.405872,5.033285 -0.04599,0.05736 h 0.329179 l 3.193602,-3.978569 1.865522,3.978569 h 0.283702 l -2.003494,-4.271576 -0.0021,-0.0047 -0.939478,-2.003496 1.226286,0.08062 1.936829,0.12764 2.030368,0.133842 -1.718757,5.937623 h 0.267165 l 1.629879,-5.629632 1.936316,5.629632 h 0.271301 l -2.087729,-6.071465 -0.0088,-0.02429 -5.29e-4,-0.0021 -2.160074,-6.280753 0.22066,-0.452687 1.12396,-2.304769 2.442229,2.304769 1.787488,1.686716 -0.446485,5.073076 -0.534334,6.071466 h 0.257866 l 0.534334,-6.071466 0.426847,-4.84828 3.972367,3.748093 v 5.29e-4 h 5.29e-4 l 1.132747,1.069184 -2.273763,4.920115 -1.973524,1.18184 h 0.49971 l 1.638144,-0.981337 0.0026,-0.0016 4.037478,-2.418974 0.445453,0.969967 1.117243,2.431894 h 0.28267 l -1.623674,-3.534669 1.596287,-0.956014 0.0021,-0.0016 3.447337,-2.064991 -0.23306,6.557224 h 0.25683 l 0.23874,-6.714318 1.13378,-0.679029 v -0.299207 l -1.32343,0.792716 -0.004,0.0026 -3.49848,2.095478 -1.355476,-5.908167 1.168405,-2.528527 5.013131,3.563607 v -0.314709 l -4.903575,-3.486095 0.956527,-2.069639 0.860933,-1.862937 0.0016,-0.0031 0.884695,-1.91461 h -0.28268 l -0.737926,1.596284 -1.029393,-1.596284 H 98.34852 l 1.207161,1.872753 -0.781346,1.690854 -4.61677,-1.785422 2.074291,-1.778185 h -0.394291 l -1.774055,1.520836 0.117822,-1.520836 h -0.257347 l -0.127124,1.63866 -3.824058,-1.478981 -0.01601,-0.159679 h -1.108461 l 5.014682,1.939414 0.0036,0.0016 4.799706,1.856219 -0.944128,2.042252 -2.714562,5.873544 -1.830895,-2.940389 v -0.0011 L 91.75922,55.015717 87.715537,48.521025 H 87.41323 l 2.838071,4.558898 1.205093,1.935794 1.719791,2.761592 v 0.0011 l 1.70274,2.734715 -0.455785,0.985988 -1.246436,-1.176155 h -5.29e-4 l -3.988385,-3.764113 -0.0016,-0.0011 -1.634011,-1.542026 -2.698541,-2.546098 1.925979,-3.948594 h -0.285252 l -1.912546,3.920691 -1.255737,2.574001 -0.05323,0.109038 -0.03772,-0.109038 -2.233457,-6.494692 h -0.271803 l 1.494483,4.344953 -7.724077,-4.344953 h -0.523483 l 8.186063,4.604885 -1.357022,0.564308 h -5.29e-4 l -4.564063,1.899108 -4.259169,1.771468 -4.258654,-1.771468 -4.564581,-1.899108 h -5.3e-4 L 61.801298,53.12591 69.987364,48.521025 H 69.46388 l -7.724076,4.344953 1.494483,-4.344953 h -0.271301 l -2.233973,6.494692 -0.03721,0.109038 -0.05323,-0.109038 h -5.3e-4 l -1.25522,-2.574001 -1.912546,-3.920691 h -0.285771 l 1.925981,3.948594 -2.698025,2.546098 -1.634527,1.542026 -0.0016,0.0011 -3.98839,3.764113 -1.246952,1.176155 -0.455782,-0.985988 1.702734,-2.734715 1.719791,-2.762623 1.205096,-1.935798 2.838069,-4.558895 H 56.24861 l -4.043165,6.494693 -1.417486,2.276864 -1.831409,2.941423 -2.714564,-5.873544 -0.944131,-2.042252 4.799192,-1.856219 0.0036,-0.0016 5.015199,-1.939414 h -1.108462 l -0.01601,0.159679 -3.824057,1.478981 -0.127125,-1.63866 h -0.257865 l 0.11834,1.520836 -1.774052,-1.520836 h -0.394293 l 2.073778,1.778185 -4.616257,1.785422 -0.781349,-1.690854 1.206645,-1.872753 h -0.305406 l -1.028879,1.596284 -0.737939,-1.596284 z m 18.325497,4.792988 0.719851,0.299722 0.706935,0.29404 3.302125,7.242971 -2.215886,0.145725 -0.0062,5.29e-4 -1.423686,0.09405 -3.950663,0.259935 2.115116,-6.149496 0.167429,-0.485759 z m 20.793045,0 0.584978,1.701707 0.166915,0.485759 2.115117,6.149494 -3.950663,-0.259935 -1.42317,-0.09405 -0.0062,-5.29e-4 -2.215885,-0.145727 3.301608,-7.242969 0.707451,-0.294039 z m -19.017961,0.738457 4.74028,1.971974 -1.611789,4.890138 z m 17.242877,0 -3.128491,6.862112 -1.612305,-4.890138 z m -12.264885,2.07119 3.643189,1.515155 3.643188,-1.515155 1.649513,5.002279 -3.032374,-0.199988 -2.260327,-2.705259 -2.260328,2.705259 -3.031855,0.199988 z m -20.92017,1.39423 1.404565,3.040126 0.558622,1.207677 0.0026,0.0057 2.152838,4.659146 -3.804417,-2.27893 -1.61489,-0.967383 z m 49.127233,0 1.300181,5.666322 -1.61489,0.967383 -3.80442,2.27893 2.153357,-4.659148 0.0026,-0.0057 0.558106,-1.207677 z m -24.563874,1.103291 1.90686,2.281516 -1.90686,-0.125574 -1.906345,0.125574 z m 0,2.413291 7.794355,0.513665 0.966867,2.061374 -3.194122,3.979601 -5.5671,-5.183664 -5.566585,5.183664 -3.194121,-3.979601 0.966866,-2.061374 z" />
    </clipPath>
    <linearGradient
       y2="68.633881"
       x2="106.5264"
       y1="68.633881"
       x1="69.563995"
       gradientTransform="matrix(2.7977131,0,0,2.7977131,-107.39966,-65.865751)"
       gradientUnits="userSpaceOnUse"
       id="linearGradient11152"
       xlink:href="#linearGradient1104"
       inkscape:collect="always" />
    <linearGradient
       id="linearGradient1104"
       inkscape:collect="always">
      <stop
         id="stop1100"
         offset="0"
         style="stop-color:#603a00;stop-opacity:1" />
      <stop
         id="stop1102"
         offset="1"
         style="stop-color:#e6b200;stop-opacity:0;" />
    </linearGradient>
  </defs>
  <sodipodi:namedview
     inkscape:window-maximized="1"
     inkscape:window-y="-8"
     inkscape:window-x="-8"
     inkscape:window-height="705"
     inkscape:window-width="1366"
     fit-margin-bottom="10"
     fit-margin-right="10"
     fit-margin-left="10"
     lock-margins="true"
     fit-margin-top="10"
     units="px"
     showgrid="false"
     inkscape:document-rotation="0"
     inkscape:current-layer="layer1"
     inkscape:document-units="mm"
     inkscape:cy="139.87861"
     inkscape:cx="386.98936"
     inkscape:zoom="0.33557348"
     inkscape:pageshadow="2"
     inkscape:pageopacity="0.0"
     borderopacity="1.0"
     bordercolor="#666666"
     pagecolor="#ffffff"
     id="base" />
  <metadata
     id="metadata2655">
    <rdf:RDF>
      <cc:Work
         rdf:about="">
        <dc:format>image/svg+xml</dc:format>
        <dc:type
           rdf:resource="http://purl.org/dc/dcmitype/StillImage" />
        <dc:title></dc:title>
      </cc:Work>
    </rdf:RDF>
  </metadata>
  <g
     transform="translate(-3.4423986,-111.15712)"
     id="layer1"
     inkscape:groupmode="layer"
     inkscape:label="Layer 1">
    <path
       inkscape:export-ydpi="96"
       inkscape:export-xdpi="96"
       inkscape:export-filename="D:\Calcatz\Icon Pack\VN Game Orient Express Theme\Visual Novel GUI\png\Evidence\choices.png"
       sodipodi:nodetypes="cccccsc"
       id="path11094"
       d="M 195.31986,114.23838 H 24.073744 c -4.289851,0 -4.02083,4.15657 -10.160661,4.15657 0,4.83432 -7.3895002,7.69736 -7.3895002,7.69736 0,0 7.2356002,2.73877 7.2356002,7.50926 6.23808,0 6.26797,4.46446 10.776411,4.46446 H 195.16596"
       style="fill:url(#linearGradient11140);fill-opacity:1;stroke:url(#linearGradient11142);stroke-width:0.870858px;stroke-linecap:round;stroke-linejoin:round;stroke-opacity:1" />
    <path
       inkscape:export-ydpi="96"
       inkscape:export-xdpi="96"
       inkscape:export-filename="D:\Calcatz\Icon Pack\VN Game Orient Express Theme\Visual Novel GUI\png\Evidence\choices.png"
       clip-path="url(#clipPath1089-6)"
       style="fill:url(#linearGradient11144);fill-opacity:1;stroke:none;stroke-width:0.264583px;stroke-linecap:round;stroke-linejoin:round;stroke-opacity:1"
       d="M 99.157292,54.350173 H 47.129321 c -1.303343,0 -1.221566,1.262848 -3.086962,1.262848 0,1.468763 -2.245064,2.33861 -2.245064,2.33861 0,0 2.198291,0.832091 2.198291,2.28146 1.895284,0 1.904386,1.356394 3.274052,1.356394 h 51.840884"
       id="path11096"
       sodipodi:nodetypes="cccccsc"
       transform="matrix(3.2914272,0,0,3.2914272,-131.04915,-64.651351)" />
    <path
       inkscape:export-ydpi="96"
       inkscape:export-xdpi="96"
       inkscape:export-filename="D:\Calcatz\Icon Pack\VN Game Orient Express Theme\Visual Novel GUI\png\Evidence\choices.png"
       style="fill:none;stroke:url(#linearGradient11152);stroke-width:0.658286;stroke-linecap:round;stroke-linejoin:round;stroke-miterlimit:4;stroke-dasharray:none;stroke-opacity:1"
       d="M 195.28936,116.02546 H 24.454673 c -3.210779,0 -4.77833,3.80522 -9.1263,3.80522 0,3.56845 -5.24676,6.27063 -5.24676,6.27063 0,0 5.11592,2.54565 5.11592,6.05628 4.26844,0 6.470981,4.12136 9.649671,4.12136 H 195.15856"
       id="path11108"
       sodipodi:nodetypes="cccccsc" />
  </g>
</svg>
