<?xml version="1.0" encoding="UTF-8" standalone="no"?>
<svg
   xmlns:dc="http://purl.org/dc/elements/1.1/"
   xmlns:cc="http://creativecommons.org/ns#"
   xmlns:rdf="http://www.w3.org/1999/02/22-rdf-syntax-ns#"
   xmlns:svg="http://www.w3.org/2000/svg"
   xmlns="http://www.w3.org/2000/svg"
   xmlns:xlink="http://www.w3.org/1999/xlink"
   xmlns:sodipodi="http://sodipodi.sourceforge.net/DTD/sodipodi-0.dtd"
   xmlns:inkscape="http://www.inkscape.org/namespaces/inkscape"
   sodipodi:docname="evidence_placeholder_number_2.svg"
   inkscape:version="1.0 (4035a4fb49, 2020-05-01)"
   id="svg1801"
   version="1.1"
   viewBox="0 0 169.69918 159.3894"
   height="602.41663"
   width="641.38275">
  <defs
     id="defs1795">
    <filter
       inkscape:collect="always"
       style="color-interpolation-filters:sRGB"
       id="filter11820"
       x="-0.016487602"
       width="1.0329752"
       y="-0.018152408"
       height="1.0363048">
      <feGaussianBlur
         inkscape:collect="always"
         stdDeviation="1.4296499"
         id="feGaussianBlur11822" />
    </filter>
    <clipPath
       id="clipPath4273-4-6-1-3-7"
       clipPathUnits="userSpaceOnUse">
      <path
         style="fill:#e8cdc4;fill-opacity:1;stroke:none;stroke-width:0.264583px;stroke-linecap:butt;stroke-linejoin:miter;stroke-opacity:1"
         d="m 1027.0233,68.00673 c -0.5918,-6.350027 -1.9643,-11.919355 -2.9573,-17.868188 l 13.1961,-3.472657 -5.4571,19.546094 z"
         id="path4275-2-8-0-2-0"
         sodipodi:nodetypes="ccccc" />
    </clipPath>
    <linearGradient
       y2="56.718391"
       x2="1025.8976"
       y1="56.522816"
       x1="1030.8768"
       gradientUnits="userSpaceOnUse"
       id="linearGradient15515"
       xlink:href="#linearGradient2199"
       inkscape:collect="always" />
    <linearGradient
       inkscape:collect="always"
       id="linearGradient2199">
      <stop
         style="stop-color:#7a5651;stop-opacity:1"
         offset="0"
         id="stop2195" />
      <stop
         style="stop-color:#cbb4b1;stop-opacity:1"
         offset="1"
         id="stop2197" />
    </linearGradient>
    <clipPath
       id="clipPath4023-0-9-3-5-3"
       clipPathUnits="userSpaceOnUse">
      <path
         style="fill:#e8cdc4;fill-opacity:1;stroke:none;stroke-width:0.264583px;stroke-linecap:butt;stroke-linejoin:miter;stroke-opacity:1"
         d="m 1027.0233,68.00673 c -0.5918,-6.350027 -1.9643,-11.919355 -2.9573,-17.868188 l 13.1961,-3.472657 -5.4571,19.546094 z"
         id="path4025-4-6-5-7-3"
         sodipodi:nodetypes="ccccc" />
    </clipPath>
    <filter
       height="1.2558144"
       y="-0.12790722"
       width="1.7696749"
       x="-0.38483748"
       id="filter3823-7-3"
       style="color-interpolation-filters:sRGB"
       inkscape:collect="always">
      <feGaussianBlur
         id="feGaussianBlur3825-5-9"
         stdDeviation="1.2197263"
         inkscape:collect="always" />
    </filter>
    <clipPath
       id="clipPath4029-9-8-1-2-6"
       clipPathUnits="userSpaceOnUse">
      <path
         style="fill:#e8cdc4;fill-opacity:1;stroke:none;stroke-width:0.264583px;stroke-linecap:butt;stroke-linejoin:miter;stroke-opacity:1"
         d="m 1027.0233,68.00673 c -0.5918,-6.350027 -1.9643,-11.919355 -2.9573,-17.868188 l 13.1961,-3.472657 -5.4571,19.546094 z"
         id="path4031-5-8-8-9-8"
         sodipodi:nodetypes="ccccc" />
    </clipPath>
    <filter
       height="1.2514025"
       y="-0.12570126"
       width="1.8125798"
       x="-0.40628985"
       id="filter3987-9-5"
       style="color-interpolation-filters:sRGB"
       inkscape:collect="always">
      <feGaussianBlur
         id="feGaussianBlur3989-1-6"
         stdDeviation="0.56343029"
         inkscape:collect="always" />
    </filter>
    <filter
       height="1.2280282"
       y="-0.1140141"
       width="1.5876319"
       x="-0.29381594"
       id="filter6847"
       style="color-interpolation-filters:sRGB"
       inkscape:collect="always">
      <feGaussianBlur
         id="feGaussianBlur6849"
         stdDeviation="0.92610122"
         inkscape:collect="always" />
    </filter>
    <clipPath
       id="clipPath4256-0-2-1-2-6"
       clipPathUnits="userSpaceOnUse">
      <path
         style="fill:#e8cdc4;fill-opacity:1;stroke:none;stroke-width:0.264583px;stroke-linecap:butt;stroke-linejoin:miter;stroke-opacity:1"
         d="m 1033.852,41.720773 c -4.5213,24.009712 -7.1191,24.710583 -6.8287,26.285957 8.7351,-1.097137 14.9359,0.280633 23.9473,-0.280633 0.9949,-4.391824 3.4279,-13.071319 4.303,-20.018486 -5.4867,-2.903202 -14.174,-4.049969 -21.4216,-5.986838 z"
         id="path4258-1-3-3-6-4"
         sodipodi:nodetypes="ccccc" />
    </clipPath>
    <clipPath
       id="clipPath4264-9-0-1-4-5"
       clipPathUnits="userSpaceOnUse">
      <path
         style="fill:#e8cdc4;fill-opacity:1;stroke:none;stroke-width:0.264583px;stroke-linecap:butt;stroke-linejoin:miter;stroke-opacity:1"
         d="m 1033.852,41.720773 c -4.5213,24.009712 -7.1191,24.710583 -6.8287,26.285957 8.7351,-1.097137 14.9359,0.280633 23.9473,-0.280633 0.9949,-4.391824 3.4279,-13.071319 4.303,-20.018486 -5.4867,-2.903202 -14.174,-4.049969 -21.4216,-5.986838 z"
         id="path4266-9-8-8-5-8"
         sodipodi:nodetypes="ccccc" />
    </clipPath>
    <linearGradient
       y2="55.285011"
       x2="1039.4358"
       y1="52.315968"
       x1="1031.286"
       gradientUnits="userSpaceOnUse"
       id="linearGradient15517"
       xlink:href="#linearGradient2199"
       inkscape:collect="always" />
    <clipPath
       id="clipPath4013-6-2-5-0-1"
       clipPathUnits="userSpaceOnUse">
      <path
         style="fill:#e8cdc4;fill-opacity:1;stroke:none;stroke-width:0.264583px;stroke-linecap:butt;stroke-linejoin:miter;stroke-opacity:1"
         d="m 1033.852,41.720773 c -4.5213,24.009712 -7.1191,24.710583 -6.8287,26.285957 l 23.9473,-0.280633 c 0.9949,-4.391824 3.4279,-13.071319 4.303,-20.018486 -5.4867,-2.903202 -14.174,-4.049969 -21.4216,-5.986838 z"
         id="path4015-5-1-6-8-5"
         sodipodi:nodetypes="ccccc" />
    </clipPath>
    <filter
       height="1.1787961"
       y="-0.089398026"
       width="1.3929187"
       x="-0.19645932"
       id="filter4003-6-2"
       style="color-interpolation-filters:sRGB"
       inkscape:collect="always">
      <feGaussianBlur
         id="feGaussianBlur4005-2-9"
         stdDeviation="0.9495125"
         inkscape:collect="always" />
    </filter>
    <clipPath
       id="clipPath4072-3-0-7-8-2"
       clipPathUnits="userSpaceOnUse">
      <path
         style="fill:#e8cdc4;fill-opacity:1;stroke:none;stroke-width:0.264583px;stroke-linecap:butt;stroke-linejoin:miter;stroke-opacity:1"
         d="m 1033.852,41.720773 c -4.5213,24.009712 -7.1191,24.710583 -6.8287,26.285957 8.7351,-1.097137 14.9359,0.280633 23.9473,-0.280633 0.9949,-4.391824 3.4279,-13.071319 4.303,-20.018486 -5.4867,-2.903202 -14.174,-4.049969 -21.4216,-5.986838 z"
         id="path4074-7-0-4-2-1"
         sodipodi:nodetypes="ccccc" />
    </clipPath>
    <filter
       height="1.5295378"
       y="-0.2647689"
       width="1.0764892"
       x="-0.038244613"
       id="filter3663-4-6"
       style="color-interpolation-filters:sRGB"
       inkscape:collect="always">
      <feGaussianBlur
         id="feGaussianBlur3665-4-9"
         stdDeviation="0.42036886"
         inkscape:collect="always" />
    </filter>
    <clipPath
       id="clipPath4248-4-0-8-0-3"
       clipPathUnits="userSpaceOnUse">
      <path
         style="fill:#e8cdc4;fill-opacity:1;stroke:none;stroke-width:0.264583px;stroke-linecap:butt;stroke-linejoin:miter;stroke-opacity:1"
         d="m 1033.852,41.720773 c -4.5213,24.009712 -7.1191,24.710583 -6.8287,26.285957 8.7351,-1.097137 14.9359,0.280633 23.9473,-0.280633 0.9949,-4.391824 3.4279,-13.071319 4.303,-20.018486 -5.4867,-2.903202 -14.174,-4.049969 -21.4216,-5.986838 z"
         id="path4250-2-9-0-2-0"
         sodipodi:nodetypes="ccccc" />
    </clipPath>
    <filter
       height="1.7333705"
       y="-0.36668524"
       width="1.278257"
       x="-0.13912852"
       id="filter4242-5-6"
       style="color-interpolation-filters:sRGB"
       inkscape:collect="always">
      <feGaussianBlur
         id="feGaussianBlur4244-5-8"
         stdDeviation="1.1925227"
         inkscape:collect="always" />
    </filter>
    <linearGradient
       y2="62.005154"
       x2="971.64014"
       y1="53.500656"
       x1="964.3067"
       gradientUnits="userSpaceOnUse"
       id="linearGradient15519"
       xlink:href="#linearGradient2199"
       inkscape:collect="always" />
    <clipPath
       clipPathUnits="userSpaceOnUse"
       id="clipPath7482-0">
      <path
         style="fill:#d2dee6;fill-opacity:1;stroke:none;stroke-width:0.44858px;stroke-linecap:butt;stroke-linejoin:miter;stroke-opacity:1"
         d="m 938.42796,46.653648 c 3.35156,41.286119 -0.5829,43.594848 0.59699,46.041072 13.79336,-5.703386 24.55002,-6.225422 39.03503,-11.176164 -0.33855,-7.627125 -0.24432,-22.909403 -1.92233,-34.66164 -10.2716,-2.29206 -24.99103,-0.279476 -37.70969,-0.203268 z"
         id="path7484-4"
         sodipodi:nodetypes="ccccc" />
    </clipPath>
    <filter
       inkscape:collect="always"
       style="color-interpolation-filters:sRGB"
       id="filter7476"
       x="-0.077692926"
       width="1.1553859"
       y="-0.22362058"
       height="1.4472412">
      <feGaussianBlur
         inkscape:collect="always"
         stdDeviation="1.2047067"
         id="feGaussianBlur7478" />
    </filter>
    <filter
       inkscape:collect="always"
       style="color-interpolation-filters:sRGB"
       id="filter11816"
       x="-0.012078114"
       width="1.0241562"
       y="-0.03653726"
       height="1.0730745">
      <feGaussianBlur
         inkscape:collect="always"
         stdDeviation="0.1833333"
         id="feGaussianBlur11818" />
    </filter>
    <filter
       inkscape:collect="always"
       style="color-interpolation-filters:sRGB"
       id="filter11808"
       x="-0.011606363"
       width="1.0232127"
       y="-0.033805359"
       height="1.0676107">
      <feGaussianBlur
         inkscape:collect="always"
         stdDeviation="0.077748804"
         id="feGaussianBlur11810" />
    </filter>
  </defs>
  <sodipodi:namedview
     inkscape:window-maximized="1"
     inkscape:window-y="-8"
     inkscape:window-x="-8"
     inkscape:window-height="705"
     inkscape:window-width="1366"
     fit-margin-bottom="10"
     fit-margin-right="10"
     fit-margin-left="10"
     lock-margins="true"
     fit-margin-top="10"
     units="px"
     showgrid="false"
     inkscape:document-rotation="0"
     inkscape:current-layer="layer1"
     inkscape:document-units="mm"
     inkscape:cy="-17.883748"
     inkscape:cx="336.27479"
     inkscape:zoom="0.33557348"
     inkscape:pageshadow="2"
     inkscape:pageopacity="0.0"
     borderopacity="1.0"
     bordercolor="#666666"
     pagecolor="#ffffff"
     id="base" />
  <metadata
     id="metadata1798">
    <rdf:RDF>
      <cc:Work
         rdf:about="">
        <dc:format>image/svg+xml</dc:format>
        <dc:type
           rdf:resource="http://purl.org/dc/dcmitype/StillImage" />
        <dc:title></dc:title>
      </cc:Work>
    </rdf:RDF>
  </metadata>
  <g
     transform="translate(-16.860628,-152.89841)"
     id="layer1"
     inkscape:groupmode="layer"
     inkscape:label="Layer 1">
    <path
       inkscape:export-ydpi="96"
       inkscape:export-xdpi="96"
       inkscape:export-filename="D:\Calcatz\Icon Pack\VN Game Orient Express Theme\Visual Novel GUI\png\Evidence\evidence_placeholder_number_2.png"
       id="path15157"
       style="fill:#000000;fill-opacity:1;stroke:none;stroke-width:1.69542px;stroke-linecap:butt;stroke-linejoin:miter;stroke-opacity:1;filter:url(#filter11820)"
       d="m 955.59961,624.36328 c -6.29382,13.27636 -12.14805,25.30704 -17.5918,36.21875 l -56.75,0.0449 c -3.48186,38.0921 -4.06348,74.49039 -10.52929,114.32617 -0.0909,0.40112 -0.16173,0.80726 -0.19336,1.23243 55.92535,7.40283 92.11817,26.02377 148.88474,37.19726 13.3076,-25.60349 42.5006,-75.44342 59.2207,-117.08008 -29.2868,-26.91569 -81.26863,-48.15005 -123.04099,-71.93945 z"
       transform="matrix(0.72571401,1.0456602e-8,-1.0456602e-8,0.72571401,-609.35016,-286.30446)" />
    <path
       inkscape:export-ydpi="96"
       inkscape:export-xdpi="96"
       inkscape:export-filename="D:\Calcatz\Icon Pack\VN Game Orient Express Theme\Visual Novel GUI\png\Evidence\evidence_placeholder_number_2.png"
       sodipodi:nodetypes="ccccc"
       id="path15159"
       d="m 19.506505,276.98421 c 4.83103,-29.26127 5.229154,-55.93212 7.782146,-83.86221 l 63.454865,-0.049 -47.610727,81.48064 z"
       style="fill:#cbb4b1;fill-opacity:1;stroke:none;stroke-width:1.23039px;stroke-linecap:butt;stroke-linejoin:miter;stroke-opacity:1" />
    <path
       inkscape:export-ydpi="96"
       inkscape:export-xdpi="96"
       inkscape:export-filename="D:\Calcatz\Icon Pack\VN Game Orient Express Theme\Visual Novel GUI\png\Evidence\evidence_placeholder_number_2.png"
       transform="matrix(4.4980844,1.1799917,-1.1799917,4.4980844,-4519.8837,-1240.7948)"
       clip-path="url(#clipPath4273-4-6-1-3-7)"
       id="path15161"
       d="m 1023.0476,49.85913 0.5613,2.478924 11.9269,-3.133736 -0.8419,-3.507911 z"
       style="fill:#ffffff;fill-opacity:0.254902;stroke:none;stroke-width:0.264583px;stroke-linecap:butt;stroke-linejoin:miter;stroke-opacity:1" />
    <path
       inkscape:export-ydpi="96"
       inkscape:export-xdpi="96"
       inkscape:export-filename="D:\Calcatz\Icon Pack\VN Game Orient Express Theme\Visual Novel GUI\png\Evidence\evidence_placeholder_number_2.png"
       style="fill:none;stroke:#b7693c;stroke-width:0.725713px;stroke-linecap:butt;stroke-linejoin:miter;stroke-opacity:1"
       d="m 26.767637,202.73471 c 12.290495,0.54195 26.214676,-0.0122 39.467497,-0.11581"
       id="path15163"
       sodipodi:nodetypes="cc" />
    <path
       inkscape:export-ydpi="96"
       inkscape:export-xdpi="96"
       inkscape:export-filename="D:\Calcatz\Icon Pack\VN Game Orient Express Theme\Visual Novel GUI\png\Evidence\evidence_placeholder_number_2.png"
       transform="matrix(4.4980844,1.1799917,-1.1799917,4.4980844,-4519.8837,-1240.7948)"
       clip-path="url(#clipPath4023-0-9-3-5-3)"
       sodipodi:nodetypes="ccccc"
       id="path15165"
       d="m 1031.0507,47.494044 c 0.8495,7.372415 -2.9376,14.357595 -4.5335,21.16533 l 3.2188,-2.757392 4.3879,-20.129066 z"
       style="fill:url(#linearGradient15515);fill-opacity:1;stroke:none;stroke-width:0.264583px;stroke-linecap:butt;stroke-linejoin:miter;stroke-opacity:1;filter:url(#filter3823-7-3)" />
    <path
       inkscape:export-ydpi="96"
       inkscape:export-xdpi="96"
       inkscape:export-filename="D:\Calcatz\Icon Pack\VN Game Orient Express Theme\Visual Novel GUI\png\Evidence\evidence_placeholder_number_2.png"
       transform="matrix(4.4980844,1.1799917,-1.1799917,4.4980844,-4519.8837,-1240.7948)"
       clip-path="url(#clipPath4029-9-8-1-2-6)"
       sodipodi:nodetypes="ccccc"
       id="path15167"
       d="m 1026.8579,68.833552 c -0.1946,-1.491219 0.5695,-3.478532 1.1476,-4.969751 0.5717,-3.787492 1.4176,-4.575203 2.7254,-5.767657 l -1.6564,7.243599 z"
       style="fill:#ac8b84;fill-opacity:1;stroke:none;stroke-width:0.264583px;stroke-linecap:butt;stroke-linejoin:miter;stroke-opacity:1;filter:url(#filter3987-9-5)" />
    <path
       inkscape:export-ydpi="96"
       inkscape:export-xdpi="96"
       inkscape:export-filename="D:\Calcatz\Icon Pack\VN Game Orient Express Theme\Visual Novel GUI\png\Evidence\evidence_placeholder_number_2.png"
       transform="matrix(2.3752657,1.3716313,-1.3716313,2.3752657,-2083.7843,-1231.1864)"
       sodipodi:nodetypes="ccccc"
       style="fill:#000000;fill-opacity:1;stroke:none;stroke-width:0.264583px;stroke-linecap:butt;stroke-linejoin:miter;stroke-opacity:1;filter:url(#filter6847)"
       d="m 972.95013,65.140685 -0.622,14.304886 5.68684,1.512554 c 0.46504,-2.144085 -1.15496,-12.042648 -1.71169,-17.046941 z"
       id="path15169" />
    <path
       inkscape:export-ydpi="96"
       inkscape:export-xdpi="96"
       inkscape:export-filename="D:\Calcatz\Icon Pack\VN Game Orient Express Theme\Visual Novel GUI\png\Evidence\evidence_placeholder_number_2.png"
       sodipodi:nodetypes="ccccc"
       id="path15171"
       d="m 81.239811,166.80557 c -48.66846,102.66261 -61.180598,102.74982 -61.733306,110.17864 40.585811,5.37233 66.851803,18.88654 108.048115,26.9953 9.65749,-18.58081 30.8429,-54.75103 42.97692,-84.96734 -21.25389,-19.5331 -58.97694,-34.9423 -89.291729,-52.2066 z"
       style="fill:#cbb4b1;fill-opacity:1;stroke:none;stroke-width:1.23039px;stroke-linecap:butt;stroke-linejoin:miter;stroke-opacity:1" />
    <path
       inkscape:export-ydpi="96"
       inkscape:export-xdpi="96"
       inkscape:export-filename="D:\Calcatz\Icon Pack\VN Game Orient Express Theme\Visual Novel GUI\png\Evidence\evidence_placeholder_number_2.png"
       transform="matrix(4.4980844,1.1799917,-1.1799917,4.4980844,-4519.8837,-1240.7948)"
       clip-path="url(#clipPath4256-0-2-1-2-6)"
       sodipodi:nodetypes="ccccc"
       id="path15173"
       d="m 1032.338,43.32552 c 7.6509,2.23153 16.9105,3.021361 24.044,6.779948 l 0.43,-4.067969 -23.6141,-6.151562 z"
       style="fill:#ffffff;fill-opacity:0.254902;stroke:none;stroke-width:0.264583px;stroke-linecap:butt;stroke-linejoin:miter;stroke-opacity:1" />
    <path
       inkscape:export-ydpi="96"
       inkscape:export-xdpi="96"
       inkscape:export-filename="D:\Calcatz\Icon Pack\VN Game Orient Express Theme\Visual Novel GUI\png\Evidence\evidence_placeholder_number_2.png"
       transform="matrix(4.4980844,1.1799917,-1.1799917,4.4980844,-4519.8837,-1240.7948)"
       clip-path="url(#clipPath4264-9-0-1-4-5)"
       sodipodi:nodetypes="ccccc"
       id="path15175"
       d="m 1056.7703,46.772165 -3.9756,22.918364 -4.2539,-0.415276 c 1.7597,-7.94958 4.5954,-15.627874 5.3297,-24.046569 z"
       style="fill:#ffffff;fill-opacity:0.254902;stroke:none;stroke-width:0.264583px;stroke-linecap:butt;stroke-linejoin:miter;stroke-opacity:1" />
    <path
       inkscape:export-ydpi="96"
       inkscape:export-xdpi="96"
       inkscape:export-filename="D:\Calcatz\Icon Pack\VN Game Orient Express Theme\Visual Novel GUI\png\Evidence\evidence_placeholder_number_2.png"
       style="fill:none;stroke:#b7693c;stroke-width:0.725713px;stroke-linecap:butt;stroke-linejoin:miter;stroke-opacity:1"
       d="m 77.87494,175.63383 c 26.03142,15.07624 54.05408,25.30194 83.15408,45.90075 -12.24016,28.19683 -28.39976,53.25171 -43.1354,80.3231"
       id="path15177"
       sodipodi:nodetypes="ccc" />
    <path
       inkscape:export-ydpi="96"
       inkscape:export-xdpi="96"
       inkscape:export-filename="D:\Calcatz\Icon Pack\VN Game Orient Express Theme\Visual Novel GUI\png\Evidence\evidence_placeholder_number_2.png"
       transform="matrix(4.4980844,1.1799917,-1.1799917,4.4980844,-4519.8837,-1240.7948)"
       clip-path="url(#clipPath4013-6-2-5-0-1)"
       sodipodi:nodetypes="cccc"
       id="path15179"
       d="m 1035.8329,43.784569 c -1.2684,8.387592 -2.7249,14.243625 -6.0969,22.117414 9.4487,-5.728761 11.4774,-14.736747 12.7246,-20.380589 z"
       style="fill:url(#linearGradient15517);fill-opacity:1;stroke:none;stroke-width:0.264583px;stroke-linecap:butt;stroke-linejoin:miter;stroke-opacity:1;filter:url(#filter4003-6-2)" />
    <path
       inkscape:export-ydpi="96"
       inkscape:export-xdpi="96"
       inkscape:export-filename="D:\Calcatz\Icon Pack\VN Game Orient Express Theme\Visual Novel GUI\png\Evidence\evidence_placeholder_number_2.png"
       transform="matrix(4.4980844,1.1799917,-1.1799917,4.4980844,-4519.8837,-1240.7948)"
       clip-path="url(#clipPath4072-3-0-7-8-2)"
       sodipodi:nodetypes="cccc"
       id="path15181"
       d="m 1026.7818,68.847251 c 2.9229,-6.409034 12.3553,-0.123711 25.3923,-2.750815 l -0.5215,3.025959 z"
       style="fill:#bf9f99;fill-opacity:1;stroke:none;stroke-width:0.264583px;stroke-linecap:butt;stroke-linejoin:miter;stroke-opacity:1;filter:url(#filter3663-4-6)" />
    <path
       inkscape:export-ydpi="96"
       inkscape:export-xdpi="96"
       inkscape:export-filename="D:\Calcatz\Icon Pack\VN Game Orient Express Theme\Visual Novel GUI\png\Evidence\evidence_placeholder_number_2.png"
       transform="matrix(4.4980844,1.1799917,-1.1799917,4.4980844,-4519.8837,-1240.7948)"
       clip-path="url(#clipPath4248-4-0-8-0-3)"
       sodipodi:nodetypes="cccc"
       id="path15183"
       d="m 1034.3886,64.822916 c 9.9609,-1.356725 15.9338,-5.364602 20.7599,-8.537317 l -1.7762,8.8019 z"
       style="fill:#dec3c1;fill-opacity:1;stroke:none;stroke-width:0.264583px;stroke-linecap:butt;stroke-linejoin:miter;stroke-opacity:1;filter:url(#filter4242-5-6)" />
    <path
       inkscape:export-ydpi="96"
       inkscape:export-xdpi="96"
       inkscape:export-filename="D:\Calcatz\Icon Pack\VN Game Orient Express Theme\Visual Novel GUI\png\Evidence\evidence_placeholder_number_2.png"
       transform="matrix(2.3752657,1.3716313,-1.3716313,2.3752657,-2083.7843,-1231.1864)"
       style="fill:url(#linearGradient15519);fill-opacity:1;stroke:none;stroke-width:0.264583px;stroke-linecap:butt;stroke-linejoin:miter;stroke-opacity:1;filter:url(#filter7476)"
       d="M 973.59736,49.385786 954.63061,77.327181 974.20826,59.391552 Z"
       id="path15185"
       sodipodi:nodetypes="cccc"
       clip-path="url(#clipPath7482-0)" />
    <path
       inkscape:export-ydpi="96"
       inkscape:export-xdpi="96"
       inkscape:export-filename="D:\Calcatz\Icon Pack\VN Game Orient Express Theme\Visual Novel GUI\png\Evidence\evidence_placeholder_number_2.png"
       d="m 408.38423,287.73087 c -0.11551,-0.0196 0.026,0.24149 -0.016,0.35062 -0.011,0.0396 -0.043,-0.0836 -0.084,-0.0912 -0.1607,-0.0312 -0.039,0.25463 -0.1263,-0.0875 -0.4242,0.32278 -0.1333,0.22896 -0.3162,0.15143 -0.036,-0.0151 -0.084,-0.006 -0.1142,-0.031 -0.067,-0.0557 -0.078,-0.2015 -0.1652,-0.20237 -0.014,-8.2e-4 0.031,0.37487 -5.3e-4,0.10748 -0.019,0.0331 -0.015,0.0915 -0.054,0.10078 -0.073,0.0197 -0.3872,-0.0424 -0.4639,-0.0647 -0.1035,-0.0304 1.10982,0.45228 1.00392,0.43218 -0.1341,-0.0256 -0.2826,0.023 -0.4084,-0.03 -0.084,-0.0352 -0.1121,-0.14211 -0.1683,-0.21308 -0.077,0.0196 -0.2068,-0.0168 -0.2314,0.0592 -0.02,0.0727 -0.034,0.16835 -0.039,0.27232 0.151,0.22158 0.1008,0.43738 8e-4,0.60873 v 0.0254 c -2.1e-4,5.1e-4 -0.01,-0.002 -0.012,-0.001 0,-0.009 0,-0.0164 0.016,-0.022 0,-0.20056 -0.012,-0.41928 -8e-4,-0.60872 -0.017,-0.025 -0.039,-0.0496 -0.062,-0.0749 -0.061,0.22384 -0.16859,0.46337 -0.2232,0.67753 -0.03,-0.003 -0.064,-0.007 -0.095,-0.0108 -0.017,-0.17735 -0.04,-0.37008 -0.05,-0.53345 -0.1499,-0.11371 -0.2208,-0.91256 -0.3364,-1.0651 -0.2774,0.1964 -0.1978,0.25534 -0.4648,0.0398 -0.021,-0.0171 -0.014,-0.0729 -0.041,-0.0702 -0.064,0.005 -0.10559,0.094 -0.1692,0.0883 -1.3931,-0.12524 0.3584,-0.182 -0.7089,-0.12436 -0.7101,0.42999 -0.028,0.15269 -0.4226,0.0333 -0.16379,-0.0491 -0.3144,0.15091 -0.4689,0.12556 -0.09,-0.0144 -0.1368,-0.13197 -0.2245,-0.15883 -0.1195,-0.0369 -0.2494,-0.0164 -0.3742,-0.0243 -0.4412,0.17843 -0.046,0.0884 -0.6551,-0.13362 -0.078,-0.0287 -0.1661,-0.004 -0.2482,-0.0163 -0.1652,-0.0229 -0.318,-0.0924 -0.4856,-0.1002 -0.153,0.0138 -0.308,0.0127 -0.4591,0.0404 -0.1361,0.0246 -0.2608,0.11881 -0.3991,0.11497 -0.1534,-0.004 -0.2924,-0.0926 -0.43879,-0.13891 -0.037,-0.0421 -0.056,-0.12381 -0.11261,-0.12702 -0.1973,-0.0117 -0.3682,0.18163 -0.5722,0.15394 -0.083,-0.0816 -0.1371,-0.21119 -0.2486,-0.24461 -0.1716,-0.0512 -0.3584,0.0165 -0.53739,0.009 -0.12531,-0.004 -0.24891,-0.0273 -0.37301,-0.0452 -0.13649,-0.0198 -0.27469,-0.10179 -0.40849,-0.068 -0.19481,0.0493 -0.2565,0.38103 -0.20301,0.14752 -0.067,0.079 -0.1013,0.21053 -0.2018,0.23706 -0.1372,0.0363 -0.27909,-0.0542 -0.4199,-0.0725 -0.19,-0.0246 -0.3802,-0.0556 -0.5718,-0.0568 -0.4525,-0.004 -0.8515,0.12529 -1.301,-0.009 -0.097,-0.0286 -0.1513,-0.13233 -0.2271,-0.19863 -0.3388,0.18899 -0.415,0.37803 -0.7517,0.0732 -0.1207,-0.10941 -0.1229,-0.35619 -0.2794,-0.40128 -0.19819,-0.0575 -0.3949,0.14802 -0.6012,0.14767 -0.1378,-1.6e-4 -0.2512,-0.11671 -0.3851,-0.14917 -0.1128,-0.0278 -0.232,-0.0191 -0.3478,-0.0285 -0.057,-0.002 -0.1153,-0.0185 -0.1726,-0.009 -0.195,0.0276 -0.4374,0.15398 -0.6467,0.0731 -0.095,-0.0365 -0.1451,-0.14626 -0.2348,-0.19377 -0.2763,-0.14624 -0.3131,-0.12876 -0.5538,-0.13257 -0.3551,0.26846 -0.061,0.0726 -0.066,-0.0129 0,-0.0321 -0.085,0.0212 -0.096,-0.009 -0.023,-0.0588 0.074,-0.21474 0.015,-0.1902 -0.7214,0.30355 -0.033,0.6472 -0.8196,-0.0349 -0.2415,0.84306 0.115,0.0475 -0.4694,0.16399 -0.1286,0.0257 -0.1445,0.22063 -0.2295,0.32035 -0.066,0.0766 -0.1552,0.28246 -0.2213,0.20583 -0.1002,-0.11666 0.1459,-0.4072 0,-0.46134 -0.1566,-0.0589 -0.26,0.21032 -0.39,0.31552 -0.087,-0.0951 -0.1364,-0.25906 -0.263,-0.28518 -0.1775,-0.0367 -0.3509,0.0917 -0.5297,0.12163 -0.1226,0.0204 -0.2479,0.0395 -0.3717,0.029 -0.2531,-0.0214 -0.3814,-0.20259 -0.66147,-0.14627 -0.12475,0.025 -0.21495,0.1361 -0.32241,0.20429 -0.0905,-0.0481 -0.1809,-0.0962 -0.27132,-0.1442 -0.0896,-0.0477 -0.19527,-0.14511 -0.30836,-0.0666 -0.0551,0.0384 -0.0589,0.13543 -0.12104,0.16156 -0.12187,0.0515 -0.0297,-0.86519 -0.39647,-0.0157 -0.4476,-0.42094 -0.0472,-0.15689 -0.76943,-0.2385 -0.0847,-0.009 -0.15481,-0.10167 -0.23882,-0.0892 -0.0866,0.0134 -0.1248,0.14498 -0.21231,0.15639 -0.33618,0.0442 -0.0779,-0.23094 -0.23486,-0.0345 -0.0572,0.027 -0.11566,0.10788 -0.173,0.0807 -0.29858,-0.14203 0.13776,-0.26414 -0.24008,-0.31335 -0.12702,-0.0167 -0.26092,-0.002 -0.38215,0.0398 -0.0903,0.0307 -0.1386,0.19915 -0.22931,0.16964 -0.0877,-0.0282 -0.12053,-0.12959 -0.15957,-0.22202 -0.0323,0.0649 -0.16944,0.0922 -0.21737,0.0836 -0.0937,-0.0174 -0.17562,-0.092 -0.27079,-0.0917 -1.30923,0.007 0.10237,0.21122 -0.94152,0.0256 -0.10604,-0.0322 -0.21064,-0.0699 -0.31791,-0.0979 -0.0418,-0.0106 -0.0865,-0.0299 -0.12801,-0.0178 -0.0975,0.0281 -0.18165,0.17607 -0.2738,0.13363 -0.10625,-0.049 -0.0234,-0.29551 -0.13716,-0.32302 -0.12316,-0.0296 -0.20985,0.14223 -0.31464,0.21344 -0.11273,-0.034 -0.22562,-0.0671 -0.33835,-0.1011 -0.1522,-0.0782 -0.34934,-0.22526 -0.54392,-0.1471 -0.0846,0.0338 -0.13724,0.1567 -0.2042,0.21599 -0.0484,-0.006 -0.0965,-0.0117 -0.14466,-0.0177 -0.0312,-0.0796 0.0146,-0.23111 -0.0434,-0.30617 -0.0112,-0.0144 -0.42952,-0.0589 -0.43075,-0.0589 -0.1642,-0.0399 -0.32807,-0.0806 -0.4922,-0.12068 -0.099,0.0862 -0.16567,0.26718 -0.29664,0.25852 -0.15111,-0.0103 -0.20614,-0.23225 -0.34122,-0.30088 -0.0544,-0.0277 -0.20721,-0.0183 -0.17959,0.0364 0.0223,0.0441 0.0457,0.0771 0.0691,0.10514 -0.0322,0.0741 -0.11129,0.16043 -0.34415,0.11617 -0.0382,-0.007 -0.0807,-0.018 -0.12746,-0.0329 -0.25238,-0.0809 -0.36083,-0.40915 -0.60195,-0.51927 -0.33852,-0.15464 -0.71975,0.14416 -1.04611,0.10433 -0.0621,-0.008 -0.0514,-0.11405 -0.0772,-0.17101 -0.046,0.05 -0.0701,0.14504 -0.13785,0.14987 -0.058,0.005 -0.065,-0.0998 -0.11303,-0.13231 -0.0976,-0.0659 -0.19847,-0.16041 -0.31619,-0.15734 -0.15999,0.004 -0.28669,0.16748 -0.4464,0.17739 -0.4258,0.0264 -0.54778,-0.23578 -0.80155,-0.50495 -0.0967,-0.04 -0.24293,0.20012 -0.32288,0.42929 -0.0782,-0.0142 -0.14475,-0.0247 -0.22443,-0.0394 l -0.62902,8.93838 c 0.0733,0.0139 0.13394,0.0246 0.20596,0.0374 0.007,0.0309 0.0197,0.0535 0.0421,0.0628 0.0784,0.005 0.26677,0.013 0.45347,0.0271 0.18692,0.0339 0.37627,0.0682 0.55577,0.10006 0.0892,0.0581 0.14396,0.1655 0.22785,0.23406 0.0364,0.0297 0.0891,0.0327 0.12701,0.0611 0.17681,0.12979 0.32996,-0.0229 0.45458,0.15874 0.34719,-0.26147 0.50945,-0.49316 0.89233,-0.50451 0.12562,0.0207 0.25875,0.0433 0.38145,0.063 0.10814,0.0402 0.21294,0.0941 0.31659,0.14386 0.10446,0.0501 0.19344,0.1276 0.29079,0.19043 0.0809,0.0521 0.15097,0.12736 0.24324,0.15412 0.0385,0.0114 0.0721,-0.0353 0.10812,-0.0528 -0.014,0.0814 -0.1161,0.21269 -0.0399,0.24464 0.78643,0.32995 0.12549,0.013 0.59114,0.0725 0.72006,0.0921 -0.0116,-0.96171 0.50793,-0.99056 0.0499,0.0621 0.0833,0.14272 0.14984,0.18667 0.22455,0.14827 0.43404,0.008 0.66699,-0.0398 0.10501,-0.0211 0.2134,-0.0219 0.31784,-0.0458 0.0942,-0.0213 0.18661,-0.1263 0.27575,-0.0892 0.12598,0.0524 0.17563,0.20893 0.26349,0.31328 0.13351,-0.0663 0.15292,-0.0944 0.35025,-0.0474 0.0734,0.017 0.12542,0.0946 0.20006,0.1063 0.0835,0.0136 0.16682,-0.0343 0.25139,-0.0368 0.42456,-0.013 0.33991,-0.003 0.70617,0.16091 0.46523,-0.30873 0.14237,0.0964 0.60538,0.23958 0.0908,0.028 0.20265,0.0222 0.27065,0.0884 0.058,0.057 -0.007,0.19234 0.0627,0.23702 0.0466,0.0303 0.0524,-0.1306 0.10721,-0.12623 0.0984,0.008 0.16876,0.10342 0.25298,0.15514 0.80334,-0.43719 -0.66911,0.29102 0.43077,0.0974 0.0893,-0.0155 0.0243,-0.19075 0.0869,-0.25624 0.0922,-0.098 0.24123,-0.0485 0.31951,0.0211 0.045,0.0401 0.0745,0.095 0.11238,0.14261 0.10606,-0.0275 0.21528,-0.11987 0.31827,-0.0825 0.10148,0.0372 0.0914,0.21295 0.18592,0.2654 0.0648,0.036 0.14544,-0.0297 0.21862,-0.0409 0.0769,-0.0121 0.15576,-0.0148 0.23277,-0.0279 0.0719,-0.0126 0.14045,-0.044 0.21324,-0.0497 0.10726,-0.008 0.21485,0.005 0.32243,0.008 0.41884,0.19689 0.17956,0.14454 0.73104,0.0839 0.0664,-0.008 0.1462,0.0178 0.20045,-0.022 0.0455,-0.0336 -0.003,-0.14361 0.0545,-0.16087 0.13245,-0.0455 0.3824,0.25943 0.41729,0.29401 0.10664,-0.10151 0.17861,-0.25992 0.31878,-0.30447 0.0738,-0.0233 0.57225,0.10261 0.69412,0.13728 0.0914,0.0261 0.18242,0.15674 0.27759,0.15684 0.071,-5.3e-4 0.1277,-0.10635 0.1954,-0.0854 0.1147,0.0356 0.1841,0.15444 0.2764,0.23152 0.2221,-0.13266 0.34644,-0.30574 0.39564,-0.34158 0.01,0.002 0.014,8.2e-4 0.019,0.001 -0.023,0.0458 -0.023,0.13072 0.3019,0.14543 0.096,0.005 0.1856,-0.0613 0.2777,-0.0931 0.063,0.006 0.1417,0.0134 0.2054,0.0182 0.1003,0.0565 0.1853,0.16143 0.299,0.17677 0.088,0.0113 0.1716,-0.0577 0.2451,-0.12737 0.026,0.002 0.055,0.004 0.081,0.008 0.044,0.0356 0.079,0.0931 0.1328,0.10373 0.083,0.0164 0.1645,-0.0455 0.2487,-0.0454 0.39149,3.7e-4 0.3058,0.0221 0.5202,0.32335 0.039,-0.0286 0.078,-0.0568 0.1158,-0.0858 0.23119,0.1221 0.21469,0.14276 0.5342,0.0151 0.09,-0.0357 0.16779,-0.0993 0.25139,-0.1475 0.2623,0.0243 0.46481,0.0411 0.7381,0.0667 0.07,0.0319 0.14081,0.0637 0.21121,0.0956 0.12589,0.0176 0.26159,10e-4 0.37779,0.0527 0.089,0.0393 0.1113,0.18283 0.20551,0.20567 0.60199,0.14591 0.29693,-0.18508 0.53023,-0.28209 0.14349,0.0134 0.30429,0.0288 0.45069,0.0427 0.054,0.0556 0.1011,0.13048 0.1578,0.18077 0.5982,0.13006 0.9624,0.0992 1.611,0.0314 0.1735,-0.0181 0.3431,-0.0694 0.5154,-0.094 0.248,0.0237 0.4979,0.0487 0.7536,0.0733 0.1682,0.0354 0.3345,0.0718 0.4648,0.0892 0.071,0.0101 0.1424,0.002 0.2135,0.002 0.019,-0.0123 0.014,-0.01 0.032,-0.0211 0.3638,0.0362 0.7462,0.0735 1.1257,0.11147 0.046,0.0413 0.091,0.083 0.1368,0.1244 0.062,-0.0306 0.1243,-0.0614 0.1867,-0.0921 0.575,0.0569 1.1389,0.11387 1.7508,0.17554 0.01,0.021 0.015,0.021 0.03,0.003 0.5662,0.0572 0.78377,-0.1422 1.38287,-0.0805 0.04,0.0335 0.085,0.0643 0.1092,0.0815 -0.05,-0.0417 -0.06,-0.0524 -0.091,-0.0794 0.3598,0.0368 0.7017,0.0717 1.0739,0.10992 0.044,0.0311 0.09,0.0565 0.1431,0.0607 0.04,0.004 0.074,-0.0128 0.107,-0.0347 0.1332,0.0139 0.2468,0.0246 0.3815,0.0392 0.01,0.004 0.02,0.003 0.028,0.004 0.084,0.009 0.1516,0.0158 0.2355,0.0235 v 0.0183 c 0.019,-0.003 0.036,-0.008 0.055,-0.011 0.3764,0.0398 0.8168,0.0871 1.2056,0.1282 0.022,0.002 0.046,0.004 0.067,0.007 0,0.008 0,0.0201 0.01,0.0293 0,-0.006 0.019,-0.0178 0.028,-0.0256 0.01,7.1e-4 0.02,0.002 0.03,0.003 -0.045,0.0247 -0.063,0.032 -0.058,0.0245 0.019,0.0512 0.051,0.0981 0.099,0.13911 0.11931,0.10148 0.1648,0.0198 0.1824,-0.13989 0.092,0.01 0.18991,0.0202 0.2826,0.03 0.3974,0.20761 0.1717,0.14062 0.2318,0.0245 0.3058,0.0324 0.6132,0.0652 0.9265,0.098 0.031,0.0252 0.071,0.0268 0.11671,0.0124 0.15549,0.0165 -1.00863,-0.50628 -0.85123,-0.48928 0.012,0.0371 0.027,0.0707 0.059,0.0901 0.041,0.0251 0.028,-0.0236 1e-4,-0.0836 0.2612,0.028 0.493,0.0523 0.7594,0.0809 0,0.10845 -0.067,0.15304 0.2874,0.15055 0.046,-6.1e-4 0.053,-0.0736 0.079,-0.11205 0.049,0.005 0.1407,0.0153 0.1407,0.0153 l 0.8435,-7.21719 c -0.01,-0.002 -0.015,-10e-4 -0.024,-0.003 0.047,-0.36478 -0.033,-0.93027 -0.21081,-0.92145 -0.017,0.0117 -0.047,0.0215 -0.068,0.0327 0.01,-0.0296 0.026,-0.0577 0.033,-0.0839 0.035,-0.24656 -0.028,-0.0336 -0.2542,0.27505 -0.044,-0.0393 -0.099,-0.069 -0.1328,-0.11783 -0.083,-0.12203 -0.068,-0.36437 -0.2138,-0.38847 z m -2.28269,8.60856 c -2e-4,-6.6e-4 -5.2e-4,-9.8e-4 5.3e-4,-0.002 -7.9e-4,0.003 -1e-4,2.4e-4 -5.3e-4,0.002 z m -22.53549,-10.37464 c 0.002,-0.004 0.0118,-0.005 0.003,-0.0124 0.008,-0.0305 -0.0355,-0.0521 -0.0533,-0.078 0.0176,0.0266 0.0319,0.0575 0.0451,0.0891 z m 23.20649,2.57954 c 0.014,0.011 0.027,0.0209 0.043,0.0297 0.07,0.0407 0.089,-0.13552 0.1411,-0.19686 0.015,-0.0176 0.039,-0.0517 0.059,-0.0805 -0.027,-0.0218 -0.05,-0.0439 -0.083,-0.0656 -0.15299,-0.10202 -0.17499,0.0677 -0.1605,0.31324 z m 0.24301,-0.24768 c 0.048,0.0378 0.09,0.0758 0.12389,0.11361 0.024,-0.0872 0.037,-0.17435 0.035,-0.25509 0,-0.0801 -0.087,0.042 -0.1582,0.14147 z m 2.01267,-0.26387 c 0.011,-0.003 0.013,-0.004 0.015,0.005 0,0.0527 -0.059,0.17257 -0.091,0.13059 -0.02,-0.0263 -0.016,-0.0593 0,-0.0936 0.02,0.007 0.058,-0.0315 0.081,-0.0421 z m -3.48278,0.19903 c 0.011,-10e-4 0.016,-0.002 0.025,0.004 0.043,0.0228 0.052,0.068 0.051,0.11933 -0.045,-0.004 -0.093,-0.01 -0.1377,-0.0141 0.015,-0.0564 0.038,-0.10079 0.061,-0.10885 z m -4.9916,-0.45374 c 0.052,9.8e-4 0.093,0.0307 0.1319,0.0678 -0.1016,-0.01 -0.1694,-0.0164 -0.27,-0.0263 0.043,-0.0246 0.088,-0.0421 0.13801,-0.0413 z m -1.3499,-0.091 c 0.033,0.003 0.061,0.0125 0.088,0.0221 -0.048,-0.006 -0.087,-0.008 -0.1342,-0.0131 0.015,-0.005 0.03,-0.0102 0.046,-0.009 z m -21.10044,-2.15705 c 0.13133,0.0785 0.20856,0.004 0.0757,0.11213 -0.014,-7.4e-4 -0.0275,-0.004 -0.0416,-0.005 -0.0197,-0.0585 -0.0232,-0.0709 -0.0343,-0.10658 z m 11.88704,9.57266 c 0,-1.7e-4 10e-5,-2.5e-4 10e-5,-5e-4 -0.032,0.022 -0.063,0.0453 -0.09,0.0723 -0.03,0.0288 0.032,-0.0391 0.087,-0.0727 z"
       style="opacity:1;fill:#000000;fill-opacity:0.698039;stroke:none;stroke-width:0.33478;stroke-linecap:round;stroke-miterlimit:4;stroke-dasharray:none;stroke-opacity:1;paint-order:fill markers stroke;filter:url(#filter11816)"
       id="path15277"
       sodipodi:nodetypes="ccccccccccccccccccccccccccccccccccccccccccccccccccccccccccccccccccccccccccccccccccccccccccccsccccccscccsscccscccccsccccccccsccccsccccscsccscccccccccccccccscccccccccccccccccccccsccccccccscccscccccccccccccccccccccccccccccccccccccccccccccccccccccccccccscccccccccccsccccccccccccccsccsscccccccccc"
       transform="matrix(2.742856,0,0,2.742856,-965.44521,-621.2461)" />
    <path
       inkscape:export-ydpi="96"
       inkscape:export-xdpi="96"
       inkscape:export-filename="D:\Calcatz\Icon Pack\VN Game Orient Express Theme\Visual Novel GUI\png\Evidence\evidence_placeholder_number_2.png"
       id="path15279"
       style="opacity:1;fill:#f8eeca;fill-opacity:1;stroke:none;stroke-width:0.918252;stroke-linecap:round;stroke-miterlimit:4;stroke-dasharray:none;stroke-opacity:1;paint-order:fill markers stroke"
       d="m 155.38326,167.80076 c -0.3169,-0.0538 0.071,0.66237 -0.044,0.9617 -0.03,0.10862 -0.118,-0.2293 -0.2304,-0.25015 -0.4408,-0.0856 -0.107,0.69842 -0.3465,-0.24 -1.1635,0.88534 -0.3656,0.62801 -0.8673,0.41535 -0.099,-0.0414 -0.2304,-0.0165 -0.3132,-0.085 -0.1838,-0.15278 -0.2139,-0.55269 -0.4531,-0.55508 -0.038,-0.002 0.085,1.02822 0,0.29481 -0.052,0.0908 -0.041,0.25097 -0.1481,0.27642 -0.2002,0.054 -1.0621,-0.1163 -1.2724,-0.17746 -0.2839,-0.0834 -0.5481,-0.23479 -0.8385,-0.28992 -0.3678,-0.0702 -0.7752,0.0631 -1.1202,-0.0823 -0.2304,-0.0965 -0.3075,-0.38978 -0.4616,-0.58444 -0.2112,0.0538 -0.5672,-0.0461 -0.6347,0.16237 -0.055,0.19941 -0.093,0.46176 -0.107,0.74694 0.4142,0.60776 0.2765,1.19967 0,1.66966 0,0.0219 0,0.0494 0,0.0697 -5.3e-4,10e-4 -0.027,-0.005 -0.033,-0.003 0,-0.0247 0,-0.045 0.044,-0.0603 0,-0.55011 -0.033,-1.15003 0,-1.66963 -0.047,-0.0686 -0.107,-0.13605 -0.1701,-0.20544 -0.1673,0.61396 -0.4624,1.27095 -0.6122,1.85836 -0.082,-0.008 -0.1755,-0.0192 -0.2605,-0.0296 -0.047,-0.48644 -0.1097,-1.01507 -0.1372,-1.46318 -0.4111,-0.31189 -0.6056,-0.87017 -0.9227,-1.28856 -0.7608,0.5387 -0.5425,0.70036 -1.2748,0.10916 -0.058,-0.0469 -0.038,-0.19995 -0.1125,-0.19254 -0.1755,0.0137 -0.2896,0.25782 -0.4641,0.24219 -3.8211,-0.34352 0.983,-0.4992 -1.9444,-0.3411 -1.9477,1.1794 -0.077,0.41881 -1.1591,0.0913 -0.4493,-0.13468 -0.8624,0.41392 -1.2862,0.34439 -0.2468,-0.0395 -0.3752,-0.36198 -0.6157,-0.43565 -0.3278,-0.10121 -0.6841,-0.045 -1.0264,-0.0666 -1.2102,0.48941 -0.1262,0.24247 -1.7969,-0.3665 -0.2139,-0.0787 -0.4555,-0.011 -0.6807,-0.0447 -0.4532,-0.0628 -0.8723,-0.25344 -1.332,-0.27483 -0.4196,0.0378 -0.8448,0.0348 -1.2592,0.11081 -0.3733,0.0675 -0.7153,0.32588 -1.0947,0.31534 -0.4207,-0.011 -0.802,-0.25398 -1.2035,-0.38101 -0.1015,-0.11547 -0.1536,-0.33959 -0.3089,-0.34839 -0.5412,-0.0321 -1.0099,0.49818 -1.5695,0.42223 -0.2276,-0.22382 -0.376,-0.57926 -0.6818,-0.67093 -0.4707,-0.14043 -0.9831,0.0453 -1.474,0.0247 -0.3437,-0.011 -0.6827,-0.0749 -1.0231,-0.12398 -0.3744,-0.0543 -0.7535,-0.2792 -1.1205,-0.18651 -0.5343,0.13522 -0.7035,1.04511 -0.5568,0.40462 -0.1838,0.21669 -0.2778,0.57746 -0.5535,0.65022 -0.3763,0.0996 -0.7655,-0.14866 -1.1517,-0.19885 -0.5212,-0.0675 -1.0428,-0.15251 -1.5684,-0.1558 -1.2411,-0.011 -2.3355,0.34365 -3.5684,-0.0247 -0.2661,-0.0785 -0.415,-0.36297 -0.6229,-0.54482 -0.9293,0.51837 -1.1383,1.03688 -2.0618,0.20078 -0.3311,-0.3001 -0.3371,-0.97698 -0.7664,-1.10065 -0.5436,-0.15772 -1.0832,0.40599 -1.649,0.40503 -0.378,-4.3e-4 -0.689,-0.32011 -1.0563,-0.40915 -0.3094,-0.0762 -0.6363,-0.0524 -0.954,-0.0782 -0.1563,-0.005 -0.3162,-0.0507 -0.4734,-0.0247 -0.5348,0.0757 -1.1997,0.42235 -1.7738,0.20051 -0.2606,-0.10012 -0.398,-0.40117 -0.644,-0.53149 -0.7579,-0.40111 -0.8588,-0.35317 -1.519,-0.36362 -0.974,0.73635 -0.1673,0.19914 -0.181,-0.0354 0,-0.088 -0.2332,0.0582 -0.2634,-0.0247 -0.063,-0.16128 0.203,-0.58901 0.041,-0.5217 -1.9787,0.8326 -0.091,1.77518 -2.248,-0.0957 -0.6624,2.31239 0.3154,0.13028 -1.2875,0.4498 -0.3527,0.0705 -0.3963,0.60516 -0.6295,0.87867 -0.181,0.21011 -0.4257,0.77475 -0.607,0.56457 -0.2748,-0.31999 0.4002,-1.1169 0,-1.26539 -0.4295,-0.16156 -0.7131,0.57687 -1.069697,0.86542 -0.238601,-0.26084 -0.374099,-0.71056 -0.721399,-0.78221 -0.486802,-0.10066 -0.962401,0.25152 -1.452902,0.33362 -0.3362,0.0559 -0.679899,0.10834 -1.0195,0.0795 -0.694201,-0.0587 -1.046099,-0.55567 -1.814301,-0.4012 -0.342199,0.0686 -0.589597,0.37331 -0.884298,0.56034 -0.248201,-0.13193 -0.4962,-0.26386 -0.744202,-0.39552 -0.245798,-0.13083 -0.535598,-0.39801 -0.845798,-0.18267 -0.151101,0.10532 -0.1615,0.37146 -0.332,0.44313 -0.334301,0.14126 -0.082,-2.37309 -1.087501,-0.0431 -1.227701,-1.15458 -0.129399,-0.43033 -2.110398,-0.65417 -0.232302,-0.0247 -0.424601,-0.27887 -0.655003,-0.24466 -0.237598,0.0368 -0.342299,0.39766 -0.582398,0.42895 -0.922099,0.12124 -0.213601,-0.63343 -0.6442,-0.0946 -0.1568,0.0741 -0.317201,0.2959 -0.474501,0.22135 -0.818898,-0.38957 0.377899,-0.7245 -0.6585,-0.85947 -0.348401,-0.0458 -0.7156,-0.005 -1.0482,0.10916 -0.2476,0.0842 -0.3801,0.54624 -0.628898,0.4653 -0.240602,-0.0774 -0.330603,-0.35545 -0.437701,-0.60897 -0.089,0.17801 -0.464801,0.25289 -0.596201,0.22931 -0.257001,-0.0477 -0.481701,-0.25235 -0.742799,-0.25152 -3.590999,0.0192 0.280799,0.57934 -2.5824,0.0702 -0.290901,-0.0883 -0.5778,-0.19172 -0.872,-0.26852 -0.114602,-0.0291 -0.237202,-0.082 -0.3511,-0.0488 -0.267401,0.0771 -0.4982,0.48294 -0.751001,0.36653 -0.291399,-0.1344 -0.064,-0.81054 -0.376201,-0.886 -0.337798,-0.0812 -0.575598,0.39012 -0.862999,0.58544 -0.3092,-0.0933 -0.6189,-0.18405 -0.9281,-0.2773 -0.417399,-0.21449 -0.958199,-0.61786 -1.491901,-0.40348 -0.232,0.0927 -0.376399,0.42981 -0.559998,0.59243 -0.1328,-0.0165 -0.2647,-0.0321 -0.396801,-0.0486 -0.086,-0.21833 0.04,-0.6339 -0.1191,-0.83978 -0.031,-0.0395 -1.178099,-0.16155 -1.181499,-0.16155 -0.4503,-0.10944 -0.899801,-0.22107 -1.35,-0.33101 -0.271502,0.23644 -0.4544,0.73284 -0.813601,0.70908 -0.414499,-0.0282 -0.565399,-0.63702 -0.935901,-0.82527 -0.149299,-0.076 -0.568399,-0.0502 -0.492598,0.0998 0.061,0.12096 0.125299,0.21148 0.1895,0.28839 -0.088,0.20324 -0.3053,0.44003 -0.944002,0.31864 -0.104698,-0.0192 -0.2213,-0.0494 -0.349599,-0.0902 -0.6922,-0.2219 -0.9897,-1.12224 -1.651,-1.42429 -0.9285,-0.42415 -1.974199,0.39541 -2.869401,0.28616 -0.170299,-0.0219 -0.140899,-0.31282 -0.211698,-0.46905 -0.126201,0.13714 -0.1923,0.39782 -0.378101,0.41107 -0.159099,0.0137 -0.1783,-0.27374 -0.309999,-0.36291 -0.2677,-0.18075 -0.544401,-0.43998 -0.867301,-0.43156 -0.438801,0.011 -0.7863,0.45938 -1.224399,0.48656 -1.1679,0.0724 -1.5025,-0.64671 -2.1985,-1.38501 -0.2653,-0.10971 -0.666401,0.5489 -0.885701,1.17748 -0.214399,-0.0389 -0.396999,-0.0677 -0.6155,-0.10807 l -2.313699,21.42865 c 0.201099,0.0381 0.367398,0.0675 0.564999,0.10258 0.019,0.0848 0.054,0.14675 0.115401,0.17225 0.215098,0.0137 0.7317,0.0357 1.243798,0.0743 0.512702,0.093 1.0321,0.18706 1.524402,0.27445 0.2447,0.15936 0.394899,0.45394 0.624999,0.64199 0.1,0.0815 0.244401,0.0897 0.3483,0.16759 0.485,0.35599 0.723699,0.84428 1.065401,1.34254 0.952399,-0.71717 1.397399,-1.35266 2.447599,-1.38379 0.344599,0.0568 0.7097,0.11876 1.0462,0.1728 0.296701,0.11026 0.584099,0.2581 0.868399,0.39458 0.286502,0.13742 0.530601,0.34999 0.7976,0.52232 0.221901,0.14291 0.414102,0.34933 0.667202,0.42273 0.105598,0.0313 0.1977,-0.0968 0.2965,-0.14482 -0.038,0.22327 -0.318402,0.58338 -0.109402,0.67101 2.1571,0.90501 1.306401,-0.73407 2.583601,-0.57073 1.975,0.25262 -0.224399,0.31282 1.2007,0.23369 0.136901,0.17033 0.228499,0.39146 0.411001,0.51201 0.6159,0.40668 1.190498,0.0219 1.829498,-0.10917 0.288002,-0.0579 0.585301,-0.0601 0.8718,-0.12562 0.258302,-0.0584 0.511802,-0.34642 0.756301,-0.24466 0.345601,0.14372 0.4817,0.57306 0.722701,0.85928 0.366199,-0.18185 0.4195,-0.25893 0.9607,-0.13001 0.2013,0.0466 0.344,0.25947 0.5487,0.29156 0.229098,0.0373 0.4576,-0.0941 0.6896,-0.10093 1.1645,-0.0357 0.932299,-0.008 1.936898,0.44135 1.276101,-0.8468 0.662601,-0.8242 1.932601,-0.43145 0.2491,0.0768 0.5558,0.0609 0.7424,0.24247 0.159001,0.15634 -0.019,0.52756 0.1719,0.65011 0.127899,0.0831 0.143801,-0.35822 0.2941,-0.34623 0.269902,0.0219 0.462899,0.28367 0.693899,0.42553 2.203402,-1.19915 -1.835298,0.79822 1.181502,0.26715 0.244999,-0.0425 0.067,-0.5232 0.2384,-0.70283 0.2529,-0.2688 0.661599,-0.13303 0.876398,0.0579 0.123402,0.10999 0.204301,0.26058 0.3082,0.39116 0.290902,-0.0754 0.590503,-0.32878 0.873001,-0.22628 0.278299,0.10203 0.2507,0.58409 0.509899,0.72795 0.1778,0.0987 0.398902,-0.0815 0.599702,-0.11218 0.2109,-0.0332 0.427199,-0.0406 0.6384,-0.0765 0.1972,-0.0346 0.385199,-0.12068 0.584899,-0.13632 0.294201,-0.0219 0.589301,0.0137 0.884401,0.022 1.1488,0.54001 0.492498,0.39642 2.0051,0.23012 0.1821,-0.0219 0.401,0.0488 0.549799,-0.0603 0.124801,-0.0922 -0.01,-0.3939 0.1495,-0.44124 0.3633,-0.1248 1.048901,0.71157 1.144601,0.80642 0.292499,-0.27842 0.4899,-0.71292 0.8743,-0.83511 0.202499,-0.0639 1.569601,0.28144 1.903899,0.37653 0.250701,0.0716 0.484899,0.23562 0.7458,0.23589 0.194802,-0.001 0.3503,-0.2917 0.536,-0.23424 0.314601,0.0976 0.5049,0.42361 0.7581,0.63503 0.609201,-0.36387 0.904899,-0.56646 1.0398,-0.66476 0.027,0.005 0.038,0.002 0.052,0.003 -0.063,0.12562 -0.063,0.35855 0.828098,0.39889 0.2633,0.0137 0.509101,-0.16813 0.761701,-0.25536 0.1728,0.0165 0.388602,0.0368 0.563399,0.0499 0.2751,0.15498 0.5082,0.44278 0.8201,0.48486 0.2414,0.031 0.4707,-0.15826 0.6723,-0.34936 0.071,0.005 0.1508,0.011 0.2221,0.0219 0.1207,0.0976 0.2167,0.25536 0.3643,0.28452 0.2276,0.045 0.4512,-0.1248 0.6821,-0.12452 1.0738,0.001 0.8388,0.0606 1.4269,0.8869 0.1069,-0.0784 0.2139,-0.1558 0.3176,-0.23534 0.6341,0.3349 0.5888,0.39157 1.4652,0.0414 0.2469,-0.0979 0.4602,-0.27237 0.6895,-0.40457 0.7195,0.0666 1.2749,0.11273 2.0245,0.18294 0.192,0.0875 0.3863,0.17472 0.5794,0.26222 0.3453,0.0483 0.7175,0.003 1.0362,0.14455 0.2441,0.10779 0.3053,0.50148 0.5637,0.56412 1.6511,0.40021 0.7691,-0.37157 1.409,-0.63766 0.3935,0.0368 0.8346,0.079 1.2362,0.11712 0.1481,0.15251 0.2773,0.35789 0.4328,0.49583 1.6408,0.35674 1.3585,0.42352 3.1376,0.23753 0.4758,-0.0496 0.941,-0.19035 1.4136,-0.25783 0.6803,0.065 1.3657,0.13358 2.067,0.20105 0.4614,0.0971 0.9175,0.19694 1.2749,0.24467 0.1948,0.0277 0.3906,0.005 0.5856,0.005 0.052,-0.0337 0.038,-0.0274 0.088,-0.0579 0.9979,0.0993 2.0467,0.2016 3.0877,0.30575 0.1261,0.11328 0.2496,0.22765 0.3752,0.34121 0.17,-0.0839 0.3409,-0.16841 0.5121,-0.25262 1.5771,0.15607 3.1238,0.31233 4.8022,0.48148 0.027,0.0576 0.041,0.0576 0.082,0.008 1.553,0.15689 3.2651,0.33331 4.9083,0.50241 0.1097,0.0919 0.2332,0.17636 0.2995,0.22354 -0.1371,-0.11438 -0.1645,-0.14373 -0.2496,-0.21778 0.9869,0.10093 1.9247,0.19666 2.9456,0.30149 0.1207,0.0853 0.2468,0.15497 0.3925,0.16649 0.1097,0.011 0.203,-0.0351 0.2935,-0.0952 0.3653,0.0381 0.6769,0.0675 1.0464,0.10752 0.027,0.011 0.055,0.008 0.077,0.011 0.2304,0.0247 0.4158,0.0433 0.6459,0.0645 0,0.0304 0,0.0499 0,0.0502 0.052,-0.008 0.099,-0.0219 0.1509,-0.0302 1.0324,0.10916 2.2403,0.2389 3.3068,0.35163 0.06,0.005 0.1261,0.011 0.1837,0.0192 0,0.022 0,0.0551 0.027,0.0804 0,-0.0165 0.052,-0.0488 0.077,-0.0702 0.027,0.002 0.055,0.005 0.082,0.008 -0.1234,0.0677 -0.1728,0.0878 -0.1591,0.0672 0.052,0.14043 0.1399,0.26907 0.2716,0.38156 0.3272,0.27834 0.452,0.0543 0.5003,-0.3837 0.2523,0.0274 0.5209,0.0554 0.7751,0.0823 1.09,0.56944 0.471,0.3857 0.6358,0.0672 0.8388,0.0889 1.6819,0.17883 2.5413,0.2688 0.085,0.0691 0.1947,0.0735 0.3201,0.034 0.4265,0.0453 0.8255,0.0867 1.2573,0.13329 0.033,0.10176 0.074,0.19393 0.1618,0.24713 0.1125,0.0688 0.077,-0.0647 2.7e-4,-0.22929 0.7164,0.0768 1.3522,0.14344 2.0829,0.2219 0,0.29745 -0.1838,0.41975 0.7883,0.41293 0.1262,-0.002 0.1454,-0.20188 0.2167,-0.30734 0.1344,0.0137 0.2496,0.0274 0.3859,0.042 l 2.3136,-21.42856 c -0.027,-0.005 -0.041,-0.003 -0.066,-0.008 0.1289,-1.00054 -0.091,-2.5516 -0.5782,-2.52741 -0.047,0.0321 -0.1289,0.059 -0.1865,0.0897 0.027,-0.0812 0.071,-0.15827 0.091,-0.23013 0.096,-0.67628 -0.077,-0.0922 -0.6973,0.75442 -0.1207,-0.10779 -0.2715,-0.18925 -0.3642,-0.32319 -0.2277,-0.33471 -0.1865,-0.99941 -0.5864,-1.06552 z m -9.8532,23.76957 c -5.3e-4,-0.002 0,-0.003 0.001,-0.005 0,0.008 -2.7e-4,5.3e-4 -0.001,0.005 z M 83.718464,163.11418 c 0,-0.011 0.032,-0.0137 0.01,-0.034 0.02199,-0.0837 -0.097,-0.1429 -0.146201,-0.21394 0.048,0.073 0.088,0.15771 0.123701,0.24438 z m 63.651996,5.44246 c 0.038,0.0302 0.074,0.0573 0.118,0.0815 0.192,0.11164 0.2441,-0.37171 0.387,-0.53996 0.041,-0.0483 0.107,-0.1418 0.1618,-0.2208 -0.074,-0.0598 -0.1371,-0.12041 -0.2276,-0.17993 -0.4197,-0.27983 -0.48,0.18569 -0.4403,0.85917 z m 0.6666,-0.67935 c 0.1316,0.10368 0.2468,0.20791 0.3398,0.31161 0.066,-0.23917 0.1015,-0.47821 0.096,-0.69967 0,-0.2197 -0.2387,0.1152 -0.4339,0.38803 z m 9.1125,0.75157 c 0.03,-0.008 0.036,-0.011 0.041,0.0137 0,0.14455 -0.1618,0.47334 -0.2496,0.35819 -0.055,-0.0721 -0.044,-0.16265 0,-0.25673 0.055,0.0192 0.1591,-0.0864 0.2222,-0.11547 z m -13.1448,0.70343 c 0.03,-0.003 0.044,-0.005 0.069,0.011 0.1179,0.0625 0.1426,0.18652 0.1398,0.32731 -0.1234,-0.011 -0.255,-0.0274 -0.3776,-0.0387 0.041,-0.15469 0.1042,-0.27645 0.1673,-0.29856 z m -13.6913,-1.24454 c 0.1427,0.003 0.2551,0.0842 0.3618,0.18596 -0.2787,-0.0274 -0.4646,-0.045 -0.7406,-0.0721 0.118,-0.0675 0.2414,-0.11548 0.3786,-0.11328 z m -3.7026,-0.2496 c 0.091,0.008 0.1674,0.0343 0.2414,0.0606 -0.1316,-0.0164 -0.2386,-0.0219 -0.3681,-0.0359 0.041,-0.0137 0.082,-0.028 0.1262,-0.0247 z m -57.875497,-5.91648 c 0.360299,0.21531 0.572098,0.011 0.207698,0.30756 -0.038,-0.002 -0.075,-0.011 -0.114099,-0.0137 -0.054,-0.16046 -0.064,-0.19447 -0.094,-0.29233 z m 32.815697,25.24569 c 0,-5.3e-4 2.7e-4,-8e-4 2.7e-4,-0.001 -0.088,0.0603 -0.1728,0.12425 -0.2469,0.19831 -0.082,0.079 0.088,-0.10725 0.2386,-0.19941 z" />
    <path
       inkscape:export-ydpi="96"
       inkscape:export-xdpi="96"
       inkscape:export-filename="D:\Calcatz\Icon Pack\VN Game Orient Express Theme\Visual Novel GUI\png\Evidence\evidence_placeholder_number_2.png"
       transform="matrix(2.742856,0,0,2.742856,-860.28389,-208.00448)"
       id="path15285"
       d="m 373.83651,138.83191 6.67419,-3.00621 -6.81302,-1.68672 -6.58151,-0.82682 -2.68261,0.6548 2.84797,1.09806 -1.05852,2.62903 z"
       style="fill:#050201;fill-opacity:0.64;stroke:none;stroke-width:0.264583px;stroke-linecap:butt;stroke-linejoin:miter;stroke-opacity:1;filter:url(#filter11808)" />
    <path
       inkscape:export-ydpi="96"
       inkscape:export-xdpi="96"
       inkscape:export-filename="D:\Calcatz\Icon Pack\VN Game Orient Express Theme\Visual Novel GUI\png\Evidence\evidence_placeholder_number_2.png"
       sodipodi:nodetypes="cccc"
       id="path15287"
       d="m 145.70647,155.54424 -6.40158,3.90336 8.90021,0.25673 z"
       style="fill:#8c804d;fill-opacity:1;stroke:none;stroke-width:0.725713px;stroke-linecap:butt;stroke-linejoin:miter;stroke-opacity:1" />
    <path
       inkscape:export-ydpi="96"
       inkscape:export-xdpi="96"
       inkscape:export-filename="D:\Calcatz\Icon Pack\VN Game Orient Express Theme\Visual Novel GUI\png\Evidence\evidence_placeholder_number_2.png"
       sodipodi:nodetypes="ccccc"
       id="path15289"
       d="m 139.96457,173.37958 5.7419,-17.83534 h 26.14992 l -6.76059,17.24722 z"
       style="fill:#cfb74c;fill-opacity:1;stroke:none;stroke-width:0.725713px;stroke-linecap:butt;stroke-linejoin:miter;stroke-opacity:1" />
  </g>
</svg>
