<?xml version="1.0" encoding="UTF-8" standalone="no"?>
<svg
   xmlns:dc="http://purl.org/dc/elements/1.1/"
   xmlns:cc="http://creativecommons.org/ns#"
   xmlns:rdf="http://www.w3.org/1999/02/22-rdf-syntax-ns#"
   xmlns:svg="http://www.w3.org/2000/svg"
   xmlns="http://www.w3.org/2000/svg"
   xmlns:xlink="http://www.w3.org/1999/xlink"
   xmlns:sodipodi="http://sodipodi.sourceforge.net/DTD/sodipodi-0.dtd"
   xmlns:inkscape="http://www.inkscape.org/namespaces/inkscape"
   inkscape:export-ydpi="96"
   inkscape:export-xdpi="96"
   inkscape:export-filename="D:\Calcatz\Icon Pack\VN Game Orient Express Theme\Visual Novel GUI\png\Evidence\evidence_placeholder_number_3.png"
   sodipodi:docname="evidence_placeholder_number_3.svg"
   inkscape:version="1.0 (4035a4fb49, 2020-05-01)"
   id="svg1959"
   version="1.1"
   viewBox="0 0 171.07303 174.40217"
   height="659.15778"
   width="646.57526">
  <defs
     id="defs1953">
    <filter
       inkscape:collect="always"
       style="color-interpolation-filters:sRGB"
       id="filter11860"
       x="-0.016794194"
       width="1.0335884"
       y="-0.018419197"
       height="1.0368384">
      <feGaussianBlur
         inkscape:collect="always"
         stdDeviation="0.37127605"
         id="feGaussianBlur11862" />
    </filter>
    <clipPath
       id="clipPath4273-4-6-1-3-7"
       clipPathUnits="userSpaceOnUse">
      <path
         style="fill:#e8cdc4;fill-opacity:1;stroke:none;stroke-width:0.264583px;stroke-linecap:butt;stroke-linejoin:miter;stroke-opacity:1"
         d="m 1027.0233,68.00673 c -0.5918,-6.350027 -1.9643,-11.919355 -2.9573,-17.868188 l 13.1961,-3.472657 -5.4571,19.546094 z"
         id="path4275-2-8-0-2-0"
         sodipodi:nodetypes="ccccc" />
    </clipPath>
    <linearGradient
       y2="56.718391"
       x2="1025.8976"
       y1="56.522816"
       x1="1030.8768"
       gradientUnits="userSpaceOnUse"
       id="linearGradient15497"
       xlink:href="#linearGradient2199"
       inkscape:collect="always" />
    <linearGradient
       inkscape:collect="always"
       id="linearGradient2199">
      <stop
         style="stop-color:#7a5651;stop-opacity:1"
         offset="0"
         id="stop2195" />
      <stop
         style="stop-color:#cbb4b1;stop-opacity:1"
         offset="1"
         id="stop2197" />
    </linearGradient>
    <clipPath
       id="clipPath4023-0-9-3-5-3"
       clipPathUnits="userSpaceOnUse">
      <path
         style="fill:#e8cdc4;fill-opacity:1;stroke:none;stroke-width:0.264583px;stroke-linecap:butt;stroke-linejoin:miter;stroke-opacity:1"
         d="m 1027.0233,68.00673 c -0.5918,-6.350027 -1.9643,-11.919355 -2.9573,-17.868188 l 13.1961,-3.472657 -5.4571,19.546094 z"
         id="path4025-4-6-5-7-3"
         sodipodi:nodetypes="ccccc" />
    </clipPath>
    <filter
       height="1.2558144"
       y="-0.12790722"
       width="1.7696749"
       x="-0.38483748"
       id="filter3823-7-3"
       style="color-interpolation-filters:sRGB"
       inkscape:collect="always">
      <feGaussianBlur
         id="feGaussianBlur3825-5-9"
         stdDeviation="1.2197263"
         inkscape:collect="always" />
    </filter>
    <clipPath
       id="clipPath4029-9-8-1-2-6"
       clipPathUnits="userSpaceOnUse">
      <path
         style="fill:#e8cdc4;fill-opacity:1;stroke:none;stroke-width:0.264583px;stroke-linecap:butt;stroke-linejoin:miter;stroke-opacity:1"
         d="m 1027.0233,68.00673 c -0.5918,-6.350027 -1.9643,-11.919355 -2.9573,-17.868188 l 13.1961,-3.472657 -5.4571,19.546094 z"
         id="path4031-5-8-8-9-8"
         sodipodi:nodetypes="ccccc" />
    </clipPath>
    <filter
       height="1.2514025"
       y="-0.12570126"
       width="1.8125798"
       x="-0.40628985"
       id="filter3987-9-5"
       style="color-interpolation-filters:sRGB"
       inkscape:collect="always">
      <feGaussianBlur
         id="feGaussianBlur3989-1-6"
         stdDeviation="0.56343029"
         inkscape:collect="always" />
    </filter>
    <filter
       height="1.2280282"
       y="-0.1140141"
       width="1.5876319"
       x="-0.29381594"
       id="filter6847"
       style="color-interpolation-filters:sRGB"
       inkscape:collect="always">
      <feGaussianBlur
         id="feGaussianBlur6849"
         stdDeviation="0.92610122"
         inkscape:collect="always" />
    </filter>
    <clipPath
       id="clipPath4256-0-2-1-2-6"
       clipPathUnits="userSpaceOnUse">
      <path
         style="fill:#e8cdc4;fill-opacity:1;stroke:none;stroke-width:0.264583px;stroke-linecap:butt;stroke-linejoin:miter;stroke-opacity:1"
         d="m 1033.852,41.720773 c -4.5213,24.009712 -7.1191,24.710583 -6.8287,26.285957 8.7351,-1.097137 14.9359,0.280633 23.9473,-0.280633 0.9949,-4.391824 3.4279,-13.071319 4.303,-20.018486 -5.4867,-2.903202 -14.174,-4.049969 -21.4216,-5.986838 z"
         id="path4258-1-3-3-6-4"
         sodipodi:nodetypes="ccccc" />
    </clipPath>
    <clipPath
       id="clipPath4264-9-0-1-4-5"
       clipPathUnits="userSpaceOnUse">
      <path
         style="fill:#e8cdc4;fill-opacity:1;stroke:none;stroke-width:0.264583px;stroke-linecap:butt;stroke-linejoin:miter;stroke-opacity:1"
         d="m 1033.852,41.720773 c -4.5213,24.009712 -7.1191,24.710583 -6.8287,26.285957 8.7351,-1.097137 14.9359,0.280633 23.9473,-0.280633 0.9949,-4.391824 3.4279,-13.071319 4.303,-20.018486 -5.4867,-2.903202 -14.174,-4.049969 -21.4216,-5.986838 z"
         id="path4266-9-8-8-5-8"
         sodipodi:nodetypes="ccccc" />
    </clipPath>
    <linearGradient
       y2="55.285011"
       x2="1039.4358"
       y1="52.315968"
       x1="1031.286"
       gradientUnits="userSpaceOnUse"
       id="linearGradient15499"
       xlink:href="#linearGradient2199"
       inkscape:collect="always" />
    <clipPath
       id="clipPath4013-6-2-5-0-1"
       clipPathUnits="userSpaceOnUse">
      <path
         style="fill:#e8cdc4;fill-opacity:1;stroke:none;stroke-width:0.264583px;stroke-linecap:butt;stroke-linejoin:miter;stroke-opacity:1"
         d="m 1033.852,41.720773 c -4.5213,24.009712 -7.1191,24.710583 -6.8287,26.285957 l 23.9473,-0.280633 c 0.9949,-4.391824 3.4279,-13.071319 4.303,-20.018486 -5.4867,-2.903202 -14.174,-4.049969 -21.4216,-5.986838 z"
         id="path4015-5-1-6-8-5"
         sodipodi:nodetypes="ccccc" />
    </clipPath>
    <filter
       height="1.1787961"
       y="-0.089398026"
       width="1.3929187"
       x="-0.19645932"
       id="filter4003-6-2"
       style="color-interpolation-filters:sRGB"
       inkscape:collect="always">
      <feGaussianBlur
         id="feGaussianBlur4005-2-9"
         stdDeviation="0.9495125"
         inkscape:collect="always" />
    </filter>
    <clipPath
       id="clipPath4072-3-0-7-8-2"
       clipPathUnits="userSpaceOnUse">
      <path
         style="fill:#e8cdc4;fill-opacity:1;stroke:none;stroke-width:0.264583px;stroke-linecap:butt;stroke-linejoin:miter;stroke-opacity:1"
         d="m 1033.852,41.720773 c -4.5213,24.009712 -7.1191,24.710583 -6.8287,26.285957 8.7351,-1.097137 14.9359,0.280633 23.9473,-0.280633 0.9949,-4.391824 3.4279,-13.071319 4.303,-20.018486 -5.4867,-2.903202 -14.174,-4.049969 -21.4216,-5.986838 z"
         id="path4074-7-0-4-2-1"
         sodipodi:nodetypes="ccccc" />
    </clipPath>
    <filter
       height="1.5295378"
       y="-0.2647689"
       width="1.0764892"
       x="-0.038244613"
       id="filter3663-4-6"
       style="color-interpolation-filters:sRGB"
       inkscape:collect="always">
      <feGaussianBlur
         id="feGaussianBlur3665-4-9"
         stdDeviation="0.42036886"
         inkscape:collect="always" />
    </filter>
    <clipPath
       id="clipPath4248-4-0-8-0-3"
       clipPathUnits="userSpaceOnUse">
      <path
         style="fill:#e8cdc4;fill-opacity:1;stroke:none;stroke-width:0.264583px;stroke-linecap:butt;stroke-linejoin:miter;stroke-opacity:1"
         d="m 1033.852,41.720773 c -4.5213,24.009712 -7.1191,24.710583 -6.8287,26.285957 8.7351,-1.097137 14.9359,0.280633 23.9473,-0.280633 0.9949,-4.391824 3.4279,-13.071319 4.303,-20.018486 -5.4867,-2.903202 -14.174,-4.049969 -21.4216,-5.986838 z"
         id="path4250-2-9-0-2-0"
         sodipodi:nodetypes="ccccc" />
    </clipPath>
    <filter
       height="1.7333705"
       y="-0.36668524"
       width="1.278257"
       x="-0.13912852"
       id="filter4242-5-6"
       style="color-interpolation-filters:sRGB"
       inkscape:collect="always">
      <feGaussianBlur
         id="feGaussianBlur4244-5-8"
         stdDeviation="1.1925227"
         inkscape:collect="always" />
    </filter>
    <linearGradient
       y2="62.005154"
       x2="971.64014"
       y1="53.500656"
       x1="964.3067"
       gradientUnits="userSpaceOnUse"
       id="linearGradient15501"
       xlink:href="#linearGradient2199"
       inkscape:collect="always" />
    <clipPath
       clipPathUnits="userSpaceOnUse"
       id="clipPath7482-0">
      <path
         style="fill:#d2dee6;fill-opacity:1;stroke:none;stroke-width:0.44858px;stroke-linecap:butt;stroke-linejoin:miter;stroke-opacity:1"
         d="m 938.42796,46.653648 c 3.35156,41.286119 -0.5829,43.594848 0.59699,46.041072 13.79336,-5.703386 24.55002,-6.225422 39.03503,-11.176164 -0.33855,-7.627125 -0.24432,-22.909403 -1.92233,-34.66164 -10.2716,-2.29206 -24.99103,-0.279476 -37.70969,-0.203268 z"
         id="path7484-4"
         sodipodi:nodetypes="ccccc" />
    </clipPath>
    <filter
       inkscape:collect="always"
       style="color-interpolation-filters:sRGB"
       id="filter7476"
       x="-0.077692926"
       width="1.1553859"
       y="-0.22362058"
       height="1.4472412">
      <feGaussianBlur
         inkscape:collect="always"
         stdDeviation="1.2047067"
         id="feGaussianBlur7478" />
    </filter>
    <filter
       inkscape:collect="always"
       style="color-interpolation-filters:sRGB"
       id="filter11852"
       x="-0.011846241"
       width="1.0236925"
       y="-0.031922586"
       height="1.0638452">
      <feGaussianBlur
         inkscape:collect="always"
         stdDeviation="0.18807361"
         id="feGaussianBlur11854" />
    </filter>
    <filter
       inkscape:collect="always"
       style="color-interpolation-filters:sRGB"
       id="filter8653"
       x="-8.2265564e-07"
       width="1.0000015"
       y="-2.2168465e-06"
       height="1.0000044">
      <feGaussianBlur
         inkscape:collect="always"
         stdDeviation="1.3060667e-05"
         id="feGaussianBlur8655" />
    </filter>
    <filter
       inkscape:collect="always"
       style="color-interpolation-filters:sRGB"
       id="filter11848"
       x="-0.01098025"
       width="1.0219605"
       y="-0.040538128"
       height="1.0810763">
      <feGaussianBlur
         inkscape:collect="always"
         stdDeviation="0.0821745"
         id="feGaussianBlur11850" />
    </filter>
  </defs>
  <sodipodi:namedview
     inkscape:window-maximized="1"
     inkscape:window-y="-8"
     inkscape:window-x="-8"
     inkscape:window-height="705"
     inkscape:window-width="1366"
     fit-margin-bottom="10"
     fit-margin-right="10"
     fit-margin-left="10"
     lock-margins="true"
     fit-margin-top="10"
     units="px"
     showgrid="false"
     inkscape:document-rotation="0"
     inkscape:current-layer="layer1"
     inkscape:document-units="mm"
     inkscape:cy="350.20372"
     inkscape:cx="306.09138"
     inkscape:zoom="0.33557348"
     inkscape:pageshadow="2"
     inkscape:pageopacity="0.0"
     borderopacity="1.0"
     bordercolor="#666666"
     pagecolor="#ffffff"
     id="base" />
  <metadata
     id="metadata1956">
    <rdf:RDF>
      <cc:Work
         rdf:about="">
        <dc:format>image/svg+xml</dc:format>
        <dc:type
           rdf:resource="http://purl.org/dc/dcmitype/StillImage" />
        <dc:title></dc:title>
      </cc:Work>
    </rdf:RDF>
  </metadata>
  <g
     transform="translate(-24.846655,-55.508598)"
     id="layer1"
     inkscape:groupmode="layer"
     inkscape:label="Layer 1">
    <path
       transform="matrix(2.7337343,-0.22351072,0.22351072,2.7337343,-2516.4823,180.50955)"
       id="path15329"
       style="fill:#000000;fill-opacity:1;stroke:none;stroke-width:0.44858px;stroke-linecap:butt;stroke-linejoin:miter;stroke-opacity:1;filter:url(#filter11860)"
       d="m 971.51531,46.109594 c -9.51666,-0.729002 -21.1711,0.611584 -31.50503,0.673509 0.31455,3.874892 0.56485,7.405899 0.7613,10.62645 l -12.99727,7.518329 c 4.24295,9.190053 7.91129,16.821065 11.70088,26.806102 0.032,0.102298 0.0685,0.202932 0.11677,0.303013 14.07569,-3.990882 25.5651,-5.438154 40.05012,-10.38889 -0.33856,-7.627131 -0.24412,-22.909816 -1.92214,-34.662058 -1.92592,-0.42976 -4.00848,-0.708225 -6.20463,-0.876455 z"
       sodipodi:nodetypes="scccccccs" />
    <path
       style="fill:#cbb4b1;fill-opacity:1;stroke:none;stroke-width:1.23039px;stroke-linecap:butt;stroke-linejoin:miter;stroke-opacity:1"
       d="M 71.280704,224.03013 C 58.604484,197.2183 43.75674,175.05894 29.964582,150.63797 l 52.154374,-36.14477 7.207934,94.09529 z"
       id="path15331"
       sodipodi:nodetypes="ccccc" />
    <path
       style="fill:#ffffff;fill-opacity:0.254902;stroke:none;stroke-width:0.264583px;stroke-linecap:butt;stroke-linejoin:miter;stroke-opacity:1"
       d="m 1023.0476,49.85913 0.5613,2.478924 11.9269,-3.133736 -0.8419,-3.507911 z"
       id="path15333"
       clip-path="url(#clipPath4273-4-6-1-3-7)"
       transform="matrix(4.3704007,-1.5889442,1.5889442,4.3704007,-4525.2816,1558.6962)" />
    <path
       sodipodi:nodetypes="cc"
       id="path15335"
       d="m 35.005546,158.83944 c 10.41548,-6.54734 21.550792,-14.92557 32.3903,-22.55139"
       style="fill:none;stroke:#b7693c;stroke-width:0.725713px;stroke-linecap:butt;stroke-linejoin:miter;stroke-opacity:1" />
    <path
       style="fill:url(#linearGradient15497);fill-opacity:1;stroke:none;stroke-width:0.264583px;stroke-linecap:butt;stroke-linejoin:miter;stroke-opacity:1;filter:url(#filter3823-7-3)"
       d="m 1031.9548,47.387637 c -0.4846,6.425087 -3.5405,14.652289 -5.4376,21.271737 l 3.2188,-2.757392 4.3879,-20.129066 z"
       id="path15337"
       sodipodi:nodetypes="ccccc"
       clip-path="url(#clipPath4023-0-9-3-5-3)"
       transform="matrix(4.3704007,-1.5889442,1.5889442,4.3704007,-4525.2816,1558.6962)" />
    <path
       style="fill:#ac8b84;fill-opacity:1;stroke:none;stroke-width:0.264583px;stroke-linecap:butt;stroke-linejoin:miter;stroke-opacity:1;filter:url(#filter3987-9-5)"
       d="m 1026.8579,68.833552 c -0.1946,-1.491219 0.8429,-3.907513 1.421,-5.398732 0.5036,-2.449045 0.6722,-3.482815 1.8763,-5.358779 l -1.0807,7.263702 z"
       id="path15339"
       sodipodi:nodetypes="ccccc"
       clip-path="url(#clipPath4029-9-8-1-2-6)"
       transform="matrix(4.3704007,-1.5889442,1.5889442,4.3704007,-4525.2816,1558.6962)" />
    <path
       transform="matrix(2.7337343,-0.22351072,0.22351072,2.7337343,-2516.4823,180.50955)"
       id="path15341"
       d="m 972.95013,65.140685 -0.622,14.304886 5.68684,1.512554 c 0.46504,-2.144085 -1.15496,-12.042648 -1.71169,-17.046941 z"
       style="fill:#000000;fill-opacity:1;stroke:none;stroke-width:0.264583px;stroke-linecap:butt;stroke-linejoin:miter;stroke-opacity:1;filter:url(#filter6847)"
       sodipodi:nodetypes="ccccc" />
    <path
       style="fill:#cbb4b1;fill-opacity:1;stroke:none;stroke-width:1.23039px;stroke-linecap:butt;stroke-linejoin:miter;stroke-opacity:1"
       d="M 59.357967,98.299535 C 77.748158,210.41569 67.508388,217.60654 71.280704,224.03013 107.71329,205.35563 137.00249,201.52429 175.49409,184.75273 172.86386,163.97786 169.70566,122.17914 162.49167,90.42669 133.89957,86.456604 94.110423,95.248414 59.357967,98.299535 Z"
       id="path15343"
       sodipodi:nodetypes="ccccc" />
    <path
       style="fill:#ffffff;fill-opacity:0.254902;stroke:none;stroke-width:0.264583px;stroke-linecap:butt;stroke-linejoin:miter;stroke-opacity:1"
       d="m 1032.338,43.32552 c 7.6509,2.23153 16.9105,3.021361 24.044,6.779948 l 0.43,-4.067969 -23.6141,-6.151562 z"
       id="path15345"
       sodipodi:nodetypes="ccccc"
       clip-path="url(#clipPath4256-0-2-1-2-6)"
       transform="matrix(4.3704007,-1.5889442,1.5889442,4.3704007,-4525.2816,1558.6962)" />
    <path
       style="fill:#ffffff;fill-opacity:0.254902;stroke:none;stroke-width:0.264583px;stroke-linecap:butt;stroke-linejoin:miter;stroke-opacity:1"
       d="m 1056.7703,46.772165 -3.9756,22.918364 -4.2539,-0.415276 c 1.7597,-7.94958 4.5954,-15.627874 5.3297,-24.046569 z"
       id="path15347"
       sodipodi:nodetypes="ccccc"
       clip-path="url(#clipPath4264-9-0-1-4-5)"
       transform="matrix(4.3704007,-1.5889442,1.5889442,4.3704007,-4525.2816,1558.6962)" />
    <path
       sodipodi:nodetypes="ccc"
       id="path15349"
       d="m 61.613946,107.47401 c 29.985064,-2.41333 58.847764,-9.948493 94.498504,-9.56629 5.97766,30.15213 6.94447,59.95054 10.22961,90.59702"
       style="fill:none;stroke:#b7693c;stroke-width:0.725713px;stroke-linecap:butt;stroke-linejoin:miter;stroke-opacity:1" />
    <path
       style="fill:url(#linearGradient15499);fill-opacity:1;stroke:none;stroke-width:0.264583px;stroke-linecap:butt;stroke-linejoin:miter;stroke-opacity:1;filter:url(#filter4003-6-2)"
       d="m 1035.8329,43.784569 c -1.2684,8.387592 -2.7249,14.243625 -6.0969,22.117414 9.4487,-5.728761 11.4774,-14.736747 12.7246,-20.380589 z"
       id="path15351"
       sodipodi:nodetypes="cccc"
       clip-path="url(#clipPath4013-6-2-5-0-1)"
       transform="matrix(4.3704007,-1.5889442,1.5889442,4.3704007,-4525.2816,1558.6962)" />
    <path
       style="fill:#ac8b84;fill-opacity:1;stroke:none;stroke-width:0.264583px;stroke-linecap:butt;stroke-linejoin:miter;stroke-opacity:1;filter:url(#filter3663-4-6)"
       d="m 1026.7818,68.847251 c 2.9229,-6.409034 12.3553,-0.123711 25.3923,-2.750815 l -0.5215,3.025959 z"
       id="path15353"
       sodipodi:nodetypes="cccc"
       clip-path="url(#clipPath4072-3-0-7-8-2)"
       transform="matrix(4.3704007,-1.5889442,1.5889442,4.3704007,-4525.2816,1558.6962)" />
    <path
       style="fill:#dec3c1;fill-opacity:1;stroke:none;stroke-width:0.264583px;stroke-linecap:butt;stroke-linejoin:miter;stroke-opacity:1;filter:url(#filter4242-5-6)"
       d="m 1034.3886,64.822916 c 9.9609,-1.356725 15.9338,-5.364602 20.7599,-8.537317 l -1.7762,8.8019 z"
       id="path15355"
       sodipodi:nodetypes="cccc"
       clip-path="url(#clipPath4248-4-0-8-0-3)"
       transform="matrix(4.3704007,-1.5889442,1.5889442,4.3704007,-4525.2816,1558.6962)" />
    <path
       transform="matrix(2.7337343,-0.22351072,0.22351072,2.7337343,-2516.4823,180.50955)"
       clip-path="url(#clipPath7482-0)"
       sodipodi:nodetypes="cccc"
       id="path15357"
       d="M 973.59736,49.385786 954.63061,77.327181 974.20826,59.391552 Z"
       style="fill:url(#linearGradient15501);fill-opacity:1;stroke:none;stroke-width:0.264583px;stroke-linecap:butt;stroke-linejoin:miter;stroke-opacity:1;filter:url(#filter7476)" />
    <path
       id="path15381"
       style="opacity:1;fill:#000000;fill-opacity:0.62;stroke:none;stroke-width:0.33478;stroke-linecap:round;stroke-miterlimit:4;stroke-dasharray:none;stroke-opacity:1;paint-order:fill markers stroke;filter:url(#filter11852)"
       d="m 471.7485,320.76044 c -0.1143,-0.0257 0.013,0.24253 -0.035,0.3493 -0.013,0.0388 -0.039,-0.0856 -0.079,-0.0954 -0.1588,-0.0395 -0.052,0.2523 -0.1215,-0.094 -0.4404,0.30026 -0.14501,0.22175 -0.32381,0.13459 -0.035,-0.0172 -0.083,-0.0103 -0.11239,-0.0369 -0.064,-0.0591 -0.067,-0.20528 -0.1546,-0.21068 -0.014,-0.002 0.012,0.37601 -0.01,0.10727 -0.021,0.0321 -0.019,0.0906 -0.059,0.0978 -0.074,0.0159 -0.3844,-0.0625 -0.45989,-0.0887 -0.10181,-0.0356 -0.19521,-0.0957 -0.29971,-0.12146 -0.13259,-0.0325 -0.28339,0.008 -0.40629,-0.0512 -0.082,-0.0392 -0.1045,-0.14778 -0.157,-0.22158 -0.078,0.0156 -0.20561,-0.0276 -0.2342,0.0471 -0.024,0.0716 -0.042,0.16637 -0.053,0.26992 0.1394,0.22915 0.078,0.44201 -0.031,0.60793 0,0.008 0,0.0182 0,0.0255 -1.1e-4,5.3e-4 -0.01,-0.003 -0.012,-0.002 0,-0.009 0.01,-0.016 0.018,-0.0209 0.01,-0.20051 0.01,-0.41935 0.031,-0.60795 -0.016,-0.0258 -0.037,-0.0517 -0.058,-0.078 -0.073,0.22035 -0.1924,0.45398 -0.258,0.665 -0.03,-0.004 -0.064,-0.0102 -0.094,-0.0157 -0.01,-0.17791 -0.021,-0.37165 -0.022,-0.5353 -0.1439,-0.12133 -0.2041,-0.32828 -0.3115,-0.48664 -0.2873,0.18166 -0.2108,0.2447 -0.4663,0.0156 -0.02,-0.0183 -0.01,-0.0736 -0.037,-0.0723 -0.064,0.002 -0.1103,0.0884 -0.1738,0.0787 -1.3847,-0.19753 0.3675,-0.16294 -0.7015,-0.16106 -0.7316,0.39245 -0.036,0.15104 -0.4238,0.0113 -0.161,-0.0576 -0.3216,0.1348 -0.4748,0.10099 -0.09,-0.019 -0.1297,-0.13891 -0.2159,-0.17025 -0.1175,-0.043 -0.2483,-0.0294 -0.3724,-0.0437 -0.45,0.15519 -0.05,0.0859 -0.6473,-0.16751 -0.077,-0.0329 -0.1657,-0.0126 -0.247,-0.0292 -0.1638,-0.0314 -0.3128,-0.10885 -0.4798,-0.12532 -0.1535,0.006 -0.3082,-0.003 -0.4605,0.0165 -0.1373,0.0175 -0.2668,0.1048 -0.4046,0.0941 -0.153,-0.012 -0.2872,-0.10766 -0.431,-0.16156 -0.035,-0.0439 -0.051,-0.12624 -0.1059,-0.13268 -0.1964,-0.022 -0.3772,0.16186 -0.5794,0.12397 -0.079,-0.0858 -0.1259,-0.21805 -0.2355,-0.25722 -0.1688,-0.06 -0.3588,-0.002 -0.5371,-0.019 -0.1249,-0.0105 -0.2472,-0.0402 -0.3702,-0.0645 -0.1353,-0.0269 -0.269,-0.11589 -0.4044,-0.0891 -0.1972,0.0391 -0.276,0.36715 -0.2104,0.13675 -0.071,0.0754 -0.1121,0.20499 -0.2138,0.22628 -0.1389,0.029 -0.276,-0.0687 -0.4156,-0.0943 -0.1885,-0.0344 -0.3768,-0.0753 -0.5681,-0.0864 -0.4517,-0.0275 -0.8568,0.0808 -1.2988,-0.0767 -0.095,-0.0335 -0.1442,-0.13999 -0.2164,-0.21015 -0.3482,0.17115 -0.4341,0.35593 -0.7545,0.034 -0.1148,-0.11552 -0.1041,-0.36213 -0.2581,-0.41529 -0.1949,-0.0677 -0.4021,0.12729 -0.6081,0.11622 -0.1376,-0.007 -0.245,-0.12946 -0.3769,-0.16897 -0.1111,-0.0336 -0.2307,-0.0311 -0.3458,-0.0465 -0.057,-0.005 -0.1141,-0.0245 -0.1719,-0.0179 -0.1961,0.0174 -0.4447,0.1311 -0.6496,0.0394 -0.093,-0.0413 -0.1372,-0.15366 -0.2244,-0.20574 -0.2683,-0.16047 -0.306,-0.1449 -0.5461,-0.16122 -0.3686,0.24963 -0.065,0.0694 -0.065,-0.0164 -2e-4,-0.0322 -0.085,0.0167 -0.095,-0.014 -0.02,-0.0599 0.085,-0.2106 0.025,-0.18917 -0.7362,0.26566 -0.067,0.64458 -0.8166,-0.0775 -0.2851,0.82934 0.1121,0.0537 -0.4773,0.13934 -0.1299,0.019 -0.1558,0.21282 -0.2459,0.30798 -0.069,0.073 -0.1697,0.274 -0.2317,0.19397 -0.094,-0.12167 0.1668,-0.39908 0.026,-0.46062 -0.1534,-0.067 -0.2706,0.19655 -0.406,0.29483 -0.082,-0.0995 -0.1227,-0.26578 -0.2477,-0.29847 -0.1754,-0.0459 -0.3553,0.0733 -0.5354,0.0939 -0.1234,0.0141 -0.2496,0.0266 -0.3727,0.01 -0.2516,-0.0345 -0.3703,-0.22214 -0.653,-0.18047 -0.1258,0.0185 -0.2217,0.12471 -0.3325,0.18725 -0.088,-0.0525 -0.1757,-0.1055 -0.2635,-0.15809 -0.087,-0.0521 -0.1875,-0.1551 -0.3045,-0.0826 -0.057,0.0356 -0.066,0.13191 -0.1293,0.15498 -0.1246,0.0445 0.015,-0.86557 -0.3951,-0.0363 -0.4251,-0.44364 -0.039,-0.15913 -0.756,-0.27818 -0.084,-0.0135 -0.1492,-0.10956 -0.2338,-0.10148 -0.087,0.009 -0.1322,0.13833 -0.2202,0.14515 -0.338,0.0266 -0.066,-0.23471 -0.2327,-0.0467 -0.059,0.0241 -0.1211,0.10172 -0.1769,0.0718 -0.2907,-0.15765 0.1513,-0.25659 -0.2235,-0.32539 -0.126,-0.0232 -0.2605,-0.0156 -0.3837,0.0199 -0.092,0.0259 -0.1488,0.19168 -0.2378,0.15755 -0.086,-0.0328 -0.1136,-0.1357 -0.1479,-0.23 -0.036,0.0629 -0.1738,0.0836 -0.2214,0.0722 -0.093,-0.0222 -0.1706,-0.10097 -0.2656,-0.10569 -1.3079,-0.0611 0.092,0.21608 -0.9416,-0.0234 -0.1042,-0.0377 -0.2067,-0.0807 -0.3124,-0.11432 -0.041,-0.0125 -0.085,-0.034 -0.1269,-0.0245 -0.099,0.023 -0.1905,0.1664 -0.2805,0.11902 -0.1035,-0.0545 -0.01,-0.29633 -0.1202,-0.32972 -0.1214,-0.036 -0.2169,0.1311 -0.3253,0.19678 -0.1107,-0.0399 -0.2218,-0.0788 -0.3326,-0.11859 -0.148,-0.0859 -0.3372,-0.24311 -0.5355,-0.17518 -0.086,0.0289 -0.1452,0.14938 -0.2152,0.2051 -0.048,-0.008 -0.096,-0.0167 -0.1436,-0.0252 -0.027,-0.0813 0.027,-0.23003 -0.027,-0.30799 -0.011,-0.0143 -0.4258,-0.0812 -0.4271,-0.0812 -0.1618,-0.0484 -0.3234,-0.0976 -0.4852,-0.14613 -0.1033,0.0809 -0.1794,0.25821 -0.3097,0.24274 -0.1504,-0.0181 -0.1938,-0.24266 -0.3251,-0.31822 -0.053,-0.0308 -0.206,-0.0291 -0.1813,0.027 0.02,0.0454 0.041,0.0796 0.063,0.10859 -0.036,0.0721 -0.1194,0.15443 -0.3497,0.0981 -0.038,-0.009 -0.08,-0.0222 -0.1256,-0.0395 -0.2478,-0.094 -0.339,-0.42736 -0.5741,-0.54987 -0.33,-0.17204 -0.7263,0.10653 -1.0501,0.0498 -0.062,-0.0112 -0.045,-0.11649 -0.068,-0.17477 -0.049,0.0475 -0.078,0.14107 -0.1454,0.14256 -0.058,0.002 -0.06,-0.10301 -0.1061,-0.13797 -0.094,-0.0709 -0.1898,-0.17056 -0.3075,-0.17356 -0.16,-0.004 -0.295,0.15241 -0.4551,0.15392 -0.4266,0.004 -0.5347,-0.264 -0.7742,-0.54595 -0.095,-0.0446 -0.253,0.18722 -0.3447,0.41192 -0.077,-0.0181 -0.1433,-0.0323 -0.2221,-0.051 l -1.2487,7.75808 c 0.072,0.0178 0.1325,0.0315 0.2037,0.0481 0.01,0.0313 0.017,0.0545 0.039,0.0648 0.078,0.009 0.2658,0.0269 0.4515,0.0507 0.1849,0.0436 0.3722,0.0877 0.5498,0.12881 0.086,0.0627 0.1352,0.17281 0.2154,0.24561 0.035,0.0315 0.087,0.0374 0.1237,0.0676 0.1699,0.13875 0.2474,0.32111 0.3624,0.509 0.3604,-0.24301 0.5344,-0.466 0.9174,-0.45744 0.1244,0.0272 0.2561,0.0567 0.3776,0.0827 0.1059,0.0459 0.2076,0.1055 0.3087,0.16013 0.1019,0.0552 0.1865,0.13753 0.2805,0.20534 0.078,0.0562 0.1442,0.13498 0.2349,0.16657 0.038,0.0131 0.074,-0.0311 0.1105,-0.0474 -0.018,0.0806 -0.127,0.20636 -0.053,0.24227 0.7682,0.37043 0.4895,-0.24259 0.9515,-0.15883 0.7143,0.12942 -0.088,0.10963 0.4328,0.10786 0.046,0.0646 0.076,0.14681 0.1398,0.19424 0.2165,0.15974 0.433,0.0305 0.6681,-0.005 0.106,-0.0157 0.2143,-0.0107 0.3198,-0.0292 0.095,-0.0165 0.193,-0.11641 0.28,-0.0748 0.1229,0.0593 0.1645,0.21779 0.2468,0.32659 0.1369,-0.0592 0.1577,-0.0863 0.3523,-0.0291 0.072,0.0208 0.1204,0.10098 0.1943,0.11653 0.083,0.018 0.1684,-0.0255 0.253,-0.0236 0.4246,0.009 0.3396,0.0147 0.6968,0.19739 0.4807,-0.28408 0.2569,-0.28752 0.7118,-0.12042 0.089,0.0327 0.2013,0.0327 0.2657,0.10232 0.055,0.06 -0.017,0.19172 0.05,0.23998 0.045,0.0324 0.059,-0.12759 0.1136,-0.12058 0.098,0.0132 0.1631,0.11209 0.2446,0.16812 0.8249,-0.39489 -0.6834,0.25582 0.4251,0.11964 0.09,-0.0109 0.034,-0.18922 0.1001,-0.2514 0.097,-0.093 0.2434,-0.0359 0.3179,0.0377 0.043,0.0424 0.07,0.0987 0.1048,0.14831 0.1073,-0.022 0.2213,-0.10823 0.3221,-0.0659 0.099,0.0425 0.08,0.21739 0.1719,0.27472 0.063,0.0394 0.1467,-0.0221 0.2204,-0.0294 0.077,-0.008 0.1564,-0.007 0.234,-0.0157 0.072,-0.009 0.1425,-0.0367 0.2155,-0.0385 0.1076,-0.002 0.2143,0.0162 0.3216,0.0248 0.408,0.21855 0.1718,0.15367 0.7257,0.1218 0.067,-0.004 0.1451,0.0254 0.2014,-0.0115 0.047,-0.0311 0,-0.14359 0.063,-0.15782 0.1346,-0.0385 0.3684,0.27893 0.4014,0.31533 0.1118,-0.0959 0.1919,-0.25027 0.3342,-0.28747 0.075,-0.0195 0.5661,0.13223 0.686,0.17318 0.09,0.0307 0.1721,0.095 0.2671,0.10004 0.071,0.003 0.1331,-0.0996 0.1995,-0.0751 0.1127,0.0415 0.1758,0.16385 0.264,0.24557 0.2287,-0.12097 0.3402,-0.18914 0.3912,-0.22234 0.01,0.003 0.014,0.002 0.019,0.002 -0.025,0.0445 -0.03,0.12933 0.2941,0.16059 0.096,0.01 0.1886,-0.0516 0.28221,-0.0786 0.062,0.009 0.14079,0.0207 0.2042,0.0289 0.097,0.0617 0.1766,0.17085 0.2894,0.19205 0.087,0.0159 0.17429,-0.0487 0.2516,-0.11413 0.026,0.003 0.055,0.007 0.08,0.0123 0.042,0.0379 0.074,0.0971 0.12721,0.11044 0.082,0.0206 0.1667,-0.0369 0.2507,-0.0324 0.391,0.0207 0.3043,0.038 0.50269,0.34998 0.04,-0.0272 0.081,-0.0526 0.12011,-0.0796 0.2246,0.13394 0.207,0.15375 0.5327,0.0429 0.091,-0.0309 0.17269,-0.0904 0.25869,-0.13424 0.2608,0.0379 0.4621,0.0652 0.7337,0.105 0.068,0.0355 0.1373,0.071 0.20591,0.10644 0.12479,0.0241 0.2612,0.0146 0.3746,0.0723 0.087,0.0439 0.1015,0.18841 0.1945,0.21608 0.59359,0.17703 0.2871,-0.12065 0.52529,-0.2051 0.14251,0.0208 0.3024,0.0446 0.4478,0.0661 0.051,0.0584 0.094,0.13553 0.14821,0.18869 0.5907,0.16101 0.4866,0.17997 1.1379,0.14597 0.1742,-0.009 0.3463,-0.0514 0.5196,-0.0671 0.24639,0.0366 0.4947,0.0745 0.7487,0.11238 0.1662,0.0441 0.3304,0.0891 0.4596,0.11326 0.07,0.0138 0.14209,0.009 0.2131,0.013 0.019,-0.0112 0.015,-0.009 0.033,-0.0189 0.3614,0.0551 0.7414,0.1122 1.11841,0.16985 0.043,0.0436 0.087,0.0876 0.13009,0.13133 0.064,-0.0272 0.12721,-0.0553 0.19111,-0.0825 0.57129,0.0867 1.1315,0.17295 1.7394,0.26634 0.01,0.021 0.014,0.0216 0.03,0.004 0.5626,0.0866 1.1824,0.18325 1.7776,0.27599 0.038,0.0355 0.082,0.0686 0.10469,0.0871 -0.048,-0.0442 -0.058,-0.0553 -0.086,-0.084 0.35741,0.0555 0.69711,0.10807 1.0667,0.16562 0.043,0.0335 0.087,0.0611 0.1398,0.0681 0.039,0.006 0.074,-0.009 0.10861,-0.0291 0.1323,0.0208 0.2452,0.0374 0.37889,0.059 0.01,0.005 0.019,0.004 0.028,0.005 0.083,0.0134 0.1506,0.0237 0.234,0.0358 0,0.0113 -0.01,0.0179 0,0.0184 0.019,-0.002 0.037,-0.006 0.055,-0.008 0.37391,0.0593 0.81121,0.12945 1.19731,0.19069 0.022,0.004 0.045,0.006 0.067,0.0106 0,0.008 0,0.0204 0.01,0.0296 0,-0.005 0.02,-0.017 0.029,-0.0242 0.01,0.001 0.02,0.003 0.03,0.004 -0.046,0.0222 -0.064,0.0285 -0.059,0.0218 0.017,0.052 0.046,0.10067 0.092,0.14411 0.1139,0.10756 0.1635,0.0284 0.1894,-0.13019 0.091,0.0146 0.1886,0.0301 0.2807,0.0446 0.3861,0.22797 0.1641,0.14936 0.2302,0.0365 0.3037,0.0483 0.6089,0.097 0.9202,0.14606 0.03,0.0269 0.07,0.0306 0.1158,0.0184 0.1545,0.0246 0.2989,0.0472 0.4553,0.0724 0.01,0.0379 0.024,0.0719 0.054,0.0931 0.039,0.0272 0.029,-0.0218 0,-0.0834 0.2594,0.0415 0.4896,0.0779 0.7542,0.12027 0,0.1085 -0.075,0.14914 0.2791,0.1653 0.046,0.002 0.057,-0.0707 0.085,-0.10778 0.049,0.008 0.09,0.0148 0.1397,0.0226 l 1.2486,-7.75805 c -0.01,-0.003 -0.015,-0.002 -0.024,-0.004 0.066,-0.36183 0.015,-0.93073 -0.1625,-0.93118 -0.017,0.0114 -0.049,0.0188 -0.07,0.0292 0.01,-0.0292 0.029,-0.0563 0.038,-0.0819 0.048,-0.24439 -0.027,-0.0348 -0.2682,0.26146 -0.042,-0.0417 -0.096,-0.0741 -0.1266,-0.12453 -0.077,-0.12618 -0.049,-0.36744 -0.1933,-0.39905 z m -4.03799,8.46746 c -2e-4,-7.9e-4 -5.3e-4,-7.9e-4 10e-5,-0.002 -10e-4,0.003 -10e-5,2.3e-4 -10e-5,0.002 z m -21.9656,-11.53247 c 0,-0.003 0.012,-0.004 0.01,-0.0117 0.01,-0.0299 -0.033,-0.0538 -0.049,-0.0806 0.016,0.0273 0.029,0.0592 0.041,0.0912 z m 23.072,3.18832 c 0.013,0.0112 0.026,0.0226 0.041,0.0315 0.068,0.0441 0.096,-0.13074 0.1511,-0.18927 0.017,-0.0165 0.042,-0.0497 0.064,-0.0773 -0.026,-0.0236 -0.048,-0.0464 -0.079,-0.0699 -0.14759,-0.10985 -0.17829,0.0586 -0.1767,0.30445 z m 0.2555,-0.23472 c 0.046,0.0403 0.086,0.0803 0.1177,0.1199 0.028,-0.0859 0.046,-0.17214 0.048,-0.25292 1.9e-4,-0.0801 -0.089,0.0375 -0.1652,0.13308 z m 3.3036,0.44642 c 0.011,-0.001 0.014,-0.002 0.015,0.006 0,0.0529 -0.068,0.16928 -0.097,0.12565 -0.019,-0.0272 -0.013,-0.06 7.9e-4,-0.0937 0.019,0.008 0.06,-0.0279 0.083,-0.0382 z m -4.7993,0.007 c 0.011,-1.3e-4 0.016,-10e-4 0.025,0.005 0.042,0.0252 0.048,0.0706 0.044,0.12206 -0.045,-0.006 -0.092,-0.0147 -0.1368,-0.0213 0.019,-0.0554 0.043,-0.0986 0.067,-0.10552 z m -4.9613,-0.7127 c 0.052,0.004 0.091,0.0355 0.12839,0.0745 -0.10089,-0.0153 -0.16839,-0.0252 -0.26839,-0.0403 0.044,-0.0224 0.09,-0.0373 0.14,-0.034 z m -1.3433,-0.16106 c 0.033,0.005 0.06,0.0156 0.087,0.0267 -0.048,-0.009 -0.086,-0.0126 -0.1333,-0.0201 0.015,-0.005 0.03,-0.009 0.046,-0.007 z m -20.9597,-3.25141 c 0.12709,0.0852 0.208,0.0148 0.07,0.11589 -0.014,-0.002 -0.027,-0.005 -0.041,-0.007 -0.017,-0.0595 -0.02,-0.072 -0.029,-0.10822 z m 11.46919,9.81386 c 10e-5,-1.6e-4 10e-5,-2.3e-4 2.1e-4,-5.2e-4 -0.033,0.0201 -0.066,0.0419 -0.094,0.0675 -0.031,0.0272 0.034,-0.0375 0.091,-0.068 z"
       transform="matrix(2.742856,0,0,2.742856,-1104.141,-799.67908)" />
    <path
       d="m 470.5551,320.56957 c -0.1143,-0.0257 0.013,0.24253 -0.035,0.3493 -0.013,0.0388 -0.039,-0.0856 -0.079,-0.0954 -0.1588,-0.0395 -0.052,0.2523 -0.1215,-0.094 -0.4404,0.30026 -0.14501,0.22175 -0.32381,0.13459 -0.035,-0.0172 -0.083,-0.0103 -0.11239,-0.0369 -0.064,-0.0591 -0.067,-0.20528 -0.1546,-0.21068 -0.014,-0.002 0.012,0.37601 -0.01,0.10727 -0.021,0.0321 -0.019,0.0906 -0.059,0.0978 -0.074,0.0159 -0.3844,-0.0625 -0.45989,-0.0887 -0.10181,-0.0356 -0.19521,-0.0957 -0.29971,-0.12146 -0.13259,-0.0325 -0.28339,0.008 -0.40629,-0.0512 -0.082,-0.0392 -0.1045,-0.14778 -0.157,-0.22158 -0.078,0.0156 -0.20561,-0.0276 -0.2342,0.0471 -0.024,0.0716 -0.042,0.16637 -0.053,0.26992 0.1394,0.22915 0.078,0.44201 -0.031,0.60793 0,0.008 0,0.0182 0,0.0255 -1.1e-4,5.3e-4 -0.01,-0.003 -0.012,-0.002 0,-0.009 0.01,-0.016 0.018,-0.0209 0.01,-0.20051 0.01,-0.41935 0.031,-0.60795 -0.016,-0.0258 -0.037,-0.0517 -0.058,-0.078 -0.073,0.22035 -0.1924,0.45398 -0.258,0.665 -0.03,-0.004 -0.064,-0.0102 -0.094,-0.0157 -0.01,-0.17791 -0.021,-0.37165 -0.022,-0.5353 -0.1439,-0.12133 -0.2041,-0.32828 -0.3115,-0.48664 -0.2873,0.18166 -0.2108,0.2447 -0.4663,0.0156 -0.02,-0.0183 -0.01,-0.0736 -0.037,-0.0723 -0.064,0.002 -0.1103,0.0884 -0.1738,0.0787 -1.3847,-0.19753 0.3675,-0.16294 -0.7015,-0.16106 -0.7316,0.39245 -0.036,0.15104 -0.4238,0.0113 -0.161,-0.0576 -0.3216,0.1348 -0.4748,0.10099 -0.09,-0.019 -0.1297,-0.13891 -0.2159,-0.17025 -0.1175,-0.043 -0.2483,-0.0294 -0.3724,-0.0437 -0.45,0.15519 -0.05,0.0859 -0.6473,-0.16751 -0.077,-0.0329 -0.1657,-0.0126 -0.247,-0.0292 -0.1638,-0.0314 -0.3128,-0.10885 -0.4798,-0.12532 -0.1535,0.006 -0.3082,-0.003 -0.4605,0.0165 -0.1373,0.0175 -0.2668,0.1048 -0.4046,0.0941 -0.153,-0.012 -0.2872,-0.10766 -0.431,-0.16156 -0.035,-0.0439 -0.051,-0.12624 -0.1059,-0.13268 -0.1964,-0.022 -0.3772,0.16186 -0.5794,0.12397 -0.079,-0.0858 -0.1259,-0.21805 -0.2355,-0.25722 -0.1688,-0.06 -0.3588,-0.002 -0.5371,-0.019 -0.1249,-0.0105 -0.2472,-0.0402 -0.3702,-0.0645 -0.1353,-0.0269 -0.269,-0.11589 -0.4044,-0.0891 -0.1972,0.0391 -0.276,0.36715 -0.2104,0.13675 -0.071,0.0754 -0.1121,0.20499 -0.2138,0.22628 -0.1389,0.029 -0.276,-0.0687 -0.4156,-0.0943 -0.1885,-0.0344 -0.3768,-0.0753 -0.5681,-0.0864 -0.4517,-0.0275 -0.8568,0.0808 -1.2988,-0.0767 -0.095,-0.0335 -0.1442,-0.13999 -0.2164,-0.21015 -0.3482,0.17115 -0.4341,0.35593 -0.7545,0.034 -0.1148,-0.11552 -0.1041,-0.36213 -0.2581,-0.41529 -0.1949,-0.0677 -0.4021,0.12729 -0.6081,0.11622 -0.1376,-0.007 -0.245,-0.12946 -0.3769,-0.16897 -0.1111,-0.0336 -0.2307,-0.0311 -0.3458,-0.0465 -0.057,-0.005 -0.1141,-0.0245 -0.1719,-0.0179 -0.1961,0.0174 -0.4447,0.1311 -0.6496,0.0394 -0.093,-0.0413 -0.1372,-0.15366 -0.2244,-0.20574 -0.2683,-0.16047 -0.306,-0.1449 -0.5461,-0.16122 -0.3686,0.24963 -0.065,0.0694 -0.065,-0.0164 -2e-4,-0.0322 -0.085,0.0167 -0.095,-0.014 -0.02,-0.0599 0.085,-0.2106 0.025,-0.18917 -0.7362,0.26566 -0.067,0.64458 -0.8166,-0.0775 -0.2851,0.82934 0.1121,0.0537 -0.4773,0.13934 -0.1299,0.019 -0.1558,0.21282 -0.2459,0.30798 -0.069,0.073 -0.1697,0.274 -0.2317,0.19397 -0.094,-0.12167 0.1668,-0.39908 0.026,-0.46062 -0.1534,-0.067 -0.2706,0.19655 -0.406,0.29483 -0.082,-0.0995 -0.1227,-0.26578 -0.2477,-0.29847 -0.1754,-0.0459 -0.3553,0.0733 -0.5354,0.0939 -0.1234,0.0141 -0.2496,0.0266 -0.3727,0.01 -0.2516,-0.0345 -0.3703,-0.22214 -0.653,-0.18047 -0.1258,0.0185 -0.2217,0.12471 -0.3325,0.18725 -0.088,-0.0525 -0.1757,-0.1055 -0.2635,-0.15809 -0.087,-0.0521 -0.1875,-0.1551 -0.3045,-0.0826 -0.057,0.0356 -0.066,0.13191 -0.1293,0.15498 -0.1246,0.0445 0.015,-0.86557 -0.3951,-0.0363 -0.4251,-0.44364 -0.039,-0.15913 -0.756,-0.27818 -0.084,-0.0135 -0.1492,-0.10956 -0.2338,-0.10148 -0.087,0.009 -0.1322,0.13833 -0.2202,0.14515 -0.338,0.0266 -0.066,-0.23471 -0.2327,-0.0467 -0.059,0.0241 -0.1211,0.10172 -0.1769,0.0718 -0.2907,-0.15765 0.1513,-0.25659 -0.2235,-0.32539 -0.126,-0.0232 -0.2605,-0.0156 -0.3837,0.0199 -0.092,0.0259 -0.1488,0.19168 -0.2378,0.15755 -0.086,-0.0328 -0.1136,-0.1357 -0.1479,-0.23 -0.036,0.0629 -0.1738,0.0836 -0.2214,0.0722 -0.093,-0.0222 -0.1706,-0.10097 -0.2656,-0.10569 -1.3079,-0.0611 0.092,0.21608 -0.9416,-0.0234 -0.1042,-0.0377 -0.2067,-0.0807 -0.3124,-0.11432 -0.041,-0.0125 -0.085,-0.034 -0.1269,-0.0245 -0.099,0.023 -0.1905,0.1664 -0.2805,0.11902 -0.1035,-0.0545 -0.01,-0.29633 -0.1202,-0.32972 -0.1214,-0.036 -0.2169,0.1311 -0.3253,0.19678 -0.1107,-0.0399 -0.2218,-0.0788 -0.3326,-0.11859 -0.148,-0.0859 -0.3372,-0.24311 -0.5355,-0.17518 -0.086,0.0289 -0.1452,0.14938 -0.2152,0.2051 -0.048,-0.008 -0.096,-0.0167 -0.1436,-0.0252 -0.027,-0.0813 0.027,-0.23003 -0.027,-0.30799 -0.011,-0.0143 -0.4258,-0.0812 -0.4271,-0.0812 -0.1618,-0.0484 -0.3234,-0.0976 -0.4852,-0.14613 -0.1033,0.0809 -0.1794,0.25821 -0.3097,0.24274 -0.1504,-0.0181 -0.1938,-0.24266 -0.3251,-0.31822 -0.053,-0.0308 -0.206,-0.0291 -0.1813,0.027 0.02,0.0454 0.041,0.0796 0.063,0.10859 -0.036,0.0721 -0.1194,0.15443 -0.3497,0.0981 -0.038,-0.009 -0.08,-0.0222 -0.1256,-0.0395 -0.2478,-0.094 -0.339,-0.42736 -0.5741,-0.54987 -0.33,-0.17204 -0.7263,0.10653 -1.0501,0.0498 -0.062,-0.0112 -0.045,-0.11649 -0.068,-0.17477 -0.049,0.0475 -0.078,0.14107 -0.1454,0.14256 -0.058,0.002 -0.06,-0.10301 -0.1061,-0.13797 -0.094,-0.0709 -0.1898,-0.17056 -0.3075,-0.17356 -0.16,-0.004 -0.295,0.15241 -0.4551,0.15392 -0.4266,0.004 -0.5347,-0.264 -0.7742,-0.54595 -0.095,-0.0446 -0.253,0.18722 -0.3447,0.41192 -0.077,-0.0181 -0.1433,-0.0323 -0.2221,-0.051 l -1.2487,7.75808 c 0.072,0.0178 0.1325,0.0315 0.2037,0.0481 0.01,0.0313 0.017,0.0545 0.039,0.0648 0.078,0.009 0.2658,0.0269 0.4515,0.0507 0.1849,0.0436 0.3722,0.0877 0.5498,0.12881 0.086,0.0627 0.1352,0.17281 0.2154,0.24561 0.035,0.0315 0.087,0.0374 0.1237,0.0676 0.1699,0.13875 0.2474,0.32111 0.3624,0.509 0.3604,-0.24301 0.5344,-0.466 0.9174,-0.45744 0.1244,0.0272 0.2561,0.0567 0.3776,0.0827 0.1059,0.0459 0.2076,0.1055 0.3087,0.16013 0.1019,0.0552 0.1865,0.13753 0.2805,0.20534 0.078,0.0562 0.1442,0.13498 0.2349,0.16657 0.038,0.0131 0.074,-0.0311 0.1105,-0.0474 -0.018,0.0806 -0.127,0.20636 -0.053,0.24227 0.7682,0.37043 0.4895,-0.24259 0.9515,-0.15883 0.7143,0.12942 -0.088,0.10963 0.4328,0.10786 0.046,0.0646 0.076,0.14681 0.1398,0.19424 0.2165,0.15974 0.433,0.0305 0.6681,-0.005 0.106,-0.0157 0.2143,-0.0107 0.3198,-0.0292 0.095,-0.0165 0.193,-0.11641 0.28,-0.0748 0.1229,0.0593 0.1645,0.21779 0.2468,0.32659 0.1369,-0.0592 0.1577,-0.0863 0.3523,-0.0291 0.072,0.0208 0.1204,0.10098 0.1943,0.11653 0.083,0.018 0.1684,-0.0255 0.253,-0.0236 0.4246,0.009 0.3396,0.0147 0.6968,0.19739 0.4807,-0.28408 0.2569,-0.28752 0.7118,-0.12042 0.089,0.0327 0.2013,0.0327 0.2657,0.10232 0.055,0.06 -0.017,0.19172 0.05,0.23998 0.045,0.0324 0.059,-0.12759 0.1136,-0.12058 0.098,0.0132 0.1631,0.11209 0.2446,0.16812 0.8249,-0.39489 -0.6834,0.25582 0.4251,0.11964 0.09,-0.0109 0.034,-0.18922 0.1001,-0.2514 0.097,-0.093 0.2434,-0.0359 0.3179,0.0377 0.043,0.0424 0.07,0.0987 0.1048,0.14831 0.1073,-0.022 0.2213,-0.10823 0.3221,-0.0659 0.099,0.0425 0.08,0.21739 0.1719,0.27472 0.063,0.0394 0.1467,-0.0221 0.2204,-0.0294 0.077,-0.008 0.1564,-0.007 0.234,-0.0157 0.072,-0.009 0.1425,-0.0367 0.2155,-0.0385 0.1076,-0.002 0.2143,0.0162 0.3216,0.0248 0.408,0.21855 0.1718,0.15367 0.7257,0.1218 0.067,-0.004 0.1451,0.0254 0.2014,-0.0115 0.047,-0.0311 0,-0.14359 0.063,-0.15782 0.1346,-0.0385 0.3684,0.27893 0.4014,0.31533 0.1118,-0.0959 0.1919,-0.25027 0.3342,-0.28747 0.075,-0.0195 0.5661,0.13223 0.686,0.17318 0.09,0.0307 0.1721,0.095 0.2671,0.10004 0.071,0.003 0.1331,-0.0996 0.1995,-0.0751 0.1127,0.0415 0.1758,0.16385 0.264,0.24557 0.2287,-0.12097 0.3402,-0.18914 0.3912,-0.22234 0.01,0.003 0.014,0.002 0.019,0.002 -0.025,0.0445 -0.03,0.12933 0.2941,0.16059 0.096,0.01 0.1886,-0.0516 0.28221,-0.0786 0.062,0.009 0.14079,0.0207 0.2042,0.0289 0.097,0.0617 0.1766,0.17085 0.2894,0.19205 0.087,0.0159 0.17429,-0.0487 0.2516,-0.11413 0.026,0.003 0.055,0.007 0.08,0.0123 0.042,0.0379 0.074,0.0971 0.12721,0.11044 0.082,0.0206 0.1667,-0.0369 0.2507,-0.0324 0.391,0.0207 0.3043,0.038 0.50269,0.34998 0.04,-0.0272 0.081,-0.0526 0.12011,-0.0796 0.2246,0.13394 0.207,0.15375 0.5327,0.0429 0.091,-0.0309 0.17269,-0.0904 0.25869,-0.13424 0.2608,0.0379 0.4621,0.0652 0.7337,0.105 0.068,0.0355 0.1373,0.071 0.20591,0.10644 0.12479,0.0241 0.2612,0.0146 0.3746,0.0723 0.087,0.0439 0.1015,0.18841 0.1945,0.21608 0.59359,0.17703 0.2871,-0.12065 0.52529,-0.2051 0.14251,0.0208 0.3024,0.0446 0.4478,0.0661 0.051,0.0584 0.094,0.13553 0.14821,0.18869 0.5907,0.16101 0.4866,0.17997 1.1379,0.14597 0.1742,-0.009 0.3463,-0.0514 0.5196,-0.0671 0.24639,0.0366 0.4947,0.0745 0.7487,0.11238 0.1662,0.0441 0.3304,0.0891 0.4596,0.11326 0.07,0.0138 0.14209,0.009 0.2131,0.013 0.019,-0.0112 0.015,-0.009 0.033,-0.0189 0.3614,0.0551 0.7414,0.1122 1.11841,0.16985 0.043,0.0436 0.087,0.0876 0.13009,0.13133 0.064,-0.0272 0.12721,-0.0553 0.19111,-0.0825 0.57129,0.0867 1.1315,0.17295 1.7394,0.26634 0.01,0.021 0.014,0.0216 0.03,0.004 0.5626,0.0866 1.1824,0.18325 1.7776,0.27599 0.038,0.0355 0.082,0.0686 0.10469,0.0871 -0.048,-0.0442 -0.058,-0.0553 -0.086,-0.084 0.35741,0.0555 0.69711,0.10807 1.0667,0.16562 0.043,0.0335 0.087,0.0611 0.1398,0.0681 0.039,0.006 0.074,-0.009 0.10861,-0.0291 0.1323,0.0208 0.2452,0.0374 0.37889,0.059 0.01,0.005 0.019,0.004 0.028,0.005 0.083,0.0134 0.1506,0.0237 0.234,0.0358 0,0.0113 -0.01,0.0179 0,0.0184 0.019,-0.002 0.037,-0.006 0.055,-0.008 0.37391,0.0593 0.81121,0.12945 1.19731,0.19069 0.022,0.004 0.045,0.006 0.067,0.0106 0,0.008 0,0.0204 0.01,0.0296 0,-0.005 0.02,-0.017 0.029,-0.0242 0.01,10e-4 0.02,0.003 0.03,0.004 -0.046,0.0222 -0.064,0.0285 -0.059,0.0218 0.017,0.052 0.046,0.10067 0.092,0.14411 0.1139,0.10756 0.1635,0.0284 0.1894,-0.13019 0.091,0.0146 0.1886,0.0301 0.2807,0.0446 0.3861,0.22797 0.1641,0.14936 0.2302,0.0365 0.3037,0.0483 0.6089,0.097 0.9202,0.14606 0.03,0.0269 0.07,0.0306 0.1158,0.0184 0.1545,0.0246 0.2989,0.0472 0.4553,0.0724 0.01,0.0379 0.024,0.0719 0.054,0.0931 0.039,0.0272 0.029,-0.0218 0,-0.0834 0.2594,0.0415 0.4896,0.0779 0.7542,0.12027 0,0.1085 -0.075,0.14914 0.2791,0.1653 0.046,0.002 0.057,-0.0707 0.085,-0.10778 0.049,0.008 0.09,0.0148 0.1397,0.0226 l 1.2486,-7.75805 c -0.01,-0.003 -0.015,-0.002 -0.024,-0.004 0.066,-0.36183 0.015,-0.93073 -0.1625,-0.93118 -0.017,0.0114 -0.049,0.0188 -0.07,0.0292 0.01,-0.0292 0.029,-0.0563 0.038,-0.0819 0.048,-0.24439 -0.027,-0.0348 -0.2682,0.26146 -0.042,-0.0417 -0.096,-0.0741 -0.1266,-0.12453 -0.077,-0.12618 -0.049,-0.36744 -0.1933,-0.39905 z m -4.03799,8.46746 c -2e-4,-7.9e-4 -5.3e-4,-7.9e-4 10e-5,-0.002 -10e-4,0.003 -10e-5,2.3e-4 -10e-5,0.002 z m -21.9656,-11.53247 c 0,-0.003 0.012,-0.004 0.01,-0.0117 0.01,-0.0299 -0.033,-0.0538 -0.049,-0.0806 0.016,0.0273 0.029,0.0592 0.041,0.0912 z m 23.072,3.18832 c 0.013,0.0112 0.026,0.0226 0.041,0.0315 0.068,0.0441 0.096,-0.13074 0.1511,-0.18927 0.017,-0.0165 0.042,-0.0497 0.064,-0.0773 -0.026,-0.0236 -0.048,-0.0464 -0.079,-0.0699 -0.14759,-0.10985 -0.17829,0.0586 -0.1767,0.30445 z m 0.2555,-0.23472 c 0.046,0.0403 0.086,0.0803 0.1177,0.1199 0.028,-0.0859 0.046,-0.17214 0.048,-0.25292 1.9e-4,-0.0801 -0.089,0.0375 -0.1652,0.13308 z m 3.3036,0.44642 c 0.011,-0.001 0.014,-0.002 0.015,0.006 0,0.0529 -0.068,0.16928 -0.097,0.12565 -0.019,-0.0272 -0.013,-0.06 7.9e-4,-0.0937 0.019,0.008 0.06,-0.0279 0.083,-0.0382 z m -4.7993,0.007 c 0.011,-1.3e-4 0.016,-0.001 0.025,0.005 0.042,0.0252 0.048,0.0706 0.044,0.12206 -0.045,-0.006 -0.092,-0.0147 -0.1368,-0.0213 0.019,-0.0554 0.043,-0.0986 0.067,-0.10552 z m -4.9613,-0.7127 c 0.052,0.004 0.091,0.0355 0.12839,0.0745 -0.10089,-0.0153 -0.16839,-0.0252 -0.26839,-0.0403 0.044,-0.0224 0.09,-0.0373 0.14,-0.034 z m -1.3433,-0.16106 c 0.033,0.005 0.06,0.0156 0.087,0.0267 -0.048,-0.009 -0.086,-0.0126 -0.1333,-0.0201 0.015,-0.005 0.03,-0.009 0.046,-0.007 z m -20.9597,-3.25141 c 0.12709,0.0852 0.208,0.0148 0.07,0.11589 -0.014,-0.002 -0.027,-0.005 -0.041,-0.007 -0.017,-0.0595 -0.02,-0.072 -0.029,-0.10822 z m 11.46919,9.81386 c 1e-4,-1.6e-4 1e-4,-2.3e-4 2.1e-4,-5.2e-4 -0.033,0.0201 -0.066,0.0419 -0.094,0.0675 -0.031,0.0272 0.034,-0.0375 0.091,-0.068 z"
       style="opacity:1;fill:#f8eeca;fill-opacity:1;stroke:none;stroke-width:0.33478;stroke-linecap:round;stroke-miterlimit:4;stroke-dasharray:none;stroke-opacity:1;paint-order:fill markers stroke;filter:url(#filter8653)"
       id="path15383"
       transform="matrix(2.742856,0,0,2.742856,-1104.141,-799.67908)" />
    <path
       style="fill:#8c804d;fill-opacity:1;stroke:none;stroke-width:0.725713px;stroke-linecap:butt;stroke-linejoin:miter;stroke-opacity:1"
       d="m 77.044996,58.154432 -6.401579,3.903358 8.900211,0.256731 z"
       id="path15389"
       sodipodi:nodetypes="cccc" />
    <path
       transform="matrix(2.742856,0,0,2.742856,-928.94536,-305.39429)"
       sodipodi:nodetypes="ccccccc"
       style="fill:#050201;fill-opacity:0.64;stroke:none;stroke-width:0.264583px;stroke-linecap:butt;stroke-linejoin:miter;stroke-opacity:1;filter:url(#filter11848)"
       d="m 373.8365,138.83191 8.55829,-3.44903 -8.79739,-1.32292 -5.91897,5.3e-4 -3.24487,-0.0936 4.03911,0.94742 z"
       id="path15391" />
    <path
       style="fill:#cfb74c;fill-opacity:1;stroke:none;stroke-width:0.725713px;stroke-linecap:butt;stroke-linejoin:miter;stroke-opacity:1"
       d="M 71.303101,75.989771 77.044996,58.154432 H 103.19492 L 96.434327,75.401647 Z"
       id="path15393"
       sodipodi:nodetypes="ccccc" />
  </g>
</svg>
