<?xml version="1.0" encoding="UTF-8" standalone="no"?>
<svg
   xmlns:dc="http://purl.org/dc/elements/1.1/"
   xmlns:cc="http://creativecommons.org/ns#"
   xmlns:rdf="http://www.w3.org/1999/02/22-rdf-syntax-ns#"
   xmlns:svg="http://www.w3.org/2000/svg"
   xmlns="http://www.w3.org/2000/svg"
   xmlns:sodipodi="http://sodipodi.sourceforge.net/DTD/sodipodi-0.dtd"
   xmlns:inkscape="http://www.inkscape.org/namespaces/inkscape"
   sodipodi:docname="evidence_name.svg"
   inkscape:version="1.0 (4035a4fb49, 2020-05-01)"
   id="svg1841"
   version="1.1"
   viewBox="0 0 108.52037 32.730487"
   height="123.70577"
   width="410.15573">
  <defs
     id="defs1835" />
  <sodipodi:namedview
     inkscape:window-maximized="1"
     inkscape:window-y="-8"
     inkscape:window-x="-8"
     inkscape:window-height="705"
     inkscape:window-width="1366"
     fit-margin-bottom="10"
     fit-margin-right="10"
     fit-margin-left="10"
     lock-margins="true"
     fit-margin-top="10"
     units="px"
     showgrid="false"
     inkscape:document-rotation="0"
     inkscape:current-layer="layer1"
     inkscape:document-units="mm"
     inkscape:cy="13.93825"
     inkscape:cx="32.922966"
     inkscape:zoom="0.33557348"
     inkscape:pageshadow="2"
     inkscape:pageopacity="0.0"
     borderopacity="1.0"
     bordercolor="#666666"
     pagecolor="#ffffff"
     id="base" />
  <metadata
     id="metadata1838">
    <rdf:RDF>
      <cc:Work
         rdf:about="">
        <dc:format>image/svg+xml</dc:format>
        <dc:type
           rdf:resource="http://purl.org/dc/dcmitype/StillImage" />
        <dc:title></dc:title>
      </cc:Work>
    </rdf:RDF>
  </metadata>
  <g
     transform="translate(-160.19857,-144.47884)"
     id="layer1"
     inkscape:groupmode="layer"
     inkscape:label="Layer 1">
    <path
       inkscape:export-ydpi="96"
       inkscape:export-xdpi="96"
       inkscape:export-filename="D:\Calcatz\Icon Pack\VN Game Orient Express Theme\Visual Novel GUI\png\Evidence\evidence_name.png"
       d="m 263.42708,149.56419 c -0.3194,-0.0334 0.1139,0.65644 0.017,0.96259 -0.023,0.11041 -0.1337,-0.22108 -0.24539,-0.23487 -0.4452,-0.0571 -0.061,0.70374 -0.361,-0.21723 -1.1041,0.95839 -0.3244,0.65025 -0.8388,0.47032 -0.102,-0.035 -0.2295,-5.3e-4 -0.3179,-0.0648 -0.1923,-0.14071 -0.2493,-0.53775 -0.4882,-0.52476 -0.039,1.6e-4 0.1518,1.02058 0.018,0.29428 -0.047,0.0942 -0.025,0.25287 -0.1293,0.28526 -0.1956,0.0666 -1.0672,-0.0478 -1.2811,-0.0952 -0.2886,-0.0646 -0.5619,-0.19904 -0.8552,-0.2354 -0.3716,-0.0464 -0.7696,0.11273 -1.1232,-0.01 -0.2353,-0.0816 -0.3319,-0.36922 -0.4984,-0.55357 -0.2071,0.0674 -0.569,-0.009 -0.6229,0.20293 -0.042,0.20255 -0.062,0.46678 -0.06,0.75229 0.4526,0.57984 0.3532,1.1794 0.1094,1.66607 0,0.0215 0.018,0.0482 0.013,0.0688 -2e-4,9.8e-4 -0.027,-0.003 -0.033,-0.002 0.01,-0.0242 0.01,-0.0456 0.041,-0.063 -0.047,-0.54825 -0.1066,-1.14552 -0.1094,-1.66606 -0.051,-0.0654 -0.1163,-0.12898 -0.184,-0.19393 -0.1286,0.62351 -0.3796,1.29808 -0.4915,1.89385 -0.083,-0.003 -0.1775,-0.009 -0.2607,-0.0129 -0.077,-0.48246 -0.1746,-1.00592 -0.2298,-1.45135 -0.4306,-0.28479 -0.6606,-0.82941 -1.0038,-1.22652 -0.7247,0.58655 -0.4962,0.73382 -1.2652,0.19096 -0.061,-0.0432 -0.052,-0.19702 -0.1243,-0.18498 -0.1733,0.0259 -0.2725,0.27602 -0.4474,0.27161 -3.8352,-0.0969 0.9489,-0.56139 -1.9625,-0.2152 -1.8678,1.30226 -0.05,0.42299 -1.1508,0.16584 -0.4571,-0.10546 -0.8339,0.46854 -1.2613,0.42643 -0.25,-0.0236 -0.3977,-0.33709 -0.6425,-0.39512 -0.3336,-0.08 -0.6856,-7.4e-4 -1.0285,-5.9e-4 -1.1762,0.56626 -0.1108,0.24994 -1.8167,-0.25012 -0.2191,-0.0648 -0.4555,0.0173 -0.6822,-8.9e-4 -0.4563,-0.0336 -0.8868,-0.19677 -1.3469,-0.18859 -0.4163,0.0648 -0.8409,0.0891 -1.2496,0.19152 -0.3683,0.0913 -0.6929,0.37126 -1.0721,0.38514 -0.4207,0.0152 -0.8168,-0.20194 -1.2256,-0.30277 -0.1092,-0.10878 -0.1758,-0.32894 -0.3307,-0.32776 -0.5419,0.003 -0.9756,0.56212 -1.539,0.52233 -0.2415,-0.20885 -0.4126,-0.55385 -0.7235,-0.62572 -0.4789,-0.10996 -0.9782,0.1084 -1.4694,0.11936 -0.3436,0.011 -0.6862,-0.0308 -1.029,-0.0578 -0.3772,-0.0302 -0.7698,-0.23003 -1.1301,-0.11418 -0.5247,0.16936 -0.6348,1.08829 -0.5296,0.43969 -0.1703,0.22815 -0.2401,0.5941 -0.5105,0.6845 -0.3692,0.12358 -0.7736,-0.099 -1.1621,-0.12445 -0.5247,-0.0336 -1.0506,-0.0852 -1.5753,-0.0544 -1.2392,0.0692 -2.3085,0.49319 -3.5626,0.20443 -0.2695,-0.0606 -0.4375,-0.3355 -0.6566,-0.50357 -0.8941,0.57707 -1.0694,1.10798 -2.0447,0.33303 -0.3495,-0.27817 -0.3992,-0.95327 -0.8356,-1.04909 -0.5526,-0.12208 -1.0548,0.47486 -1.6195,0.51037 -0.3774,0.0239 -0.7083,-0.27512 -1.0805,-0.34035 -0.3135,-0.0564 -0.6385,-0.0112 -0.9569,-0.0166 -0.1576,0.004 -0.3189,-0.0304 -0.4742,0.004 -0.5287,0.11003 -1.1698,0.49867 -1.7572,0.31433 -0.2653,-0.0833 -0.4229,-0.37474 -0.6769,-0.48893 -0.7819,-0.35162 -0.8797,-0.29728 -1.5391,-0.26517 -0.9247,0.7975 -0.1551,0.20942 -0.1828,-0.0237 -0.01,-0.0874 -0.2279,0.0729 -0.2646,-0.007 -0.074,-0.15669 0.1658,-0.60093 0.01,-0.52327 -1.9209,0.95821 0.023,1.7774 -2.2494,0.0492 -0.5121,2.35034 0.323,0.10967 -1.2558,0.53175 -0.3477,0.093 -0.3566,0.6294 -0.5717,0.91735 -0.166,0.2212 -0.375,0.80058 -0.5695,0.60247 -0.2948,-0.30163 0.328,-1.14024 -0.076,-1.26312 -0.4391,-0.1336 -0.6745,0.62159 -1.0119,0.93249 -0.2565,-0.24499 -0.4189,-0.68505 -0.7701,-0.73421 -0.4923,-0.069 -0.9445,0.31293 -1.4285,0.42643 -0.3319,0.0775 -0.6715,0.15173 -1.0123,0.14494 -0.6964,-0.0139 -1.0797,-0.4872 -1.8364,-0.28358 -0.337,0.0904 -0.5643,0.41046 -0.8464,0.61612 -0.2563,-0.11551 -0.5122,-0.23132 -0.7681,-0.34681 -0.2537,-0.11477 -0.5601,-0.36273 -0.8558,-0.1279 -0.1442,0.1148 -0.1378,0.38101 -0.3028,0.46358 -0.3245,0.16247 -0.2341,-2.36295 -1.088,0.0269 -1.2995,-1.0732 -0.1569,-0.42114 -2.1481,-0.51702 -0.2334,-0.009 -0.4418,-0.25097 -0.6695,-0.20181 -0.2347,0.0519 -0.3159,0.41883 -0.5536,0.46552 -0.9122,0.1803 -0.254,-0.61837 -0.6489,-0.0528 -0.1518,0.0841 -0.2975,0.3157 -0.4593,0.25141 -0.8423,-0.33605 0.3305,-0.74731 -0.7125,-0.81531 -0.3505,-0.0232 -0.7144,0.0412 -1.0389,0.17643 -0.2418,0.1 -0.3442,0.56954 -0.5977,0.50481 -0.245,-0.0617 -0.3527,-0.33344 -0.476,-0.57956 -0.077,0.18334 -0.4474,0.28243 -0.5801,0.26735 -0.2597,-0.0312 -0.497,-0.2209 -0.7575,-0.20319 -3.5823,0.25087 0.3176,0.56006 -2.5725,0.23623 -0.296,-0.0692 -0.5889,-0.15417 -0.8874,-0.21182 -0.1162,-0.0219 -0.242,-0.0666 -0.3536,-0.0261 -0.262,0.0941 -0.4661,0.514 -0.7258,0.41409 -0.2995,-0.11555 -0.1161,-0.80475 -0.4325,-0.85996 -0.3424,-0.0593 -0.5493,0.42638 -0.8235,0.63977 -0.3146,-0.073 -0.6294,-0.14373 -0.944,-0.21705 -0.4304,-0.18724 -0.996,-0.55492 -1.5146,-0.3071 -0.2256,0.10754 -0.3481,0.45313 -0.5209,0.62722 -0.1336,-0.008 -0.2663,-0.0149 -0.3991,-0.0229 -0.099,-0.2123 -7e-4,-0.63514 -0.1727,-0.83036 -0.033,-0.0374 -1.186,-0.0854 -1.1894,-0.0853 -0.4564,-0.0801 -0.9122,-0.16281 -1.3685,-0.2435 -0.2558,0.25335 -0.4063,0.76059 -0.7663,0.76 -0.4154,-0.002 -0.6053,-0.59934 -0.9871,-0.76336 -0.1538,-0.0661 -0.5704,-0.0134 -0.4851,0.13133 0.069,0.1167 0.1387,0.20308 0.2078,0.27557 -0.075,0.20865 -0.2763,0.45879 -0.9215,0.37875 -0.1058,-0.0136 -0.2242,-0.035 -0.3546,-0.068 -0.7051,-0.17699 -1.0599,-1.05619 -1.7393,-1.31504 -0.95389,-0.36353 -1.94469,0.52161 -2.84498,0.47017 -0.17121,-0.0101 -0.1607,-0.3031 -0.2415,-0.45443 -0.1167,0.14509 -0.16611,0.40939 -0.35091,0.43456 -0.15789,0.0226 -0.19559,-0.26156 -0.33279,-0.34219 -0.27891,-0.16308 -0.5715,-0.404 -0.8932,-0.37484 -0.43731,0.0381 -0.75511,0.50905 -1.19061,0.56434 -1.1608,0.14751 -1.5409,-0.54866 -2.2831,-1.24069 -0.2715,-0.0924 -0.6296,0.59068 -0.8079,1.23209 -0.2166,-0.025 -0.4006,-0.0419 -0.62129,-0.0681 l -0.92981,21.53306 c 0.2029,0.025 0.37091,0.0437 0.57031,0.066 0.024,0.0833 0.063,0.14302 0.12629,0.16438 0.21561,-9e-4 0.7325,-0.0114 1.246,-0.006 0.5177,0.0599 1.042,0.12043 1.5389,0.17579 0.2545,0.14321 0.4233,0.42762 0.665,0.60041 0.10501,0.0748 0.2497,0.0739 0.35851,0.14475 0.50679,0.32403 0.77639,0.79595 1.1495,1.27118 0.9042,-0.77697 1.30739,-1.43978 2.3535,-1.5384 0.3475,0.0344 0.7158,0.0728 1.0551,0.1052 0.30319,0.0911 0.59949,0.21994 0.892,0.33789 0.29479,0.11876 0.55199,0.31515 0.82959,0.46993 0.2306,0.1285 0.4357,0.32197 0.693,0.37893 0.1073,0.0242 0.1911,-0.10932 0.2866,-0.16356 -0.024,0.22526 -0.2802,0.60265 -0.066,0.67672 2.2108,0.76428 1.2564,-0.81665 2.5415,-0.73582 1.9872,0.12499 -0.2037,0.32658 1.2133,0.15596 0.1477,0.16122 0.2531,0.37594 0.443,0.48445 0.6409,0.36622 1.1895,-0.0554 1.8187,-0.22655 0.2837,-0.0762 0.5803,-0.0977 0.8619,-0.18135 0.254,-0.075 0.4885,-0.37867 0.739,-0.29289 0.3541,0.12119 0.5177,0.5409 0.7766,0.81097 0.3537,-0.20518 0.4018,-0.28528 0.9503,-0.19153 0.2039,0.0339 0.36,0.23692 0.5664,0.25565 0.2309,0.0224 0.4505,-0.12332 0.6815,-0.14525 1.1598,-0.11066 0.9299,-0.0685 1.9613,0.31577 1.2189,-0.92714 0.6082,-0.86515 1.9009,-0.5549 0.2536,0.0605 0.55861,0.025 0.7565,0.19432 0.1687,0.14569 0.014,0.52769 0.2135,0.63767 0.133,0.0748 0.12051,-0.3667 0.2712,-0.36443 0.27081,0.004 0.4801,0.25328 0.71981,0.37997 2.1217,-1.33849 -1.78011,0.91465 1.19629,0.19053 0.24171,-0.0583 0.033,-0.52642 0.1926,-0.71667 0.23511,-0.28461 0.65181,-0.17546 0.8783,0.001 0.1303,0.10188 0.2207,0.24686 0.33281,0.37047 0.28549,-0.0941 0.568,-0.36613 0.85659,-0.28208 0.2843,0.0838 0.28781,0.56675 0.5557,0.69364 0.1837,0.0872 0.3929,-0.10694 0.5912,-0.15063 0.2084,-0.0467 0.42371,-0.0681 0.63221,-0.11753 0.19459,-0.0473 0.3766,-0.14529 0.5749,-0.17364 0.2921,-0.0412 0.58899,-0.0245 0.88389,-0.0357 1.1812,0.46499 0.51701,0.36393 2.0158,0.10057 0.1804,-0.0326 0.40331,0.0229 0.5448,-0.0955 0.1186,-0.0999 -0.034,-0.39255 0.12041,-0.45002 0.35439,-0.1479 1.09239,0.6426 1.19399,0.7311 0.2741,-0.29665 0.4431,-0.74298 0.81891,-0.88966 0.1978,-0.0768 1.58439,0.17984 1.9241,0.25323 0.25459,0.0555 0.49899,0.20394 0.7595,0.18739 0.19329,-0.014 0.3307,-0.31365 0.5197,-0.26827 0.3204,0.0773 0.5311,0.39022 0.79739,0.5849 0.58451,-0.4023 0.86641,-0.6235 0.99481,-0.73028 0.027,0.003 0.039,-1.6e-4 0.053,-2.7e-4 -0.054,0.12941 -0.041,0.36194 0.852,0.34478 0.2641,-0.004 0.4972,-0.20057 0.7438,-0.3039 0.1727,0.004 0.39019,0.0115 0.5654,0.0135 0.2846,0.13707 0.5357,0.40918 0.84959,0.43108 0.24331,0.0154 0.45941,-0.18828 0.64841,-0.39188 0.072,9.3e-4 0.1508,0.002 0.2227,0.006 0.1272,0.0895 0.2315,0.24096 0.3819,0.26047 0.229,0.0304 0.4422,-0.15361 0.6726,-0.1681 1.0717,-0.0681 0.841,0.006 1.48089,0.79325 0.10131,-0.0852 0.20301,-0.16932 0.3019,-0.25529 0.65441,0.2934 0.61291,0.35289 1.46501,-0.053 0.239,-0.11344 0.4415,-0.30153 0.6619,-0.4481 0.7224,0.0201 1.2795,0.0305 2.0323,0.0522 0.1973,0.0749 0.3965,0.14954 0.5947,0.22448 0.3478,0.0261 0.7163,-0.0428 1.0435,0.0776 0.2499,0.0918 0.3369,0.48078 0.5988,0.52666 1.6734,0.29316 0.7434,-0.42029 1.365,-0.72699 0.395,0.0114 0.8381,0.0252 1.2411,0.0374 0.1582,0.14268 0.2997,0.3393 0.4638,0.46692 1.6604,0.25038 1.383,0.33521 3.1465,0.0352 0.4715,-0.0801 0.9267,-0.25066 1.3941,-0.34843 0.683,0.0212 1.3714,0.0455 2.0756,0.0676 0.4667,0.0673 0.9283,0.13755 1.2882,0.16219 0.1956,0.0151 0.3899,-0.0207 0.5846,-0.0321 0.05,-0.0372 0.037,-0.0297 0.084,-0.0632 1.002,0.0349 2.0555,0.0696 3.1008,0.10641 0.1325,0.1049 0.2644,0.21104 0.3964,0.31639 0.1651,-0.0948 0.3296,-0.19 0.4947,-0.28497 1.5841,0.0543 3.1376,0.11061 4.8233,0.17143 0.019,0.0566 0.045,0.0549 0.083,0.003 1.5603,0.0567 3.2796,0.12246 4.9307,0.18541 0.1142,0.0849 0.2441,0.16095 0.3131,0.20373 -0.1434,-0.10543 -0.17411,-0.13279 -0.26201,-0.20131 0.99131,0.0371 1.9334,0.0725 2.95881,0.11133 0.12689,0.0774 0.257,0.13863 0.4025,0.14094 0.1086,0.003 0.2004,-0.048 0.2868,-0.11395 0.3669,0.0146 0.67969,0.0239 1.0508,0.0399 0.029,0.009 0.055,0.006 0.078,0.005 0.2305,0.009 0.4179,0.0164 0.649,0.0226 -0.01,0.0308 -0.01,0.0507 0.017,0.0489 0.05,-0.012 0.099,-0.0276 0.1482,-0.0397 1.0372,0.0424 2.2509,0.0943 3.3224,0.13813 0.061,0.001 0.1253,0.003 0.1858,0.009 0,0.0215 0.016,0.054 0.026,0.0789 0,-0.0162 0.05,-0.0523 0.072,-0.0749 0.028,5.3e-4 0.055,0.003 0.083,0.003 -0.1192,0.0757 -0.166,0.0985 -0.1531,0.0771 0.062,0.13677 0.1565,0.25939 0.2965,0.36321 0.3444,0.25668 0.4547,0.0251 0.4745,-0.41503 0.2528,0.0103 0.5234,0.0216 0.7789,0.0323 1.1244,0.49812 0.4949,0.35462 0.6387,0.0261 0.8428,0.0345 1.69,0.0702 2.5535,0.10456 0.091,0.0635 0.2003,0.0609 0.3216,0.0134 0.4285,0.0178 0.8294,0.0334 1.2632,0.052 0.039,0.0996 0.087,0.18878 0.1782,0.23613 0.1161,0.0615 0.074,-0.0694 -0.014,-0.22864 0.7199,0.0305 1.35869,0.056 2.09289,0.0875 0.032,0.29618 -0.15609,0.43069 0.81311,0.3614 0.1251,-0.01 0.1333,-0.21085 0.1977,-0.32072 0.13609,0.006 0.2498,0.0106 0.388,0.017 l 0.92979,-21.53308 c -0.027,-0.003 -0.042,-4.4e-4 -0.066,-0.005 0.065,-1.00675 -0.25519,-2.54039 -0.73969,-2.4849 -0.044,0.0349 -0.12591,0.0673 -0.18051,0.10142 0.017,-0.0825 0.061,-0.16273 0.076,-0.23553 0.054,-0.68118 -0.083,-0.0872 -0.6472,0.7977 -0.1278,-0.0998 -0.28449,-0.17122 -0.38449,-0.29909 -0.2501,-0.31927 -0.25001,-0.98533 -0.6537,-1.02556 z m -8.30289,24.35434 c -8e-4,-0.001 5.2e-4,-0.002 0,-0.005 0,0.008 -1.1e-4,5.3e-4 0,0.005 z M 191.60938,149.4992 c 0,-0.0108 0.031,-0.016 0.01,-0.0347 0.017,-0.085 -0.1063,-0.13646 -0.1596,-0.20401 0.053,0.0697 0.098,0.15174 0.1391,0.2359 z m 63.87041,1.33491 c 0.039,0.0277 0.079,0.0524 0.12199,0.0738 0.19811,0.0991 0.2198,-0.38662 0.35151,-0.56373 0.038,-0.051 0.098,-0.14839 0.1486,-0.23065 -0.079,-0.0548 -0.14501,-0.11137 -0.2376,-0.16492 -0.437,-0.25222 -0.46721,0.21619 -0.38421,0.88572 z m 0.6213,-0.72082 c 0.1373,0.095 0.25969,0.19158 0.3592,0.2891 0.05,-0.24285 0.072,-0.48373 0.05,-0.70428 -0.025,-0.21864 -0.2313,0.13043 -0.4079,0.41518 z m 9.14219,0.16361 c 0.03,-0.0107 0.036,-0.0121 0.043,0.0118 0.024,0.14321 -0.1301,0.48272 -0.2254,0.37343 -0.058,-0.0683 -0.054,-0.15953 -0.029,-0.2555 0.056,0.0166 0.1543,-0.0965 0.2143,-0.12945 z m -13.07229,1.54791 c 0.029,-0.005 0.043,-0.008 0.069,0.006 0.1231,0.0548 0.1539,0.17708 0.16139,0.31755 -0.1254,-0.003 -0.2555,-0.0107 -0.3796,-0.0144 0.032,-0.15716 0.086,-0.28267 0.1473,-0.30872 z m -13.7432,-0.3609 c 0.14139,-0.006 0.26049,0.0677 0.3732,0.16239 -0.27981,-0.009 -0.46681,-0.0151 -0.7439,-0.0242 0.11349,-0.0749 0.2342,-0.13068 0.3706,-0.1373 z m -3.7109,-0.0109 c 0.093,0.002 0.1689,0.0236 0.24549,0.0455 -0.1329,-0.008 -0.23959,-0.006 -0.36969,-0.0121 0.04,-0.0169 0.079,-0.0332 0.1242,-0.0318 z m -58.13631,-2.17975 c 0.3734,0.19178 0.5716,-0.0264 0.2271,0.29354 -0.039,1.7e-4 -0.076,-0.008 -0.1148,-0.007 -0.065,-0.15672 -0.076,-0.18984 -0.1128,-0.28565 z m 34.3724,23.08158 c 1.1e-4,-4.8e-4 1.1e-4,-6.9e-4 2.1e-4,-9.8e-4 -0.084,0.0659 -0.1651,0.13512 -0.2345,0.21379 -0.076,0.0839 0.079,-0.11246 0.2261,-0.2144 z"
       style="opacity:1;fill:#f8eeca;fill-opacity:1;stroke:none;stroke-width:0.918252;stroke-linecap:round;stroke-miterlimit:4;stroke-dasharray:none;stroke-opacity:1;paint-order:fill markers stroke"
       id="path15667" />
  </g>
</svg>
