<?xml version="1.0" encoding="UTF-8" standalone="no"?>
<svg
   xmlns:dc="http://purl.org/dc/elements/1.1/"
   xmlns:cc="http://creativecommons.org/ns#"
   xmlns:rdf="http://www.w3.org/1999/02/22-rdf-syntax-ns#"
   xmlns:svg="http://www.w3.org/2000/svg"
   xmlns="http://www.w3.org/2000/svg"
   xmlns:xlink="http://www.w3.org/1999/xlink"
   xmlns:sodipodi="http://sodipodi.sourceforge.net/DTD/sodipodi-0.dtd"
   xmlns:inkscape="http://www.inkscape.org/namespaces/inkscape"
   inkscape:export-ydpi="96"
   inkscape:export-xdpi="96"
   inkscape:export-filename="D:\Calcatz\Icon Pack\VN Game Orient Express Theme\Visual Novel GUI\png\Evidence\evidence_placeholder_number_1.png"
   sodipodi:docname="evidence_placeholder_number_1.svg"
   inkscape:version="1.0 (4035a4fb49, 2020-05-01)"
   id="svg1887"
   version="1.1"
   viewBox="0 0 156.60541 155.59461"
   height="588.0741"
   width="591.89447">
  <defs
     id="defs1881">
    <filter
       inkscape:collect="always"
       style="color-interpolation-filters:sRGB"
       id="filter8959"
       x="-0.025277877"
       width="1.0505558"
       y="-0.028973924"
       height="1.0579478">
      <feGaussianBlur
         inkscape:collect="always"
         stdDeviation="2.0775256"
         id="feGaussianBlur8961" />
    </filter>
    <clipPath
       id="clipPath4273-4-6-1-3-7"
       clipPathUnits="userSpaceOnUse">
      <path
         style="fill:#e8cdc4;fill-opacity:1;stroke:none;stroke-width:0.264583px;stroke-linecap:butt;stroke-linejoin:miter;stroke-opacity:1"
         d="m 1027.0233,68.00673 c -0.5918,-6.350027 -1.9643,-11.919355 -2.9573,-17.868188 l 13.1961,-3.472657 -5.4571,19.546094 z"
         id="path4275-2-8-0-2-0"
         sodipodi:nodetypes="ccccc" />
    </clipPath>
    <linearGradient
       y2="56.718391"
       x2="1025.8976"
       y1="56.522816"
       x1="1030.8768"
       gradientUnits="userSpaceOnUse"
       id="linearGradient15539"
       xlink:href="#linearGradient2199"
       inkscape:collect="always" />
    <linearGradient
       inkscape:collect="always"
       id="linearGradient2199">
      <stop
         style="stop-color:#7a5651;stop-opacity:1"
         offset="0"
         id="stop2195" />
      <stop
         style="stop-color:#cbb4b1;stop-opacity:1"
         offset="1"
         id="stop2197" />
    </linearGradient>
    <clipPath
       id="clipPath4023-0-9-3-5-3"
       clipPathUnits="userSpaceOnUse">
      <path
         style="fill:#e8cdc4;fill-opacity:1;stroke:none;stroke-width:0.264583px;stroke-linecap:butt;stroke-linejoin:miter;stroke-opacity:1"
         d="m 1027.0233,68.00673 c -0.5918,-6.350027 -1.9643,-11.919355 -2.9573,-17.868188 l 13.1961,-3.472657 -5.4571,19.546094 z"
         id="path4025-4-6-5-7-3"
         sodipodi:nodetypes="ccccc" />
    </clipPath>
    <filter
       height="1.2558144"
       y="-0.12790722"
       width="1.7696749"
       x="-0.38483748"
       id="filter3823-7-3"
       style="color-interpolation-filters:sRGB"
       inkscape:collect="always">
      <feGaussianBlur
         id="feGaussianBlur3825-5-9"
         stdDeviation="1.2197263"
         inkscape:collect="always" />
    </filter>
    <clipPath
       id="clipPath4029-9-8-1-2-6"
       clipPathUnits="userSpaceOnUse">
      <path
         style="fill:#e8cdc4;fill-opacity:1;stroke:none;stroke-width:0.264583px;stroke-linecap:butt;stroke-linejoin:miter;stroke-opacity:1"
         d="m 1027.0233,68.00673 c -0.5918,-6.350027 -1.9643,-11.919355 -2.9573,-17.868188 l 13.1961,-3.472657 -5.4571,19.546094 z"
         id="path4031-5-8-8-9-8"
         sodipodi:nodetypes="ccccc" />
    </clipPath>
    <filter
       height="1.2514025"
       y="-0.12570126"
       width="1.8125798"
       x="-0.40628985"
       id="filter3987-9-5"
       style="color-interpolation-filters:sRGB"
       inkscape:collect="always">
      <feGaussianBlur
         id="feGaussianBlur3989-1-6"
         stdDeviation="0.56343029"
         inkscape:collect="always" />
    </filter>
    <filter
       height="1.2280282"
       y="-0.1140141"
       width="1.5876319"
       x="-0.29381594"
       id="filter6847"
       style="color-interpolation-filters:sRGB"
       inkscape:collect="always">
      <feGaussianBlur
         id="feGaussianBlur6849"
         stdDeviation="0.92610122"
         inkscape:collect="always" />
    </filter>
    <clipPath
       id="clipPath4256-0-2-1-2-6"
       clipPathUnits="userSpaceOnUse">
      <path
         style="fill:#e8cdc4;fill-opacity:1;stroke:none;stroke-width:0.264583px;stroke-linecap:butt;stroke-linejoin:miter;stroke-opacity:1"
         d="m 1033.852,41.720773 c -4.5213,24.009712 -7.1191,24.710583 -6.8287,26.285957 8.7351,-1.097137 14.9359,0.280633 23.9473,-0.280633 0.9949,-4.391824 3.4279,-13.071319 4.303,-20.018486 -5.4867,-2.903202 -14.174,-4.049969 -21.4216,-5.986838 z"
         id="path4258-1-3-3-6-4"
         sodipodi:nodetypes="ccccc" />
    </clipPath>
    <clipPath
       id="clipPath4264-9-0-1-4-5"
       clipPathUnits="userSpaceOnUse">
      <path
         style="fill:#e8cdc4;fill-opacity:1;stroke:none;stroke-width:0.264583px;stroke-linecap:butt;stroke-linejoin:miter;stroke-opacity:1"
         d="m 1033.852,41.720773 c -4.5213,24.009712 -7.1191,24.710583 -6.8287,26.285957 8.7351,-1.097137 14.9359,0.280633 23.9473,-0.280633 0.9949,-4.391824 3.4279,-13.071319 4.303,-20.018486 -5.4867,-2.903202 -14.174,-4.049969 -21.4216,-5.986838 z"
         id="path4266-9-8-8-5-8"
         sodipodi:nodetypes="ccccc" />
    </clipPath>
    <linearGradient
       y2="55.285011"
       x2="1039.4358"
       y1="52.315968"
       x1="1031.286"
       gradientUnits="userSpaceOnUse"
       id="linearGradient15541"
       xlink:href="#linearGradient2199"
       inkscape:collect="always" />
    <clipPath
       id="clipPath4013-6-2-5-0-1"
       clipPathUnits="userSpaceOnUse">
      <path
         style="fill:#e8cdc4;fill-opacity:1;stroke:none;stroke-width:0.264583px;stroke-linecap:butt;stroke-linejoin:miter;stroke-opacity:1"
         d="m 1033.852,41.720773 c -4.5213,24.009712 -7.1191,24.710583 -6.8287,26.285957 l 23.9473,-0.280633 c 0.9949,-4.391824 3.4279,-13.071319 4.303,-20.018486 -5.4867,-2.903202 -14.174,-4.049969 -21.4216,-5.986838 z"
         id="path4015-5-1-6-8-5"
         sodipodi:nodetypes="ccccc" />
    </clipPath>
    <filter
       height="1.1787961"
       y="-0.089398026"
       width="1.3929187"
       x="-0.19645932"
       id="filter4003-6-2"
       style="color-interpolation-filters:sRGB"
       inkscape:collect="always">
      <feGaussianBlur
         id="feGaussianBlur4005-2-9"
         stdDeviation="0.9495125"
         inkscape:collect="always" />
    </filter>
    <clipPath
       id="clipPath4072-3-0-7-8-2"
       clipPathUnits="userSpaceOnUse">
      <path
         style="fill:#e8cdc4;fill-opacity:1;stroke:none;stroke-width:0.264583px;stroke-linecap:butt;stroke-linejoin:miter;stroke-opacity:1"
         d="m 1033.852,41.720773 c -4.5213,24.009712 -7.1191,24.710583 -6.8287,26.285957 8.7351,-1.097137 14.9359,0.280633 23.9473,-0.280633 0.9949,-4.391824 3.4279,-13.071319 4.303,-20.018486 -5.4867,-2.903202 -14.174,-4.049969 -21.4216,-5.986838 z"
         id="path4074-7-0-4-2-1"
         sodipodi:nodetypes="ccccc" />
    </clipPath>
    <filter
       height="1.5295378"
       y="-0.2647689"
       width="1.0764892"
       x="-0.038244613"
       id="filter3663-4-6"
       style="color-interpolation-filters:sRGB"
       inkscape:collect="always">
      <feGaussianBlur
         id="feGaussianBlur3665-4-9"
         stdDeviation="0.42036886"
         inkscape:collect="always" />
    </filter>
    <clipPath
       id="clipPath4248-4-0-8-0-3"
       clipPathUnits="userSpaceOnUse">
      <path
         style="fill:#e8cdc4;fill-opacity:1;stroke:none;stroke-width:0.264583px;stroke-linecap:butt;stroke-linejoin:miter;stroke-opacity:1"
         d="m 1033.852,41.720773 c -4.5213,24.009712 -7.1191,24.710583 -6.8287,26.285957 8.7351,-1.097137 14.9359,0.280633 23.9473,-0.280633 0.9949,-4.391824 3.4279,-13.071319 4.303,-20.018486 -5.4867,-2.903202 -14.174,-4.049969 -21.4216,-5.986838 z"
         id="path4250-2-9-0-2-0"
         sodipodi:nodetypes="ccccc" />
    </clipPath>
    <filter
       height="1.7333705"
       y="-0.36668524"
       width="1.278257"
       x="-0.13912852"
       id="filter4242-5-6"
       style="color-interpolation-filters:sRGB"
       inkscape:collect="always">
      <feGaussianBlur
         id="feGaussianBlur4244-5-8"
         stdDeviation="1.1925227"
         inkscape:collect="always" />
    </filter>
    <linearGradient
       y2="62.005154"
       x2="971.64014"
       y1="53.500656"
       x1="964.3067"
       gradientUnits="userSpaceOnUse"
       id="linearGradient15543"
       xlink:href="#linearGradient2199"
       inkscape:collect="always" />
    <clipPath
       clipPathUnits="userSpaceOnUse"
       id="clipPath7482-0">
      <path
         style="fill:#d2dee6;fill-opacity:1;stroke:none;stroke-width:0.44858px;stroke-linecap:butt;stroke-linejoin:miter;stroke-opacity:1"
         d="m 938.42796,46.653648 c 3.35156,41.286119 -0.5829,43.594848 0.59699,46.041072 13.79336,-5.703386 24.55002,-6.225422 39.03503,-11.176164 -0.33855,-7.627125 -0.24432,-22.909403 -1.92233,-34.66164 -10.2716,-2.29206 -24.99103,-0.279476 -37.70969,-0.203268 z"
         id="path7484-4"
         sodipodi:nodetypes="ccccc" />
    </clipPath>
    <filter
       inkscape:collect="always"
       style="color-interpolation-filters:sRGB"
       id="filter7476"
       x="-0.077692926"
       width="1.1553859"
       y="-0.22362058"
       height="1.4472412">
      <feGaussianBlur
         inkscape:collect="always"
         stdDeviation="1.2047067"
         id="feGaussianBlur7478" />
    </filter>
    <filter
       inkscape:collect="always"
       style="color-interpolation-filters:sRGB"
       id="filter11800"
       x="-0.018861219"
       width="1.0377223"
       y="-0.047494128"
       height="1.0949883">
      <feGaussianBlur
         inkscape:collect="always"
         stdDeviation="0.29946886"
         id="feGaussianBlur11802" />
    </filter>
    <filter
       inkscape:collect="always"
       style="color-interpolation-filters:sRGB"
       id="filter11776"
       x="-0.038074356"
       width="1.0761487"
       y="-0.070522644"
       height="1.1410453">
      <feGaussianBlur
         inkscape:collect="always"
         stdDeviation="0.20259539"
         id="feGaussianBlur11778" />
    </filter>
  </defs>
  <sodipodi:namedview
     inkscape:window-maximized="1"
     inkscape:window-y="-8"
     inkscape:window-x="-8"
     inkscape:window-height="705"
     inkscape:window-width="1366"
     fit-margin-bottom="10"
     fit-margin-right="10"
     fit-margin-left="10"
     lock-margins="true"
     fit-margin-top="10"
     units="px"
     showgrid="false"
     inkscape:document-rotation="0"
     inkscape:current-layer="layer1"
     inkscape:document-units="mm"
     inkscape:cy="155.45265"
     inkscape:cx="788.6183"
     inkscape:zoom="0.35355339"
     inkscape:pageshadow="2"
     inkscape:pageopacity="0.0"
     borderopacity="1.0"
     bordercolor="#666666"
     pagecolor="#ffffff"
     id="base" />
  <metadata
     id="metadata1884">
    <rdf:RDF>
      <cc:Work
         rdf:about="">
        <dc:format>image/svg+xml</dc:format>
        <dc:type
           rdf:resource="http://purl.org/dc/dcmitype/StillImage" />
        <dc:title></dc:title>
      </cc:Work>
    </rdf:RDF>
  </metadata>
  <g
     transform="translate(-30.503563,-19.970652)"
     id="layer1"
     inkscape:groupmode="layer"
     inkscape:label="Layer 1">
    <path
       id="path15047"
       style="fill:#000000;fill-opacity:1;stroke:none;stroke-width:1.69542px;stroke-linecap:butt;stroke-linejoin:miter;stroke-opacity:1;filter:url(#filter8959)"
       d="m 702.84766,761.80078 c -1.19441,14.64472 -2.41919,27.9676 -3.6543,40.09961 l -53.07031,20.10156 c 10.20951,36.86801 22.5331,71.12417 30.5664,110.67969 0.0568,0.40293 0.13253,0.80246 0.25196,1.20703 54.93148,-12.84443 95.37056,-8.21743 152.42187,-17.83203 3.39769,-28.65459 13.0875,-85.59811 14.00977,-130.45703 -36.91056,-14.82518 -93.04058,-16.31166 -140.52539,-23.79883 z"
       transform="matrix(0.72571404,0,0,0.72571404,-431.20297,-508.43515)" />
    <path
       style="fill:#cbb4b1;fill-opacity:1;stroke:none;stroke-width:1.23039px;stroke-linecap:butt;stroke-linejoin:miter;stroke-opacity:1"
       d="M 57.160446,166.39852 C 51.335868,137.31872 42.280283,112.22909 34.79531,85.199797 L 94.135984,62.722987 78.40214,155.7731 Z"
       id="path15049"
       sodipodi:nodetypes="ccccc" />
    <path
       style="fill:#ffffff;fill-opacity:0.254902;stroke:none;stroke-width:0.264583px;stroke-linecap:butt;stroke-linejoin:miter;stroke-opacity:1"
       d="m 1023.0476,49.85913 0.5613,2.478924 11.9269,-3.133736 -0.8419,-3.507911 z"
       id="path15051"
       clip-path="url(#clipPath4273-4-6-1-3-7)"
       transform="matrix(4.6247936,-0.48624138,0.48624138,4.6247936,-4725.678,351.26267)" />
    <path
       sodipodi:nodetypes="cc"
       id="path15053"
       d="M 37.705973,94.376048 C 49.39453,90.538388 62.223846,85.097935 74.584375,80.316165"
       style="fill:none;stroke:#b7693c;stroke-width:0.725713px;stroke-linecap:butt;stroke-linejoin:miter;stroke-opacity:1" />
    <path
       style="fill:url(#linearGradient15539);fill-opacity:1;stroke:none;stroke-width:0.264583px;stroke-linecap:butt;stroke-linejoin:miter;stroke-opacity:1;filter:url(#filter3823-7-3)"
       d="m 1030.8865,46.617948 c 1.1889,7.796734 -2.6435,15.125377 -4.3693,22.041426 l 3.2188,-2.757392 4.3879,-20.129066 z"
       id="path15055"
       sodipodi:nodetypes="ccccc"
       clip-path="url(#clipPath4023-0-9-3-5-3)"
       transform="matrix(4.6247936,-0.48624138,0.48624138,4.6247936,-4725.678,351.26267)" />
    <path
       style="fill:#ac8b84;fill-opacity:1;stroke:none;stroke-width:0.264583px;stroke-linecap:butt;stroke-linejoin:miter;stroke-opacity:1;filter:url(#filter3987-9-5)"
       d="m 1026.8579,68.833552 c -0.1946,-1.491219 0.5695,-3.478532 1.1476,-4.969751 1.0433,-3.584242 1.5899,-4.849541 2.632,-5.626093 l -1.563,7.102035 z"
       id="path15057"
       sodipodi:nodetypes="ccccc"
       clip-path="url(#clipPath4029-9-8-1-2-6)"
       transform="matrix(4.6247936,-0.48624138,0.48624138,4.6247936,-4725.678,351.26267)" />
    <path
       transform="matrix(2.7067748,0.44343037,-0.44343037,2.7067748,-2443.465,-500.89739)"
       id="path15059"
       d="m 972.95013,65.140685 -0.622,14.304886 5.68684,1.512554 c 0.46504,-2.144085 -1.15496,-12.042648 -1.71169,-17.046941 z"
       style="fill:#000000;fill-opacity:1;stroke:none;stroke-width:0.264583px;stroke-linecap:butt;stroke-linejoin:miter;stroke-opacity:1;filter:url(#filter6847)"
       sodipodi:nodetypes="ccccc" />
    <path
       style="fill:#cbb4b1;fill-opacity:1;stroke:none;stroke-width:1.23039px;stroke-linecap:butt;stroke-linejoin:miter;stroke-opacity:1"
       d="M 75.96048,41.510995 C 66.724908,154.7494 55.051422,159.25395 57.160446,166.39852 97.024992,157.07713 126.37236,160.43393 167.7753,153.45648 170.24105,132.66144 177.27268,91.337563 177.94198,58.782812 151.15547,48.023974 110.42088,46.944539 75.96048,41.510995 Z"
       id="path15061"
       sodipodi:nodetypes="ccccc" />
    <path
       style="fill:#ffffff;fill-opacity:0.254902;stroke:none;stroke-width:0.264583px;stroke-linecap:butt;stroke-linejoin:miter;stroke-opacity:1"
       d="m 1032.338,43.32552 c 7.6509,2.23153 16.9105,3.021361 24.044,6.779948 l 0.43,-4.067969 -23.6141,-6.151562 z"
       id="path15063"
       sodipodi:nodetypes="ccccc"
       clip-path="url(#clipPath4256-0-2-1-2-6)"
       transform="matrix(4.6247936,-0.48624138,0.48624138,4.6247936,-4725.678,351.26267)" />
    <path
       style="fill:#ffffff;fill-opacity:0.254902;stroke:none;stroke-width:0.264583px;stroke-linecap:butt;stroke-linejoin:miter;stroke-opacity:1"
       d="m 1056.7703,46.772165 -3.9756,22.918364 -4.2539,-0.415276 c 1.7597,-7.94958 4.5954,-15.627874 5.3297,-24.046569 z"
       id="path15065"
       sodipodi:nodetypes="ccccc"
       clip-path="url(#clipPath4264-9-0-1-4-5)"
       transform="matrix(4.6247936,-0.48624138,0.48624138,4.6247936,-4725.678,351.26267)" />
    <path
       sodipodi:nodetypes="ccc"
       id="path15067"
       d="m 75.933599,50.958736 c 29.680121,4.900902 59.508261,4.560529 94.011041,13.542713 -1.48247,30.703185 -7.74198,59.852771 -11.95665,90.385301"
       style="fill:none;stroke:#b7693c;stroke-width:0.725713px;stroke-linecap:butt;stroke-linejoin:miter;stroke-opacity:1" />
    <path
       style="fill:url(#linearGradient15541);fill-opacity:1;stroke:none;stroke-width:0.264583px;stroke-linecap:butt;stroke-linejoin:miter;stroke-opacity:1;filter:url(#filter4003-6-2)"
       d="m 1035.8329,43.784569 c -1.2684,8.387592 -2.7249,14.243625 -6.0969,22.117414 9.4487,-5.728761 11.4774,-14.736747 12.7246,-20.380589 z"
       id="path15069"
       sodipodi:nodetypes="cccc"
       clip-path="url(#clipPath4013-6-2-5-0-1)"
       transform="matrix(4.6247936,-0.48624138,0.48624138,4.6247936,-4725.678,351.26267)" />
    <path
       style="fill:#ac8b84;fill-opacity:1;stroke:none;stroke-width:0.264583px;stroke-linecap:butt;stroke-linejoin:miter;stroke-opacity:1;filter:url(#filter3663-4-6)"
       d="m 1026.7818,68.847251 c 2.9229,-6.409034 12.3553,-0.123711 25.3923,-2.750815 l -0.5215,3.025959 z"
       id="path15071"
       sodipodi:nodetypes="cccc"
       clip-path="url(#clipPath4072-3-0-7-8-2)"
       transform="matrix(4.6247936,-0.48624138,0.48624138,4.6247936,-4725.678,351.26267)" />
    <path
       style="fill:#dec3c1;fill-opacity:1;stroke:none;stroke-width:0.264583px;stroke-linecap:butt;stroke-linejoin:miter;stroke-opacity:1;filter:url(#filter4242-5-6)"
       d="m 1034.3886,64.822916 c 9.9609,-1.356725 15.9338,-5.364602 20.7599,-8.537317 l -1.7762,8.8019 z"
       id="path15073"
       sodipodi:nodetypes="cccc"
       clip-path="url(#clipPath4248-4-0-8-0-3)"
       transform="matrix(4.6247936,-0.48624138,0.48624138,4.6247936,-4725.678,351.26267)" />
    <path
       transform="matrix(2.7067748,0.44343037,-0.44343037,2.7067748,-2443.465,-500.89739)"
       clip-path="url(#clipPath7482-0)"
       sodipodi:nodetypes="cccc"
       id="path15075"
       d="M 973.59736,49.385786 954.63061,77.327181 974.20826,59.391552 Z"
       style="fill:url(#linearGradient15543);fill-opacity:1;stroke:none;stroke-width:0.264583px;stroke-linecap:butt;stroke-linejoin:miter;stroke-opacity:1;filter:url(#filter7476)" />
    <path
       id="path15079"
       style="opacity:1;fill:#000000;fill-opacity:0.7;stroke:none;stroke-width:0.33478;stroke-linecap:round;stroke-miterlimit:4;stroke-dasharray:none;stroke-opacity:1;paint-order:fill markers stroke;filter:url(#filter11800)"
       d="m 211.22647,195.24629 c -0.1165,0.0116 0.089,0.22601 0.077,0.34245 0,0.0411 -0.064,-0.0691 -0.10491,-0.0658 -0.1632,0.0124 0.03,0.2558 -0.14489,-0.051 -0.3237,0.42349 -0.068,0.25607 -0.26491,0.22968 -0.039,-0.005 -0.082,0.0167 -0.1183,2.6e-4 -0.079,-0.0361 -0.12859,-0.17367 -0.2129,-0.15145 -0.014,0.003 0.12931,0.35325 0.028,0.10376 -0.01,0.0371 0.01,0.0921 -0.025,0.11137 -0.065,0.0382 -0.3846,0.0615 -0.4645,0.0603 -0.10779,-0.002 -0.2153,-0.0297 -0.32269,-0.0211 -0.13611,0.0108 -0.26651,0.0969 -0.40181,0.0791 -0.09,-0.0118 -0.14569,-0.10741 -0.2187,-0.16098 -0.069,0.0393 -0.2039,0.0385 -0.2075,0.11831 0,0.0754 0.012,0.17128 0.034,0.27305 0.20431,0.17373 0.21292,0.39514 0.1617,0.58686 0,0.008 0.01,0.0159 0.01,0.0236 0,5.3e-4 -0.01,10e-4 -0.012,0.002 0,-0.009 0,-0.017 0.01,-0.0255 -0.057,-0.19234 -0.12239,-0.40119 -0.1617,-0.58686 -0.023,-0.0196 -0.051,-0.0375 -0.08,-0.0557 0,0.23211 -0.04,0.49145 -0.036,0.71242 -0.03,0.005 -0.064,0.01 -0.094,0.0146 -0.063,-0.16661 -0.1364,-0.34634 -0.1889,-0.50133 -0.1747,-0.07 -0.2969,-0.24754 -0.4487,-0.36408 -0.2156,0.26279 -0.1232,0.29856 -0.4377,0.16131 -0.025,-0.0109 -0.033,-0.0665 -0.058,-0.0569 -0.06,0.022 -0.077,0.11862 -0.1398,0.12992 -1.3766,0.24769 0.2975,-0.2703 -0.7166,0.0676 -0.5711,0.60249 0.013,0.15475 -0.3987,0.14392 -0.171,-0.004 -0.2633,0.22869 -0.419,0.24511 -0.091,0.01 -0.1668,-0.0911 -0.2585,-0.0938 -0.125,-0.004 -0.2449,0.0502 -0.3673,0.0755 -0.3783,0.28877 -0.021,0.0974 -0.6671,0.0444 -0.083,-0.007 -0.1614,0.0397 -0.2437,0.0499 -0.1654,0.0216 -0.3311,-0.005 -0.4948,0.0318 -0.1439,0.0538 -0.2937,0.0937 -0.4321,0.16036 -0.1248,0.0597 -0.2201,0.18357 -0.3545,0.21644 -0.1491,0.0364 -0.3065,-0.012 -0.4599,-0.0179 -0.047,-0.0308 -0.087,-0.10452 -0.1422,-0.0927 -0.1933,0.0409 -0.307,0.27253 -0.5111,0.29979 -0.1016,-0.0568 -0.1881,-0.16739 -0.3044,-0.17018 -0.1791,-0.004 -0.3413,0.11071 -0.5159,0.15079 -0.1219,0.0292 -0.2473,0.0395 -0.3717,0.0551 -0.1369,0.017 -0.2918,-0.0255 -0.4119,0.0424 -0.1749,0.0991 -0.1466,0.43533 -0.1568,0.19599 -0.044,0.094 -0.042,0.22981 -0.1319,0.28199 -0.1227,0.0713 -0.2835,0.0216 -0.4241,0.0411 -0.1898,0.0266 -0.3814,0.0469 -0.5665,0.0965 -0.4374,0.11592 -0.788,0.34602 -1.2571,0.33522 -0.1007,-0.002 -0.1809,-0.0876 -0.2715,-0.1315 -0.2768,0.27188 -0.3003,0.47436 -0.7056,0.26943 -0.1453,-0.0736 -0.2127,-0.31101 -0.3756,-0.3131 -0.2063,-0.003 -0.3417,0.2472 -0.5407,0.30144 -0.133,0.0363 -0.2732,-0.0461 -0.4109,-0.042 -0.1161,0.003 -0.2288,0.043 -0.3429,0.0645 -0.056,0.0129 -0.1161,0.0126 -0.169,0.0365 -0.1807,0.0782 -0.381,0.26416 -0.6043,0.24157 -0.1009,-0.0102 -0.1786,-0.10268 -0.2777,-0.12476 -0.3051,-0.068 -0.336,-0.0414 -0.5691,0.0186 -0.2715,0.35283 -0.04,0.0862 -0.067,0.005 -0.01,-0.0305 -0.076,0.0428 -0.095,0.0169 -0.038,-0.0505 0.015,-0.22678 -0.036,-0.18735 -0.6154,0.48354 0.139,0.63298 -0.7996,0.18313 -0.01,0.87694 0.1234,0.0154 -0.4093,0.28231 -0.11729,0.0588 -0.081,0.25099 -0.1366,0.36964 -0.043,0.0912 -0.075,0.31347 -0.15899,0.25704 -0.1275,-0.086 0.033,-0.43129 -0.12011,-0.44544 -0.1666,-0.0154 -0.1951,0.2716 -0.29269,0.40745 -0.10961,-0.0686 -0.20001,-0.21378 -0.32901,-0.20548 -0.1809,0.0116 -0.3142,0.18125 -0.4787,0.25741 -0.1128,0.0521 -0.2286,0.1036 -0.3508,0.12626 -0.2497,0.0463 -0.4214,-0.0945 -0.6766,0.0339 -0.1137,0.0571 -0.1713,0.1881 -0.2569,0.2823 -0.1,-0.0224 -0.1999,-0.0449 -0.2998,-0.0673 -0.099,-0.0223 -0.2267,-0.0883 -0.315,0.0173 -0.043,0.0516 -0.021,0.14619 -0.074,0.18782 -0.1039,0.0819 -0.25751,-0.82652 -0.38651,0.0897 -0.54299,-0.28757 -0.087,-0.13883 -0.8051,-0.0265 -0.084,0.0139 -0.17619,-0.0571 -0.2539,-0.0228 -0.08,0.0358 -0.082,0.17281 -0.16339,0.20697 -0.31251,0.13153 -0.13621,-0.20211 -0.23561,0.0289 -0.048,0.0412 -0.083,0.13463 -0.14549,0.12358 -0.32551,-0.058 0.063,-0.29117 -0.31441,-0.23869 -0.1269,0.0175 -0.2521,0.0673 -0.358,0.13947 -0.079,0.0535 -0.081,0.22871 -0.17629,0.22425 -0.092,-0.004 -0.1505,-0.0931 -0.21261,-0.17191 -0.014,0.0711 -0.13899,0.13378 -0.18749,0.13816 -0.095,0.008 -0.19371,-0.0423 -0.28541,-0.0168 -1.26069,0.35325 0.1546,0.17661 -0.90121,0.2737 -0.11078,-0.003 -0.22163,-0.0117 -0.33248,-0.0103 -0.0431,8e-4 -0.0913,-0.006 -0.12816,0.0167 -0.0866,0.0529 -0.1286,0.21785 -0.2287,0.20129 -0.11544,-0.0192 -0.10068,-0.27881 -0.21771,-0.27524 -0.12662,0.004 -0.16477,0.19268 -0.24698,0.28906 -0.11772,-0.003 -0.23533,-0.005 -0.35305,-0.008 -0.16747,-0.0352 -0.39648,-0.12484 -0.56345,0.002 -0.0726,0.055 -0.0909,0.18742 -0.1398,0.2623 -0.0483,0.007 -0.0962,0.0143 -0.14418,0.0212 -0.0511,-0.0685 -0.047,-0.22674 -0.12279,-0.28379 -0.0146,-0.0109 -0.4298,0.0568 -0.43099,0.0571 -0.16889,0.005 -0.33772,0.009 -0.50659,0.0138 -0.0727,0.10929 -0.0891,0.30149 -0.2177,0.32778 -0.14846,0.03 -0.26023,-0.16946 -0.40865,-0.19992 -0.0598,-0.0123 -0.20466,0.0372 -0.16357,0.0826 0.0332,0.0366 0.0645,0.0623 0.0945,0.0831 -0.0114,0.08 -0.0649,0.18416 -0.30117,0.20307 -0.0388,0.003 -0.0826,0.004 -0.13162,0.002 -0.2648,-0.0113 -0.4562,-0.29913 -0.71785,-0.34155 -0.36737,-0.0596 -0.65599,0.32939 -0.98127,0.37729 -0.0619,0.009 -0.0797,-0.0964 -0.11971,-0.1445 -0.0311,0.0604 -0.0292,0.15842 -0.0933,0.18101 -0.0547,0.0197 -0.0891,-0.079 -0.14401,-0.0977 -0.11158,-0.0377 -0.23382,-0.1022 -0.34654,-0.0681 -0.15333,0.0458 -0.23217,0.23735 -0.38359,0.28915 -0.40363,0.13811 -0.59062,-0.0825 -0.90655,-0.27498 -0.10378,-0.013 -0.18135,0.25726 -0.19783,0.49942 -0.0792,0.007 -0.14612,0.0145 -0.22685,0.0214 l 1.25291,7.75739 c 0.0743,-0.006 0.13567,-0.0117 0.20851,-0.0184 0.0147,0.028 0.0332,0.0464 0.0572,0.0494 0.0769,-0.0162 0.2607,-0.058 0.44449,-0.0938 0.18924,-0.0167 0.38091,-0.0337 0.56244,-0.0505 0.10138,0.0324 0.18261,0.12154 0.28164,0.16545 0.043,0.019 0.0946,0.008 0.13864,0.0253 0.20484,0.0784 0.33583,0.22707 0.50405,0.3693 0.26568,-0.34399 0.37331,-0.22479 0.73956,-0.33701 0.12661,-0.0133 0.26098,-0.0267 0.38454,-0.0401 0.11493,0.0102 0.23024,0.0344 0.34337,0.055 0.11399,0.0207 0.2203,0.0719 0.3308,0.10674 0.0918,0.0289 0.17927,0.0829 0.27534,0.0843 0.0401,8e-4 0.0602,-0.0531 0.0903,-0.0795 0.008,0.0822 0.30498,0.0617 0.38688,0.0724 0.84569,0.11018 0.18917,-0.0529 0.65399,-0.11864 0.71878,-0.10163 -0.0487,0.13161 0.44472,-0.0336 0.0646,0.0467 0.11806,0.11561 0.19387,0.14038 0.25577,0.0836 0.06,-0.10732 0.27204,-0.21476 0.0957,-0.0481 0.076,-1.44105 0.17036,-1.49164 0.0852,-0.0455 0.50724,-0.17117 0.60301,-0.15898 0.13535,0.0172 0.22464,0.15504 0.33697,0.23242 0.1112,-0.0993 0.12251,-0.13145 0.32524,-0.13834 0.0753,-0.003 0.14599,0.0581 0.22105,0.0496 0.0841,-0.009 0.15181,-0.0772 0.2327,-0.10202 0.40598,-0.12488 0.32698,-0.0929 0.72358,-0.0316 0.367,-0.42078 0.1535,-0.35369 0.6379,-0.33806 0.095,0.003 0.2013,-0.0322 0.2844,0.0137 0.071,0.0396 0.044,0.18737 0.1232,0.21198 0.053,0.0169 0.016,-0.13981 0.07,-0.15009 0.097,-0.0185 0.1901,0.0551 0.285,0.0827 0.6591,-0.6341 -0.5683,0.45763 0.4412,-0.02 0.082,-0.0386 -0.027,-0.19039 0.016,-0.27009 0.063,-0.11892 0.2198,-0.11061 0.3137,-0.0642 0.054,0.0268 0.097,0.0719 0.1461,0.10779 0.095,-0.0546 0.1137,0.36225 0.22291,0.37102 0.10769,0.009 0.1445,0.18119 0.2495,0.20678 0.072,0.0176 0.1324,-0.0671 0.2,-0.0973 0.071,-0.032 0.1463,-0.0555 0.2171,-0.0885 0.066,-0.0312 0.13624,0.20646 0.20494,0.18175 0.1013,-0.0362 0.2085,-0.0521 0.313,-0.0778 0.456,0.0791 0.2114,0.53037 0.7272,0.32601 0.062,-0.0249 0.1457,-0.0215 0.1875,-0.0742 0.035,-0.0444 -0.041,-0.13767 0.01,-0.16955 0.1157,-0.0789 0.4374,0.14905 0.4802,0.17317 0.076,-0.1261 0.1035,-0.29791 0.2269,-0.37795 0.065,-0.042 0.57901,-0.0524 0.7057,-0.0512 0.095,0.001 0.1932,0.0361 0.285,0.011 0.068,-0.0192 0.095,-0.13634 0.16581,-0.13404 0.1201,0.004 0.21839,0.10024 0.32779,0.15016 0.17911,-0.18667 0.2635,-0.28641 0.3015,-0.33399 0.01,-10e-4 0.014,-0.003 0.019,-0.004 -0.01,0.0502 0.012,0.13225 0.3296,0.0604 0.094,-0.0209 0.16279,-0.10822 0.24321,-0.16326 0.062,-0.0113 0.14019,-0.0246 0.20289,-0.0368 0.11171,0.028 0.22142,0.23105 0.33509,0.21577 0.088,-0.0124 0.15021,-0.10105 0.2027,-0.18766 0.026,-0.005 0.054,-0.0103 0.08,-0.0141 0.052,0.0226 0.10041,0.069 0.15552,0.0649 0.084,-0.006 0.1466,-0.0874 0.22779,-0.10953 0.37769,-0.1032 0.30081,-0.0596 0.58722,0.17425 0.03,-0.0379 0.06,-0.0754 0.089,-0.11338 0.25528,0.0566 0.2448,0.0809 0.5192,-0.12674 0.077,-0.0581 0.13549,-0.14017 0.20339,-0.20873 0.2594,-0.046 0.45911,-0.0833 0.72949,-0.13095 0.076,0.0122 0.15262,0.0242 0.22891,0.0364 0.1261,-0.0163 0.2526,-0.068 0.37831,-0.0491 0.096,0.0144 0.15568,0.14688 0.2526,0.14398 0.61909,-0.0185 0.2345,-0.45353 0.43389,-0.6088 0.14189,-0.025 0.30109,-0.0527 0.44591,-0.078 0.067,0.0393 0.13199,0.0991 0.19998,0.13259 0.61132,-0.0328 0.51852,0.0179 1.12612,-0.21901 0.16248,-0.0633 0.31248,-0.15772 0.47218,-0.22703 0.24542,-0.0427 0.49302,-0.0847 0.74612,-0.12862 0.17159,-0.0103 0.34159,-0.0192 0.47189,-0.0369 0.071,-0.009 0.13771,-0.0361 0.20639,-0.0545 0.015,-0.0169 0.011,-0.0133 0.025,-0.0287 0.36041,-0.0613 0.73912,-0.12646 1.11511,-0.19024 0.055,0.0277 0.1099,0.0559 0.1648,0.0838 0.052,-0.046 0.10369,-0.0921 0.15569,-0.13817 0.56962,-0.0972 1.12851,-0.19144 1.73491,-0.2938 0.011,0.0188 0.02,0.0163 0.03,-0.005 0.5613,-0.0946 1.1801,-0.51175 1.7743,-0.6108 0.047,0.0219 0.099,0.0395 0.1268,0.0497 -0.059,-0.0271 -0.072,-0.0346 -0.1084,-0.0526 0.3567,-0.0597 0.6957,-0.11643 1.06471,-0.17803 0.051,0.0183 0.10199,0.0306 0.1541,0.0207 0.039,-0.007 0.068,-0.0319 0.094,-0.0618 0.13211,-0.0218 0.24451,-0.0415 0.37821,-0.0631 0.011,0.001 0.02,-0.002 0.028,-0.004 0.083,-0.0136 0.1504,-0.0249 0.2334,-0.0397 0,0.0115 0,0.0189 0.01,0.0162 0.017,-0.008 0.033,-0.0171 0.05,-0.0251 0.3735,-0.0612 0.81069,-0.13199 1.1965,-0.19521 0.022,-0.004 0.045,-0.008 0.067,-0.0106 0,0.008 0.01,0.0181 0.015,0.0263 0,-0.006 0.014,-0.0223 0.02,-0.032 0.01,-0.002 0.02,-0.003 0.03,-0.005 -0.037,0.0358 -0.052,0.0474 -0.049,0.0388 0.032,0.0443 0.075,0.0811 0.1326,0.10787 0.1419,0.0663 0.1642,-0.0245 0.1389,-0.18314 0.091,-0.0149 0.1885,-0.0308 0.2805,-0.0458 0.4382,0.0951 0.2028,0.0902 0.23,-0.0377 0.3035,-0.0497 0.6086,-0.0993 0.9195,-0.1506 0.037,0.016 0.076,0.007 0.1158,-0.0189 0.1543,-0.0252 0.2986,-0.0491 0.4549,-0.0744 0.021,0.0327 0.045,0.061 0.081,0.0712 0.046,0.0134 0.021,-0.0302 -0.022,-0.0806 0.25931,-0.0421 0.4893,-0.08 0.7538,-0.12281 0.033,0.10341 -0.024,0.16528 0.3169,0.0692 0.044,-0.0127 0.032,-0.0851 0.047,-0.12908 0.049,-0.008 0.09,-0.0146 0.1398,-0.0225 l -1.2529,-7.75739 c -0.01,0.001 -0.015,0.003 -0.024,0.003 -0.051,-0.36425 -0.2781,-0.88833 -0.447,-0.83286 -0.013,0.0157 -0.04,0.0333 -0.057,0.0495 0,-0.0307 0.01,-0.0626 0.01,-0.0897 -0.031,-0.24717 -0.036,-0.025 -0.1724,0.33249 -0.053,-0.0262 -0.11421,-0.0402 -0.1593,-0.0785 -0.1128,-0.0956 -0.1618,-0.33344 -0.30891,-0.31809 z m -1.1722,9.30749 c -5.3e-4,-5.3e-4 -7.9e-4,-7.9e-4 0,-0.002 z m -24.477,-4.04463 c 9e-4,-0.004 0.01,-0.008 0,-0.0129 -1e-4,-0.0316 -0.048,-0.0409 -0.072,-0.0611 0.024,0.021 0.046,0.047 0.067,0.074 z m 22.9049,-4.22445 c 0.016,0.007 0.032,0.0129 0.049,0.0174 0.078,0.0208 0.05,-0.15423 0.084,-0.22716 0.01,-0.021 0.024,-0.0602 0.036,-0.0933 -0.032,-0.0138 -0.06,-0.0291 -0.097,-0.0414 -0.1746,-0.0579 -0.15089,0.11158 -0.072,0.34455 z m 0.1688,-0.30312 c 0.056,0.0238 0.1068,0.0493 0.1495,0.0768 0,-0.0904 -0.01,-0.17804 -0.034,-0.25518 -0.025,-0.0762 -0.073,0.0636 -0.1151,0.17828 z m 3.2765,-0.61448 c 0.01,-0.006 0.012,-0.007 0.016,0.001 0.019,0.0494 -0.011,0.18195 -0.053,0.14994 -0.026,-0.0201 -0.031,-0.053 -0.029,-0.0891 0.021,0.002 0.048,-0.0458 0.067,-0.062 z m -4.5539,1.5149 c 0.01,-0.004 0.015,-0.006 0.025,-0.003 0.048,0.0105 0.068,0.0519 0.081,0.10151 -0.045,0.008 -0.092,0.015 -0.1366,0.0228 0,-0.0585 0.01,-0.10725 0.03,-0.12108 z m -4.9339,0.88268 c 0.05,-0.0127 0.098,0.005 0.1452,0.0305 -0.1006,0.0174 -0.1678,0.029 -0.2674,0.0461 0.035,-0.0351 0.074,-0.0639 0.1222,-0.0763 z m -1.32589,0.26924 c 0.033,-0.006 0.062,-0.004 0.091,-0.002 -0.048,0.007 -0.086,0.0155 -0.1329,0.0229 0.013,-0.009 0.026,-0.0177 0.042,-0.0205 z m -20.91954,3.50072 c 0.14744,0.041 0.20214,-0.0515 0.10269,0.0881 -0.0137,0.003 -0.0277,0.003 -0.0415,0.006 -0.0345,-0.0512 -0.0411,-0.0622 -0.0613,-0.0937 z m 13.97243,6.27479 v -5.3e-4 c -0.025,0.0297 -0.049,0.0604 -0.068,0.0936 -0.021,0.0356 0.02,-0.046 0.065,-0.0932 z"
       transform="matrix(2.5787456,0,0,2.5787456,-399.15621,-478.87824)"
       sodipodi:nodetypes="cccccccccccsccccsccccccccscscccccccccccccccccccccccccscccsscccccsccscscscccccccccccccccccccccccccccccccsscccscccccscccccccccccccsscccscsccsccccccccsccccccscccccccccccccccccccccccccccccsscccscccccccccccccccccccccccccccccccccccccccccccccccccccccccccccccccccccccccccccsccccscccccccccccccccccccc" />
    <path
       d="m 143.8065,22.742963 c -0.3196,0.0318 0.2441,0.61992 0.2112,0.939289 0,0.11273 -0.1756,-0.189529 -0.28779,-0.180479 -0.44761,0.034 0.082,0.701629 -0.39741,-0.13988 -0.8879,1.16157 -0.1865,0.702359 -0.72659,0.629979 -0.107,-0.0137 -0.22491,0.0458 -0.32451,7.1e-4 -0.21669,-0.099 -0.3527,-0.47635 -0.58399,-0.41541 -0.038,0.008 0.35469,0.96892 0.077,0.2846 -0.027,0.10176 0.027,0.25262 -0.069,0.30548 -0.1782,0.10477 -1.0549,0.16868 -1.274,0.16539 -0.2957,-0.005 -0.5905,-0.0815 -0.8851,-0.0579 -0.37329,0.0296 -0.731,0.26578 -1.10209,0.21696 -0.24691,-0.0324 -0.39961,-0.29461 -0.59991,-0.44155 -0.1892,0.10779 -0.55919,0.1056 -0.5691,0.32451 0,0.20681 0.033,0.46979 0.093,0.74893 0.56039,0.47652 0.58399,1.08382 0.4435,1.60968 0,0.0219 0.027,0.0436 0.027,0.0647 0,10e-4 -0.027,0.003 -0.033,0.005 0,-0.0247 0,-0.0466 0.027,-0.0699 -0.1563,-0.52756 -0.33571,-1.10041 -0.4435,-1.60967 -0.063,-0.0538 -0.13991,-0.10286 -0.2194,-0.15278 0,0.63662 -0.10971,1.34798 -0.099,1.95407 -0.082,0.0137 -0.1756,0.0274 -0.2579,0.04 -0.1728,-0.45698 -0.3741,-0.94996 -0.5181,-1.37507 -0.4792,-0.192 -0.8144,-0.67897 -1.23069,-0.99862 -0.59141,0.72079 -0.33791,0.8189 -1.20061,0.44245 -0.069,-0.0299 -0.091,-0.1824 -0.1591,-0.15607 -0.1645,0.0603 -0.21119,0.32536 -0.3834,0.35635 -3.77579,0.67938 0.81601,-0.74139 -1.96549,0.18542 -1.5665,1.65254 0.036,0.42446 -1.0936,0.39475 -0.469,-0.011 -0.72221,0.62726 -1.1493,0.6723 -0.2496,0.0274 -0.45751,-0.24987 -0.709,-0.25728 -0.3429,-0.011 -0.67171,0.13769 -1.0075,0.20709 -1.0376,0.79205 -0.058,0.26715 -1.8297,0.12178 -0.2277,-0.0192 -0.4427,0.10889 -0.6684,0.13687 -0.4537,0.0592 -0.90821,-0.0137 -1.3572,0.0872 -0.3947,0.14757 -0.8056,0.25701 -1.1852,0.43985 -0.3423,0.16374 -0.6037,0.5035 -0.97231,0.59366 -0.40899,0.0998 -0.84069,-0.0329 -1.26149,-0.0491 -0.1289,-0.0845 -0.23861,-0.28668 -0.39001,-0.25426 -0.53019,0.11218 -0.8421,0.74751 -1.4019,0.82228 -0.27869,-0.15579 -0.51589,-0.45915 -0.83489,-0.46678 -0.4913,-0.011 -0.93621,0.30366 -1.4151,0.41357 -0.3343,0.0801 -0.67831,0.10834 -1.0195,0.15113 -0.3755,0.0466 -0.80031,-0.0699 -1.1298,0.1163 -0.4797,0.27181 -0.4021,1.19405 -0.43001,0.53757 -0.1207,0.25783 -0.11519,0.63034 -0.36179,0.77346 -0.3366,0.19556 -0.7776,0.0592 -1.16331,0.11273 -0.5206,0.073 -1.04609,0.12864 -1.5538,0.26469 -1.19969,0.31795 -2.1614,0.94908 -3.448,0.91946 -0.27619,-0.005 -0.4962,-0.24028 -0.74469,-0.36066 -0.75921,0.7457 -0.82371,1.30107 -1.93541,0.73898 -0.39849,-0.20188 -0.58339,-0.85306 -1.0302,-0.85879 -0.56589,-0.008 -0.93719,0.67803 -1.4831,0.82681 -0.3648,0.0996 -0.7493,-0.12645 -1.12699,-0.1152 -0.3184,0.008 -0.6276,0.11794 -0.940513,0.17691 -0.15359,0.0354 -0.3185,0.0346 -0.4636,0.10011 -0.49559,0.2145 -1.04499,0.72456 -1.65749,0.6626 -0.2767,-0.028 -0.48991,-0.28164 -0.7617,-0.3422 -0.8368,-0.18652 -0.9216,-0.11356 -1.56091,0.051 -0.74469,0.967769 -0.10969,0.23644 -0.18379,0.0137 -0.027,-0.0837 -0.2085,0.11739 -0.26061,0.0464 -0.10419,-0.13851 0.041,-0.62202 -0.099,-0.51387 -1.6879,1.326279 0.3813,1.736169 -2.1932,0.5023 -0.027,2.405319 0.3385,0.0422 -1.1226,0.774329 -0.3217,0.16128 -0.2222,0.68843 -0.3747,1.01387 -0.11789,0.25015 -0.2057,0.85981 -0.4361,0.70503 -0.3497,-0.23589 0.091,-1.18297 -0.3294,-1.22178 -0.457,-0.0422 -0.5351,0.74496 -0.8028,1.11758 -0.30069,-0.18816 -0.5486,-0.58637 -0.90249,-0.56361 -0.49611,0.0318 -0.86181,0.49715 -1.313,0.70604 -0.30941,0.14291 -0.62701,0.28416 -0.96221,0.34632 -0.6848,0.12699 -1.15579,-0.2592 -1.8558,0.093 -0.3118,0.15662 -0.46979,0.51593 -0.7046,0.77431 -0.2743,-0.0614 -0.5483,-0.12316 -0.82229,-0.1846 -0.27161,-0.0612 -0.6218,-0.24219 -0.86401,0.0475 -0.118,0.14154 -0.058,0.40098 -0.203,0.51517 -0.28499,0.22464 -0.7063,-2.26703 -1.0601,0.24603 -1.48939,-0.78876 -0.2387,-0.38079 -2.2083,-0.0727 -0.2304,0.0381 -0.4833,-0.15662 -0.6964,-0.0625 -0.2194,0.0982 -0.2249,0.47399 -0.44819,0.56769 -0.85711,0.36077 -0.37361,-0.55436 -0.64621,0.0793 -0.1317,0.113 -0.22769,0.36927 -0.39909,0.33896 -0.89281,-0.15909 0.17279,-0.79864 -0.86241,-0.65469 -0.34799,0.048 -0.69139,0.18459 -0.9819,0.38254 -0.2167,0.14674 -0.2222,0.62732 -0.4835,0.61509 -0.2524,-0.011 -0.4128,-0.25536 -0.5832,-0.47153 -0.038,0.19502 -0.3812,0.36694 -0.5142,0.37896 -0.2606,0.0219 -0.53139,-0.11603 -0.78289,-0.0461 -3.45791,0.96891 0.42409,0.48441 -2.47191,0.75072 -0.3038,-0.008 -0.60789,-0.0321 -0.9119,-0.0283 -0.1182,0.002 -0.25039,-0.0164 -0.35149,0.0458 -0.23761,0.1451 -0.35281,0.59753 -0.62731,0.55211 -0.3167,-0.0527 -0.2762,-0.76474 -0.5972,-0.75494 -0.3473,0.011 -0.45189,0.52849 -0.6774,0.79285 -0.3229,-0.008 -0.6455,-0.0137 -0.9684,-0.022 -0.4593,-0.0965 -1.0875,-0.34242 -1.54539,0.005 -0.19921,0.15086 -0.24941,0.51406 -0.38351,0.71945 -0.1325,0.0192 -0.2639,0.0392 -0.3955,0.0582 -0.1401,-0.18789 -0.1289,-0.62192 -0.3368,-0.7784 -0.04,-0.0299 -1.1788,0.1558 -1.1821,0.15662 -0.4632,0.0137 -0.9263,0.0247 -1.38949,0.0378 -0.19941,0.29977 -0.24441,0.82695 -0.59711,0.89905 -0.4072,0.0823 -0.7138,-0.4648 -1.1209,-0.54835 -0.164,-0.0337 -0.5613,0.10204 -0.4486,0.22656 0.091,0.10039 0.1769,0.17088 0.2592,0.22793 -0.031,0.21943 -0.178,0.50513 -0.8261,0.557 -0.1064,0.008 -0.2266,0.011 -0.361,0.005 -0.7263,-0.031 -1.2513,-0.82047 -1.969,-0.93682 -1.0076,-0.16347 -1.7993,0.90347 -2.6915,1.03485 -0.1697,0.0247 -0.2186,-0.26441 -0.3283,-0.39631 -0.085,0.16566 -0.08,0.43449 -0.2559,0.49645 -0.1501,0.054 -0.2444,-0.21668 -0.395,-0.26797 -0.3061,-0.10341 -0.6413,-0.2803 -0.9505,-0.18679 -0.4206,0.12562 -0.6368,0.65101 -1.0522,0.79309 -1.1071,0.37882 -1.6199,-0.22628 -2.4865,-0.75423 -0.2846,-0.0357 -0.4974,0.70563 -0.5426,1.36984 -0.2172,0.0192 -0.4008,0.0398 -0.6222,0.0587 l 3.4365,21.277399 c 0.2038,-0.01651 0.3721,-0.0321 0.5719,-0.0505 0.04,0.0768 0.091,0.127269 0.1569,0.135498 0.211,-0.0444 0.7151,-0.159081 1.2192,-0.257278 0.5191,-0.0458 1.0448,-0.0924 1.5427,-0.138512 0.2781,0.0889 0.5009,0.333362 0.7725,0.4538 0.1179,0.0521 0.2595,0.02199 0.3803,0.0694 0.5618,0.21504 0.9211,0.622821 1.3825,1.012931 0.7287,-0.94351 0.9898,-1.674072 1.9944,-1.981851 0.3473,-0.0365 0.7158,-0.0732 1.0547,-0.10999 0.3153,0.028 0.6315,0.0944 0.9418,0.15086 0.3127,0.0568 0.6043,0.19721 0.9074,0.29277 0.2518,0.0793 0.4917,0.22739 0.75521,0.23123 0.10999,0.0021 0.1651,-0.145648 0.24769,-0.218059 0.022,0.225459 -0.1528,0.646818 0.072,0.676111 2.3196,0.302209 1.0656,-1.053471 2.3406,-1.233761 1.9715,-0.278762 -0.1336,0.36099 1.2198,-0.0922 0.1772,0.12809 0.3238,0.3171 0.5317,0.38504 0.7016,0.229301 1.1538,-0.29436 1.7355,-0.58905 0.2625,-0.13194 0.5486,-0.212849 0.8075,-0.35161 0.2337,-0.124799 0.402,-0.469501 0.6647,-0.43606 0.3713,0.0472 0.6162,0.425252 0.9243,0.63749 0.305,-0.27236 0.336,-0.36054 0.8921,-0.379439 0.2065,-0.008 0.4004,0.159358 0.6063,0.136041 0.2307,-0.02471 0.4164,-0.211741 0.6382,-0.279853 1.1136,-0.342529 0.8969,-0.254809 1.9847,-0.0867 1.0066,-1.15412 0.421,-0.970121 1.7497,-0.927229 0.2606,0.008 0.5521,-0.0883 0.7801,0.0376 0.1947,0.108619 0.1206,0.513929 0.3379,0.58143 0.1453,0.0464 0.044,-0.38348 0.192,-0.411671 0.266,-0.0508 0.5214,0.15113 0.7817,0.22683 1.8078,-1.73927 -1.5588,1.255191 1.2101,-0.0549 0.225,-0.105871 -0.074,-0.52224 0.044,-0.740813 0.1728,-0.32621 0.6029,-0.303418 0.8605,-0.176098 0.1481,0.0735 0.266,0.19722 0.4007,0.295658 0.2606,-0.149759 0.4824,-0.47326 0.782,-0.449199 0.2954,0.02471 0.3963,0.49698 0.6843,0.567169 0.1975,0.0483 0.3632,-0.184049 0.5486,-0.26688 0.1947,-0.0878 0.4013,-0.152228 0.5955,-0.24275 0.181,-0.0856 0.3395,-0.218329 0.528,-0.286128 0.2778,-0.0993 0.5719,-0.142901 0.8585,-0.2134 1.2507,0.216959 0.5798,0.252069 1.9946,-0.308462 0.1701,-0.0683 0.3996,-0.059 0.5143,-0.20352 0.096,-0.121779 -0.1125,-0.377608 0.027,-0.46505 0.3173,-0.216408 1.1997,0.408821 1.3171,0.47498 0.2085,-0.345869 0.2839,-0.817118 0.6224,-1.036659 0.1782,-0.115199 1.5881,-0.143729 1.9356,-0.14043 0.2606,0.003 0.5299,0.099 0.7817,0.0302 0.1865,-0.0527 0.2606,-0.37396 0.4548,-0.36766 0.3294,0.01101 0.599,0.27495 0.8991,0.411872 0.4912,-0.512011 0.7227,-0.785583 0.8269,-0.91608 0.027,-0.003 0.038,-0.008 0.052,-0.01101 -0.027,0.1377 0.033,0.362749 0.9041,0.165671 0.2578,-0.0573 0.4465,-0.29683 0.6671,-0.447802 0.17,-0.031 0.3845,-0.0675 0.5565,-0.100928 0.3064,0.0768 0.6073,0.292598 0.9191,0.250688 0.2414,-0.034 0.412,-0.277159 0.556,-0.514718 0.071,-0.01371 0.1481,-0.0283 0.2194,-0.0387 0.1426,0.062 0.2754,0.189249 0.4266,0.178009 0.2304,-0.01651 0.4021,-0.239728 0.6248,-0.300429 1.0359,-0.283059 0.825,-0.16347 1.6106,0.477941 0.082,-0.103952 0.164603,-0.206812 0.244103,-0.310981 0.7002,0.155239 0.6715,0.221901 1.4241,-0.34763 0.2112,-0.159359 0.3716,-0.384469 0.5579,-0.572519 0.7115,-0.126172 1.2593,-0.228481 2.0009,-0.359172 0.2084,0.0335 0.4186,0.0664 0.6278,0.0998 0.3459,-0.0447 0.6929,-0.186521 1.0377,-0.134681 0.2633,0.0395 0.427,0.402871 0.6928,0.39492 1.6981,-0.0507 0.6432,-0.561708 1.1901,-0.987589 0.3892,-0.0686 0.8259,-0.14455 1.2231,-0.21395 0.1838,0.107799 0.362,0.271819 0.5485,0.36368 1.6768,-0.09 1.4222,0.0491 3.0888,-0.60071 0.4457,-0.17363 0.8571,-0.432609 1.2951,-0.622721 0.6732,-0.11712 1.3523,-0.23232 2.0465,-0.352779 0.4707,-0.0283 0.937,-0.0527 1.2944,-0.101211 0.1947,-0.02471 0.3777,-0.099 0.5661,-0.14949 0.041,-0.0464 0.03,-0.0365 0.069,-0.0787 0.9885,-0.16814 2.0273,-0.346858 3.0585,-0.521798 0.1509,0.076 0.3015,0.153329 0.4521,0.229849 0.1426,-0.126169 0.2844,-0.252619 0.427,-0.378979 1.5624,-0.266602 3.0953,-0.525092 4.7586,-0.805852 0.03,0.0516 0.055,0.0447 0.082,-0.0137 1.5396,-0.25948 3.2368,-0.542158 4.8666,-0.81384 0.129,0.0601 0.2716,0.108352 0.3478,0.136321 -0.1618,-0.0743 -0.1974,-0.0949 -0.2973,-0.144269 0.9784,-0.163751 1.90819,-0.319352 2.92039,-0.488313 0.1399,0.0502 0.2797,0.0839 0.42261,0.0568 0.107,-0.01921 0.1866,-0.0875 0.2579,-0.169509 0.36229,-0.0598 0.67059,-0.11383 1.03729,-0.17308 0.03,0.003 0.055,-0.005 0.077,-0.011 0.2277,-0.0373 0.41261,-0.0683 0.6402,-0.10889 0,0.0315 0,0.0518 0.027,0.0444 0.047,-0.0219 0.091,-0.0469 0.13721,-0.0688 1.02439,-0.16786 2.22359,-0.36203 3.28179,-0.53543 0.06,-0.011 0.1234,-0.022 0.18381,-0.0291 0,0.0219 0.027,0.0496 0.041,0.0721 0,-0.0165 0.038,-0.0612 0.055,-0.0878 0.027,-0.005 0.055,-0.008 0.082,-0.0137 -0.1015,0.0982 -0.1427,0.13001 -0.1344,0.10643 0.088,0.1215 0.2057,0.22244 0.3637,0.29587 0.3892,0.18185 0.4504,-0.0672 0.381,-0.5023 0.2496,-0.0409 0.517,-0.0845 0.7693,-0.12562 1.2019,0.26084 0.5563,0.2474 0.6309,-0.10341 0.8324,-0.13632 1.6693,-0.27237 2.522,-0.4131 0.1015,0.0439 0.2085,0.0192 0.31771,-0.0518 0.42319,-0.0691 0.81899,-0.13468 1.24769,-0.20407 0.058,0.0897 0.12341,0.16731 0.2222,0.19529 0.1261,0.0368 0.058,-0.0828 -0.06,-0.22107 0.7112,-0.11548 1.342,-0.21943 2.06751,-0.33683 0.091,0.28364 -0.066,0.45334 0.86929,0.18981 0.1206,-0.0348 0.088,-0.23342 0.1289,-0.35405 0.1344,-0.0219 0.2468,-0.04 0.3834,-0.0617 l -3.4365,-21.277394 c -0.027,0.003 -0.041,0.008 -0.066,0.008 -0.13991,-0.99908 -0.76281,-2.43656 -1.22611,-2.28441 -0.036,0.0431 -0.1097,0.0913 -0.1563,0.13577 0,-0.0842 0.027,-0.17171 0.027,-0.24604 -0.085,-0.67798 -0.099,-0.0686 -0.47289,0.91195 -0.14531,-0.0719 -0.31321,-0.11026 -0.43691,-0.21532 -0.3094,-0.26221 -0.44379,-0.91457 -0.84729,-0.87247 z m -3.2152,25.529109 c -10e-4,-0.001 0,-0.002 0,-0.005 0,0.008 0,6.61e-4 0,0.005 z M 73.454397,37.178232 c 0,-0.011 0.027,-0.0219 0,-0.0354 -2.6e-4,-0.0867 -0.13169,-0.11219 -0.19749,-0.16759 0.066,0.0576 0.12619,0.12891 0.18379,0.20297 z M 136.2792,25.591173 c 0.044,0.0192 0.088,0.0354 0.1344,0.0477 0.21401,0.0571 0.1372,-0.42303 0.2304,-0.62307 0.027,-0.0576 0.066,-0.16512 0.099,-0.25591 -0.088,-0.0378 -0.1645,-0.0798 -0.266,-0.11355 -0.4789,-0.15881 -0.4139,0.30605 -0.1975,0.94505 z m 0.463,-0.83141 c 0.15361,0.0653 0.293,0.13522 0.41011,0.21065 0,-0.24796 -0.027,-0.48834 -0.093,-0.699921 -0.069,-0.20901 -0.2002,0.174441 -0.3157,0.488991 z m 8.98701,-1.68543 c 0.027,-0.0165 0.033,-0.0192 0.044,0.003 0.052,0.1355 -0.03,0.49906 -0.1454,0.41126 -0.071,-0.0551 -0.085,-0.14537 -0.08,-0.24438 0.058,0.005 0.1317,-0.12563 0.18381,-0.17006 z m -12.49071,4.155149 c 0.027,-0.011 0.041,-0.0165 0.069,-0.008 0.1317,0.0288 0.1865,0.142361 0.2222,0.27843 -0.12349,0.0219 -0.25239,0.0411 -0.3747,0.0625 0,-0.16046 0.027,-0.29418 0.082,-0.33211 z m -13.533,2.42106 c 0.1372,-0.0348 0.26881,0.0137 0.39831,0.0837 -0.2759,0.0477 -0.46031,0.0795 -0.7335,0.12645 0.096,-0.0963 0.203,-0.17527 0.33519,-0.209279 z m -3.6367,0.738491 c 0.091,-0.0165 0.1701,-0.011 0.2496,-0.005 -0.13169,0.0192 -0.2359,0.0425 -0.36449,0.0628 0.036,-0.0247 0.071,-0.0485 0.1152,-0.0562 z m -57.379303,9.601969 c 0.4044,0.11246 0.5545,-0.14126 0.2817,0.24165 -0.038,0.008 -0.076,0.008 -0.11389,0.0165 -0.095,-0.14043 -0.11271,-0.1706 -0.16811,-0.257 z m 38.3244,15.667061 c 0,-5.29e-4 0,-7.93e-4 0,-0.0011 -0.069,0.0815 -0.13439,0.165658 -0.1865,0.256728 -0.058,0.0976 0.055,-0.126169 0.1782,-0.255638 z"
       style="opacity:1;fill:#f8eeca;fill-opacity:1;stroke:none;stroke-width:0.918252;stroke-linecap:round;stroke-miterlimit:4;stroke-dasharray:none;stroke-opacity:1;paint-order:fill markers stroke"
       id="path15081" />
    <path
       style="fill:#665d38;fill-opacity:1;stroke:none;stroke-width:0.725713px;stroke-linecap:butt;stroke-linejoin:miter;stroke-opacity:1"
       d="m 40.806476,32.285472 -6.401579,3.903358 8.900211,0.256731 z"
       id="path15083"
       sodipodi:nodetypes="cccc" />
    <path
       transform="matrix(2.742856,0,0,2.742856,-965.18388,-331.26325)"
       sodipodi:nodetypes="cccccccc"
       id="path15085"
       d="m 364.43356,133.96696 2.74758,2.16574 -2.55619,2.59877 -0.0799,1.10115 9.86171,-0.54992 2.04893,-2.32167 -2.29881,-2.97729 z"
       style="fill:#000000;fill-opacity:0.45;stroke:none;stroke-width:0.264583px;stroke-linecap:butt;stroke-linejoin:miter;stroke-opacity:1;filter:url(#filter11776)" />
    <path
       style="fill:#ac973d;fill-opacity:1;stroke:none;stroke-width:0.725713px;stroke-linecap:butt;stroke-linejoin:miter;stroke-opacity:1"
       d="M 35.064581,50.120811 40.806476,32.285472 H 66.956399 L 60.195807,49.532687 Z"
       id="path15087"
       sodipodi:nodetypes="ccccc" />
  </g>
</svg>
