<?xml version="1.0" encoding="UTF-8" standalone="no"?>
<svg
   xmlns:dc="http://purl.org/dc/elements/1.1/"
   xmlns:cc="http://creativecommons.org/ns#"
   xmlns:rdf="http://www.w3.org/1999/02/22-rdf-syntax-ns#"
   xmlns:svg="http://www.w3.org/2000/svg"
   xmlns="http://www.w3.org/2000/svg"
   xmlns:xlink="http://www.w3.org/1999/xlink"
   xmlns:sodipodi="http://sodipodi.sourceforge.net/DTD/sodipodi-0.dtd"
   xmlns:inkscape="http://www.inkscape.org/namespaces/inkscape"
   sodipodi:docname="burnt_paper_selected.svg"
   inkscape:version="1.0 (4035a4fb49, 2020-05-01)"
   id="svg4620"
   version="1.1"
   viewBox="0 0 72.15186 82.05428"
   height="310.1264"
   width="272.69995">
  <defs
     id="defs4614">
    <filter
       height="1.101916"
       y="-0.050958015"
       width="1.2675761"
       x="-0.13378803"
       id="filter11828"
       style="color-interpolation-filters:sRGB"
       inkscape:collect="always">
      <feGaussianBlur
         id="feGaussianBlur11830"
         stdDeviation="0.36425742"
         inkscape:collect="always" />
    </filter>
    <filter
       inkscape:collect="always"
       style="color-interpolation-filters:sRGB"
       id="filter7123"
       x="-0.050572861"
       width="1.1011457"
       y="-0.04567625"
       height="1.0913525">
      <feGaussianBlur
         inkscape:collect="always"
         stdDeviation="0.43948514"
         id="feGaussianBlur7125" />
    </filter>
    <linearGradient
       inkscape:collect="always"
       xlink:href="#linearGradient2649"
       id="linearGradient15615"
       gradientUnits="userSpaceOnUse"
       gradientTransform="matrix(-2.64512,0.72567249,-0.72567249,-2.64512,359.57781,266.53042)"
       x1="107.35469"
       y1="61.912502"
       x2="115.90549"
       y2="76.386925" />
    <linearGradient
       id="linearGradient2649"
       inkscape:collect="always">
      <stop
         id="stop2645"
         offset="0"
         style="stop-color:#0c0c0c;stop-opacity:1" />
      <stop
         id="stop2647"
         offset="1"
         style="stop-color:#252525;stop-opacity:1" />
    </linearGradient>
    <clipPath
       id="clipPath2662-1-3"
       clipPathUnits="userSpaceOnUse">
      <path
         id="path2664-9-1"
         style="fill:url(#linearGradient2666);fill-opacity:1;stroke:none;stroke-width:0.999999px;stroke-linecap:butt;stroke-linejoin:miter;stroke-opacity:1"
         d="m 418.54322,-178.43303 c 0,0 -3.08974,1.45356 -4.75088,1.74983 -1.64077,0.29266 -4.99905,4e-5 -4.99905,4e-5 l -4.25084,5.74968 c 0,0 -0.0633,1.52038 -0.25003,2.25155 -0.86922,3.40363 -0.698,8.54998 -3.99968,9.74958 -1.6817,0.61101 -4.75102,-2.50066 -4.75102,-2.50066 l -3.31626,4.5927 c -3.06099,-0.0892 -6.16859,2.52359 -5.02336,6.69601 0.0597,0.25719 0.0836,0.52498 0.17818,0.77144 0.16618,0.43293 0.78295,1.2421 0.65035,1.85971 -0.13913,0.64818 -1.12547,1.45286 -0.62601,1.8888 0.52795,0.4608 1.72503,-0.0409 2.24061,-0.28095 0.003,0.0145 0.006,0.0303 0.009,0.0448 -0.20722,0.13131 -0.55083,0.34474 -1.35067,0.87709 0.20326,0.34452 0.7489,0.81211 1.26419,1.29834 0.29569,0.71461 -0.14208,-0.11311 0.23884,3.1764 0.0492,0.42488 0.47871,0.82104 0.35593,1.23075 -0.24018,0.80126 -1.42533,1.27656 -1.35856,2.11036 0.0184,0.23024 0.16031,0.42255 0.33722,0.59392 -0.19969,0.0932 -0.36165,0.22703 -0.44718,0.43833 -1.50195,3.71051 0.0746,2.86237 1.10111,1.97495 0.1213,0.0749 0.2536,0.12788 0.39744,0.15458 -0.24375,0.41277 -0.50069,0.82482 -0.46345,1.28123 0.0799,0.97899 0.83883,1.56501 1.64426,1.77823 -0.25898,0.94988 -0.39366,1.94196 -0.69171,2.87634 0.0408,0.21259 0.55715,2.24018 0.4572,2.60489 -0.0729,0.26616 -0.38649,0.39169 -0.58034,0.58813 -0.58235,0.075 -1.16589,0.14976 -1.74823,0.22471 -0.12386,-0.0267 -0.46795,-0.16145 -0.37121,-0.0795 0.32731,0.27696 0.80841,0.3617 1.08758,0.68712 0.14811,0.17265 -0.0326,0.48086 0.0839,0.67627 1.09575,1.83866 0.86138,-0.0819 0.85554,1.93997 -0.3721,0.2139 -0.89554,0.27345 -1.11578,0.64184 -0.13005,0.21763 0.37294,0.4421 0.32076,0.69021 -0.11736,0.55863 -1.15162,0.1215 -1.67732,0.344 -0.13732,0.0581 0.0305,0.30241 -3.3e-4,0.44831 -0.038,0.17873 -0.13526,0.33897 -0.20298,0.50866 0.86532,0.37139 2.32625,0.21129 2.59558,1.1136 0.20927,0.70106 -1.65192,-0.21347 -2.17417,0.29884 -0.31515,0.30917 0.99416,0.36472 1.05246,0.80232 0.0426,0.32013 -0.81974,0.0492 -0.89795,0.36257 -0.13531,0.54214 0.31002,3.00353 0.51638,4.14056 0.003,4e-5 0.002,-0.001 0.006,-0.001 1.13277,0.0444 2.20446,0.58274 3.23127,1.06312 0.1735,0.0812 0.33439,0.40947 0.19509,0.54093 -2.66585,2.51564 -1.56076,-0.0123 -2.26056,1.9094 1.89203,-0.85435 0.52793,-0.56373 0.73763,0.79442 0.0545,0.35292 0.38797,0.6002 0.60575,0.88321 0.27259,0.35425 0.83565,0.58041 0.86266,1.02656 0.0405,0.66888 -0.9909,1.29204 -0.68733,1.88944 0.19389,0.38161 0.75692,0.13161 1.25046,-10e-4 0.008,0.0801 0.0219,0.15684 0.0295,0.2375 -0.48482,0.41628 -1.16473,0.91248 -0.73224,0.95437 0.3413,0.0331 0.61424,0.0338 0.85613,0.0202 0.0995,0.52268 0.2747,0.99785 0.66955,1.32537 0.65468,0.54302 1.66914,-0.32289 2.50427,-0.4842 0.18822,0.68851 0.457,1.36024 0.564,2.065945 0.0195,0.128565 -0.1333,0.221815 -0.20028,0.333277 0.2499,-0.195535 0.50238,-0.387632 0.74993,-0.586312 -0.007,0.0236 -0.0222,0.0477 -0.0206,0.07 0.11633,1.433734 1.07142,1.279409 1.93275,1.357493 2.35322,1.041013 6.08209,2.610596 0.85195,0.651648 -0.0236,0.129588 -0.20017,0.283596 -0.3157,0.365281 -1.41693,1.001527 -3.01955,-0.275616 2.18005,1.4204 -0.24343,0.06877 -0.67036,-0.03966 -0.73022,0.206103 -0.66444,2.727846 1.54005,3.141102 4.00816,2.108379 0.45546,1.502235 2.32674,-1.053752 2.87071,-0.359911 0.0588,0.07503 0.0718,0.196889 0.0663,0.333896 -0.16025,0.02783 -0.32202,0.05286 -0.4807,0.08368 0.081,0.01755 0.15718,0.04806 0.21956,0.116004 0.27409,0.298562 -1.2373,0.864664 -0.83256,0.885944 0.33368,0.01755 0.65489,-0.173972 0.97127,-0.377208 -0.0519,0.222386 -0.0809,0.382676 0.0471,0.263864 0.20253,-0.187849 0.38547,-0.400972 0.57165,-0.609196 0.24807,-0.118679 0.4942,-0.191512 0.73953,-0.08422 0.7745,0.338723 0.32772,1.900523 1.07438,2.296835 0.7129,0.378394 1.31168,0.671879 1.81632,0.897545 -0.0466,0.761832 0.0621,1.326718 1.33317,0.49892 1.05889,0.282847 1.18329,-0.122065 1.00449,-0.755383 0.7571,-0.630736 1.45962,-1.33351 2.21076,-1.972198 0.98062,-0.01996 1.74396,-0.326833 2.31513,-0.789187 l 0.1937,0.06471 4.50022,2.500441 -0.5006,-2.749675 3.50024,-0.251327 2.50002,1.000459 1.75093,2.250538 0.74962,2.249926 3.00042,-0.749238 -6.5e-4,1.998732 3.0001,0.250129 c 0,0 7.00442,-5.7856 11.25111,-6.998957 0.5609,-0.160264 1.75014,-0.0012 1.75014,-0.0012 l -0.003,-0.162436 c 0.62087,-0.0052 1.24189,-0.0067 1.86111,0.0096 0.0727,-0.372371 0.0875,-0.72029 0.0756,-1.053212 0.14904,-0.04404 0.25771,-0.108155 0.20978,-0.239015 -0.0441,-0.120598 -0.14485,-0.203222 -0.26534,-0.271031 -0.0969,-0.578077 -0.30968,-1.088515 -0.62118,-1.515595 0.2711,-0.169797 0.52523,-0.347597 0.53632,-0.610565 0.0218,-0.517235 -0.77049,-0.743571 -1.15535,-1.116046 0.1154,-0.298374 0.23077,-0.597592 0.34621,-0.895948 -0.0596,-0.164265 -0.0694,-0.353099 -0.17861,-0.493009 -0.37668,-0.48247 -1.25215,0.333349 -0.43239,-1.27387 0.28711,-0.56288 0.68688,-1.42147 1.34746,-1.3674 0.0306,0.002 0.0384,0.0173 0.0595,0.0248 0.19569,-0.1421 0.39956,-0.27876 0.43378,-0.49367 0.0626,-0.39574 -0.37133,-0.73303 -0.47274,-1.1239 -0.34398,-1.32585 1.06304,0.61029 -0.68675,-1.3161 0.15698,-0.18375 0.5709,-0.57006 0.52787,-0.92193 0.61895,-0.71982 -0.28456,-1.72402 -0.6067,-2.22841 -0.017,-0.18258 -0.0821,-0.37153 -0.1099,-0.55576 0.2601,-0.005 0.5838,-0.12262 0.61882,-0.30583 0.17699,-0.92593 -0.59896,-0.90395 -0.9436,-0.8432 0.22929,-0.0683 0.73769,-0.23992 1.70904,-0.63353 -0.18066,-0.084 -0.36968,-0.15486 -0.55596,-0.22985 0.23016,-0.26179 0.48731,-0.66997 0.76786,-1.2828 0.30973,-0.67659 -1.16311,-1.27373 -1.07667,-1.99302 -0.21817,-0.15789 -0.61711,-0.21678 -0.65358,-0.47365 -0.0261,-0.18414 0.44603,0.1084 0.58382,-0.0208 0.24416,-0.22885 0.37181,-0.57471 0.40038,-0.90162 0.0689,-0.78898 -0.63619,-0.53181 -0.91284,-1.11312 -0.11179,-0.23492 0.0246,-0.51089 0.0364,-0.76679 -2.32306,-2.16222 0.0736,0.58808 0.82497,-1.53098 0.16497,-0.46512 -0.83943,-0.61204 -1.15367,-1.00913 -0.15388,-0.19443 -0.0755,-0.49141 -0.20022,-0.70367 -0.22699,-0.38645 -0.96408,-0.64329 -0.83725,-1.0642 0.15116,-0.50167 0.93455,-0.5414 1.40211,-0.81207 2.41606,0.27924 0.13934,0.26107 -0.045,-1.18394 -0.0666,-0.52197 0.74896,-0.84731 0.79475,-1.36962 0.0837,-0.95455 -1.40765,-1.48629 0.1994,-1.79698 -0.14425,-0.2318 -0.28263,-0.46279 -0.17638,-0.67834 0.23242,-0.47152 1.71744,-0.56358 1.31709,-0.92954 -0.42371,-0.38732 -1.00247,0.62611 -1.58101,0.68835 -3.22117,0.34652 -1.54075,-0.59362 -0.63018,-1.27203 0.63344,-0.47196 1.28762,-0.9171 1.93145,-1.37628 -0.24787,-0.56215 -0.23481,-1.31475 -0.74335,-1.68804 -0.13211,-0.0969 -0.30833,-0.12034 -0.5002,-0.11484 -0.21235,0.20298 -0.50042,0.39264 -0.70921,0.49961 -0.14805,0.0759 -0.12781,-0.19607 -0.13799,-0.42171 -0.24886,0.0125 -0.46775,-0.0122 -0.5522,-0.21546 -0.0801,-0.19299 0.0813,-0.36657 0.33015,-0.48754 -0.0901,-0.2172 -0.17675,-0.43632 -0.26496,-0.65414 3.34407,-2.50169 0.88373,0.1401 0.9502,-2.42859 0.0112,-0.43328 0.88818,-0.717 0.69061,-1.11075 -0.14713,-0.29317 -1.74696,0.56401 -1.15832,-0.38767 0.14073,-0.22752 0.37563,-0.38893 0.56372,-0.58274 -0.23005,-0.72089 -0.35405,-1.03454 -0.47603,-1.8631 -0.0534,-0.36303 -0.2192,-0.75835 -0.076,-1.09579 0.35325,-0.83244 1.97422,-0.67631 0.87484,-2.17723 -0.16979,-0.2318 -0.52049,0.25603 -0.78073,0.38416 0.15872,-0.55862 0.20467,-0.49837 -0.39334,-1.32329 -0.19632,-0.27083 -1.14569,-0.65393 -1.41768,-1.05282 l -0.01,-0.4064 c 0.32261,-0.64297 1.23987,-0.90588 1.71209,-1.4804 0.0823,-0.10017 -0.26555,-0.046 -0.39831,-0.0701 -0.0651,0.0502 -0.13126,0.20221 -0.19642,0.15016 -0.5914,-0.47283 -0.53222,-1.34607 -0.55488,-1.95594 -0.0174,-0.46567 0.006,-0.93104 0.0304,-1.39579 -0.0267,-0.0306 -0.0583,-0.0572 -0.0789,-0.0929 -0.0895,-0.15498 0.22499,-0.31605 0.1962,-0.48993 -0.0939,-0.56658 -0.43097,-1.08068 -0.5506,-1.64323 -0.0694,-0.32658 0.11762,-0.68396 -0.0102,-0.99502 -0.0463,-0.11281 -0.41969,0.17001 -0.37417,0.0582 0.12757,-0.3134 0.44404,-0.52052 0.66658,-0.78057 -0.1108,-0.0396 -0.23828,-0.0481 -0.33196,-0.11712 -0.59147,-0.43675 -0.85527,-0.60062 -1.00925,-0.7089 l -0.0695,-0.31265 c 0.0806,-0.0951 0.19533,-0.2431 0.30361,-0.52117 0.20575,-0.52846 0.69656,-1.08349 0.50495,-1.6226 -0.68752,-1.93428 -1.2183,-0.67474 -1.344,-0.26946 l -0.006,-0.0266 c 0.0673,-0.20923 0.1792,-0.57843 0.41901,-1.61579 -0.25284,-0.85382 -0.68774,-1.4904 -1.21421,-1.95841 l -0.0705,-0.31874 -0.4866,-0.0871 c -0.81068,-0.48242 -1.75399,-0.62586 -2.6498,-0.47785 l -9.36312,-1.68591 -5.0008,-5.25012 c 0,0 -1.03113,0.17689 -1.49935,10e-4 -4.0375,-1.51285 -9.7495,-8.50098 -9.7495,-8.50098 z m 31.71794,27.41526 c 0.18703,0.21399 0.50036,0.32298 0.73931,0.49446 -0.22805,-0.24044 -0.40735,-0.53177 -0.68348,-0.7211 -0.0635,-0.0435 -0.0522,0.14111 -0.056,0.21477 -2.2e-4,0.004 7.9e-4,0.008 2.4e-4,0.0119 z m 0.90482,17.45017 c 0.0712,0.17165 0.14714,0.34243 0.20854,0.51727 0.0156,0.0444 0.0106,0.12038 0.0135,0.18572 0.26483,-0.0133 0.56517,-0.0698 0.84721,-0.0779 0.23555,-0.2251 0.37514,-0.467 0.18378,-0.64387 -0.24756,-0.22884 -0.86026,-0.17217 -1.25308,0.0188 z m 1.45184,5.99579 c 0.069,0.1108 0.14601,0.22313 0.18506,0.33202 -0.0167,-0.12084 0.0757,-0.38363 -0.05,-0.36305 -0.0575,0.009 -0.084,0.0211 -0.13503,0.0311 z m -0.0444,24.67452 c -0.15487,0.11247 -0.3056,0.2281 -0.35735,0.39259 -0.0818,0.25995 -0.11559,0.44343 -0.12622,0.58934 0.31799,-0.42779 0.74872,-0.8877 0.48358,-0.98192 z m -0.48358,0.98193 c -0.11122,0.14964 -0.20747,0.2958 -0.25034,0.4166 -0.0478,0.13476 0.0108,0.28623 0.0164,0.4291 1.18241,-0.90021 0.16834,0.054 0.23395,-0.8457 z m -44.46244,8.045671 c -0.35629,-0.07741 -0.86009,0.245606 -1.26288,0.293811 0.41161,-0.116196 0.83405,-0.210516 1.26288,-0.293811 z m -7.59857,-4.157825 c 0.007,-0.04033 0.003,-0.07801 -0.0268,-0.110694 -0.21698,-0.240851 -1.24349,-0.363015 -0.94033,-0.248201 0.51081,0.193496 0.56937,0.209912 0.96712,0.35889 z m -11.14612,-14.049976 c -0.15695,-0.003 -0.0941,0.08 0.0328,0.18862 -0.008,-0.0453 -0.0233,-0.13608 -0.0328,-0.18862 z m 0.0328,0.18862 c 0.0224,0.12285 0.0786,0.45145 0.089,0.51112 0.34007,0.093 0.68037,0.18701 1.02046,0.28002 -0.25103,-0.21666 -0.85436,-0.5729 -1.10943,-0.79114 z m 1.76609,-16.18105 c -9.4e-4,-0.007 -0.0171,-0.0789 -0.0173,-0.0816 -0.0411,-0.53662 0.0396,-1.0774 0.10629,-1.61151 0.0263,-0.20863 0.24719,-0.80461 0.17252,-0.60804 -0.17248,0.4537 -0.31138,0.91956 -0.46639,1.37954 -0.012,0.52963 -0.25242,2.07195 -0.0357,1.58856 0.0973,-0.2168 0.16865,-0.44132 0.24063,-0.66693 z m -0.73223,-15.23772 c 0.44624,0.46162 0.79063,0.92207 0.72132,1.30945 -0.0457,0.25635 -0.62435,0.4925 -0.73806,0.25825 -0.0212,-0.98024 0.0295,-1.32931 0.0167,-1.5677 z m 62.28953,33.15868 c 0.0389,-10e-4 0.0489,0.008 0.007,0.0346 -0.11786,0.0733 -0.29978,0.10547 -0.47145,0.14036 0.13262,-0.096 0.37275,-0.17131 0.46481,-0.17494 z m -38.19562,13.466603 1.08621,0.906151 c -1.73943,1.102061 -3.92953,1.342174 -6.07721,1.66474 0.29882,-0.376382 0.58105,-0.770428 0.85626,-1.174694 l 1.88459,-0.395765 z m -1.85127,4.714461 c 0.0235,-0.0087 0.0427,0.0058 0.0557,0.04987 0.0676,0.230189 0.0492,0.559246 0.0187,0.899516 -0.10251,0.05486 -0.1851,0.11602 -0.3015,0.165956 -0.2957,0.126886 0.063,-1.054356 0.22714,-1.115334 z" />
    </clipPath>
    <filter
       height="1.0228685"
       y="-0.011434257"
       width="1.0252492"
       x="-0.012624641"
       id="filter30944-8"
       style="color-interpolation-filters:sRGB"
       inkscape:collect="always">
      <feGaussianBlur
         id="feGaussianBlur30946-8"
         stdDeviation="0.3362256"
         inkscape:collect="always" />
    </filter>
    <linearGradient
       inkscape:collect="always"
       xlink:href="#linearGradient2692"
       id="linearGradient15617"
       gradientUnits="userSpaceOnUse"
       x1="111.52187"
       y1="-37.901558"
       x2="102.50475"
       y2="-40.32394" />
    <linearGradient
       id="linearGradient2692"
       inkscape:collect="always">
      <stop
         id="stop2684"
         offset="0"
         style="stop-color:#0d0d0d;stop-opacity:1" />
      <stop
         style="stop-color:#26221c;stop-opacity:1"
         offset="0.67579454"
         id="stop2686" />
      <stop
         style="stop-color:#33250d;stop-opacity:1"
         offset="0.75088197"
         id="stop2688" />
      <stop
         id="stop2690"
         offset="1"
         style="stop-color:#7b7b7b;stop-opacity:1" />
    </linearGradient>
    <clipPath
       id="clipPath2678-4-8"
       clipPathUnits="userSpaceOnUse">
      <path
         id="path2680-2-3"
         style="fill:url(#linearGradient2682);fill-opacity:1;stroke:none;stroke-width:0.264583px;stroke-linecap:butt;stroke-linejoin:miter;stroke-opacity:1"
         d="m 110.12921,-47.383017 c 0,0 -0.8175,0.384587 -1.25701,0.462976 -0.43412,0.07743 -1.32266,10e-6 -1.32266,10e-6 l -1.12471,1.521269 c 0,0 -0.0168,0.402267 -0.0661,0.595722 -0.22998,0.900545 -0.18468,2.262182 -1.05825,2.579577 -0.44495,0.161662 -1.25704,-0.661633 -1.25704,-0.661633 l -0.87742,1.215152 c -0.80989,-0.02359 -1.63211,0.667699 -1.3291,1.771654 0.0158,0.06805 0.0221,0.138899 0.0471,0.204108 0.044,0.114546 0.20715,0.328639 0.17207,0.492049 -0.0368,0.171498 -0.29778,0.384403 -0.16563,0.499745 0.13969,0.12192 0.45642,-0.01081 0.59283,-0.07433 7.6e-4,0.0038 0.002,0.008 0.002,0.01187 -0.0548,0.03474 -0.14574,0.09121 -0.35737,0.232062 0.0538,0.09116 0.19815,0.214871 0.33448,0.343518 0.0782,0.189075 -0.0376,-0.02993 0.0632,0.840424 0.013,0.112416 0.12666,0.217234 0.0942,0.325636 -0.0635,0.211999 -0.37712,0.337755 -0.35945,0.558366 0.005,0.06092 0.0424,0.111799 0.0892,0.157142 -0.0528,0.02465 -0.0957,0.06007 -0.11831,0.115972 -0.3974,0.98174 0.0197,0.757336 0.29133,0.522542 0.0321,0.01981 0.0671,0.03383 0.10516,0.0409 -0.0645,0.109211 -0.13248,0.218231 -0.12263,0.338992 0.0211,0.259023 0.22195,0.414074 0.43505,0.470489 -0.0685,0.251323 -0.10416,0.513809 -0.18302,0.761032 0.0108,0.05625 0.14742,0.592713 0.12097,0.689211 -0.0193,0.07042 -0.10226,0.103633 -0.15355,0.155609 -0.15408,0.01984 -0.30847,0.03962 -0.46255,0.05945 -0.0328,-0.0071 -0.12381,-0.04272 -0.0982,-0.02105 0.0866,0.07328 0.2139,0.0957 0.28776,0.1818 0.0392,0.04568 -0.009,0.127228 0.0222,0.178929 0.28991,0.48648 0.2279,-0.02166 0.22636,0.513283 -0.0984,0.0566 -0.23694,0.07235 -0.29522,0.169822 -0.0344,0.05758 0.0987,0.116971 0.0849,0.182617 -0.0311,0.147805 -0.3047,0.03215 -0.44379,0.09102 -0.0363,0.01537 0.008,0.08001 -9e-5,0.118614 -0.0101,0.04729 -0.0358,0.08969 -0.0537,0.134584 0.22895,0.09826 0.61548,0.0559 0.68674,0.294638 0.0554,0.185489 -0.43707,-0.05648 -0.57525,0.07907 -0.0834,0.0818 0.26304,0.0965 0.27847,0.212279 0.0113,0.0847 -0.21689,0.01302 -0.23758,0.09593 -0.0358,0.143442 0.082,0.794686 0.13662,1.095525 8e-4,10e-6 5.9e-4,-3.39e-4 0.002,-2.87e-4 0.29971,0.01176 0.58326,0.154184 0.85494,0.281286 0.0459,0.02147 0.0885,0.108338 0.0516,0.143119 -0.70534,0.665596 -0.41295,-0.0032 -0.59811,0.505195 0.5006,-0.226046 0.13968,-0.149153 0.19516,0.210192 0.0144,0.09337 0.10266,0.158803 0.16028,0.233682 0.0721,0.09373 0.22109,0.153566 0.22824,0.271611 0.0107,0.176975 -0.26217,0.341852 -0.18185,0.499915 0.0513,0.100968 0.20027,0.03482 0.33085,-3.66e-4 0.002,0.02119 0.006,0.0415 0.008,0.06284 -0.12827,0.11014 -0.30816,0.241426 -0.19373,0.252511 0.0903,0.0087 0.16251,0.0089 0.22651,0.0054 0.0263,0.138294 0.0727,0.264015 0.17716,0.35067 0.17321,0.143675 0.44162,-0.08543 0.66258,-0.128112 0.0498,0.182169 0.12092,0.359898 0.14923,0.546616 0.005,0.03402 -0.0353,0.05869 -0.053,0.08818 0.0661,-0.05174 0.13292,-0.102561 0.19842,-0.155129 -0.002,0.0062 -0.006,0.01263 -0.005,0.01851 0.0308,0.379343 0.28348,0.338511 0.51138,0.359171 0.62262,0.275435 1.60922,0.69072 0.22541,0.172415 -0.006,0.03429 -0.053,0.07503 -0.0835,0.09665 -0.3749,0.264988 -0.79892,-0.07292 0.5768,0.375815 -0.0644,0.0182 -0.17736,-0.01049 -0.1932,0.05453 -0.1758,0.721742 0.40747,0.831083 1.06049,0.557842 0.12051,0.397466 0.61562,-0.278805 0.75954,-0.09523 0.0156,0.01985 0.019,0.05209 0.0175,0.08834 -0.0424,0.0074 -0.0852,0.01399 -0.12719,0.02214 0.0214,0.0046 0.0416,0.01272 0.0581,0.03069 0.0725,0.07899 -0.32736,0.228776 -0.22028,0.234406 0.0883,0.0046 0.17328,-0.04603 0.25698,-0.0998 -0.0137,0.05884 -0.0214,0.10125 0.0125,0.06981 0.0536,-0.0497 0.10199,-0.10609 0.15125,-0.161183 0.0656,-0.0314 0.13076,-0.05067 0.19567,-0.02228 0.20492,0.08962 0.0867,0.502846 0.28426,0.607704 0.18862,0.100116 0.34705,0.177768 0.48057,0.237475 -0.0123,0.201568 0.0164,0.351028 0.35273,0.132006 0.28017,0.07484 0.31308,-0.0323 0.26577,-0.199862 0.20032,-0.166882 0.38619,-0.352824 0.58493,-0.52181 0.25946,-0.0053 0.46143,-0.08648 0.61255,-0.208806 l 0.0512,0.01712 1.19068,0.661575 -0.13245,-0.727519 0.92611,-0.0665 0.66146,0.264704 0.46327,0.595455 0.19833,0.595293 0.79386,-0.198236 -1.7e-4,0.528831 0.79378,0.06618 c 0,0 1.85325,-1.530773 2.97686,-1.851807 0.1484,-0.0424 0.46305,-3.25e-4 0.46305,-3.25e-4 l -8.3e-4,-0.04298 c 0.16427,-0.0014 0.32858,-0.0018 0.49242,0.0025 0.0192,-0.09852 0.0232,-0.190577 0.02,-0.278663 0.0394,-0.01165 0.0682,-0.02862 0.0555,-0.06324 -0.0117,-0.03191 -0.0383,-0.05377 -0.0702,-0.07171 -0.0256,-0.15295 -0.0819,-0.288003 -0.16435,-0.401001 0.0717,-0.04493 0.13897,-0.09197 0.1419,-0.161546 0.006,-0.136851 -0.20386,-0.196736 -0.30569,-0.295287 0.0305,-0.07894 0.0611,-0.158113 0.0916,-0.237053 -0.0158,-0.04346 -0.0184,-0.09342 -0.0473,-0.130443 -0.0997,-0.127654 -0.3313,0.0882 -0.1144,-0.337044 0.076,-0.148929 0.18173,-0.376098 0.35651,-0.361791 0.008,6.56e-4 0.0102,0.0046 0.0157,0.0066 0.0518,-0.0376 0.10571,-0.07376 0.11477,-0.130616 0.0166,-0.104706 -0.0982,-0.19395 -0.12508,-0.297366 -0.091,-0.350799 0.28126,0.161471 -0.1817,-0.348219 0.0415,-0.04862 0.15104,-0.150828 0.13966,-0.243927 0.16376,-0.190452 -0.0753,-0.456148 -0.16052,-0.589601 -0.004,-0.04831 -0.0217,-0.0983 -0.0291,-0.147044 0.0688,-0.0013 0.15447,-0.03244 0.16373,-0.08092 0.0468,-0.244986 -0.15848,-0.239171 -0.24966,-0.223098 0.0607,-0.01806 0.19518,-0.06348 0.45218,-0.167622 -0.0478,-0.02223 -0.0978,-0.04097 -0.1471,-0.06081 0.0609,-0.06926 0.12894,-0.177262 0.20317,-0.339409 0.0819,-0.179013 -0.30774,-0.337006 -0.28487,-0.527318 -0.0577,-0.04178 -0.16328,-0.05736 -0.17293,-0.12532 -0.007,-0.04872 0.11801,0.02868 0.15447,-0.0055 0.0646,-0.06055 0.0984,-0.152058 0.10594,-0.238553 0.0182,-0.208752 -0.16833,-0.140708 -0.24153,-0.294515 -0.0296,-0.06216 0.007,-0.135172 0.01,-0.202879 -0.61464,-0.572088 0.0195,0.155597 0.21828,-0.405072 0.0436,-0.123062 -0.2221,-0.161934 -0.30524,-0.267 -0.0407,-0.05144 -0.02,-0.130018 -0.053,-0.186177 -0.0601,-0.102249 -0.25508,-0.170206 -0.22152,-0.281572 0.04,-0.132733 0.24726,-0.143244 0.37097,-0.214858 0.63925,0.07388 0.0369,0.06907 -0.0119,-0.313252 -0.0176,-0.138104 0.19816,-0.224183 0.21027,-0.362378 0.0221,-0.252559 -0.37244,-0.393246 0.0528,-0.475451 -0.0382,-0.06133 -0.0748,-0.122448 -0.0467,-0.179478 0.0615,-0.124755 0.45441,-0.149113 0.34848,-0.24594 -0.1121,-0.102479 -0.26523,0.165658 -0.41831,0.182125 -0.85226,0.09169 -0.40765,-0.157062 -0.16673,-0.336558 0.1676,-0.124873 0.34068,-0.242648 0.51103,-0.36414 -0.0656,-0.148735 -0.0621,-0.34786 -0.19668,-0.446628 -0.0349,-0.02565 -0.0816,-0.03184 -0.13234,-0.03038 -0.0562,0.0537 -0.13241,0.103885 -0.18765,0.132189 -0.0392,0.02008 -0.0338,-0.05188 -0.0365,-0.11158 -0.0658,0.0033 -0.12376,-0.0032 -0.1461,-0.057 -0.0212,-0.05106 0.0215,-0.09699 0.0874,-0.128995 -0.0238,-0.05747 -0.0468,-0.115443 -0.0701,-0.173076 0.88478,-0.661905 0.23382,0.03707 0.2514,-0.642564 0.003,-0.114638 0.235,-0.189707 0.18273,-0.293885 -0.0389,-0.07757 -0.46222,0.149227 -0.30647,-0.102572 0.0372,-0.0602 0.0994,-0.102905 0.14915,-0.154184 -0.0609,-0.190734 -0.0937,-0.273721 -0.12595,-0.492943 -0.0141,-0.09605 -0.058,-0.200648 -0.0201,-0.289929 0.0935,-0.22025 0.52235,-0.178941 0.23147,-0.57606 -0.0449,-0.06133 -0.13771,0.06774 -0.20657,0.101642 0.042,-0.147801 0.0542,-0.131859 -0.10407,-0.35012 -0.0519,-0.07166 -0.30313,-0.173019 -0.37509,-0.278559 l -0.003,-0.107525 c 0.0854,-0.170119 0.32805,-0.23968 0.45299,-0.391689 0.0218,-0.0265 -0.0703,-0.01218 -0.10538,-0.01854 -0.0172,0.01327 -0.0347,0.0535 -0.052,0.03973 -0.15648,-0.125105 -0.14082,-0.356149 -0.14682,-0.51751 -0.005,-0.123207 0.001,-0.246337 0.008,-0.369302 -0.007,-0.0081 -0.0154,-0.01514 -0.0209,-0.02457 -0.0237,-0.041 0.0595,-0.08362 0.0519,-0.129625 -0.0248,-0.149908 -0.11403,-0.285932 -0.14568,-0.434772 -0.0184,-0.08641 0.0311,-0.180965 -0.003,-0.263267 -0.0123,-0.02985 -0.11104,0.04498 -0.099,0.01541 0.0337,-0.08292 0.11748,-0.137722 0.17637,-0.206527 -0.0293,-0.01049 -0.0631,-0.01273 -0.0878,-0.03099 -0.15649,-0.115558 -0.22629,-0.158913 -0.26703,-0.187564 l -0.0184,-0.08272 c 0.0213,-0.02515 0.0517,-0.06432 0.0803,-0.137891 0.0544,-0.139822 0.1843,-0.286673 0.13361,-0.429314 -0.18191,-0.511777 -0.32235,-0.178525 -0.3556,-0.07129 l -0.002,-0.007 c 0.0178,-0.05536 0.0474,-0.153043 0.11086,-0.427511 -0.0669,-0.225906 -0.18196,-0.394333 -0.32126,-0.518163 l -0.0187,-0.08433 -0.12874,-0.02305 c -0.2145,-0.127639 -0.46408,-0.16559 -0.7011,-0.126429 l -2.47732,-0.446064 -1.32313,-1.389094 c 0,0 -0.27282,0.0468 -0.3967,3.84e-4 -1.06826,-0.400275 -2.57956,-2.249218 -2.57956,-2.249218 z m 8.39203,7.253621 c 0.0495,0.05662 0.13239,0.08545 0.19561,0.130825 -0.0603,-0.06362 -0.10778,-0.140697 -0.18083,-0.190791 -0.0168,-0.01152 -0.0138,0.03734 -0.0148,0.05682 -6e-5,0.0011 2.1e-4,0.0022 6e-5,0.0031 z m 0.2394,4.617024 c 0.0189,0.04541 0.0389,0.0906 0.0552,0.136862 0.004,0.01175 0.003,0.03185 0.004,0.04914 0.0701,-0.0035 0.14954,-0.01847 0.22416,-0.02061 0.0623,-0.05956 0.0992,-0.123562 0.0486,-0.170359 -0.0655,-0.06055 -0.22761,-0.04555 -0.33154,0.005 z m 0.38414,1.586385 c 0.0183,0.02932 0.0386,0.05904 0.049,0.08785 -0.004,-0.03197 0.02,-0.101504 -0.0132,-0.09606 -0.0152,0.0025 -0.0222,0.0056 -0.0357,0.0082 z m -0.0117,6.528468 c -0.041,0.02976 -0.0809,0.06035 -0.0945,0.103873 -0.0216,0.06878 -0.0306,0.117324 -0.0334,0.155929 0.0841,-0.113188 0.1981,-0.23487 0.12795,-0.259801 z m -0.12795,0.259801 c -0.0294,0.03959 -0.0549,0.07826 -0.0662,0.110225 -0.0127,0.03565 0.003,0.07573 0.004,0.113532 0.31284,-0.238178 0.0445,0.01429 0.0619,-0.223756 z m -11.76402,2.128751 c -0.0943,-0.02048 -0.22756,0.06498 -0.33414,0.07774 0.10891,-0.03074 0.22068,-0.0557 0.33414,-0.07774 z m -2.01045,-1.100092 c 0.002,-0.01067 7e-4,-0.02064 -0.007,-0.02929 -0.0574,-0.06373 -0.32901,-0.09605 -0.2488,-0.06567 0.13516,0.05119 0.15065,0.05554 0.25589,0.09496 z m -2.94908,-3.71739 c -0.0415,-8.86e-4 -0.0249,0.02118 0.009,0.04991 -0.002,-0.01199 -0.006,-0.036 -0.009,-0.04991 z m 0.009,0.04991 c 0.006,0.0325 0.0208,0.119447 0.0235,0.135235 0.09,0.02461 0.18002,0.04948 0.27,0.07409 -0.0664,-0.05733 -0.22605,-0.151579 -0.29354,-0.209323 z m 0.46728,-4.281236 c -2.5e-4,-0.0019 -0.005,-0.02088 -0.005,-0.02159 -0.0109,-0.141983 0.0105,-0.285062 0.0281,-0.426379 0.007,-0.0552 0.0654,-0.212886 0.0456,-0.160878 -0.0456,0.120041 -0.0824,0.243301 -0.1234,0.365002 -0.003,0.140133 -0.0668,0.548206 -0.009,0.420308 0.0257,-0.05736 0.0446,-0.116767 0.0637,-0.176459 z m -0.19373,-4.031647 c 0.11806,0.122138 0.20918,0.243966 0.19085,0.34646 -0.0121,0.06782 -0.1652,0.130308 -0.19528,0.06833 -0.006,-0.259355 0.008,-0.351714 0.004,-0.414788 z m 16.48077,8.773236 c 0.0103,-3.23e-4 0.0129,0.0022 0.002,0.0091 -0.0312,0.01939 -0.0793,0.02791 -0.12474,0.03714 0.0351,-0.02539 0.0986,-0.04533 0.12298,-0.04629 z m -10.10593,3.563038 0.2874,0.239752 c -0.46023,0.291587 -1.03969,0.355117 -1.60793,0.440462 0.0791,-0.09958 0.15373,-0.203842 0.22655,-0.310804 l 0.49863,-0.104713 z m -0.48981,1.247367 c 0.006,-0.0023 0.0113,0.0015 0.0147,0.01319 0.0179,0.0609 0.013,0.147967 0.005,0.237997 -0.0271,0.01452 -0.049,0.0307 -0.0798,0.04391 -0.0782,0.03357 0.0167,-0.278965 0.0601,-0.295099 z" />
    </clipPath>
    <filter
       height="1.1271433"
       y="-0.063571624"
       width="1.3617804"
       x="-0.18089022"
       id="filter30916-3"
       style="color-interpolation-filters:sRGB"
       inkscape:collect="always">
      <feGaussianBlur
         id="feGaussianBlur30918-9"
         stdDeviation="0.54840185"
         inkscape:collect="always" />
    </filter>
  </defs>
  <sodipodi:namedview
     inkscape:window-maximized="1"
     inkscape:window-y="-8"
     inkscape:window-x="-8"
     inkscape:window-height="705"
     inkscape:window-width="1366"
     fit-margin-bottom="10"
     fit-margin-right="10"
     fit-margin-left="10"
     lock-margins="true"
     fit-margin-top="10"
     units="px"
     showgrid="false"
     inkscape:document-rotation="0"
     inkscape:current-layer="layer1"
     inkscape:document-units="mm"
     inkscape:cy="89.268793"
     inkscape:cx="473.77052"
     inkscape:zoom="0.33557348"
     inkscape:pageshadow="2"
     inkscape:pageopacity="0.0"
     borderopacity="1.0"
     bordercolor="#666666"
     pagecolor="#ffffff"
     id="base" />
  <metadata
     id="metadata4617">
    <rdf:RDF>
      <cc:Work
         rdf:about="">
        <dc:format>image/svg+xml</dc:format>
        <dc:type
           rdf:resource="http://purl.org/dc/dcmitype/StillImage" />
        <dc:title></dc:title>
      </cc:Work>
    </rdf:RDF>
  </metadata>
  <g
     transform="translate(19.51845,-124.54763)"
     id="layer1"
     inkscape:groupmode="layer"
     inkscape:label="Layer 1">
    <path
       inkscape:export-ydpi="96"
       inkscape:export-xdpi="96"
       inkscape:export-filename="D:\Calcatz\Icon Pack\VN Game Orient Express Theme\Visual Novel GUI\png\Evidence\burnt_paper_selected.png"
       transform="matrix(-2.7236687,0.32386566,-0.32386566,-2.7236687,313.68098,239.19134)"
       sodipodi:nodetypes="cccccccc"
       id="path15603"
       d="m 99.572549,35.110187 1.413541,-6.675163 c -1.645389,0.708367 -3.290385,4.145029 -5.390493,5.588879 l -1.180101,2.096784 1.427771,3.69074 1.497961,5.4667 2.892842,-2.75073 z"
       style="fill:#27200a;fill-opacity:0.74902;stroke:none;stroke-width:0.264583px;stroke-linecap:butt;stroke-linejoin:miter;stroke-opacity:1;filter:url(#filter11828)" />
    <path
       inkscape:export-ydpi="96"
       inkscape:export-xdpi="96"
       inkscape:export-filename="D:\Calcatz\Icon Pack\VN Game Orient Express Theme\Visual Novel GUI\png\Evidence\burnt_paper_selected.png"
       transform="matrix(-2.7236687,0.32386566,-0.32386566,-2.7236687,313.68098,239.19134)"
       id="path15605"
       style="fill:none;fill-opacity:1;stroke:#e6b404;stroke-width:0.765;stroke-linecap:butt;stroke-linejoin:miter;stroke-miterlimit:4;stroke-dasharray:none;stroke-opacity:1;filter:url(#filter7123)"
       d="m 101.88735,27.701575 c 0,0 -0.75114,0.501986 -1.17409,0.644922 -0.41776,0.141187 -1.307925,0.196887 -1.307925,0.196887 L 98.5196,30.215116 c 0,0 0.0433,0.400281 0.02326,0.598932 -0.09337,0.924746 0.154101,2.264471 -0.662493,2.70836 -0.41593,0.226092 -1.34152,-0.467154 -1.34152,-0.467154 l -0.686778,1.33222 c -0.804376,0.09723 -1.514539,0.903197 -1.050584,1.949751 0.02574,0.06494 0.04255,0.13406 0.077,0.194818 0.06053,0.106725 0.253764,0.294143 0.243395,0.460955 -0.01087,0.175067 -0.237244,0.424444 -0.0894,0.518832 0.156279,0.09977 0.449723,-0.07862 0.57516,-0.161748 0.0013,0.0037 0.0027,0.0077 0.0041,0.01138 -0.04905,0.04252 -0.13054,0.11189 -0.318841,0.282671 0.06675,0.08213 0.227922,0.182983 0.381889,0.289904 0.105507,0.175323 -0.04163,-0.024 0.187584,0.821655 0.02961,0.109225 0.157583,0.195961 0.141594,0.307991 -0.03128,0.219096 -0.322641,0.390125 -0.272335,0.60565 0.01389,0.05951 0.05858,0.10424 0.111619,0.14211 -0.04858,0.03224 -0.08568,0.07364 -0.09973,0.132292 -0.246835,1.029954 0.132246,0.745961 0.365868,0.473355 0.03469,0.01482 0.07139,0.02347 0.110072,0.02479 -0.04752,0.117594 -0.09852,0.235519 -0.0708,0.353467 0.05945,0.252992 0.281104,0.376425 0.500229,0.400492 -0.03035,0.258723 -0.02651,0.523589 -0.0677,0.779796 0.01905,0.05401 0.233995,0.564168 0.222208,0.663527 -0.0086,0.07251 -0.08569,0.1177 -0.128675,0.176731 -0.149413,0.04255 -0.299141,0.0851 -0.448551,0.127643 -0.03346,-0.0021 -0.128791,-0.02381 -0.100253,-0.0062 0.09654,0.05957 0.225753,0.0628 0.31161,0.136943 0.04555,0.03934 0.0104,0.127095 0.04857,0.173633 0.359098,0.437906 0.222141,-0.05534 0.300241,0.473871 -0.08893,0.07062 -0.223536,0.106815 -0.266652,0.211873 -0.02545,0.06206 0.114985,0.100981 0.111106,0.16795 -0.0087,0.150781 -0.296521,0.07714 -0.425299,0.156062 -0.03364,0.02061 0.0199,0.07792 0.01757,0.117305 -0.0029,0.04826 -0.02204,0.09401 -0.03307,0.141079 0.241025,0.06309 0.616951,-0.03634 0.722953,0.189135 0.08236,0.17518 -0.440608,0.0092 -0.557072,0.163814 -0.07028,0.0933 0.274471,0.05627 0.306959,0.168465 0.02376,0.08208 -0.212535,0.04516 -0.220657,0.130224 -0.01405,0.147173 0.1994,0.773624 0.298172,1.062985 7.94e-4,-1.11e-4 5.29e-4,-4.24e-4 0.0016,-5.3e-4 0.298122,-0.03298 0.599716,0.06565 0.887283,0.150896 0.04859,0.0144 0.103616,0.09396 0.07235,0.133842 -0.598411,0.76317 -0.408834,0.05826 -0.516247,0.588594 0.461378,-0.298042 0.115924,-0.168283 0.224277,0.178801 0.02815,0.09019 0.125145,0.141754 0.19327,0.207222 0.08527,0.08195 0.241493,0.118945 0.266131,0.234611 0.03694,0.173408 -0.20837,0.377068 -0.105418,0.521415 0.06576,0.09221 0.203221,0.0046 0.32711,-0.04961 0.0052,0.02064 0.01191,0.04017 0.01707,0.06098 -0.110453,0.128007 -0.2688,0.284608 -0.153995,0.278536 0.0906,-0.0048 0.162039,-0.01535 0.224793,-0.02842 0.04662,0.132834 0.111169,0.250255 0.227374,0.320394 0.192673,0.116292 0.42399,-0.150212 0.636138,-0.225309 0.07636,0.172727 0.173138,0.33789 0.228926,0.518314 0.01016,0.03287 -0.02614,0.06329 -0.03928,0.09509 0.05768,-0.061 0.116173,-0.121203 0.173117,-0.182935 -7.94e-4,0.0064 -0.0039,0.01336 -0.0026,0.01912 0.0869,0.370536 0.330708,0.292544 0.559139,0.279052 0.656693,0.17969 1.694113,0.443495 0.248563,0.136943 -0.001,0.03483 -0.0412,0.08208 -0.0682,0.108004 -0.33128,0.317838 -0.800881,0.04681 0.62632,0.28577 -0.061,0.02758 -0.17695,0.01602 -0.18293,0.08268 -0.0664,0.739869 0.52664,0.761173 1.13171,0.393774 0.17832,0.375101 0.56726,-0.367333 0.73691,-0.207222 0.0183,0.01731 0.0265,0.04869 0.0305,0.08475 -0.0408,0.01359 -0.0822,0.02651 -0.12247,0.04082 0.0219,0.0014 0.043,0.0064 0.062,0.0217 0.0835,0.06732 -0.28967,0.274956 -0.18293,0.264583 0.088,-0.0085 0.16449,-0.07131 0.23926,-0.136942 -0.005,0.06023 -0.006,0.103306 0.0227,0.06718 0.0456,-0.05712 0.0851,-0.120089 0.12557,-0.181901 0.0602,-0.04082 0.12176,-0.06957 0.19017,-0.05116 0.21598,0.05812 0.16059,0.484338 0.37155,0.558622 0.20143,0.07093 0.36965,0.12413 0.51057,0.163297 0.0178,0.201159 0.0685,0.344672 0.36845,0.07803 0.28818,0.0323 0.30478,-0.07854 0.23306,-0.237195 0.17325,-0.19484 0.32937,-0.406378 0.50075,-0.603064 0.25577,-0.04384 0.44341,-0.154194 0.57464,-0.297656 l 0.0532,0.0093 1.2759,0.476974 -0.23927,-0.699699 0.90589,-0.203605 0.6935,0.163297 0.54674,0.519865 0.28473,0.559139 0.75551,-0.314193 0.0786,0.522966 0.79478,-0.05271 c 0,0 1.60476,-1.789575 2.66806,-2.27428 0.14044,-0.06402 0.45784,-0.06925 0.45784,-0.06925 l -0.007,-0.04237 c 0.16224,-0.0258 0.32466,-0.05067 0.48731,-0.0708 0.004,-0.10029 -0.005,-0.191899 -0.0217,-0.278536 0.0373,-0.01739 0.0632,-0.03845 0.0455,-0.0708 -0.0163,-0.02981 -0.0459,-0.04747 -0.0801,-0.06046 -0.0481,-0.147427 -0.12389,-0.272598 -0.22221,-0.37207 0.0642,-0.0551 0.12373,-0.111629 0.11627,-0.180867 -0.0147,-0.136188 -0.23087,-0.164201 -0.34623,-0.246497 0.0184,-0.08261 0.0368,-0.16544 0.0553,-0.248047 -0.0221,-0.04063 -0.032,-0.08965 -0.0661,-0.121957 -0.11756,-0.111396 -0.31448,0.136532 -0.1633,-0.316259 0.0529,-0.158578 0.12373,-0.39896 0.29869,-0.410828 0.008,-5.55e-4 0.0107,0.003 0.0165,0.0041 0.0456,-0.04489 0.0935,-0.08867 0.094,-0.146245 8e-4,-0.106005 -0.12602,-0.177165 -0.16794,-0.275435 -0.14222,-0.333344 0.30216,0.117807 -0.23151,-0.317293 0.0338,-0.05426 0.12691,-0.171632 0.1018,-0.262 0.13359,-0.212707 -0.14235,-0.439859 -0.2465,-0.559139 -0.0116,-0.0471 -0.0361,-0.09397 -0.0506,-0.141078 0.0679,-0.01148 0.14792,-0.05507 0.14986,-0.104386 0.01,-0.249227 -0.19231,-0.212919 -0.28009,-0.183452 0.0573,-0.02688 0.18356,-0.09182 0.4222,-0.233061 -0.0506,-0.01487 -0.10282,-0.02595 -0.15451,-0.03824 0.0499,-0.07756 0.10111,-0.194479 0.15038,-0.365869 0.0544,-0.189216 -0.35448,-0.287445 -0.36019,-0.479041 -0.0633,-0.03272 -0.17,-0.03241 -0.18965,-0.09818 -0.0141,-0.04715 0.12096,0.0108 0.15193,-0.02842 0.0549,-0.06949 0.0746,-0.165007 0.0692,-0.251663 -0.013,-0.20914 -0.18739,-0.114086 -0.28267,-0.255284 -0.0385,-0.05706 -0.0137,-0.134635 -0.0207,-0.202054 -0.69295,-0.474226 0.0424,0.150966 0.15555,-0.433049 0.0248,-0.128188 -0.24373,-0.127071 -0.34159,-0.218591 -0.0479,-0.04481 -0.0391,-0.125595 -0.0801,-0.176217 -0.0746,-0.09217 -0.27757,-0.130342 -0.26097,-0.245462 0.0198,-0.137208 0.22319,-0.178454 0.33486,-0.267684 0.64313,-0.02209 0.0467,0.06282 -0.0584,-0.307991 -0.038,-0.133943 0.16258,-0.251183 0.15399,-0.389642 -0.0157,-0.253042 -0.42682,-0.333428 -0.0186,-0.478006 -0.0469,-0.05497 -0.0922,-0.109953 -0.0729,-0.170532 0.0422,-0.13252 0.42715,-0.215091 0.30799,-0.295072 -0.12611,-0.08465 -0.23762,0.203293 -0.38654,0.242361 -0.82912,0.217522 -0.42649,-0.09463 -0.21497,-0.307991 0.14714,-0.148428 0.30077,-0.290655 0.45113,-0.436149 -0.087,-0.137316 -0.11321,-0.334738 -0.26096,-0.412377 -0.0384,-0.02016 -0.0854,-0.01934 -0.1354,-0.01035 -0.0476,0.06147 -0.11546,0.122436 -0.16588,0.158646 -0.0357,0.02569 -0.0412,-0.04627 -0.0527,-0.104902 -0.0646,0.01307 -0.12286,0.01524 -0.15296,-0.03462 -0.0286,-0.04734 0.007,-0.09911 0.0672,-0.14056 -0.0321,-0.05328 -0.0634,-0.107196 -0.0951,-0.160713 0.7764,-0.786231 0.23673,0.0019 0.15296,-0.672828 -0.0141,-0.113802 0.20414,-0.222572 0.13694,-0.317809 -0.05,-0.07091 -0.43486,0.216366 -0.31833,-0.05581 0.0279,-0.06507 0.083,-0.116552 0.12454,-0.174668 -0.0886,-0.179549 -0.13337,-0.256727 -0.19792,-0.468704 -0.0283,-0.09288 -0.0872,-0.18978 -0.063,-0.283704 0.0596,-0.231709 0.48989,-0.254699 0.14314,-0.604097 -0.0536,-0.05396 -0.12609,0.08749 -0.18913,0.131257 0.0195,-0.152405 0.0339,-0.138451 -0.15503,-0.330729 -0.062,-0.06313 -0.32551,-0.125971 -0.41238,-0.219623 l -0.0186,-0.105936 c 0.0591,-0.18093 0.28872,-0.28584 0.38964,-0.454753 0.0176,-0.02945 -0.0713,-0.0016 -0.10697,-0.0026 -0.0151,0.01569 -0.0264,0.05808 -0.0455,0.04702 -0.17335,-0.10042 -0.19226,-0.331222 -0.22221,-0.489892 -0.0229,-0.12115 -0.0352,-0.243811 -0.047,-0.366385 -0.008,-0.007 -0.0175,-0.01267 -0.0243,-0.02119 -0.0295,-0.03702 0.0464,-0.09155 0.032,-0.135908 -0.0469,-0.144542 -0.15532,-0.265774 -0.20877,-0.408245 -0.031,-0.08271 0.004,-0.183581 -0.0419,-0.259931 -0.0166,-0.02769 -0.10311,0.06101 -0.0956,0.02997 0.021,-0.08702 0.0957,-0.153676 0.14366,-0.230479 -0.0305,-0.006 -0.0642,-0.0032 -0.0915,-0.01757 -0.17195,-0.09098 -0.24742,-0.12346 -0.29197,-0.145728 l -0.0305,-0.07906 c 0.0174,-0.02805 0.0415,-0.07129 0.0589,-0.148312 0.033,-0.146368 0.13958,-0.310912 0.0682,-0.444418 -0.25606,-0.478999 -0.34532,-0.128556 -0.36225,-0.01757 l -0.003,-0.0067 c 0.009,-0.05739 0.0241,-0.158395 0.046,-0.439251 -0.0998,-0.213431 -0.23863,-0.362854 -0.39481,-0.464571 l -0.031,-0.08062 -0.13074,-0.0036 c -0.2311,-0.09429 -0.48355,-0.09467 -0.7121,-0.02066 l -2.51612,-0.07235 -1.51516,-1.176674 c 0,0 -0.26281,0.08689 -0.39222,0.05943 -1.11594,-0.236807 -2.88561,-1.840198 -2.88561,-1.840198 z m 9.37824,5.923671 c 0.0574,0.04862 0.14363,0.0648 0.21291,0.100251 -0.0691,-0.05393 -0.12752,-0.123087 -0.20722,-0.161748 -0.0183,-0.0089 -0.008,0.03898 -0.006,0.0584 10e-5,0.0011 5.3e-4,0.0021 5.3e-4,0.0031 z m 0.92397,4.529955 c 0.0254,0.0421 0.052,0.0838 0.0749,0.127125 0.006,0.01101 0.008,0.03108 0.0109,0.04806 0.0688,-0.01392 0.14511,-0.04053 0.21859,-0.05374 0.0528,-0.06817 0.0798,-0.136959 0.0227,-0.175699 -0.0738,-0.05012 -0.23185,-0.01117 -0.32711,0.05426 z m 0.61599,1.511536 c 0.0224,0.02627 0.047,0.05263 0.0615,0.07958 -0.009,-0.03096 0.005,-0.103357 -0.0274,-0.09302 -0.0147,0.0047 -0.0211,0.0088 -0.0341,0.01344 z m 0.96015,6.457487 c -0.0361,0.03552 -0.071,0.07171 -0.078,0.116789 -0.0112,0.07123 -0.0128,0.120569 -0.01,0.159163 0.0663,-0.12445 0.16093,-0.26174 0.0878,-0.275952 z m -0.0878,0.275952 c -0.0232,0.04353 -0.0426,0.08556 -0.0491,0.118856 -0.007,0.03714 0.0141,0.07446 0.0212,0.111621 0.27391,-0.282092 0.0462,0.0075 0.0279,-0.230477 z m -11.31611,3.856095 c -0.0963,-0.0062 -0.21536,0.09813 -0.31884,0.126608 0.10311,-0.04661 0.20992,-0.08793 0.31884,-0.126608 z m -2.1518,-0.788582 c 2.6e-4,-0.01083 -0.002,-0.02051 -0.0114,-0.0279 -0.0663,-0.05447 -0.339639,-0.04601 -0.255801,-0.02791 0.141271,0.03051 0.157231,0.0325 0.267171,0.05581 z m -3.46956,-3.237012 c -0.0412,0.0053 -0.02146,0.02465 0.01601,0.04806 -0.0039,-0.01154 -0.01146,-0.03469 -0.01601,-0.04806 z m 0.01601,0.04806 c 0.01069,0.03126 0.03836,0.115018 0.04341,0.130225 0.09264,0.01094 0.185375,0.02213 0.278019,0.03307 -0.07421,-0.0468 -0.246094,-0.116243 -0.321426,-0.163298 z M 96.581256,41.97564 c -5.29e-4,-0.0019 -0.0076,-0.01998 -0.0078,-0.02066 -0.03189,-0.138782 -0.03206,-0.283448 -0.03566,-0.425815 -0.0013,-0.05562 0.03299,-0.22025 0.02119,-0.16588 -0.02726,0.125497 -0.04525,0.252854 -0.0677,0.379304 0.01773,0.139043 0.01556,0.552039 0.05323,0.41703 0.01691,-0.06055 0.02674,-0.122107 0.03669,-0.18397 z m -0.791683,-3.957897 c 0.134932,0.103204 0.24317,0.210111 0.240294,0.314193 -0.0019,0.06887 -0.143957,0.153445 -0.182933,0.09663 -0.04416,-0.25563 -0.04464,-0.348956 -0.05736,-0.410827 z m 17.603057,6.22236 c 0.0101,-0.0019 0.0131,2.41e-4 0.003,0.0088 -0.028,0.02381 -0.0743,0.0394 -0.11783,0.05529 0.0309,-0.03033 0.0908,-0.0595 0.11473,-0.06408 z m -9.46299,5.027599 0.31988,0.194304 c -0.41169,0.356842 -0.97525,0.505917 -1.52446,0.674894 0.0634,-0.110244 0.12169,-0.224455 0.17777,-0.341065 l 0.47749,-0.177767 z m -0.29869,1.30638 c 0.006,-0.0032 0.0114,-1.77e-4 0.0165,0.01085 0.0267,0.05756 0.0349,0.144379 0.0403,0.23461 -0.0247,0.01839 -0.0439,0.03765 -0.0724,0.05529 -0.0724,0.04484 -0.025,-0.27834 0.0155,-0.300757 z" />
    <path
       inkscape:export-ydpi="96"
       inkscape:export-xdpi="96"
       inkscape:export-filename="D:\Calcatz\Icon Pack\VN Game Orient Express Theme\Visual Novel GUI\png\Evidence\burnt_paper_selected.png"
       d="m 27.202005,196.73924 c 0,0 1.88328,-1.61051 2.988964,-2.1368 1.092114,-0.51984 3.49859,-0.95985 3.49859,-0.95985 l 1.871032,-4.8401 c 0,0 -0.247572,-1.07621 -0.257326,-1.62376 -0.04519,-2.54894 -1.153105,-6.11776 0.927266,-7.59123 1.059632,-0.75051 3.805151,0.8379 3.805151,0.8379 l 1.439096,-3.85095 c 2.159364,-0.52534 3.832588,-2.95052 2.229985,-5.65073 -0.09114,-0.16854 -0.159309,-0.35135 -0.272817,-0.50568 -0.199428,-0.27108 -0.786432,-0.71896 -0.812215,-1.17666 -0.02709,-0.48035 0.508711,-1.23288 0.07546,-1.44208 -0.457964,-0.22113 -1.199434,0.35978 -1.514161,0.62682 -0.0047,-0.01 -0.0098,-0.0201 -0.01485,-0.0297 0.119825,-0.13169 0.31931,-0.34702 0.77687,-0.87316 -0.208404,-0.20208 -0.680046,-0.42457 -1.134029,-0.66592 -0.344148,-0.44335 0.121159,0.0519 -0.777023,-2.17716 -0.116022,-0.28791 -0.492669,-0.4827 -0.485403,-0.79301 0.01424,-0.60688 0.752419,-1.16707 0.545601,-1.73779 -0.0571,-0.15759 -0.193312,-0.26495 -0.350037,-0.35091 0.121874,-0.10355 0.209514,-0.22832 0.228786,-0.39262 0.33873,-2.8852 -0.601785,-1.98892 -1.149806,-1.17077 -0.09928,-0.0291 -0.202044,-0.0408 -0.307829,-0.0319 0.09134,-0.33568 0.19206,-0.67339 0.07836,-0.98566 -0.243857,-0.66981 -0.887545,-0.93422 -1.492163,-0.9288 -0.0011,-0.71451 -0.09737,-1.43467 -0.06816,-2.14583 -0.06938,-0.14094 -0.82004,-1.46083 -0.820115,-1.73526 -6e-5,-0.20028 0.195272,-0.34833 0.293231,-0.52303 0.393171,-0.16429 0.7872,-0.32867 1.180365,-0.49293 0.09181,-0.005 0.358496,0.0231 0.275064,-0.0156 -0.282235,-0.13099 -0.635215,-0.0979 -0.893073,-0.27207 -0.136804,-0.0924 -0.06949,-0.3428 -0.188523,-0.45719 -1.119886,-1.07641 -0.587115,0.22267 -0.971227,-1.19343 0.219344,-0.22115 0.574244,-0.36332 0.657653,-0.66343 0.04922,-0.17727 -0.345885,-0.2378 -0.357009,-0.42146 -0.02514,-0.41349 0.782642,-0.30614 1.10783,-0.5628 0.08495,-0.067 -0.07944,-0.20578 -0.08585,-0.31381 -0.0077,-0.13238 0.02958,-0.26319 0.04438,-0.39496 -0.676905,-0.0938 -1.668601,0.29879 -2.030339,-0.281 -0.281056,-0.45046 1.19709,-0.16776 1.464226,-0.62659 0.161202,-0.27688 -0.765792,-0.0644 -0.890615,-0.35943 -0.0913,-0.21587 0.564249,-0.19184 0.558821,-0.42615 -0.0094,-0.40541 -0.793649,-2.04252 -1.156386,-2.79866 -0.0021,5.6e-4 -0.0013,0.001 -0.0042,0.002 -0.801304,0.18637 -1.654689,0.0154 -2.465535,-0.12363 -0.137007,-0.0235 -0.312646,-0.22236 -0.240404,-0.34111 1.382709,-2.27243 1.09466,-0.29109 1.21546,-1.77033 -1.160115,0.96119 -0.261237,0.49589 -0.668763,-0.41436 -0.105881,-0.23653 -0.386763,-0.34556 -0.593516,-0.50181 -0.258788,-0.19559 -0.696269,-0.24576 -0.800835,-0.55281 -0.156773,-0.46035 0.445411,-1.0945 0.118255,-1.45431 -0.208972,-0.22985 -0.554996,0.0533 -0.874872,0.24106 -0.02085,-0.0545 -0.04545,-0.10555 -0.06624,-0.16056 0.25938,-0.38442 0.639947,-0.86223 0.329223,-0.80851 -0.24521,0.0424 -0.43637,0.0943 -0.603058,0.15021 -0.169998,-0.3467 -0.383836,-0.64561 -0.723056,-0.79901 -0.56244,-0.25434 -1.10616,0.54644 -1.659659,0.81969 -0.26392,-0.44572 -0.581002,-0.86423 -0.791383,-1.33757 -0.03832,-0.0862 0.0507,-0.18085 0.07619,-0.27172 -0.137346,0.18482 -0.277164,0.36774 -0.412267,0.55432 8.9e-5,-0.0177 0.0063,-0.0377 8.89e-4,-0.0529 -0.356691,-0.98107 -0.995484,-0.68969 -1.613285,-0.57896 -1.84681,-0.27673 -4.757835,-0.65926 -0.721354,-0.29248 -0.0086,-0.0952 0.08563,-0.2369 0.150775,-0.31626 0.79936,-0.97297 2.166174,-0.38687 -1.798439,-0.5755 0.157211,-0.0949 0.476765,-0.10094 0.471463,-0.28443 -0.05877,-2.03667 -1.68091,-1.90263 -3.209933,-0.70599 -0.607167,-0.9639 -1.426061,1.18421 -1.939986,0.80306 -0.05545,-0.0412 -0.08795,-0.12403 -0.11052,-0.22095 0.106724,-0.0502 0.2153,-0.0988 0.320348,-0.15085 -0.0601,0.003 -0.119191,-0.004 -0.175896,-0.039 -0.249229,-0.15631 0.699917,-0.8427 0.412552,-0.77988 -0.23693,0.0517 -0.424922,0.2475 -0.607314,0.45047 -0.0059,-0.16566 -0.01712,-0.28331 -0.08358,-0.17562 -0.1057,0.17034 -0.192892,0.35464 -0.2831,0.5361 -0.150744,0.13068 -0.309102,0.22892 -0.501391,0.20094 -0.607081,-0.0884 -0.594254,-1.26717 -1.192897,-1.40117 -0.571601,-0.12796 -1.047006,-0.21837 -1.44351,-0.27941 -0.11363,-0.54213 -0.298199,-0.91659 -1.028807,-0.0932 -0.795368,0.005 -0.804683,0.31262 -0.557959,0.72152 -0.408774,0.58679 -0.765483,1.21351 -1.168565,1.80472 -0.682435,0.20224 -1.157764,0.56358 -1.468729,0.99682 l -0.147911,-0.008 -3.6296044,-0.8859 0.8783007,1.82826 -2.4014036,0.84794 -1.9417505,-0.22017 -1.657505,-1.23887 -0.95659614,-1.43069 -1.95600266,1.10044 -0.383451,-1.39893 -2.1476465,0.40097 c 0,0 -3.7912527,5.39393 -6.5303499,7.05847 -0.361779,0.21986 -1.224577,0.3369 -1.224577,0.3369 l 0.03279,0.11313 c -0.433533,0.12282 -0.867856,0.24316 -1.304342,0.35066 0.02159,0.27445 0.07577,0.52105 0.149312,0.75161 -0.09596,0.0594 -0.159683,0.1252 -0.100997,0.20757 0.05405,0.0759 0.14039,0.11443 0.237747,0.13874 0.178755,0.38596 0.42572,0.70234 0.725727,0.94142 -0.157015,0.17087 -0.300847,0.34412 -0.258104,0.53028 0.08414,0.36617 0.681992,0.37246 1.022847,0.55925 -0.02336,0.23096 -0.04665,0.46252 -0.07029,0.6935 0.07335,0.10351 0.116192,0.23382 0.219532,0.31077 0.356272,0.26533 0.812322,-0.47372 0.547201,0.80849 -0.09272,0.44905 -0.20779,1.12671 -0.68048,1.2157 -0.02161,0.004 -0.03011,-0.005 -0.04627,-0.006 -0.109661,0.13703 -0.225946,0.27178 -0.208661,0.42876 0.03215,0.28898 0.400614,0.44173 0.546617,0.69581 0.495319,0.86185 -0.861138,-0.22301 0.733317,0.78922 -0.07449,0.15873 -0.290075,0.50857 -0.192417,0.74657 -0.294966,0.62261 0.5301695,1.15193 0.8524703,1.44308 0.046849,0.12452 0.1287581,0.24425 0.1835079,0.36786 -0.1812191,0.0533 -0.3850498,0.1979 -0.3743619,0.33285 0.053479,0.68205 0.5927458,0.51763 0.8222861,0.40895 -0.1473607,0.0918 -0.4702192,0.30953 -1.0744524,0.77151 0.1426335,0.0241 0.2884519,0.0374 0.4332186,0.0541 -0.110792,0.2274 -0.212405,0.56244 -0.2910929,1.0452 -0.086887,0.53298 1.0585797,0.66811 1.1361832,1.1881 0.1830051,0.0686 0.4735202,0.0332 0.5483409,0.20599 0.053674,0.12385 -0.3329527,0.01 -0.4046027,0.12661 -0.127024,0.20705 -0.1497456,0.47359 -0.1069729,0.70786 0.103141,0.56542 0.5473368,0.25004 0.8525772,0.60376 0.123341,0.14294 0.080918,0.36226 0.1218183,0.54362 2.0409517,1.06722 -0.1643763,-0.39744 -0.283417,1.22986 -0.026031,0.35718 0.7049937,0.26717 1.0011721,0.48474 0.1449762,0.10654 0.1471714,0.32942 0.2752365,0.45402 0.2330364,0.22688 0.798222,0.26511 0.7902925,0.58404 -0.00949,0.38012 -0.5501005,0.55833 -0.825354,0.83753 -1.7445189,0.26845 -0.1475406,-0.15598 0.2588099,0.81995 0.146879,0.35251 -0.3614645,0.73679 -0.293226,1.11113 0.1247132,0.68412 1.2705021,0.76991 0.2054699,1.29591 0.145543,0.13453 0.2867323,0.26961 0.2537849,0.44086 -0.07202,0.37461 -1.0937545,0.72417 -0.743299,0.90342 0.3708971,0.18972 0.5813585,-0.63066 0.9743145,-0.78529 2.1878003,-0.86099 1.1922649,0.11961 0.6852548,0.76924 -0.3526899,0.45192 -0.7250647,0.88906 -1.087475,1.33403 0.2814311,0.34583 0.4167567,0.87505 0.8443233,1.03866 0.111118,0.0425 0.2388649,0.025 0.3721368,-0.0157 0.1097386,-0.18284 0.274822,-0.37087 0.4004222,-0.48582 0.088915,-0.0815 0.1272004,0.11268 0.1775114,0.26865 0.1717161,-0.0565 0.3296943,-0.0813 0.4278246,0.0448 0.093229,0.11967 0.013033,0.2722 -0.1375079,0.4046 0.1046853,0.13472 0.2073977,0.27143 0.3110703,0.40693 -1.8600232,2.39288 -0.6453895,0.0715 -0.1987065,1.8821 0.07526,0.30539 -0.4839263,0.67232 -0.2700518,0.90995 0.1591488,0.17694 1.1143411,-0.73014 0.8851004,0.0489 -0.054916,0.18627 -0.1883173,0.34433 -0.2826367,0.51608 0.2994668,0.46033 0.4464007,0.65604 0.6908656,1.21249 0.1071605,0.24381 0.2989672,0.48866 0.2634731,0.75231 -0.087288,0.6504 -1.2518098,0.85238 -0.1942196,1.69172 0.1634644,0.12961 0.3150924,-0.27913 0.4726178,-0.41875 -0.00375,0.42141 -0.047493,0.38807 0.5293621,0.85059 0.1893131,0.15186 0.9273791,0.23768 1.19431488,0.46462 l 0.0849693,0.28251 c -0.10237181,0.51193 -0.69380388,0.87204 -0.91397138,1.36479 -0.038399,0.0859 0.1947157,-0.0187 0.2921928,-0.0276 0.036046,-0.0476 0.053095,-0.16674 0.1086988,-0.14281 0.5046706,0.21737 0.63092402,0.83988 0.76388566,1.26234 0.10160834,0.32256 0.17483515,0.65266 0.24667195,0.98269 0.0240564,0.0165 0.0517676,0.0288 0.0730479,0.0498 0.09233773,0.0913 -0.0967283,0.26437 -0.0431415,0.38053 0.17455226,0.37849 0.5091153,0.67357 0.70083686,1.04431 0.11122065,0.21523 0.0485609,0.50131 0.19830444,0.69439 0.0541807,0.0701 0.26107843,-0.19956 0.25067647,-0.11259 -0.0290142,0.24382 -0.21088471,0.44956 -0.31663801,0.67428 0.0850151,0.006 0.1758959,-0.0121 0.25490601,0.0182 0.49780012,0.19211 0.71387452,0.25613 0.84242582,0.30236 l 0.1086767,0.20545 c -0.038307,0.082 -0.089944,0.20761 -0.1123909,0.42303 -0.042477,0.40935 -0.279476,0.89203 -0.041823,1.23253 0.8525539,1.22171 0.9821721,0.23831 0.9923393,-0.0695 l 0.010341,0.0173 c -0.00593,0.15922 -0.014342,0.43922 0.01697,1.21127 0.3409451,0.54899 0.767465,0.91101 1.2257902,1.13747 l 0.1105438,0.20954 0.3572583,-0.0325 c 0.6599772,0.18196 1.3476904,0.10124 1.9462156,-0.17436 l 6.8765091,-0.61783 4.507878,2.71417 c 0,0 0.687667,-0.32178 1.04903,-0.2889 3.116145,0.28357 8.455423,4.07754 8.455423,4.07754 z M -0.25968736,183.64241 c -0.17208493,-0.11383 -0.41218703,-0.12997 -0.61236416,-0.20409 0.20567158,0.12451 0.38718589,0.29395 0.61678325,0.37343 0.0527255,0.0183 0.009165,-0.10876 -0.002572,-0.161 -6.2862e-4,-0.003 -0.002124,-0.006 -0.002448,-0.008 z M -4.2433724,171.60356 c -0.082816,-0.10644 -0.1687707,-0.2114 -0.2451742,-0.32199 -0.019908,-0.028 -0.031855,-0.0821 -0.045253,-0.12737 -0.1828802,0.0602 -0.3821053,0.15739 -0.5779622,0.21716 -0.1217318,0.20278 -0.1729924,0.39888 -0.00492,0.4859 0.2172389,0.11261 0.6351002,-0.0447 0.8733663,-0.25372 z m -2.1672873,-3.91743 c -0.069518,-0.0643 -0.1450575,-0.12812 -0.1932788,-0.19683 0.03454,0.0814 0.019855,0.28313 0.1047545,0.24448 0.038516,-0.0176 0.054619,-0.0308 0.088524,-0.0477 z m -4.7064883,-17.27709 c 0.08682,-0.10844 0.170156,-0.21831 0.174622,-0.34336 0.0074,-0.19763 -0.0042,-0.33253 -0.02431,-0.43674 -0.140274,0.36043 -0.353551,0.76501 -0.149767,0.78003 z m 0.149766,-0.78004 c 0.04909,-0.12607 0.08832,-0.24683 0.09524,-0.33963 0.007,-0.10342 -0.06252,-0.19823 -0.09389,-0.29715 -0.65468,0.85704 -0.128262,-0.005 -0.0013,0.63678 z m 29.572478,-14.16762 c 0.264297,-0.0143 0.554788,-0.33702 0.827411,-0.4481 -0.265742,0.16034 -0.543275,0.30747 -0.827411,0.4481 z m 6.116185,1.45094 c 0.0028,0.0296 0.01209,0.0552 0.04009,0.0723 0.19822,0.12688 0.939965,0.0153 0.705756,-0.007 -0.394657,-0.0374 -0.438771,-0.0376 -0.74576,-0.0655 z m 10.498289,7.69288 c 0.110499,-0.0278 0.05047,-0.0741 -0.05917,-0.12572 0.01436,0.0302 0.04245,0.0908 0.05917,0.12572 z m -0.05917,-0.12572 c -0.03924,-0.0817 -0.14173,-0.30085 -0.16041,-0.34063 -0.255863,2.1e-4 -0.512067,-2.4e-4 -0.767942,-3e-5 0.217281,0.10343 0.707926,0.23691 0.928345,0.34067 z m 1.870769,11.66348 c 0.0021,0.005 0.02717,0.052 0.02793,0.0537 0.131805,0.36767 0.17912,0.76164 0.235033,1.14823 0.02155,0.15107 -0.01852,0.61057 -0.004,0.45867 0.0336,-0.35065 0.04135,-0.70335 0.06155,-1.05503 -0.09332,-0.37296 -0.221166,-1.49853 -0.280042,-1.11861 -0.02645,0.17039 -0.03328,0.34124 -0.04035,0.51295 z m 3.438109,10.5236 c -0.400934,-0.2374 -0.730362,-0.49352 -0.756238,-0.77794 -0.01713,-0.18819 0.342396,-0.46455 0.466954,-0.32243 0.203067,0.68195 0.234599,0.93598 0.289282,1.10038 z M -9.4908273,155.41994 c -0.026894,0.008 -0.035758,0.004 -0.011021,-0.023 0.068551,-0.0739 0.1896083,-0.13138 0.3030233,-0.18875 -0.074339,0.0926 -0.2280391,0.19146 -0.2917332,0.21169 z M 14.654956,138.66168 13.72078,138.23606 c 1.005738,-1.10525 2.492409,-1.6938 3.933549,-2.33191 -0.136976,0.32081 -0.25875,0.65076 -0.373727,0.98653 l -1.242952,0.63882 z m 0.390441,-3.65488 c -0.01531,0.0107 -0.03099,0.004 -0.04845,-0.0242 -0.09136,-0.14812 -0.141815,-0.38193 -0.185746,-0.62594 0.06132,-0.0581 0.107376,-0.11677 0.179287,-0.17404 0.182672,-0.14558 0.158237,0.75001 0.05519,0.82418 z"
       style="fill:url(#linearGradient15615);fill-opacity:1;stroke:none;stroke-width:0.725713px;stroke-linecap:butt;stroke-linejoin:miter;stroke-opacity:1"
       id="path15607" />
    <path
       inkscape:export-ydpi="96"
       inkscape:export-xdpi="96"
       inkscape:export-filename="D:\Calcatz\Icon Pack\VN Game Orient Express Theme\Visual Novel GUI\png\Evidence\burnt_paper_selected.png"
       id="path15609"
       clip-path="url(#clipPath2662-1-3)"
       style="fill:#d2d2d2;fill-opacity:1;stroke:none;stroke-width:0.999999px;stroke-linecap:butt;stroke-linejoin:miter;stroke-opacity:1;filter:url(#filter30944-8)"
       d="m 446.481,-155.9768 3.87928,3.61148 -2.01991,19.95102 3.0918,3.13086 3.18164,20.15235 -7.61523,0.38476 7.96875,7.39258 1.32617,-12.63867 -1.41602,-24.57227 -5.26757,-17.30078 z m -61.05984,45.17445 8.4375,14.687493 5.9375,4.75 12.9375,3.8125 11.375,1.375 9.65625,-0.96875 1.65625,-1.34375 -1.26562,-0.773438 -4.28516,0.523438 -0.875,-1.986328 -1.69922,0.455078 -0.8125,-0.25 -0.5625,-1.34375 -0.9375,-1.875 -1.75,-1.117188 -2.57775,-0.0311 0.32775,2.648293 -2.5,1.375 -2.625,-1.6875 -1.125,-2.25 -3.5,-1.6875 -2.1875,1 -3.875,1.5625 -5.25,-6.500008 -3.75001,-4.12497 z"
       transform="matrix(-0.69985463,0.19200084,-0.19200084,-0.69985463,285.86212,-8.4985895)"
       sodipodi:nodetypes="ccccccccccccccccccccccccccccccccccccc" />
    <path
       inkscape:export-ydpi="96"
       inkscape:export-xdpi="96"
       inkscape:export-filename="D:\Calcatz\Icon Pack\VN Game Orient Express Theme\Visual Novel GUI\png\Evidence\burnt_paper_selected.png"
       style="fill:url(#linearGradient15617);fill-opacity:1;stroke:none;stroke-width:0.264583px;stroke-linecap:butt;stroke-linejoin:miter;stroke-opacity:1;filter:url(#filter30916-3)"
       d="m 106.35846,-44.803425 0.99623,2.734676 1.71979,1.124479 1.19062,0.06615 0.13229,1.587499 1.12448,1.389063 -3.43958,7.739062 -2.24896,2.579688 -1.5875,1.256771 v 0 l -1.25677,-2.910417 -6.750629,-4.734511 -0.7276,-2.050521 2.77812,-2.38125 -0.19844,-2.116667 -2.24895,-1.5875 9.131879,-4.92278 z"
       id="path15611"
       sodipodi:nodetypes="cccccccccccccccccc"
       clip-path="url(#clipPath2678-4-8)"
       transform="matrix(-2.64512,0.7256725,-0.7256725,-2.64512,284.12241,-8.5122565)" />
  </g>
</svg>
