<?xml version="1.0" encoding="UTF-8" standalone="no"?>
<svg
   xmlns:dc="http://purl.org/dc/elements/1.1/"
   xmlns:cc="http://creativecommons.org/ns#"
   xmlns:rdf="http://www.w3.org/1999/02/22-rdf-syntax-ns#"
   xmlns:svg="http://www.w3.org/2000/svg"
   xmlns="http://www.w3.org/2000/svg"
   xmlns:xlink="http://www.w3.org/1999/xlink"
   xmlns:sodipodi="http://sodipodi.sourceforge.net/DTD/sodipodi-0.dtd"
   xmlns:inkscape="http://www.inkscape.org/namespaces/inkscape"
   sodipodi:docname="pipe_cleaner_selected.svg"
   inkscape:version="1.0 (4035a4fb49, 2020-05-01)"
   id="svg1832"
   version="1.1"
   viewBox="0 0 84.41534 112.16909"
   height="423.94617"
   width="319.05011">
  <defs
     id="defs1826">
    <filter
       height="1.0498565"
       y="-0.024928231"
       width="1.0588948"
       x="-0.029447353"
       id="filter11618"
       style="color-interpolation-filters:sRGB"
       inkscape:collect="always">
      <feGaussianBlur
         id="feGaussianBlur11620"
         stdDeviation="0.42194926"
         inkscape:collect="always" />
    </filter>
    <filter
       height="1.1466269"
       y="-0.073313482"
       width="1.161317"
       x="-0.080658503"
       id="filter11876"
       style="color-interpolation-filters:sRGB"
       inkscape:collect="always">
      <feGaussianBlur
         id="feGaussianBlur11878"
         stdDeviation="0.98247786"
         inkscape:collect="always" />
    </filter>
    <filter
       inkscape:collect="always"
       style="color-interpolation-filters:sRGB"
       id="filter7132"
       x="-0.052084915"
       width="1.1041698"
       y="-0.044509228"
       height="1.0890185">
      <feGaussianBlur
         inkscape:collect="always"
         stdDeviation="1.9790817"
         id="feGaussianBlur7134" />
    </filter>
    <linearGradient
       gradientTransform="matrix(1.7406333,0.60602868,-0.60602868,1.7406333,312.45474,-246.939)"
       inkscape:collect="always"
       xlink:href="#linearGradient2913"
       id="linearGradient15619"
       gradientUnits="userSpaceOnUse"
       x1="-33.315781"
       y1="235.60947"
       x2="-26.493393"
       y2="238.60274" />
    <linearGradient
       id="linearGradient2913"
       inkscape:collect="always">
      <stop
         id="stop2909"
         offset="0"
         style="stop-color:#ffffff;stop-opacity:1;" />
      <stop
         id="stop2911"
         offset="1"
         style="stop-color:#e4e4e4;stop-opacity:1" />
    </linearGradient>
    <filter
       height="1.022885"
       y="-0.011442481"
       width="1.0252293"
       x="-0.01261463"
       id="filter2990-3"
       style="color-interpolation-filters:sRGB"
       inkscape:collect="always">
      <feGaussianBlur
         id="feGaussianBlur2992-1"
         stdDeviation="0.38032426"
         inkscape:collect="always" />
    </filter>
    <filter
       height="1.0057127"
       y="-0.0028564231"
       width="1.0063175"
       x="-0.0031587745"
       id="filter2998-3"
       style="color-interpolation-filters:sRGB"
       inkscape:collect="always">
      <feGaussianBlur
         id="feGaussianBlur3000-8"
         stdDeviation="0.094862497"
         inkscape:collect="always" />
    </filter>
  </defs>
  <sodipodi:namedview
     inkscape:window-maximized="1"
     inkscape:window-y="-8"
     inkscape:window-x="-8"
     inkscape:window-height="705"
     inkscape:window-width="1366"
     fit-margin-bottom="10"
     fit-margin-right="10"
     fit-margin-left="10"
     lock-margins="true"
     fit-margin-top="10"
     units="px"
     showgrid="false"
     inkscape:document-rotation="0"
     inkscape:current-layer="layer1"
     inkscape:document-units="mm"
     inkscape:cy="175.97841"
     inkscape:cx="136.36888"
     inkscape:zoom="0.33557348"
     inkscape:pageshadow="2"
     inkscape:pageopacity="0.0"
     borderopacity="1.0"
     bordercolor="#666666"
     pagecolor="#ffffff"
     id="base" />
  <metadata
     id="metadata1829">
    <rdf:RDF>
      <cc:Work
         rdf:about="">
        <dc:format>image/svg+xml</dc:format>
        <dc:type
           rdf:resource="http://purl.org/dc/dcmitype/StillImage" />
        <dc:title></dc:title>
      </cc:Work>
    </rdf:RDF>
  </metadata>
  <g
     transform="translate(-69.752402,-101.60571)"
     id="layer1"
     inkscape:groupmode="layer"
     inkscape:label="Layer 1">
    <path
       inkscape:export-ydpi="96"
       inkscape:export-xdpi="96"
       inkscape:export-filename="D:\Calcatz\Icon Pack\VN Game Orient Express Theme\Visual Novel GUI\png\Evidence\pipe_cleaner_selected.png"
       transform="matrix(1.7406333,0.60602868,-0.60602868,1.7406333,312.45474,-246.939)"
       style="fill:none;stroke:#3a2d0f;stroke-width:0.465;stroke-linecap:butt;stroke-linejoin:miter;stroke-miterlimit:4;stroke-dasharray:none;stroke-opacity:0.717647;filter:url(#filter11618)"
       d="m -39.597663,268.85703 c 4.274408,-17.18715 12.498612,-33.18936 19.119941,-49.67244"
       id="path15583"
       sodipodi:nodetypes="cc" />
    <path
       inkscape:export-ydpi="96"
       inkscape:export-xdpi="96"
       inkscape:export-filename="D:\Calcatz\Icon Pack\VN Game Orient Express Theme\Visual Novel GUI\png\Evidence\pipe_cleaner_selected.png"
       transform="matrix(1.7406333,0.60602868,-0.60602868,1.7406333,312.45474,-246.939)"
       style="fill:#3a2d0f;fill-opacity:0.717742;stroke:none;stroke-width:0.465;stroke-linecap:round;stroke-miterlimit:4;stroke-dasharray:none;stroke-opacity:1;paint-order:fill markers stroke;filter:url(#filter11876)"
       id="path15585"
       d="m -22.37453,219.35428 c -1.175595,0.7849 0.98496,-0.82462 0.298099,1.1861 -0.111234,0.32562 -0.679849,0.10801 -1.021542,0.14864 -0.175456,0.0209 -0.451177,0.19441 -0.528872,0.0357 -0.07764,-0.15858 0.434737,-0.55145 0.353001,-0.39494 -0.118464,0.22684 -0.31037,0.40697 -0.465555,0.61046 -0.249171,-0.14204 0.232691,0.60434 0.02738,0.6164 -0.109464,0.006 -0.222372,-0.30915 -0.257147,-0.20516 -0.04095,0.12246 0.21024,0.19077 0.218875,0.31961 0.0082,0.12167 -0.263032,0.78976 -0.320355,0.93726 -0.154936,-0.12862 -0.343703,-0.54675 -0.464808,-0.38587 -0.255151,0.33896 0.424063,0.96846 0.122483,1.26687 -0.171307,0.16951 -0.483671,0.10325 -0.681863,0.24036 -0.07278,0.0503 -0.09776,0.19151 -0.04403,0.26182 0.18479,0.24179 0.463883,0.39402 0.695822,0.59103 -0.411972,0.1094 -1.434529,0.13504 -1.289682,0.96787 0.04262,0.2451 0.359288,0.60069 0.574667,0.47619 0.254931,-0.14737 0.04131,-0.59096 0.116422,-0.87567 0.05433,-0.20597 0.361249,-0.77163 0.26766,-0.58028 -0.226684,0.46349 -0.444667,0.93118 -0.667001,1.39677 -0.892302,1.10351 -0.260162,0.0873 -0.585192,1.43952 -0.02294,0.0955 -0.07521,0.23362 -0.173289,0.23819 -0.07974,0.004 -0.0083,-0.27953 0.05643,-0.23275 0.111712,0.0808 0.2067,0.25727 0.153048,0.38427 -0.08669,0.20521 -0.334552,0.29423 -0.501827,0.44135 -0.206547,0.8724 0.04186,0.0891 -0.3072,0.71234 -0.104783,0.18708 -0.180927,0.38885 -0.273968,0.58205 -0.0076,0.0158 0.0019,-0.0571 0.01751,-0.0495 0.237019,0.11349 0.81221,0.15584 0.686933,0.38684 -0.137576,0.25368 -0.575728,-0.0407 -0.863592,-0.0611 -0.600843,0.47396 0.811649,0.92939 -0.03477,1.43495 -0.220114,0.13147 -0.597701,-0.19121 -0.769162,-5.3e-4 -0.216437,0.24062 1.379643,1.11521 -0.27813,0.0929 -0.890791,0.5757 0.837488,0.9604 0.515493,1.29558 -0.20851,0.21705 -0.672536,-0.42174 -0.879716,-0.20342 -0.178982,0.18861 0.606484,0.32758 0.526963,0.57514 -0.558011,1.73713 -1.322327,-0.87477 -0.577704,1.03847 -0.0828,0.13586 -0.157388,0.27708 -0.248407,0.40758 -0.07308,0.10477 -0.142198,0.21772 -0.242705,0.29655 -0.02204,0.0173 -0.0741,-0.0835 -0.05892,-0.06 0.128481,0.19936 0.460631,0.35949 0.399655,0.58869 -0.07409,0.27849 -0.484751,0.31752 -0.693573,0.51612 -0.18125,0.17237 -0.31124,0.39164 -0.466863,0.58747 -0.09197,0.14225 -0.262977,0.3791 -0.226896,0.54243 0.033,0.14938 0.391951,0.23447 0.294259,0.3522 -0.118967,0.14336 -0.374856,-0.0696 -0.557826,-0.0346 -0.328406,0.0629 0.03367,0.76006 0.16565,1.23063 0.194085,0.73289 -1.586865,0.25956 -1.478245,0.811 0.06477,0.32881 0.623469,0.50646 0.932299,0.37633 0.224057,-0.0944 -0.201039,-0.65662 -0.433811,-0.58639 -0.924941,0.27908 -0.164637,0.88142 0.01169,1.05738 -0.501131,0.0661 -1.232556,1.77272 0.08626,1.34062 0.173754,-0.0569 -0.300942,-0.76773 -0.322099,-0.70369 -0.150759,0.45636 -0.07596,0.95824 -0.11394,1.43737 -0.215299,0.14589 -0.430599,0.29179 -0.645901,0.43769 0.0086,0.14727 0.12472,0.33243 0.02574,0.44181 -0.130119,0.14381 -0.530624,-0.0406 -0.561924,0.15076 -0.0581,0.35528 0.404836,0.65568 0.371419,1.01413 -0.01503,0.16119 -0.479007,0.26176 -0.475276,0.0999 0.0048,-0.20887 0.321466,-0.26693 0.482198,-0.4004 0.411374,0.33231 -0.231082,-0.25144 -0.498113,0.39631 -0.07985,0.1937 0.348496,2.49368 0.271444,-0.10973 -0.0052,-0.1771 -0.05715,0.36594 -0.167719,0.50438 -0.175909,0.22026 -0.439111,0.35358 -0.658667,0.53037 0.119438,0.36271 0.341661,0.70663 0.358312,1.08814 0.0065,0.14928 -0.146908,0.34414 -0.29613,0.33651 -0.128595,-0.007 -0.08196,-0.24543 -0.142751,-0.35894 -0.0093,-0.0173 -0.05503,-0.034 -0.05722,-0.0145 -0.202528,1.80774 0.351303,-0.0856 -0.715415,2.53646 -0.329211,1.1066 -0.41003,2.15774 -1.395585,2.91356 -0.197998,0.15184 -0.975087,0.0188 -0.741097,0.10543 1.38028,0.38452 2.760559,0.76904 4.14084,1.15356 0.03163,-0.13787 0.0024,-0.30667 0.0949,-0.41362 0.13089,-0.15118 0.34725,-0.19841 0.520875,-0.29761 -1.289982,-0.36519 -2.57996,-0.73037 -3.869939,-1.09555 0.156705,0.24264 0.573426,0.45819 0.470114,0.72793 -0.111244,0.29044 -0.645107,0.11608 -0.874022,0.32663 -0.048,0.0442 0.151882,0.67066 0.128458,0.75189 -0.120573,0.41813 -0.336711,0.80255 -0.505068,1.20383 2.666256,1.16044 4.040026,2.2543 0.566558,-1.52743 -0.07905,-0.0861 -0.18545,0.19924 -0.300744,0.18017 -0.189476,-0.0314 -0.409081,-0.48648 -0.485484,-0.31028 -0.107559,0.24805 0.194587,0.5045 0.291883,0.75675 -0.176594,0.24109 -0.353187,0.48217 -0.529781,0.72325 0.03731,-0.0908 0.107622,-0.37033 0.111945,-0.27229 0.04539,1.02996 -0.61474,0.092 -0.388546,-0.61649 0.06294,-0.19715 0.322316,0.41611 0.516499,0.34454 0.204002,-0.0752 0.144865,-0.40999 0.217297,-0.61499 -2.648646,1.77764 -0.134684,5.52339 2.513962,3.74575 v 0 c 0.278998,-0.17931 0.599342,-0.3066 0.836996,-0.53793 0.06499,-0.0633 -0.02995,-0.18487 -0.0049,-0.27203 0.0965,-0.33546 0.365032,-0.63229 0.365431,-0.98135 1.43e-4,-0.12233 -0.338952,0.075 -0.364251,-0.0446 -0.03598,-0.17018 0.172706,-0.30199 0.259061,-0.45298 -0.02659,0.1553 -0.137422,0.31927 -0.07976,0.4659 0.06411,0.16304 0.435779,0.51437 0.39796,0.34331 -0.06941,-0.31394 -0.421317,-0.51175 -0.503902,-0.82249 -0.03158,-0.11883 0.398431,0.26773 0.32942,0.16597 -2.201392,-3.24617 -3.422058,-3.38144 0.179366,-1.70908 -0.04988,0.38577 -0.19109,0.77054 -0.149656,1.15731 0.01005,0.0938 0.200874,-0.0351 0.262191,-0.1068 0.130564,-0.15275 0.322488,-0.33472 0.283739,-0.53189 -0.0529,-0.26919 -0.45508,-0.37454 -0.514506,-0.64236 -0.02625,-0.11823 0.234752,-0.0596 0.352126,-0.0894 -1.230473,-0.48832 -2.460947,-0.97664 -3.691419,-1.46496 1.914816,0.14445 -0.855935,-0.17204 -0.01524,0.40302 1.09664,0.75015 2.354811,1.24214 3.589219,1.73364 0.245747,0.0978 -0.562809,-0.27347 -0.584118,-0.53712 -0.08002,-0.99004 1.376132,-1.75199 0.943893,-2.82636 0.360534,-0.35763 0.660162,-0.78956 1.081598,-1.07289 0.272807,-0.18341 0.719651,-0.0472 0.943102,-0.2883 0.174964,-0.18879 -0.072,-0.53889 0.03882,-0.77121 0.114893,-0.24085 0.587889,-0.27625 0.588151,-0.5431 2.64e-4,-0.29196 -0.75401,-0.15186 -0.667256,-0.5674 0.220276,-0.0453 0.457523,-0.0397 0.660824,-0.13582 0.457506,-0.21632 0.29347,-1.51123 0.409575,-1.82397 0.08497,-0.22887 0.201752,0.49375 0.117562,0.72291 -0.05025,0.13676 -0.553006,0.17537 -0.423243,0.10912 0.161321,-0.0823 0.346516,-0.1056 0.519776,-0.1584 0.05065,-0.31906 0.271314,-0.65698 0.151964,-0.95719 -0.09029,-0.22712 -0.476084,-0.48127 -0.659715,-0.31998 -0.170918,0.15012 0.19045,0.43673 0.37438,0.5706 0.102412,0.0745 -0.156573,-0.2567 -0.09566,-0.36775 0.763289,-1.39143 0.577294,0.14757 0.629899,-1.0777 -0.07412,0.80776 0.02098,-0.28463 0.07884,-0.43829 0.107151,-0.2846 0.308137,-0.52439 0.465178,-0.78482 0.113797,-0.1887 0.331917,-0.34269 0.347305,-0.56251 0.01741,-0.24885 -0.770252,-0.0288 -0.621972,-0.41619 0.559956,-0.9938 -0.28135,0.24987 0.573215,0.18326 0.269946,-0.021 0.402899,-0.37447 0.53631,-0.61008 0.03097,-0.0547 -0.04951,-0.12284 -0.100568,-0.15949 -0.189765,-0.1362 -0.527,-0.12969 -0.607724,-0.34888 -0.07296,-0.1981 0.178593,-0.38259 0.26789,-0.57388 0.06788,-0.12542 0.0644,-0.34544 0.20364,-0.37625 0.371012,-0.0821 1.040553,0.44706 1.137179,0.0796 0.107857,-0.41022 -0.780825,-0.47168 -0.929648,-0.86887 -0.06637,-0.17712 0.446452,-0.0635 0.514117,-0.24013 0.05471,-0.1428 -0.189426,-0.24013 -0.284136,-0.36019 0.09329,-0.13325 0.186579,-0.2665 0.279868,-0.39975 0.964454,-1.14045 -0.163597,0.37582 0.280734,-0.83253 0.06733,-0.18311 0.318235,-0.26392 0.372731,-0.45125 0.07078,-0.24329 -0.08068,-0.51375 -0.0204,-0.75985 0.01662,-0.0679 0.120224,0.0712 0.180335,0.10688 -0.159798,-0.0664 -0.319593,-0.1329 -0.479391,-0.19934 0.05275,-0.15574 0.02874,-0.36591 0.158255,-0.46722 0.171289,-0.13397 0.451869,-0.0343 0.634262,-0.15266 0.03484,-0.0226 0.99808,-0.99595 1.020556,-1.21368 0.01521,-0.1473 -0.166002,-0.25497 -0.289075,-0.33731 -0.03571,-0.0239 -0.07096,0.0485 -0.106442,0.0727 0.0024,-0.18248 -0.05438,-0.37574 0.0074,-0.54745 0.02943,-0.0817 0.56189,-0.18571 0.560496,-0.19948 -0.01606,-0.15869 -0.453673,-0.16369 -0.372162,-0.3008 0.205221,-0.3452 0.931174,-0.10561 1.025296,-0.63268 -0.184102,-1.94952 -0.06107,0.77443 0.282373,-0.78841 0.03173,-0.14441 -0.116762,-0.27167 -0.175143,-0.40751 -0.05791,-0.0102 -0.164439,0.0274 -0.173723,-0.0307 -0.08577,-0.53652 0.314254,-0.50224 0.695185,-0.64763 0.143093,0.012 0.343458,0.15127 0.42928,0.0361 0.08041,-0.10787 -0.20728,-0.22185 -0.191272,-0.35544 0.02639,-0.22024 0.220658,-0.38631 0.304748,-0.59156 0.182911,-0.44647 0.04444,-0.63787 0.06736,-1.08557 -0.181952,0.32543 -0.187134,1.07793 -0.545856,0.97629 -0.35253,-0.0999 -0.08329,-0.80414 0.146682,-1.08939 0.318082,-0.39455 0.970416,-0.38103 1.32816,-0.74002 0.09907,-0.0994 -0.183379,-0.21321 -0.263101,-0.32872 -0.02802,-0.0406 -0.100028,-0.11071 -0.05782,-0.13626 0.169918,-0.10285 0.379977,-0.11582 0.569965,-0.17373 0.07445,-0.14294 0.247766,-0.26951 0.223359,-0.42882 -0.05248,-0.34252 -0.643557,-0.34648 -0.384095,-0.81357 0.131421,-0.23659 0.433575,-0.3402 0.580942,-0.5672 0.133703,-0.20595 -0.61794,-0.59403 0.140265,-0.72316 0.140835,0.0632 0.313566,0.0803 0.422504,0.18965 0.102248,0.10266 0.246193,0.5225 0.16636,0.40158 -0.285465,-0.43235 -0.546958,-0.78809 -0.234836,-1.29564 0.09542,-0.15516 0.433878,-0.14064 0.441039,-0.32265 0.0069,-0.17496 -0.277141,-0.21407 -0.415712,-0.3211 0.530823,0.75955 0.293331,0.61194 0.324593,-0.33886 0.0035,-0.10495 -0.04662,-0.27298 0.05134,-0.31082 0.200571,-0.0775 0.64208,0.25741 0.643638,0.0424 0.0077,-1.06101 -1.645611,0.17212 -0.0282,-0.79036 1.005185,-2.26742 -2.201426,-3.68896 -3.206611,-1.42155 z" />
    <path
       inkscape:export-ydpi="96"
       inkscape:export-xdpi="96"
       inkscape:export-filename="D:\Calcatz\Icon Pack\VN Game Orient Express Theme\Visual Novel GUI\png\Evidence\pipe_cleaner_selected.png"
       transform="matrix(0.72571404,-1.2757356e-8,1.2757356e-8,0.72571404,-763.18584,-1216.7161)"
       d="m 1242.8594,1842.1836 c -1.1478,0 -2.3614,0.487 -3.4375,1.6367 -3.4752,0.9009 3.0511,-1.1554 -0.2754,3.0938 -0.5387,0.6881 -1.7208,-0.3082 -2.5742,-0.4961 -0.3897,-0.086 -1.066,0.049 -1.25,-0.2325 -0.1673,0.098 -0.3375,0.1927 -0.4981,0.2989 -0.479,-0.5488 0.053,1.6445 -0.4492,1.5019 -0.2676,-0.077 -0.2751,-0.9274 -0.4453,-0.707 -0.2005,0.2595 0.3447,0.633 0.2578,0.9492 -0.082,0.2987 -1.2901,1.6746 -1.5508,1.9805 -0.2642,-0.4379 -0.3681,-1.5992 -0.7929,-1.3145 -0.8951,0.6 0.2088,2.6787 -0.7637,3.1426 -0.5525,0.2635 -1.2461,-0.1575 -1.836,0.01 -0.2165,0.06 -0.3943,0.3783 -0.3242,0.5918 0.2413,0.7342 0.784,1.3318 1.1758,1.998 -0.2543,-0.019 -0.594,-0.078 -0.957,-0.1289 -0.2633,0.2621 -0.5239,0.527 -0.7852,0.791 0.2722,-0.3239 0.5543,-0.5989 0.7656,-0.7929 -1.1747,-0.1627 -2.6613,-0.2343 -2.9257,1.375 -0.06,0.3672 0.08,0.9014 0.3281,1.2578 -3.0053,1.863 -0.681,-0.01 -2.582,2.9511 -0.039,0.061 -0.1016,0.122 -0.1563,0.1856 0.089,0.2704 0.09,0.5893 -0.082,0.7793 -0.3793,0.4198 -1.0482,0.4255 -1.5723,0.6387 -1.2239,1.9199 0.026,0.2497 -1.332,1.4531 -0.3741,0.3315 -0.7023,0.7097 -1.0508,1.0683 0.4788,0.4692 1.8078,1.0485 1.3164,1.4961 -0.5418,0.4936 -1.3481,-0.5778 -2.0215,-0.8672 -1.8369,0.6351 1.1711,2.9064 -1.2812,3.4122 -0.6378,0.1315 -1.2733,-0.9587 -1.8438,-0.6446 -0.72,0.3964 2.3764,3.8267 -0.7461,-0.01 -2.6173,0.6369 1.2085,3.004 0.1563,3.539 -0.6814,0.3465 -1.2622,-1.5733 -1.9414,-1.2226 -0.5868,0.3029 1.1806,1.2929 0.7832,1.8203 -2.7891,3.7005 -2.4403,-3.203 -2.252,2.0078 -0.312,0.2567 -0.6082,0.5325 -0.9355,0.7695 -0.2628,0.1903 -0.5232,0.4046 -0.8301,0.5098 -0.01,0 -0.013,-0.01 -0.019,-0.014 0.2076,0.5384 0.6984,1.1156 0.3945,1.5645 -0.4103,0.6061 -1.4271,0.3582 -2.0938,0.6601 -0.5786,0.2621 -1.0745,0.6798 -1.6113,1.0196 -0.3394,0.2643 -0.9462,0.6894 -0.9961,1.1113 -0.046,0.3858 0.7448,0.889 0.4121,1.0898 -0.405,0.2445 -0.8424,-0.48 -1.3105,-0.5488 -0.8402,-0.1234 -0.5525,1.851 -0.6289,3.0898 -0.1465,1.92 -4.0247,-0.7024 -4.2246,0.711 -0.017,0.1174 0,0.2349 0.027,0.3515 -0.3759,0.6208 0.3014,1.718 0.4902,2.1075 -1.089,-0.2252 -3.6136,2.3546 -1.9804,3.0918 -0.1928,0.5331 -0.366,1.0762 -0.5918,1.5898 -0.6382,0.1701 -1.2758,0.3416 -1.9141,0.5117 -0.1023,0.3604 0.022,0.9004 -0.3066,1.0801 -0.4322,0.2363 -1.2398,-0.5403 -1.4746,-0.1074 -0.3259,0.6005 0.071,1.3704 0.1347,2.0683 0.059,-0.014 0.1249,-0.021 0.1778,-0.041 0.3929,0.632 0.2336,0.3267 -0.1778,0.1485 0.01,0.1973 -0.01,0.3885 -0.09,0.5664 -0.078,0.1719 -0.3761,0.2237 -0.6582,0.2031 0.052,-0.1614 0.085,-0.2389 0.1426,-0.4199 0.076,-0.2412 -0.08,0.054 -0.293,0.3984 -0.262,-0.051 -0.4808,-0.1648 -0.416,-0.3379 0.02,-0.054 0.051,-0.098 0.084,-0.1387 -0.04,0.038 -0.079,0.07 -0.1192,0.1153 -0.095,0.1066 -0.2257,0.6069 -0.332,1.1601 -0.5541,0.2729 -1.1864,0.3869 -1.7715,0.5957 -0.016,0.9697 0.2298,1.9793 -0.049,2.9082 -0.1091,0.3635 -0.6387,0.7035 -0.9903,0.5606 -0.3025,-0.1242 0.01,-0.6575 -0.043,-0.9805 -0.01,-0.049 -0.1035,-0.127 -0.125,-0.082 -1.9954,4.1667 0.9142,0.088 -3.834,5.4863 -1.3919,1.9324 -2.3777,3.899 -4.2969,5.1055 -0.2259,-0.1582 -0.4518,-0.3164 -0.6777,-0.4746 0.01,0.028 0.026,0.059 0.035,0.088 l -0.3828,-0.3301 c -0.6861,-0.1471 -1.2722,-0.1153 -0.6797,0.6875 0.1587,0.215 0.3282,0.4217 0.4942,0.6308 -0.094,0.036 -0.1749,0.083 -0.2735,0.1153 -0.6017,0.1988 -2.3541,-0.7684 -1.8652,-0.3653 l 2.084,1.4473 c -0.4369,-0.1012 -0.9003,-0.2385 -1.2617,-0.082 -0.092,0.04 -0.1445,0.6581 -0.1992,1.1875 -0.191,0.1 -0.4204,0.2635 -0.5743,0.1797 -0.4282,-0.2336 -0.5739,-1.5092 -0.9043,-1.1504 -0.2557,0.2778 -0.214,0.6657 -0.123,1.0722 -0.424,0.1334 -0.8153,0.2916 -1.1719,0.4766 0.1263,0.3431 0.2761,0.7016 0.5176,0.6973 0.3744,-0.01 0.557,-0.4016 0.7441,-0.7891 0.05,0.2072 0.093,0.4108 0.1,0.6016 -0.4992,0.3441 -0.9969,0.6891 -1.4961,1.0332 -0.5434,1.4197 -1.0475,0.2978 -0.7792,-0.9746 -2.8965,2.2092 -2.706,6.3376 -0.4278,8.5957 -6.538,8.2557 -12.7793,16.7293 -18.5449,25.5527 -0.4952,0.9183 0.5094,1.4767 0.9883,0.6484 5.741,-8.7858 11.9612,-17.2295 18.4804,-25.4609 1.2529,0.7871 2.9068,1.0983 4.8711,0.584 0.819,-0.1971 1.6939,-0.2354 2.4571,-0.5918 0.2087,-0.098 0.084,-0.4681 0.2168,-0.6563 0.4199,-0.5943 1.0899,-1.033 1.4804,-1.6328 0.1852,0.4177 0.4317,0.7914 0.4649,0.5098 0.069,-0.5883 -0.2661,-1.1552 -0.4336,-1.7324 -0.1334,0.1784 -0.2428,0.3641 -0.2344,0.5761 3e-4,0.01 0.01,0.019 0.01,0.025 -0.2207,-0.027 -0.4429,-0.057 -0.4239,-0.207 0.037,-0.2908 0.3191,-0.4497 0.6016,-0.6094 -0.03,-0.148 -0.048,-0.2966 -0.037,-0.4472 0.011,-0.14 0.1629,0.053 0.3164,0.2695 0.039,-0.027 0.083,-0.052 0.1172,-0.082 -0.023,0.042 -0.06,0.08 -0.088,0.1211 0.1776,0.2539 0.3485,0.5221 0.3066,0.3652 -0.6991,-2.6191 -1.3978,-4.568 -1.9257,-5.959 0,0 0,0 0,-0.01 l 0.3222,0.2227 c 0.9667,0.907 1.9638,1.7848 2.9629,2.6504 -0.3442,0.5735 -0.6824,1.1493 -0.832,1.793 -0.054,0.2333 0.5118,0.084 0.7187,-0.037 0.4408,-0.2574 1.0533,-0.5338 1.125,-1.0391 0.053,-0.3756 -0.178,-0.7218 -0.3906,-1.0703 0.141,-0.2852 0.2368,-0.6176 0.5039,-0.7715 0.4402,-0.2533 0.9988,-0.1844 1.4981,-0.2774 -0.7375,-0.5164 -1.4754,-1.0323 -2.2129,-1.5488 1.419,-1.3607 3.758,-2.2526 3.6523,-4.4765 1.1634,-0.5567 2.2428,-1.3423 3.4903,-1.67 0.8074,-0.2121 1.7646,0.4874 2.5019,0.096 0.5773,-0.3067 0.2765,-1.3517 0.7363,-1.8164 0.4767,-0.4817 1.6418,-0.1726 1.8653,-0.8125 0.2444,-0.7 -1.6821,-0.9937 -1.127,-1.9179 0.5662,0.075 1.1313,0.2873 1.6992,0.2265 0.7065,-0.076 1.2221,-1.0917 1.6426,-2.1035 -0.3912,-0.029 -0.7977,-0.1576 -0.5664,-0.1894 0.213,-0.029 0.4293,-0.021 0.6445,0 0.3022,-0.7472 0.5617,-1.4682 0.7832,-1.7364 0.383,-0.4635 0.092,1.2347 -0.2851,1.7754 0.079,0.01 0.1576,0.016 0.2363,0.02 0.3879,-0.7229 1.1996,-1.3502 1.1641,-2.1699 -0.013,-0.2929 -0.184,-0.6494 -0.416,-0.9258 2.2624,-1.8613 1.0976,0.6285 1.9414,-1.5468 0.2129,-0.4392 0.5042,-1.0252 0.625,-1.17 0.4946,-0.5931 1.1773,-1.0006 1.7715,-1.4941 0.4305,-0.3576 1.0822,-0.5442 1.3027,-1.0586 0.2496,-0.5823 -1.8237,-0.7122 -1.1445,-1.5176 2.1729,-1.916 -0.8846,0.3641 1.2207,0.918 0.665,0.1751 1.2801,-0.5619 1.7968,-1.0156 0.12,-0.1054 -0.015,-0.3363 -0.1074,-0.4668 -0.3414,-0.4852 -1.1574,-0.7506 -1.168,-1.3438 -0.01,-0.536 0.7492,-0.77 1.1231,-1.1543 0.2675,-0.2441 0.443,-0.7728 0.8027,-0.7304 0.9585,0.1129 2.1216,1.9393 2.6602,1.1386 0.6012,-0.8938 -1.4787,-1.7824 -1.5039,-2.8593 -0.011,-0.4803 1.1238,0.2206 1.4336,-0.1465 0.2504,-0.2968 -0.254,-0.7345 -0.3809,-1.1016 0.335,-0.2417 0.6708,-0.4829 1.0059,-0.7246 3.2656,-1.93 -0.7057,0.7655 1.3691,-1.7617 0.3144,-0.383 0.9824,-0.3677 1.2695,-0.7715 0.3577,-0.5029 0.2558,-1.2321 0.5547,-1.7676 -0.203,-0.1814 -0.4063,-0.3635 -0.6093,-0.5449 0.2565,-0.3295 0.3742,-0.8534 0.7695,-0.9883 0.5227,-0.1783 1.1141,0.2957 1.6504,0.1641 0.1024,-0.025 3.2252,-1.5552 3.4609,-2.0586 0.1595,-0.3406 -0.1857,-0.7505 -0.4121,-1.0508 -0.066,-0.087 -0.2111,0.057 -0.3164,0.086 0.1581,-0.4356 0.183,-0.9463 0.4746,-1.3066 0.1388,-0.1714 1.5036,0.023 1.5117,-0.012 0.094,-0.394 -0.9506,-0.7705 -0.6406,-1.0313 0.7805,-0.6566 2.3204,0.5235 2.9863,-0.6621 1.1865,-4.8297 -0.7929,1.8074 1.336,-1.6543 0.1967,-0.3198 -0.053,-0.7484 -0.08,-1.123 -0.1304,-0.073 -0.4169,-0.072 -0.3906,-0.2188 0.2423,-1.3584 1.1739,-0.942 2.2089,-0.9726 0.3332,0.1483 0.6961,0.6479 0.9981,0.4433 0.2829,-0.1915 -0.3121,-0.7046 -0.1621,-1.0117 0.2472,-0.5062 0.8535,-0.742 1.2265,-1.164 0.8116,-0.9182 0.6376,-1.4922 1.0665,-2.5469 -0.7082,0.6286 -1.3476,2.4281 -2.1231,1.8847 -0.7621,-0.534 0.4719,-1.9981 1.2617,-2.4902 1.0924,-0.6807 2.6449,-0.1037 3.8028,-0.666 0.3206,-0.1557 -0.2627,-0.6642 -0.3575,-1.0078 -0.033,-0.1208 -0.146,-0.349 -0.023,-0.375 0.4934,-0.1048 1.0077,0.039 1.5117,0.059 0.298,-0.2807 0.8201,-0.4393 0.8945,-0.8418 0.1602,-0.8654 -1.2545,-1.3679 -0.2421,-2.2715 0.5127,-0.4577 1.3241,-0.4536 1.8671,-0.875 0.4927,-0.3823 -0.9869,-1.9406 0.9395,-1.6172 0.1941,0.1833 0.4371,0.3306 0.6289,0.5156 -0.063,-0.6936 0.09,-1.3234 0.8086,-1.9101 0.2348,-0.1916 0.6487,-0.1318 0.9609,-0.1817 0.038,0.1052 0.075,0.078 0.1094,-0.016 0.1165,-0.034 0.2121,-0.093 0.2578,-0.209 0.055,-0.1398 0,-0.2688 -0.082,-0.3945 0.09,-0.3266 0.2112,-0.7375 0.4141,-1.2637 0.096,-0.2488 0.1162,-0.6941 0.3828,-0.7031 0.5458,-0.018 1.3245,1.1531 1.5078,0.6387 0.9045,-2.5384 -4.0913,-0.9601 0.5918,-1.918 3.2283,-3.4493 0.377,-7.7372 -3.0664,-7.7246 z m -1.8848,13.6816 c 0.04,0.4375 0.1639,0.8994 0.2891,1.3926 0.091,0.3567 0.097,-0.7699 -0.062,-1.1016 -0.054,-0.1126 -0.1368,-0.2043 -0.2266,-0.291 z m -23.2383,23.3379 c 0.1248,0.1115 0.2503,0.2226 0.375,0.334 -0.1144,-0.1358 -0.2472,-0.5552 -0.3437,-0.4062 -0.014,0.022 -0.018,0.049 -0.031,0.072 z m -15.5566,21.6504 c -0.1664,-0.014 -0.3317,-0.026 -0.4981,-0.039 -0.027,0.067 -0.05,0.1264 -0.078,0.1933 0.2289,0.017 0.4544,0.01 0.541,-0.098 0.012,-0.014 0.023,-0.04 0.035,-0.057 z m -17.1172,18.3067 c -0.01,-0.015 -0.019,-0.024 -0.029,-0.039 -0.089,0.062 -0.1798,0.1215 -0.2793,0.1777 0.014,0.072 0.03,0.1436 0.051,0.2149 0.088,-0.1178 0.1757,-0.2344 0.2578,-0.3535 z m -9.8105,-5.4629 c 0.2746,-0.2095 0.5831,-0.3967 0.914,-0.5684 -0.1485,-0.4036 -0.263,-0.7877 -0.4336,-0.5605 -0.2527,0.3366 -0.3979,0.7371 -0.4804,1.1289 z m 0.7792,0.9746 c 0.04,-0.1045 0.079,-0.1672 0.1192,-0.3008 0.072,-0.2388 -0.3308,0.3739 -0.4961,0.5605 0.1257,-0.087 0.2513,-0.1731 0.3769,-0.2597 z m 4.6094,-5.7422 c 1.0928,0.2342 2.4406,0.9295 -0.3066,-0.2656 z m 12.586,-14.1524 c 0.019,-0.018 0.04,-0.038 0.059,-0.055 -0.02,0.018 -0.042,0.034 -0.059,0.055 z m 0.059,-0.055 c 0.2277,-0.1994 0.6291,-0.2251 0.996,-0.2852 -0.2758,-0.07 -0.6242,-0.04 -0.996,0.2852 z m 0.996,-0.2852 c 0.066,0.017 0.1191,0.044 0.1758,0.068 0,-0.036 0,-0.071 0,-0.1075 -0.058,0.014 -0.1141,0.029 -0.1758,0.039 z m 15.8497,-19.4297 c -0.023,-0.06 -0.058,-0.1211 -0.072,-0.1797 -0.015,-0.062 0.018,0.1474 0.072,0.1797 z m 9.6152,-10.7969 c 0,0 -0.01,0 -0.01,-0.01 -0.031,-0.031 -0.1154,0.135 -0.084,0.1035 0.032,-0.032 0.061,-0.066 0.092,-0.098 z m 4.0371,-3.9394 c -0.033,-0.099 -0.075,-0.1944 -0.1289,-0.2715 -0.1162,-0.1663 -0.5247,0.4547 -0.3301,0.5117 0.1694,0.05 0.3262,-0.086 0.459,-0.2402 z m 5.3359,-5.7695 c 0.01,10e-4 0.012,9e-4 0.02,0 0.058,-0.058 0.1153,-0.1178 0.1738,-0.1758 0.1216,-0.1205 -0.075,0.065 -0.1934,0.1739 z m 6.2032,-8.3165 c 0.3974,-0.2322 0.7956,-0.464 1.1289,-0.7773 0.3267,-0.3071 -1.2296,0.2091 -1.1758,0.6543 0.01,0.049 0.024,0.088 0.047,0.123 z m -48.2676,69.2207 c 0.067,0.065 0.1032,0.1034 0.1719,0.17 -0.023,0.046 -0.054,0.089 -0.078,0.1347 -0.044,-0.1 -0.077,-0.2018 -0.094,-0.3047 z m -0.7695,0.1231 0.6914,0.4805 c -0.06,0.1042 -0.1178,0.209 -0.1797,0.3125 -0.1889,-0.2418 -0.3843,-0.5237 -0.5117,-0.793 z"
       style="color:#000000;font-style:normal;font-variant:normal;font-weight:normal;font-stretch:normal;font-size:medium;line-height:normal;font-family:sans-serif;font-variant-ligatures:normal;font-variant-position:normal;font-variant-caps:normal;font-variant-numeric:normal;font-variant-alternates:normal;font-variant-east-asian:normal;font-feature-settings:normal;font-variation-settings:normal;text-indent:0;text-align:start;text-decoration:none;text-decoration-line:none;text-decoration-style:solid;text-decoration-color:#000000;letter-spacing:normal;word-spacing:normal;text-transform:none;writing-mode:lr-tb;direction:ltr;text-orientation:mixed;dominant-baseline:auto;baseline-shift:baseline;text-anchor:start;white-space:normal;shape-padding:0;shape-margin:0;inline-size:0;clip-rule:nonzero;display:inline;overflow:visible;visibility:visible;isolation:auto;mix-blend-mode:normal;color-interpolation:sRGB;color-interpolation-filters:linearRGB;solid-color:#000000;solid-opacity:1;vector-effect:none;fill:none;fill-opacity:1;fill-rule:nonzero;stroke:#e6b404;stroke-width:2.89134;stroke-linecap:butt;stroke-linejoin:miter;stroke-miterlimit:4;stroke-dasharray:none;stroke-dashoffset:0;stroke-opacity:1;filter:url(#filter7132);color-rendering:auto;image-rendering:auto;shape-rendering:auto;text-rendering:auto;enable-background:accumulate;stop-color:#000000"
       id="path15587" />
    <path
       inkscape:export-ydpi="96"
       inkscape:export-xdpi="96"
       inkscape:export-filename="D:\Calcatz\Icon Pack\VN Game Orient Express Theme\Visual Novel GUI\png\Evidence\pipe_cleaner_selected.png"
       style="color:#000000;font-style:normal;font-variant:normal;font-weight:normal;font-stretch:normal;font-size:medium;line-height:normal;font-family:sans-serif;font-variant-ligatures:normal;font-variant-position:normal;font-variant-caps:normal;font-variant-numeric:normal;font-variant-alternates:normal;font-variant-east-asian:normal;font-feature-settings:normal;font-variation-settings:normal;text-indent:0;text-align:start;text-decoration:none;text-decoration-line:none;text-decoration-style:solid;text-decoration-color:#000000;letter-spacing:normal;word-spacing:normal;text-transform:none;writing-mode:lr-tb;direction:ltr;text-orientation:mixed;dominant-baseline:auto;baseline-shift:baseline;text-anchor:start;white-space:normal;shape-padding:0;shape-margin:0;inline-size:0;clip-rule:nonzero;display:inline;overflow:visible;visibility:visible;isolation:auto;mix-blend-mode:normal;color-interpolation:sRGB;color-interpolation-filters:linearRGB;solid-color:#000000;solid-opacity:1;vector-effect:none;fill:#b8b8b8;fill-opacity:1;fill-rule:nonzero;stroke:none;stroke-width:0.857049;stroke-linecap:butt;stroke-linejoin:miter;stroke-miterlimit:4;stroke-dasharray:none;stroke-dashoffset:0;stroke-opacity:1;color-rendering:auto;image-rendering:auto;shape-rendering:auto;text-rendering:auto;enable-background:accumulate;stop-color:#000000"
       d="m 139.36413,121.9423 c -21.49691,24.65808 -45.528906,47.53934 -63.421331,74.92107 -0.359375,0.66644 0.369174,1.07168 0.716674,0.4706 17.81974,-27.2705 41.815097,-50.1302 63.347237,-74.8287 z"
       id="path15589"
       sodipodi:nodetypes="ccccc" />
    <path
       inkscape:export-ydpi="96"
       inkscape:export-xdpi="96"
       inkscape:export-filename="D:\Calcatz\Icon Pack\VN Game Orient Express Theme\Visual Novel GUI\png\Evidence\pipe_cleaner_selected.png"
       d="m 136.28071,121.37026 c -2.52195,0.65378 2.2142,-0.83844 -0.19993,2.24523 -0.39095,0.49937 -1.24883,-0.22401 -1.86821,-0.36036 -0.31807,-0.0699 -0.90315,0.065 -0.94221,-0.25837 -0.039,-0.32308 1.09091,-0.69641 0.85379,-0.47352 -0.34367,0.32305 -0.78687,0.52029 -1.18031,0.78045 -0.34764,-0.39825 0.0388,1.19295 -0.3259,1.08952 -0.19418,-0.0559 -0.19972,-0.67288 -0.32327,-0.51295 -0.14549,0.18834 0.25034,0.45947 0.18729,0.68897 -0.0595,0.21675 -0.93646,1.21528 -1.12563,1.43728 -0.19174,-0.31777 -0.26691,-1.15998 -0.57521,-0.95334 -0.64954,0.43537 0.15122,1.94272 -0.55456,2.27938 -0.40091,0.19124 -0.90447,-0.1134 -1.33254,0.005 -0.15717,0.0435 -0.28622,0.2741 -0.23531,0.42905 0.17512,0.53286 0.56866,0.96697 0.85299,1.45045 -0.78339,-0.0592 -2.57883,-0.63431 -2.83142,0.90313 -0.0743,0.45245 0.26135,1.26332 0.7117,1.17713 0.53305,-0.10202 0.43004,-1.00361 0.73333,-1.45366 0.21939,-0.32559 1.09643,-1.1242 0.81756,-0.84785 -0.67546,0.66939 -1.33832,1.35137 -2.00748,2.02705 -2.22193,1.38004 -0.50576,-0.006 -1.891,2.15103 -0.0978,0.15233 -0.27249,0.36107 -0.44598,0.30958 -0.14122,-0.0414 0.15495,-0.49159 0.23928,-0.37093 0.14548,0.20834 0.20387,0.57308 0.0335,0.76162 -0.27526,0.30466 -0.76065,0.3094 -1.14097,0.46411 -0.88822,1.39336 0.0189,0.18046 -0.96642,1.05375 -0.29577,0.26214 -0.55058,0.5672 -0.82962,0.8471 -0.0228,0.0229 0.0379,-0.0982 0.0605,-0.0755 0.34378,0.34119 1.31932,0.76349 0.96126,1.08965 -0.39321,0.35819 -0.97746,-0.41975 -1.46617,-0.62971 -1.33308,0.46086 0.84955,2.10961 -0.93014,2.47665 -0.46281,0.0954 -0.9245,-0.69505 -1.33851,-0.46706 -0.52256,0.28767 1.72561,2.77728 -0.54042,-0.007 -1.89943,0.46224 0.87573,2.17925 0.11213,2.56753 -0.49448,0.25145 -0.91506,-1.14167 -1.40799,-0.88721 -0.42584,0.21983 0.85714,0.93774 0.5687,1.32046 -2.02404,2.68554 -1.77155,-2.32402 -1.63491,1.45749 -0.22646,0.18631 -0.44188,0.38692 -0.6794,0.55891 -0.19069,0.13808 -0.37945,0.29279 -0.60217,0.3691 -0.0489,0.0167 -0.0784,-0.19025 -0.0662,-0.14015 0.10282,0.42488 0.58393,0.9049 0.33889,1.2669 -0.29774,0.43985 -1.0362,0.25891 -1.52004,0.47805 -0.41995,0.19019 -0.7791,0.49308 -1.16866,0.73964 -0.24629,0.19187 -0.68749,0.5005 -0.72367,0.80666 -0.0331,0.28002 0.54015,0.64566 0.29875,0.79138 -0.29396,0.17744 -0.6103,-0.34832 -0.95,-0.39828 -0.60975,-0.0895 -0.40201,1.34339 -0.45746,2.24246 -0.10632,1.39332 -2.91945,-0.50988 -3.06457,0.5158 -0.0865,0.61159 0.7783,1.2594 1.39472,1.22005 0.44721,-0.0285 0.048,-1.26477 -0.39974,-1.28359 -1.77911,-0.0748 -0.82073,1.43445 -0.62045,1.84759 -0.91234,-0.18864 -3.21975,2.3387 -0.66231,2.38581 0.33693,0.006 -0.0586,-1.51872 -0.1342,-1.42007 -0.53898,0.70299 -0.71294,1.62191 -1.06941,2.43288 -0.46317,0.12347 -0.92635,0.24695 -1.38953,0.37043 -0.0743,0.26155 0.0156,0.65422 -0.22295,0.78463 -0.31364,0.17146 -0.89901,-0.39225 -1.06947,-0.0781 -0.31644,0.5832 0.30731,1.38664 0.0319,1.99032 -0.12385,0.27146 -0.99241,0.16534 -0.88783,-0.11414 0.13494,-0.36066 0.72132,-0.26981 1.08199,-0.40473 0.51466,0.82774 -0.24985,-0.5777 -1.10721,0.38796 -0.25638,0.28877 -0.90464,4.55179 0.53898,-0.0265 0.0983,-0.31142 -0.32124,0.60233 -0.5976,0.7763 -0.43968,0.27678 -0.97861,0.34933 -1.46792,0.524 -0.0119,0.70373 0.16647,1.43704 -0.0358,2.1112 -0.0792,0.26379 -0.46428,0.51 -0.71939,0.40628 -0.2196,-0.0901 0.006,-0.47687 -0.031,-0.71129 -0.006,-0.0358 -0.0752,-0.0925 -0.0908,-0.0599 -1.448072,3.02388 0.66336,0.0639 -2.782446,3.98149 -1.243667,1.72667 -2.021364,3.50734 -4.194902,4.22567 -0.436662,0.14431 -1.708663,-0.55821 -1.353872,-0.26561 2.169531,1.5058 4.33906,3.01159 6.508593,4.51739 0.13861,-0.22081 0.190029,-0.53234 0.415852,-0.66245 0.319451,-0.18382 0.724677,-0.13491 1.087013,-0.20236 -2.02407,-1.41743 -4.04814,-2.83484 -6.07221,-4.25225 0.125719,0.51732 0.720448,1.14506 0.377149,1.55197 -0.36965,0.43813 -1.193242,-0.1889 -1.719299,0.0389 -0.110337,0.0478 -0.142068,1.25941 -0.232068,1.38661 -0.463272,0.65474 -1.072459,1.19289 -1.608694,1.78934 3.937714,3.63573 5.666033,6.37228 1.911836,-2.31534 -0.08542,-0.19778 -0.443546,0.23441 -0.632673,0.13135 -0.310779,-0.16949 -0.417239,-1.0947 -0.657011,-0.8343 -0.337546,0.36658 0.03296,0.99607 0.04945,1.49411 -0.453493,0.31263 -0.906978,0.62524 -1.360465,0.93785 0.119971,-0.13544 0.411761,-0.57939 0.359871,-0.40611 -0.545178,1.82029 -1.125792,-0.21242 -0.302706,-1.30856 0.229034,-0.30502 0.30886,0.91963 0.690235,0.91273 0.400666,-0.007 0.500622,-0.62585 0.750936,-0.93878 -5.687623,1.48906 -3.581769,9.53257 2.105854,8.04351 v 0 c 0.5943,-0.14303 1.229043,-0.17046 1.782904,-0.4291 0.151485,-0.0708 0.0599,-0.33994 0.156329,-0.47647 0.371269,-0.52543 1.018572,-0.87936 1.230807,-1.48671 0.07438,-0.21284 -0.635443,-0.0749 -0.606998,-0.29838 0.04051,-0.31802 0.483632,-0.42099 0.725449,-0.63147 -0.1404,0.25421 -0.432688,0.47245 -0.421182,0.76262 0.01279,0.32265 0.446809,1.15943 0.484647,0.83876 0.06944,-0.58852 -0.423223,-1.1461 -0.378656,-1.73704 0.01704,-0.22598 0.53127,0.70748 0.472817,0.48853 -1.864544,-6.98449 -3.907299,-7.95971 1.347962,-2.86618 -0.320611,0.64126 -0.799587,1.22542 -0.96186,1.92376 -0.03935,0.16936 0.37092,0.0606 0.521103,-0.027 0.319835,-0.18676 0.764183,-0.38719 0.816226,-0.75388 0.07106,-0.50062 -0.565146,-0.92772 -0.506278,-1.42991 0.02596,-0.22171 0.444737,0.0385 0.667101,0.0578 -1.845866,-1.59569 -3.691734,-3.19138 -5.537599,-4.78706 3.245452,1.41186 -1.385608,-0.81818 -0.270769,0.69227 1.454236,1.97033 3.34609,3.58919 5.196879,5.1928 0.368486,0.31917 -0.813914,-0.81709 -0.691225,-1.28892 0.460707,-1.77179 3.4571,-2.2156 3.35583,-4.34763 0.84429,-0.40401 1.62759,-0.97426 2.53286,-1.21203 0.58601,-0.15392 1.28126,0.35397 1.81632,0.0697 0.41896,-0.22258 0.20125,-0.98164 0.53494,-1.31886 0.34595,-0.34961 1.19072,-0.12458 1.35289,-0.5889 0.1774,-0.50804 -1.22042,-0.72129 -0.81759,-1.39202 0.41088,0.0547 0.82044,0.20817 1.23257,0.16407 0.92744,-0.0993 1.42667,-2.45265 1.8183,-2.92665 0.2866,-0.34688 0.052,0.98171 -0.23348,1.32957 -0.17034,0.20759 -1.06886,-0.0299 -0.80284,-0.0666 0.33068,-0.0455 0.66716,0.0262 1.00074,0.0393 0.28152,-0.52467 0.8704,-0.97914 0.8446,-1.57402 -0.0195,-0.45005 -0.53703,-1.12624 -0.95441,-0.95678 -0.38848,0.15773 0.0668,0.87561 0.30586,1.22009 0.13311,0.19175 -0.11697,-0.5417 0.0564,-0.69809 2.17185,-1.95939 0.91542,0.60673 1.74954,-1.49414 -0.61854,1.3611 0.20901,-0.48272 0.40285,-0.71512 0.35898,-0.43045 0.85414,-0.72603 1.28532,-1.08417 0.31244,-0.2595 0.78543,-0.39535 0.94543,-0.76865 0.18112,-0.42261 -1.32327,-0.51693 -0.8304,-1.10137 1.57695,-1.39049 -0.64116,0.26443 0.8867,0.66637 0.4826,0.12705 0.92823,-0.40764 1.30324,-0.7369 0.0871,-0.0764 -0.0117,-0.24383 -0.0784,-0.33856 -0.24777,-0.35208 -0.83871,-0.54512 -0.84639,-0.97557 -0.007,-0.38904 0.54273,-0.55772 0.81409,-0.83657 0.19416,-0.17717 0.32144,-0.56225 0.58248,-0.5315 0.69555,0.0819 1.54029,1.40877 1.93117,0.82772 0.43634,-0.64868 -1.07328,-1.29423 -1.09162,-2.07578 -0.008,-0.34852 0.81559,0.16003 1.04042,-0.10641 0.18177,-0.21541 -0.1842,-0.53277 -0.27629,-0.79915 0.24313,-0.1754 0.48627,-0.35081 0.7294,-0.52621 2.36991,-1.40062 -0.51252,0.55502 0.9932,-1.279 0.22816,-0.27792 0.71387,-0.26653 0.92225,-0.55957 0.27065,-0.38059 0.17092,-0.94315 0.42499,-1.33499 0.0701,-0.10811 0.16611,0.1968 0.24912,0.29533 -0.23791,-0.21242 -0.47575,-0.42501 -0.71364,-0.6375 0.1862,-0.23912 0.27178,-0.6195 0.55862,-0.71735 0.37934,-0.12939 0.80732,0.21414 1.19653,0.11865 0.0743,-0.0182 2.34087,-1.12872 2.51194,-1.49408 0.11574,-0.24718 -0.13443,-0.54441 -0.29876,-0.76232 -0.0477,-0.0633 -0.1529,0.0414 -0.22933,0.062 0.11477,-0.31617 0.13305,-0.68698 0.34465,-0.94842 0.10074,-0.12438 1.09059,0.0173 1.09651,-0.008 0.0682,-0.28595 -0.69048,-0.55986 -0.4655,-0.74912 0.56641,-0.4765 1.68483,0.38049 2.16808,-0.47991 0.86101,-3.50497 -0.57563,1.31099 0.96931,-1.2012 0.14275,-0.23214 -0.0386,-0.54364 -0.0579,-0.81547 -0.0946,-0.0528 -0.30283,-0.052 -0.28378,-0.15872 0.17585,-0.98586 0.85137,-0.68377 1.60254,-0.70598 0.2418,0.1076 0.50616,0.47145 0.72534,0.32299 0.20534,-0.13903 -0.22635,-0.51178 -0.11752,-0.73461 0.1794,-0.36736 0.6182,-0.5387 0.88895,-0.845 0.58896,-0.66629 0.46393,-1.08337 0.77514,-1.84876 -0.51393,0.45619 -0.97899,1.76288 -1.5418,1.36856 -0.55308,-0.38753 0.34236,-1.45019 0.91553,-1.80733 0.79277,-0.494 1.92005,-0.0751 2.76031,-0.4832 0.23268,-0.11298 -0.18999,-0.48226 -0.25875,-0.73163 -0.0242,-0.0876 -0.10702,-0.25333 -0.0181,-0.27222 0.3581,-0.0761 0.73159,0.0287 1.09739,0.043 0.21622,-0.20368 0.5946,-0.31896 0.64866,-0.61105 0.11623,-0.62801 -0.91022,-0.99311 -0.17552,-1.6489 0.37214,-0.33217 0.96087,-0.32941 1.35495,-0.63522 0.35754,-0.27746 -0.71561,-1.40848 0.6824,-1.17375 0.20684,0.19535 0.49714,0.3298 0.62049,0.58616 0.11577,0.24066 0.11189,1.05868 0.0462,0.79982 -0.23488,-0.92556 -0.47445,-1.70325 0.37643,-2.39755 0.26012,-0.21225 0.84045,0.0181 0.96322,-0.29433 0.11804,-0.30036 -0.35267,-0.54058 -0.52901,-0.81086 0.46366,1.6438 0.13973,1.24293 0.77036,-0.39311 0.0697,-0.18056 0.0843,-0.50341 0.27773,-0.50991 0.39609,-0.0134 0.96163,0.83717 1.09464,0.46386 0.65641,-1.84216 -2.96871,-0.69769 0.4299,-1.39281 3.12378,-3.33758 -1.59626,-7.75526 -4.72004,-4.4177 z"
       id="path15591"
       style="fill:url(#linearGradient15619);fill-opacity:1;stroke:none;stroke-width:0.857049;stroke-linecap:round;stroke-miterlimit:4;stroke-dasharray:none;stroke-opacity:1;paint-order:fill markers stroke" />
    <path
       inkscape:export-ydpi="96"
       inkscape:export-xdpi="96"
       inkscape:export-filename="D:\Calcatz\Icon Pack\VN Game Orient Express Theme\Visual Novel GUI\png\Evidence\pipe_cleaner_selected.png"
       id="path15593"
       style="fill:#ebebeb;fill-opacity:1;stroke:none;stroke-width:0.857046;stroke-linecap:round;stroke-miterlimit:4;stroke-dasharray:none;stroke-opacity:1;paint-order:fill markers stroke"
       d="m 140.1316,121.57075 c -0.83272,0.003 -1.71388,0.35395 -2.49464,1.18779 -2.51447,0.65161 2.21321,-0.83714 -0.19986,2.24518 -0.39095,0.49937 -1.24876,-0.22367 -1.86815,-0.36003 -0.28273,-0.0622 -0.77348,0.0355 -0.90714,-0.16867 -0.12139,0.0709 -0.2449,0.1398 -0.36144,0.21687 -0.34763,-0.39824 0.0387,1.19342 -0.326,1.08998 -0.19418,-0.0559 -0.19962,-0.67303 -0.32317,-0.5131 -0.1455,0.18835 0.25015,0.45937 0.1871,0.68886 -0.0594,0.21675 -0.93626,1.21526 -1.12543,1.43726 -0.19173,-0.31778 -0.26575,-1.16056 -0.57405,-0.95392 -0.64954,0.43538 0.15016,1.94254 -0.55563,2.2792 -0.4009,0.19124 -0.90429,-0.11288 -1.33236,0.006 -0.15716,0.0435 -0.2862,0.27453 -0.23529,0.42948 0.17512,0.53286 0.56896,0.96653 0.85328,1.45001 -0.18418,-0.0139 -0.43024,-0.0582 -0.69311,-0.095 -0.19152,0.19063 -0.38112,0.38342 -0.57122,0.57547 0.19873,-0.23651 0.40502,-0.43747 0.55704,-0.5769 -0.85278,-0.11816 -1.93269,-0.16933 -2.1247,0.99928 -0.0438,0.26649 0.0578,0.65418 0.23813,0.91281 -2.18097,1.35204 -0.49422,-0.007 -1.87381,2.14171 -0.0284,0.0442 -0.0726,0.0887 -0.11198,0.13466 0.0642,0.19595 0.0633,0.42801 -0.061,0.56554 -0.27526,0.30466 -0.76069,0.30879 -1.14102,0.4635 -0.88822,1.39335 0.0186,0.17983 -0.96667,1.05313 -0.27149,0.24062 -0.50968,0.51644 -0.76257,0.77674 0.34747,0.34045 1.31193,0.7609 0.95534,1.08574 -0.39321,0.35818 -0.97832,-0.42079 -1.46702,-0.63075 -1.33308,0.46086 0.84986,2.11059 -0.92983,2.47763 -0.46281,0.0954 -0.92402,-0.69574 -1.33803,-0.46774 -0.52256,0.28766 1.72599,2.77703 -0.54003,-0.007 -1.89944,0.46224 0.87558,2.18006 0.11197,2.56835 -0.49448,0.25144 -0.91597,-1.14176 -1.4089,-0.8873 -0.42585,0.21984 0.85682,0.93689 0.56837,1.31961 -2.02403,2.68554 -1.7709,-2.323 -1.63427,1.45851 -0.22646,0.18631 -0.44142,0.38647 -0.67894,0.55846 -0.19069,0.13808 -0.37968,0.29223 -0.60239,0.36853 -0.005,0.002 -0.009,-0.007 -0.0142,-0.01 0.1506,0.39087 0.50692,0.81086 0.28632,1.13677 -0.29774,0.43985 -1.03563,0.25853 -1.51946,0.47766 -0.41996,0.1902 -0.77981,0.49334 -1.16937,0.73989 -0.24629,0.19187 -0.6867,0.50034 -0.72288,0.80651 -0.0331,0.28001 0.54047,0.64661 0.29907,0.79233 -0.29396,0.17744 -0.61138,-0.34833 -0.95108,-0.39829 -0.60976,-0.0895 -0.40095,1.34327 -0.45641,2.24234 -0.10632,1.39332 -2.91932,-0.50974 -3.06444,0.51594 -0.012,0.0852 -0.003,0.1705 0.0184,0.25513 -0.2727,0.45049 0.21874,1.24532 0.35577,1.52797 -0.79047,-0.16344 -2.6237,1.71057 -1.43725,2.24518 -0.13972,0.38651 -0.2658,0.78142 -0.42948,1.15377 -0.46317,0.12346 -0.92588,0.24789 -1.38906,0.37137 -0.0743,0.26155 0.016,0.65341 -0.22253,0.78382 -0.31364,0.17146 -0.89969,-0.39208 -1.07015,-0.078 -0.23645,0.43579 0.0517,0.99454 0.0978,1.50104 0.0427,-0.0101 0.0906,-0.0154 0.12898,-0.0298 0.28525,0.45876 0.16968,0.23563 -0.12898,0.1063 0.006,0.14357 -0.007,0.28311 -0.0652,0.41246 -0.0569,0.12477 -0.2729,0.16234 -0.47766,0.14741 0.038,-0.11714 0.062,-0.17333 0.10347,-0.30474 0.0552,-0.17506 -0.0581,0.039 -0.21261,0.28915 -0.1902,-0.037 -0.34892,-0.11959 -0.30191,-0.24521 0.0144,-0.0385 0.037,-0.0702 0.061,-0.0992 -0.0284,0.0271 -0.0565,0.05 -0.085,0.0822 -0.0687,0.0774 -0.16519,0.44048 -0.24237,0.84195 -0.40209,0.19799 -0.85954,0.28072 -1.28418,0.4323 -0.0119,0.70374 0.16537,1.43637 -0.0369,2.11052 -0.0792,0.26379 -0.46351,0.51052 -0.71862,0.4068 -0.2196,-0.0901 0.006,-0.47712 -0.0312,-0.71154 -0.006,-0.0358 -0.0751,-0.0921 -0.0907,-0.0595 -1.44807,3.02388 0.66343,0.0639 -2.78238,3.98151 -1.009757,1.40192 -1.724982,2.82808 -3.116885,3.7037 -0.164265,-0.11504 -0.328993,-0.22941 -0.493258,-0.34443 0.0049,0.0205 0.01917,0.043 0.02552,0.0638 l -0.276395,-0.23813 c -0.498517,-0.10707 -0.925051,-0.0842 -0.494676,0.49893 0.115179,0.15605 0.238173,0.30601 0.358605,0.45782 -0.06855,0.0259 -0.12693,0.06 -0.198438,0.0836 -0.436661,0.14431 -1.708417,-0.55906 -1.353626,-0.26646 l 1.515211,1.05172 c -0.317862,-0.0735 -0.655454,-0.17342 -0.918481,-0.0595 -0.06708,0.0291 -0.104843,0.47759 -0.144576,0.86178 -0.138581,0.0725 -0.305051,0.18984 -0.416719,0.12899 -0.310779,-0.16948 -0.416489,-1.09383 -0.656261,-0.83344 -0.18533,0.20127 -0.156491,0.48223 -0.09071,0.77674 -0.307234,0.0967 -0.590584,0.21317 -0.849029,0.34727 0.09164,0.24901 0.200359,0.50918 0.375613,0.50602 0.271803,-0.005 0.404185,-0.29274 0.540034,-0.57406 0.03651,0.15039 0.0677,0.29946 0.07229,0.43799 -0.362277,0.24974 -0.723463,0.50007 -1.085735,0.7498 -0.394372,1.03022 -0.760059,0.21604 -0.565547,-0.70728 -1.791447,1.36645 -1.94347,3.73693 -0.929821,5.42443 0.901133,0.54157 2.076553,0.74993 3.468403,0.38553 0.5943,-0.14303 1.22924,-0.17084 1.783101,-0.42948 0.151486,-0.0708 0.05949,-0.33971 0.155916,-0.47625 0.304421,-0.43082 0.792233,-0.74766 1.075813,-1.18211 0.134266,0.30216 0.313294,0.57093 0.337344,0.36711 0.05042,-0.42736 -0.193231,-0.8379 -0.314665,-1.25725 -0.09732,0.12999 -0.176214,0.26366 -0.170088,0.41813 2.01e-4,0.005 0.0038,0.0145 0.0043,0.0198 -0.16014,-0.0196 -0.322818,-0.0417 -0.308995,-0.15025 0.02692,-0.21138 0.232651,-0.32756 0.437979,-0.44365 -0.0214,-0.10705 -0.03515,-0.21426 -0.02693,-0.32317 0.0076,-0.10113 0.11731,0.0366 0.228203,0.19277 0.02838,-0.0197 0.06166,-0.0365 0.08646,-0.0581 -0.01673,0.0303 -0.04351,0.0584 -0.06378,0.0879 0.128905,0.18433 0.251518,0.37893 0.221116,0.26505 -0.509346,-1.90799 -1.016863,-3.32454 -1.400401,-4.33443 l 0.239542,0.16583 c 0.702172,0.6589 1.425853,1.29605 2.151629,1.92485 -0.02501,0.0417 -0.0474,0.0844 -0.07229,0.12614 0.23504,0.21128 0.46831,0.4227 0.70587,0.63075 0.05051,-0.071 0.08673,-0.14874 0.09922,-0.23671 0.03868,-0.27251 -0.127792,-0.52382 -0.282064,-0.77674 0.102192,-0.20684 0.171951,-0.44684 0.365692,-0.55845 0.31945,-0.18384 0.724812,-0.13525 1.087147,-0.2027 -0.535214,-0.3748 -1.070701,-0.7492 -1.60592,-1.124 1.029899,-0.98711 2.725782,-1.63513 2.649132,-3.24871 0.8443,-0.404 1.62765,-0.97411 2.53292,-1.21188 0.586,-0.15392 1.28206,0.3537 1.81711,0.0695 0.41896,-0.22258 0.20068,-0.98097 0.53437,-1.31819 0.34595,-0.3496 1.19003,-0.1239 1.35221,-0.58822 0.1774,-0.50804 -1.21927,-0.72259 -0.81643,-1.39332 0.41087,0.0547 0.8196,0.20852 1.23173,0.16442 0.51262,-0.0549 0.88692,-0.79096 1.19204,-1.52513 -0.28348,-0.0211 -0.57718,-0.11581 -0.40963,-0.13891 0.15454,-0.0213 0.31015,-0.0134 0.46633,-0.001 0.21941,-0.54247 0.40892,-1.06679 0.5698,-1.2615 0.27792,-0.33639 0.065,0.89589 -0.20836,1.28843 0.0576,0.005 0.11544,0.0119 0.17292,0.0142 0.28153,-0.52467 0.87059,-0.97844 0.84478,-1.57333 -0.009,-0.21174 -0.13455,-0.47019 -0.30191,-0.67043 1.6398,-1.3494 0.80049,0.44453 1.40607,-1.11833 0.15468,-0.3193 0.36819,-0.75035 0.4564,-0.85612 0.35899,-0.43045 0.853,-0.72618 1.28418,-1.08432 0.31244,-0.25949 0.78541,-0.39494 0.94541,-0.76824 0.18112,-0.42261 -1.32205,-0.51688 -0.82918,-1.10132 1.57695,-1.3905 -0.64197,0.26423 0.88588,0.66617 0.4826,0.12705 0.92901,-0.40779 1.30402,-0.73705 0.087,-0.0764 -0.0127,-0.24402 -0.0794,-0.33876 -0.24777,-0.35207 -0.83851,-0.54473 -0.84619,-0.97518 -0.007,-0.38903 0.54365,-0.55742 0.81501,-0.83627 0.19416,-0.17717 0.3201,-0.56228 0.58114,-0.53152 0.69555,0.0819 1.54105,1.40882 1.93193,0.82776 0.43634,-0.64868 -1.07307,-1.29495 -1.09141,-2.07651 -0.008,-0.34851 0.81556,0.16014 1.04038,-0.1063 0.18177,-0.21541 -0.1843,-0.53162 -0.2764,-0.798 0.24315,-0.17541 0.48542,-0.35187 0.72855,-0.52728 2.36991,-1.40062 -0.5121,0.55552 0.99361,-1.2785 0.22817,-0.27793 0.71435,-0.26683 0.92274,-0.55988 0.25927,-0.36461 0.18637,-0.89281 0.40253,-1.28134 -0.14751,-0.13179 -0.2947,-0.26368 -0.44222,-0.39545 0.18619,-0.23913 0.27162,-0.61937 0.55846,-0.71721 0.37933,-0.12939 0.80708,0.21454 1.19629,0.11906 0.0743,-0.0182 2.34057,-1.13 2.51165,-1.49537 0.11574,-0.24718 -0.13333,-0.54324 -0.29765,-0.76115 -0.0477,-0.0632 -0.1532,0.0404 -0.22963,0.061 0.11477,-0.31618 0.13284,-0.68681 0.34443,-0.94825 0.10075,-0.12437 1.09116,0.0177 1.09708,-0.007 0.0682,-0.28595 -0.6913,-0.56055 -0.46633,-0.74981 0.56642,-0.47649 1.68539,0.38132 2.16864,-0.47908 0.86101,-3.50497 -0.57543,1.31023 0.96951,-1.20197 0.14275,-0.23213 -0.0388,-0.54318 -0.0581,-0.815 -0.0946,-0.0528 -0.30252,-0.052 -0.28348,-0.15875 0.17585,-0.98587 0.8505,-0.68366 1.60167,-0.70588 0.2418,0.10761 0.50654,0.47163 0.72572,0.32317 0.20533,-0.13903 -0.22647,-0.51139 -0.11765,-0.73422 0.1794,-0.36736 0.61796,-0.53988 0.88872,-0.84619 0.58895,-0.66629 0.46411,-1.08291 0.77532,-1.8483 -0.51394,0.45619 -0.97934,1.76353 -1.54214,1.36922 -0.55308,-0.38754 0.34248,-1.45005 0.91565,-1.8072 0.79277,-0.494 1.92085,-0.0753 2.76111,-0.48334 0.23268,-0.11298 -0.19062,-0.48201 -0.25939,-0.73138 -0.0242,-0.0876 -0.10738,-0.25467 -0.0184,-0.27356 0.35809,-0.0761 0.73269,0.0296 1.09848,0.0439 0.21623,-0.20369 0.59371,-0.31882 0.64777,-0.6109 0.11622,-0.62801 -0.91046,-0.99408 -0.17576,-1.64987 0.37214,-0.33217 0.96097,-0.32918 1.35504,-0.635 0.35754,-0.27745 -0.71483,-1.40834 0.68319,-1.17362 0.1408,0.133 0.31724,0.23999 0.4564,0.3742 -0.0455,-0.50287 0.0655,-0.96081 0.58681,-1.38623 0.17028,-0.13893 0.46942,-0.0958 0.69595,-0.13181 0.0276,0.0777 0.057,0.0576 0.0822,-0.0113 0.0834,-0.0247 0.15143,-0.0667 0.18426,-0.15024 0.0399,-0.10146 0.002,-0.1951 -0.0581,-0.28632 0.0653,-0.23699 0.15329,-0.53657 0.3005,-0.91847 0.0697,-0.18056 0.083,-0.50236 0.2764,-0.50886 0.39608,-0.0134 0.96264,0.83681 1.09566,0.4635 0.65641,-1.84217 -2.96914,-0.69819 0.42947,-1.39332 1.19174,-1.2733 1.23779,-2.70154 0.67043,-3.79866 -0.46574,-0.26027 -0.98959,-0.42014 -1.5393,-0.41813 z m -2.72427,8.5399 c 0.0287,0.31783 0.11882,0.65358 0.20978,1.01203 0.0657,0.25885 0.0704,-0.55876 -0.0453,-0.79943 -0.0394,-0.0818 -0.0992,-0.14967 -0.16443,-0.2126 z m -16.86434,16.93805 c 0.0904,0.0807 0.18036,0.16169 0.27072,0.24237 -0.083,-0.0985 -0.17796,-0.40435 -0.24804,-0.29623 -0.0107,0.0165 -0.0132,0.0369 -0.0226,0.0538 z m -11.29109,15.71058 c -0.12048,-0.0101 -0.24101,-0.0177 -0.36144,-0.0269 -0.0195,0.0482 -0.0366,0.0919 -0.0567,0.14033 0.1666,0.0123 0.32957,0.004 0.39262,-0.0723 0.009,-0.0105 0.017,-0.0289 0.0255,-0.0411 z m -12.420766,13.28538 c -0.008,-0.0115 -0.01466,-0.0185 -0.02268,-0.0298 -0.06442,0.0446 -0.129362,0.0898 -0.201272,0.1304 0.0104,0.052 0.02188,0.1042 0.03685,0.15591 0.0637,-0.0851 0.127815,-0.17042 0.187099,-0.25655 z m -5.76319,-2.57544 c 0.199325,-0.15203 0.423158,-0.28784 0.663348,-0.41246 -0.107778,-0.29287 -0.190881,-0.57165 -0.314665,-0.4068 -0.183497,0.24437 -0.288771,0.53486 -0.348683,0.81926 z m 0.565547,0.70729 c 0.02903,-0.0758 0.05742,-0.12131 0.08646,-0.21828 0.05189,-0.17327 -0.240051,0.27136 -0.360022,0.40679 0.09121,-0.0628 0.182347,-0.12563 0.273562,-0.18851 z m 3.346505,-4.16718 c 0.792835,0.17027 1.768618,0.67264 -0.223951,-0.19419 z m 9.132374,-10.26914 c 0.0147,-0.014 0.0294,-0.0298 0.044,-0.0425 -0.0155,0.0133 -0.0309,0.0267 -0.044,0.0425 z m 0.044,-0.0425 c 0.16559,-0.14341 0.45594,-0.16204 0.72146,-0.20553 -0.19985,-0.0503 -0.4521,-0.0295 -0.72146,0.20553 z m 0.72146,-0.20553 c 0.0478,0.012 0.0864,0.0304 0.12757,0.0482 -7.3e-4,-0.0258 0.002,-0.0504 0,-0.0765 -0.0421,0.01 -0.0829,0.021 -0.12757,0.0284 z m 11.50228,-14.10181 c -0.0167,-0.0433 -0.0422,-0.088 -0.0525,-0.1304 -0.0108,-0.0446 0.0131,0.10638 0.0525,0.1304 z m 6.97791,-7.83403 c -10e-4,-0.001 -0.004,-0.003 -0.006,-0.004 -0.0226,-0.0227 -0.0838,0.098 -0.061,0.0751 0.0229,-0.023 0.044,-0.0476 0.0666,-0.0709 z m 2.9312,-2.85891 c -0.0238,-0.0727 -0.0556,-0.14066 -0.095,-0.19702 -0.0843,-0.12065 -0.37935,0.33 -0.23812,0.37136 0.12315,0.0366 0.23665,-0.0619 0.33308,-0.17434 z m 3.87237,-4.18845 c 0.005,7.2e-4 0.009,6.7e-4 0.0142,0.001 0.0419,-0.0417 0.0827,-0.0845 0.12474,-0.12615 0.0873,-0.0865 -0.0553,0.048 -0.13891,0.12473 z m 4.50028,-6.03391 c 0.28842,-0.16852 0.57738,-0.33677 0.81926,-0.56413 0.23712,-0.2229 -0.89232,0.15033 -0.85328,0.47341 0.004,0.0359 0.0174,0.0652 0.034,0.0907 z M 98.276928,173.3218 c 0.04801,0.0467 0.07403,0.0741 0.123315,0.1219 -0.0166,0.0332 -0.0379,0.0649 -0.05528,0.0978 -0.03216,-0.0722 -0.05601,-0.14527 -0.06804,-0.21971 z m -0.559877,0.0865 0.503181,0.34869 c -0.04394,0.0765 -0.08638,0.15367 -0.131819,0.22962 -0.137745,-0.17627 -0.279036,-0.38212 -0.371362,-0.57831 z m -0.138906,1.55491 c -0.05407,0.13203 -0.106417,0.26415 -0.138906,0.40396 -0.02598,0.11182 0.133064,0.0927 0.294822,0.0482 -0.0559,-0.1717 -0.101655,-0.2921 -0.155916,-0.45215 z" />
    <path
       inkscape:export-ydpi="96"
       inkscape:export-xdpi="96"
       inkscape:export-filename="D:\Calcatz\Icon Pack\VN Game Orient Express Theme\Visual Novel GUI\png\Evidence\pipe_cleaner_selected.png"
       d="m 156.43164,544.58594 c -1.14745,0.004 -2.36164,0.48772 -3.4375,1.63672 -3.46482,0.89788 3.0497,-1.15354 -0.27539,3.09375 -0.53871,0.68811 -1.72073,-0.30821 -2.57422,-0.4961 -0.38959,-0.0857 -1.06583,0.0489 -1.25,-0.23242 -0.16727,0.0977 -0.33746,0.19264 -0.49805,0.29883 -0.47902,-0.54876 0.0533,1.64448 -0.44921,1.50195 -0.26757,-0.077 -0.27507,-0.92741 -0.44532,-0.70703 -0.20048,0.25953 0.3447,0.63298 0.25782,0.94922 -0.0819,0.29867 -1.29012,1.67456 -1.55079,1.98047 -0.2642,-0.43788 -0.36619,-1.5992 -0.79101,-1.31445 -0.89504,0.59992 0.20691,2.67672 -0.76563,3.14062 -0.55243,0.26352 -1.24607,-0.15554 -1.83593,0.008 -0.21657,0.0599 -0.39438,0.37829 -0.32422,0.5918 0.2413,0.73425 0.78399,1.33183 1.17578,1.99805 -0.2538,-0.0192 -0.59286,-0.0802 -0.95508,-0.13086 -0.2639,0.26268 -0.52516,0.52834 -0.78711,0.79297 0.27384,-0.32589 0.5581,-0.60281 0.76758,-0.79493 -1.1751,-0.16283 -2.66317,-0.23333 -2.92774,1.37696 -0.0603,0.3672 0.0796,0.90142 0.32813,1.25781 -3.00527,1.86304 -0.68102,-0.009 -2.58203,2.95117 -0.0391,0.0609 -0.1,0.12222 -0.1543,0.18555 0.0885,0.27001 0.0873,0.58978 -0.084,0.77929 -0.3793,0.41981 -1.0482,0.4255 -1.57227,0.63868 -1.22393,1.91998 0.0257,0.24781 -1.33203,1.45117 -0.3741,0.33156 -0.70231,0.71163 -1.05078,1.07031 0.47879,0.46913 1.80778,1.04848 1.31641,1.4961 -0.54182,0.49356 -1.34808,-0.57983 -2.02149,-0.86915 -1.83692,0.63505 1.17108,2.9083 -1.28125,3.41407 -0.63773,0.13152 -1.27326,-0.9587 -1.84375,-0.64453 -0.72006,0.39638 2.37834,3.82662 -0.74414,-0.01 -2.61733,0.63694 1.20651,3.00402 0.1543,3.53906 -0.68137,0.34648 -1.26217,-1.57329 -1.94141,-1.22265 -0.58679,0.30292 1.18067,1.29099 0.7832,1.81836 -2.78903,3.70054 -2.44023,-3.20099 -2.25195,2.00976 -0.31205,0.25672 -0.60826,0.53253 -0.93555,0.76953 -0.26277,0.19027 -0.52318,0.40267 -0.83007,0.50782 -0.007,0.003 -0.0128,-0.01 -0.0195,-0.0137 0.20752,0.5386 0.69852,1.11732 0.39454,1.56641 -0.41027,0.60609 -1.42705,0.35624 -2.09375,0.6582 -0.57868,0.26208 -1.07453,0.67979 -1.61133,1.01953 -0.33938,0.26439 -0.94624,0.68945 -0.9961,1.11133 -0.0456,0.38585 0.74474,0.891 0.41211,1.0918 -0.40506,0.2445 -0.84246,-0.47998 -1.31054,-0.54883 -0.84022,-0.12338 -0.5525,1.85096 -0.62891,3.08984 -0.14651,1.91993 -4.02269,-0.7024 -4.22266,0.71094 -0.0166,0.11738 -0.004,0.23494 0.0254,0.35156 -0.37578,0.62076 0.30141,1.71599 0.49023,2.10547 -1.08923,-0.22521 -3.61534,2.35709 -1.98047,3.09375 -0.19252,0.5326 -0.36626,1.07677 -0.5918,1.58985 -0.63822,0.17012 -1.27582,0.34157 -1.91406,0.51172 -0.10235,0.36041 0.0221,0.90038 -0.30664,1.08007 -0.43218,0.23627 -1.23973,-0.54026 -1.47461,-0.10742 -0.32582,0.6005 0.0713,1.37043 0.13477,2.06836 0.0588,-0.0139 0.12488,-0.0212 0.17773,-0.041 0.39306,0.63216 0.23382,0.32469 -0.17773,0.14648 0.008,0.19783 -0.009,0.39011 -0.0899,0.56836 -0.0784,0.17192 -0.37605,0.22369 -0.6582,0.20312 0.0524,-0.16141 0.0855,-0.23885 0.14258,-0.41992 0.0761,-0.24122 -0.08,0.0537 -0.29297,0.39844 -0.26209,-0.051 -0.48079,-0.1648 -0.41602,-0.33789 0.0199,-0.0531 0.051,-0.0967 0.084,-0.13672 -0.0391,0.0374 -0.0778,0.0689 -0.11719,0.11328 -0.0947,0.10661 -0.22763,0.60696 -0.33398,1.16016 -0.55405,0.27283 -1.1844,0.38682 -1.76954,0.5957 -0.0164,0.96971 0.22788,1.97924 -0.0508,2.9082 -0.10907,0.36348 -0.63869,0.70346 -0.99023,0.56055 -0.30259,-0.12418 0.008,-0.65745 -0.043,-0.98047 -0.008,-0.0493 -0.10346,-0.12697 -0.125,-0.082 -1.99537,4.16676 0.91418,0.0881 -3.833984,5.48633 -1.391398,1.93178 -2.376945,3.89696 -4.294922,5.10352 -0.22635,-0.15851 -0.453337,-0.31611 -0.679687,-0.47461 0.0068,0.0282 0.02641,0.0593 0.03516,0.0879 l -0.380859,-0.32813 c -0.686933,-0.14753 -1.274678,-0.11598 -0.681641,0.6875 0.158711,0.21504 0.328192,0.42167 0.494141,0.63086 -0.09446,0.0357 -0.174904,0.0827 -0.273438,0.11523 -0.601699,0.19885 -2.354119,-0.77037 -1.865234,-0.36718 l 2.08789,1.44922 c -0.437998,-0.10131 -0.903184,-0.23896 -1.265624,-0.082 -0.09244,0.0401 -0.144468,0.6581 -0.199219,1.1875 -0.190958,0.0999 -0.420346,0.26159 -0.574219,0.17774 -0.428239,-0.23354 -0.573902,-1.50725 -0.904297,-1.14844 -0.255376,0.27734 -0.215637,0.66449 -0.125,1.07031 -0.423353,0.13327 -0.813797,0.29374 -1.169922,0.47852 0.126275,0.34313 0.276085,0.70163 0.517578,0.69727 0.374531,-0.007 0.556948,-0.40338 0.744141,-0.79102 0.05031,0.20722 0.09329,0.41263 0.09961,0.60352 -0.499201,0.34413 -0.996899,0.68908 -1.496093,1.0332 -0.543425,1.41959 -1.047325,0.29769 -0.779297,-0.97461 -2.46853,1.88291 -2.678011,5.14932 -1.28125,7.47461 1.24172,0.74627 2.861393,1.03337 4.779297,0.53125 0.818918,-0.19709 1.693836,-0.23541 2.457031,-0.5918 0.20874,-0.0976 0.08197,-0.46811 0.214844,-0.65625 0.419478,-0.59366 1.091661,-1.03024 1.482421,-1.6289 0.185011,0.41636 0.431704,0.78672 0.464844,0.50586 0.06948,-0.58888 -0.266264,-1.15459 -0.433594,-1.73243 -0.134102,0.17912 -0.242815,0.36331 -0.234374,0.57617 2.77e-4,0.007 0.0053,0.02 0.0059,0.0273 -0.220666,-0.027 -0.444828,-0.0574 -0.425781,-0.20703 0.0371,-0.29128 0.320582,-0.45137 0.603515,-0.61133 -0.02949,-0.14751 -0.04843,-0.29524 -0.03711,-0.44531 0.01051,-0.13936 0.161648,0.0505 0.314453,0.26562 0.03911,-0.0271 0.08497,-0.0503 0.119141,-0.0801 -0.02305,0.0417 -0.05996,0.0805 -0.08789,0.1211 0.177624,0.254 0.346579,0.52215 0.304687,0.36523 -0.701855,-2.62912 -1.40119,-4.58106 -1.929687,-5.97265 l 0.330078,0.22851 c 0.96756,0.90793 1.964759,1.78589 2.964844,2.65235 -0.03447,0.0574 -0.06532,0.11632 -0.09961,0.17382 0.323875,0.29113 0.645309,0.58246 0.972656,0.86914 0.0696,-0.0978 0.119514,-0.20495 0.136718,-0.32617 0.0533,-0.37551 -0.176091,-0.7218 -0.388671,-1.07031 0.140816,-0.28502 0.236941,-0.61573 0.503906,-0.76953 0.440188,-0.25331 0.998758,-0.18636 1.498038,-0.2793 -0.7375,-0.51646 -1.475376,-1.03237 -2.212882,-1.54883 1.419152,-1.36019 3.756002,-2.25313 3.650382,-4.47656 1.1634,-0.5567 2.24282,-1.34228 3.49024,-1.66992 0.80749,-0.2121 1.76662,0.48738 2.5039,0.0957 0.57731,-0.3067 0.27652,-1.35173 0.73633,-1.8164 0.4767,-0.48174 1.63981,-0.17073 1.86328,-0.81055 0.24445,-0.70005 -1.68009,-0.99569 -1.125,-1.91992 0.56617,0.0753 1.12938,0.28733 1.69727,0.22656 0.70637,-0.0756 1.22214,-1.08991 1.64258,-2.10156 -0.39063,-0.029 -0.79533,-0.15958 -0.56446,-0.19141 0.21295,-0.0293 0.42737,-0.0185 0.64258,-0.002 0.30234,-0.74749 0.56348,-1.46998 0.78516,-1.73828 0.38297,-0.46353 0.0896,1.23449 -0.28711,1.77539 0.0794,0.007 0.15907,0.0164 0.23828,0.0195 0.38793,-0.72297 1.19963,-1.34825 1.16406,-2.16797 -0.0126,-0.29177 -0.1854,-0.64791 -0.41601,-0.92383 2.25956,-1.85941 1.10303,0.61254 1.9375,-1.54101 0.21314,-0.43997 0.50734,-1.03394 0.6289,-1.17969 0.49467,-0.59314 1.17539,-1.00064 1.76953,-1.49414 0.43053,-0.35757 1.08226,-0.54421 1.30274,-1.0586 0.24957,-0.58233 -1.82173,-0.71224 -1.14258,-1.51757 2.17297,-1.91604 -0.8846,0.3641 1.2207,0.91796 0.66501,0.17506 1.28014,-0.56192 1.79688,-1.01562 0.11996,-0.10534 -0.0175,-0.33625 -0.10938,-0.4668 -0.34141,-0.48514 -1.15543,-0.75061 -1.16601,-1.34375 -0.01,-0.53607 0.74912,-0.7681 1.12305,-1.15234 0.26754,-0.24414 0.44108,-0.7748 0.80078,-0.73242 0.95844,0.1129 2.1235,1.94129 2.66211,1.14062 0.60126,-0.89385 -1.47864,-1.78438 -1.50391,-2.86133 -0.0113,-0.48024 1.1238,0.22066 1.43359,-0.14648 0.25048,-0.29682 -0.25395,-0.73255 -0.38086,-1.09961 0.33504,-0.2417 0.66888,-0.48486 1.00391,-0.72656 3.26562,-1.92999 -0.70565,0.76547 1.36914,-1.76172 0.31441,-0.38297 0.98434,-0.36768 1.27149,-0.77149 0.35727,-0.50241 0.25681,-1.23025 0.55468,-1.76562 -0.20327,-0.1816 -0.40609,-0.36334 -0.60937,-0.54492 0.25657,-0.3295 0.37428,-0.85345 0.76953,-0.98828 0.52271,-0.17829 1.11213,0.29563 1.64844,0.16406 0.10243,-0.0251 3.2252,-1.55709 3.46093,-2.06055 0.15949,-0.3406 -0.18372,-0.74856 -0.41015,-1.04883 -0.0657,-0.0871 -0.2111,0.0556 -0.31641,0.084 0.15814,-0.43568 0.18304,-0.94639 0.47461,-1.30664 0.13883,-0.17138 1.50356,0.0244 1.51172,-0.01 0.094,-0.39403 -0.95258,-0.77241 -0.64258,-1.0332 0.7805,-0.65659 2.32239,0.52543 2.98828,-0.66016 1.18644,-4.82968 -0.79291,1.80544 1.33594,-1.65625 0.1967,-0.31987 -0.0535,-0.74848 -0.0801,-1.12304 -0.13038,-0.0728 -0.41686,-0.0716 -0.39062,-0.21875 0.24231,-1.35848 1.17195,-0.94205 2.20703,-0.97266 0.33319,0.14828 0.69798,0.64988 1,0.44531 0.28294,-0.19158 -0.31206,-0.70467 -0.16211,-1.01172 0.24721,-0.50621 0.85152,-0.74394 1.22461,-1.16601 0.81155,-0.91812 0.63952,-1.4922 1.06836,-2.54688 -0.70818,0.62861 -1.34948,2.43007 -2.125,1.88672 -0.76212,-0.534 0.47193,-1.9981 1.26172,-2.49023 1.0924,-0.68071 2.64685,-0.10372 3.80468,-0.66602 0.32063,-0.15568 -0.26266,-0.66419 -0.35742,-1.00781 -0.0333,-0.12078 -0.14796,-0.35092 -0.0254,-0.37695 0.49343,-0.1048 1.00962,0.0408 1.51366,0.0605 0.29795,-0.28067 0.8181,-0.43931 0.89259,-0.84179 0.16015,-0.86537 -1.25457,-1.36979 -0.24219,-2.27344 0.51279,-0.45772 1.32417,-0.4536 1.86719,-0.875 0.49267,-0.38232 -0.985,-1.94063 0.9414,-1.61719 0.19402,0.18326 0.43714,0.33069 0.6289,0.51563 -0.0627,-0.69293 0.0902,-1.32395 0.8086,-1.91016 0.23463,-0.19144 0.64684,-0.13202 0.95898,-0.18164 0.038,0.10711 0.0785,0.0794 0.11328,-0.0156 0.11498,-0.0341 0.20867,-0.0919 0.25391,-0.20703 0.0549,-0.13981 0.003,-0.26884 -0.0801,-0.39453 0.09,-0.32657 0.21122,-0.73937 0.41407,-1.26562 0.096,-0.2488 0.1143,-0.69222 0.38086,-0.70118 0.54579,-0.0184 1.32648,1.15308 1.50977,0.63868 0.9045,-2.53842 -4.09133,-0.96207 0.5918,-1.91993 1.64215,-1.75454 1.70561,-3.7226 0.92382,-5.23437 -0.64177,-0.35864 -1.36361,-0.57893 -2.12109,-0.57617 z m -3.75391,11.76758 c 0.0396,0.43796 0.16373,0.90061 0.28907,1.39453 0.0905,0.35669 0.097,-0.76995 -0.0625,-1.10157 -0.0543,-0.11277 -0.13664,-0.20624 -0.22657,-0.29296 z m -23.23828,23.33984 c 0.12451,0.11123 0.24853,0.2228 0.37305,0.33398 -0.11438,-0.13577 -0.24523,-0.55718 -0.3418,-0.4082 -0.0147,0.0227 -0.0182,0.0508 -0.0312,0.0742 z m -15.55859,21.64844 c -0.16601,-0.0139 -0.3321,-0.0244 -0.49805,-0.0371 -0.0269,0.0664 -0.0504,0.12658 -0.0781,0.19336 0.22957,0.017 0.45413,0.006 0.54101,-0.0996 0.0119,-0.0145 0.0234,-0.0398 0.0352,-0.0566 z m -17.115235,18.30664 c -0.01105,-0.0158 -0.0202,-0.0255 -0.03125,-0.041 -0.08877,0.0615 -0.178255,0.12367 -0.277344,0.17969 0.01433,0.0717 0.03015,0.14359 0.05078,0.21484 0.08778,-0.11724 0.176122,-0.23483 0.257813,-0.35351 z m -7.941406,-3.54883 c 0.274661,-0.2095 0.583092,-0.39664 0.914062,-0.56836 -0.148513,-0.40356 -0.263024,-0.78771 -0.433593,-0.56055 -0.25285,0.33673 -0.397913,0.73702 -0.480469,1.12891 z m 0.779297,0.97461 c 0.04,-0.10449 0.07912,-0.16716 0.11914,-0.30078 0.0715,-0.23876 -0.33078,0.37392 -0.496094,0.56054 0.12569,-0.0866 0.251265,-0.17312 0.376954,-0.25976 z m 4.611328,-5.74219 c 1.092489,0.23463 2.437073,0.92687 -0.308594,-0.26758 z m 12.583986,-14.15039 c 0.0202,-0.0193 0.0405,-0.0411 0.0606,-0.0586 -0.0213,0.0184 -0.0426,0.0368 -0.0606,0.0586 z m 0.0606,-0.0586 c 0.22817,-0.19762 0.62827,-0.22329 0.99414,-0.28321 -0.27538,-0.0693 -0.62298,-0.0407 -0.99414,0.28321 z m 0.99414,-0.28321 c 0.0659,0.0166 0.1191,0.0419 0.17578,0.0664 -10e-4,-0.0355 0.003,-0.0695 0,-0.10547 -0.058,0.0137 -0.11418,0.029 -0.17578,0.0391 z m 15.8496,-19.43164 c -0.023,-0.0596 -0.0581,-0.12131 -0.0723,-0.17968 -0.0149,-0.0614 0.018,0.14659 0.0723,0.17968 z m 9.61524,-10.79492 c -0.002,-0.002 -0.006,-0.004 -0.008,-0.006 -0.0311,-0.0313 -0.11541,0.13507 -0.084,0.10352 0.0316,-0.0317 0.0606,-0.0656 0.0918,-0.0977 z m 4.03906,-3.93945 c -0.0328,-0.10014 -0.0766,-0.19382 -0.13086,-0.27149 -0.11619,-0.16625 -0.52272,0.45473 -0.32812,0.51172 0.1697,0.0504 0.3261,-0.0853 0.45898,-0.24023 z m 5.33594,-5.77149 c 0.007,10e-4 0.0122,9.3e-4 0.0195,0.002 0.0577,-0.0575 0.11401,-0.11649 0.17188,-0.17383 0.1203,-0.11922 -0.0762,0.0662 -0.19141,0.17187 z m 6.20117,-8.31445 c 0.39744,-0.23221 0.79561,-0.46405 1.12891,-0.77734 0.32674,-0.30714 -1.22958,0.20715 -1.17578,0.65234 0.006,0.0495 0.0239,0.0898 0.0469,0.125 z m -50.136718,67.30859 c 0.06615,0.0643 0.102013,0.10215 0.169922,0.16797 -0.02287,0.0457 -0.05222,0.0894 -0.07617,0.13477 -0.04432,-0.0995 -0.07718,-0.20017 -0.09375,-0.30274 z m -0.771484,0.11914 0.69336,0.48047 c -0.06055,0.10541 -0.119028,0.21175 -0.181641,0.31641 -0.189806,-0.2429 -0.384499,-0.52654 -0.511719,-0.79688 z m -0.191406,2.14258 c -0.0745,0.18194 -0.146638,0.36399 -0.191406,0.55664 -0.0358,0.15409 0.183356,0.12776 0.40625,0.0664 -0.07703,-0.2366 -0.140075,-0.4025 -0.214844,-0.62305 z"
       style="fill:#ebebeb;fill-opacity:1;stroke:none;stroke-width:1.18097;stroke-linecap:round;stroke-miterlimit:4;stroke-dasharray:none;stroke-opacity:1;paint-order:fill markers stroke;filter:url(#filter2990-3)"
       id="path15595"
       transform="matrix(0.72571402,0,0,0.72571402,26.606963,-273.6429)" />
    <path
       inkscape:export-ydpi="96"
       inkscape:export-xdpi="96"
       inkscape:export-filename="D:\Calcatz\Icon Pack\VN Game Orient Express Theme\Visual Novel GUI\png\Evidence\pipe_cleaner_selected.png"
       id="path15597"
       style="color:#000000;font-style:normal;font-variant:normal;font-weight:normal;font-stretch:normal;font-size:medium;line-height:normal;font-family:sans-serif;font-variant-ligatures:normal;font-variant-position:normal;font-variant-caps:normal;font-variant-numeric:normal;font-variant-alternates:normal;font-variant-east-asian:normal;font-feature-settings:normal;font-variation-settings:normal;text-indent:0;text-align:start;text-decoration:none;text-decoration-line:none;text-decoration-style:solid;text-decoration-color:#000000;letter-spacing:normal;word-spacing:normal;text-transform:none;writing-mode:lr-tb;direction:ltr;text-orientation:mixed;dominant-baseline:auto;baseline-shift:baseline;text-anchor:start;white-space:normal;shape-padding:0;shape-margin:0;inline-size:0;clip-rule:nonzero;display:inline;overflow:visible;visibility:visible;isolation:auto;mix-blend-mode:normal;color-interpolation:sRGB;color-interpolation-filters:linearRGB;solid-color:#000000;solid-opacity:1;vector-effect:none;fill:#e6e6e6;fill-opacity:1;fill-rule:nonzero;stroke:none;stroke-width:0.857046;stroke-linecap:butt;stroke-linejoin:miter;stroke-miterlimit:4;stroke-dasharray:none;stroke-dashoffset:0;stroke-opacity:1;color-rendering:auto;image-rendering:auto;shape-rendering:auto;text-rendering:auto;enable-background:accumulate;stop-color:#000000"
       d="m 139.36478,121.94211 c -16.47025,18.89224 -34.42006,36.74808 -49.965128,56.37749 0.202071,0.20018 0.425793,0.3812 0.671853,0.53578 1.830927,-2.31175 3.692025,-4.6021 5.584595,-6.87018 -0.0015,-0.004 -0.0028,-0.006 -0.0043,-0.01 l 0.0071,0.006 c 14.13247,-16.9361 29.7999,-32.78877 44.34793,-49.47612 z" />
    <path
       inkscape:export-ydpi="96"
       inkscape:export-xdpi="96"
       inkscape:export-filename="D:\Calcatz\Icon Pack\VN Game Orient Express Theme\Visual Novel GUI\png\Evidence\pipe_cleaner_selected.png"
       id="path15599"
       style="fill:#dddddd;fill-opacity:1;stroke:none;stroke-width:1.18097;stroke-linecap:round;stroke-miterlimit:4;stroke-dasharray:none;stroke-opacity:1;paint-order:fill markers stroke;filter:url(#filter2998-3)"
       d="m 157.12109,544.65234 c 0.1673,1.22444 -0.19152,2.58022 -1.36132,3.83008 -4.68314,0.95785 0.31269,-0.61849 -0.5918,1.91992 -0.18332,0.51448 -0.96398,-0.65706 -1.50977,-0.63867 -0.26655,0.009 -0.28482,0.45237 -0.38086,0.70117 -0.2028,0.52627 -0.32402,0.93906 -0.41406,1.26563 0.0833,0.12568 0.13495,0.2547 0.0801,0.39453 -0.0452,0.11509 -0.1389,0.17285 -0.25391,0.20703 -0.0349,0.0952 -0.0752,0.12272 -0.11328,0.0156 -0.31214,0.0496 -0.72436,-0.01 -0.95898,0.18164 -0.71841,0.5862 -0.87129,1.21722 -0.8086,1.91015 -0.19178,-0.18488 -0.43487,-0.33243 -0.6289,-0.51562 -1.9264,-0.32344 -0.44874,1.23486 -0.94141,1.61719 -0.54302,0.4214 -1.3544,0.41728 -1.86719,0.875 -1.01238,0.90364 0.40235,1.40807 0.24219,2.27343 -0.0745,0.40249 -0.59464,0.56113 -0.89258,0.8418 -0.50404,-0.0198 -1.02022,-0.16536 -1.51367,-0.0606 -0.12257,0.026 -0.008,0.25618 0.0254,0.37696 0.0948,0.3436 0.67805,0.85213 0.35742,1.00781 -1.15783,0.5623 -2.71228,-0.0147 -3.80468,0.66601 -0.7898,0.49213 -2.02384,1.95624 -1.26172,2.49024 0.77552,0.54334 1.41681,-1.25809 2.125,-1.88672 -0.42884,1.05467 -0.25681,1.62876 -1.06836,2.54688 -0.37309,0.42207 -0.9774,0.6598 -1.22461,1.16601 -0.14995,0.30705 0.44505,0.82014 0.16211,1.01172 -0.30204,0.20462 -0.66681,-0.29704 -1,-0.44531 -1.03508,0.0306 -1.96472,-0.38582 -2.20703,0.97265 -0.0263,0.14711 0.26024,0.14593 0.39062,0.21875 0.0266,0.37454 0.27678,0.80318 0.0801,1.12305 -2.12885,3.46169 -0.1495,-3.17341 -1.33594,1.65625 -0.66589,1.18561 -2.20778,0.004 -2.98828,0.66016 -0.31,0.26079 0.73658,0.63917 0.64258,1.0332 -0.008,0.0342 -1.37291,-0.16162 -1.51172,0.01 -0.29151,0.36025 -0.31647,0.87097 -0.47461,1.30665 0.10532,-0.0284 0.25072,-0.17113 0.31641,-0.084 0.22643,0.30027 0.56964,0.70823 0.41015,1.04883 -0.23572,0.50346 -3.3585,2.03543 -3.46093,2.06055 -0.53627,0.13145 -1.12573,-0.34236 -1.64844,-0.16407 -0.39526,0.13484 -0.51296,0.65879 -0.76953,0.98829 0.20324,0.18166 0.40609,0.36334 0.60937,0.54492 0.0123,-0.0231 0.017,-0.0502 0.0312,-0.0723 0.0966,-0.14898 0.22744,0.27238 0.3418,0.4082 -0.12454,-0.11112 -0.2485,-0.22285 -0.37305,-0.33398 -0.29678,0.53522 -0.19776,1.26178 -0.55469,1.76367 -0.28715,0.40383 -0.95708,0.38852 -1.27148,0.77149 -2.0748,2.52719 1.89648,-0.16827 -1.36914,1.76171 -0.33503,0.2417 -0.66887,0.48487 -1.00391,0.72657 0.12691,0.36706 0.63133,0.80279 0.38086,1.09961 -0.30982,0.36724 -1.44488,-0.33374 -1.43359,0.14648 0.0253,1.07695 2.10517,1.96748 1.50391,2.86133 -0.53862,0.80064 -1.70368,-1.02772 -2.66211,-1.14063 -0.35969,-0.0424 -0.53324,0.48829 -0.80078,0.73243 -0.37393,0.38423 -1.13262,0.61627 -1.12305,1.15234 0.0106,0.59314 0.82461,0.85861 1.16601,1.34375 0.0919,0.13054 0.22934,0.36146 0.10938,0.4668 -0.51673,0.45368 -1.13187,1.19068 -1.79688,1.01562 -2.1053,-0.55386 0.95226,-2.834 -1.2207,-0.91797 -0.67915,0.80534 1.39215,0.93525 1.14258,1.51758 -0.22048,0.51439 -0.87221,0.70103 -1.30274,1.05859 -0.59413,0.49349 -1.27486,0.90101 -1.76953,1.49415 -0.12158,0.14575 -0.41578,0.73973 -0.6289,1.17968 -0.83451,2.15364 0.32206,-0.3184 -1.9375,1.54102 0.23061,0.27591 0.40335,0.63207 0.41601,0.92383 0.0356,0.81972 -0.77614,1.44499 -1.16406,2.16797 -0.0792,-0.003 -0.15873,-0.0134 -0.23828,-0.0195 0.37671,-0.54091 0.67009,-2.23893 0.28711,-1.77539 -0.22166,0.26829 -0.48282,0.99079 -0.78516,1.73828 -0.21519,-0.0166 -0.4296,-0.0274 -0.64258,0.002 -0.23076,0.0315 0.17382,0.16243 0.56446,0.1914 0.0275,-0.066 0.0514,-0.12551 0.0781,-0.1914 0.16599,0.0126 0.33204,0.0231 0.49805,0.0371 -0.0115,0.0169 -0.0231,0.042 -0.0352,0.0566 -0.0868,0.10578 -0.31143,0.11661 -0.54101,0.0996 -0.42032,1.01111 -0.9366,2.02405 -1.64258,2.09961 -0.56787,0.0607 -1.1311,-0.15127 -1.69727,-0.22657 -0.55509,0.92423 1.36945,1.21988 1.125,1.91993 -0.22347,0.63982 -1.38658,0.32881 -1.86328,0.81054 -0.45981,0.46468 -0.15901,1.5097 -0.73633,1.81641 -0.73726,0.39164 -1.69641,-0.3078 -2.5039,-0.0957 -1.24742,0.32764 -2.32684,1.11322 -3.49024,1.66992 0.10563,2.22341 -2.231229,3.11637 -3.650388,4.47656 0.737501,0.51647 1.47542,1.03228 2.212891,1.54883 -0.499281,0.0929 -1.057856,0.026 -1.498047,0.2793 -0.266948,0.15382 -0.3631,0.48452 -0.503906,0.76953 0.212579,0.3485 0.441967,0.69478 0.388672,1.07031 -0.01643,0.11608 -0.06584,0.2182 -0.13086,0.3125 0.332199,0.29248 0.656398,0.59553 0.990235,0.88477 -0.03447,0.0574 -0.06532,0.11632 -0.09961,0.17382 0.323874,0.29113 0.645309,0.58246 0.972656,0.86914 0.0696,-0.0978 0.119514,-0.20495 0.136718,-0.32617 0.0533,-0.37551 -0.176091,-0.7218 -0.388671,-1.07031 0.140816,-0.28502 0.236941,-0.61573 0.503906,-0.76953 0.440194,-0.25331 0.998764,-0.18636 1.498044,-0.2793 -0.7375,-0.51646 -1.475382,-1.03237 -2.212888,-1.54883 1.419158,-1.36019 3.756008,-2.25313 3.650388,-4.47656 1.1634,-0.5567 2.24282,-1.34228 3.49024,-1.66992 0.80749,-0.2121 1.76662,0.48738 2.5039,0.0957 0.57731,-0.3067 0.27652,-1.35173 0.73633,-1.8164 0.4767,-0.48174 1.63981,-0.17073 1.86328,-0.81055 0.24445,-0.70005 -1.68009,-0.99569 -1.125,-1.91992 0.56617,0.0753 1.12938,0.28733 1.69727,0.22656 0.70637,-0.0756 1.22214,-1.08991 1.64258,-2.10156 -0.39063,-0.029 -0.79533,-0.15958 -0.56446,-0.19141 0.21295,-0.0293 0.42737,-0.0185 0.64258,-0.002 0.30234,-0.74749 0.56348,-1.46998 0.78516,-1.73828 0.38297,-0.46353 0.0896,1.23449 -0.28711,1.77539 0.0794,0.007 0.15907,0.0164 0.23828,0.0195 0.38793,-0.72297 1.19963,-1.34825 1.16406,-2.16797 -0.0126,-0.29177 -0.1854,-0.64791 -0.41601,-0.92383 2.25956,-1.85941 1.10303,0.61254 1.9375,-1.54101 0.21314,-0.43997 0.50734,-1.03394 0.6289,-1.17969 0.49467,-0.59314 1.1754,-1.00064 1.76953,-1.49414 0.43053,-0.35757 1.08226,-0.54421 1.30274,-1.0586 0.24957,-0.58233 -1.82173,-0.71224 -1.14258,-1.51757 2.17296,-1.91604 -0.8846,0.3641 1.2207,0.91796 0.66501,0.17506 1.28014,-0.56192 1.79688,-1.01562 0.11996,-0.10534 -0.0175,-0.33625 -0.10938,-0.4668 -0.34141,-0.48514 -1.15543,-0.75061 -1.16601,-1.34375 -0.01,-0.53607 0.74912,-0.7681 1.12305,-1.15234 0.26754,-0.24414 0.44108,-0.7748 0.80078,-0.73242 0.95843,0.1129 2.12349,1.94129 2.66211,1.14062 0.60126,-0.89385 -1.47864,-1.78438 -1.50391,-2.86133 -0.0113,-0.48024 1.1238,0.22066 1.43359,-0.14648 0.25048,-0.29682 -0.25395,-0.73255 -0.38086,-1.09961 0.33504,-0.2417 0.66888,-0.48486 1.00391,-0.72656 3.26562,-1.92999 -0.70566,0.76547 1.36914,-1.76172 0.3144,-0.38297 0.98434,-0.36768 1.27149,-0.77149 0.35727,-0.50241 0.25681,-1.23025 0.55468,-1.76562 -0.20327,-0.1816 -0.40609,-0.36334 -0.60937,-0.54492 0.25657,-0.3295 0.37428,-0.85345 0.76953,-0.98828 0.52271,-0.17829 1.11213,0.29563 1.64844,0.16406 0.10243,-0.0251 3.2252,-1.55709 3.46093,-2.06055 0.15949,-0.3406 -0.18372,-0.74856 -0.41015,-1.04883 -0.0657,-0.0871 -0.2111,0.0556 -0.31641,0.084 0.15814,-0.43568 0.18304,-0.94639 0.47461,-1.30664 0.13882,-0.17138 1.50356,0.0244 1.51172,-0.01 0.094,-0.39403 -0.95258,-0.77241 -0.64258,-1.0332 0.7805,-0.65659 2.32239,0.52543 2.98828,-0.66016 1.18644,-4.82968 -0.79291,1.80544 1.33594,-1.65625 0.1967,-0.31987 -0.0535,-0.74848 -0.0801,-1.12304 -0.13038,-0.0728 -0.41687,-0.0716 -0.39062,-0.21875 0.24231,-1.35848 1.17195,-0.94205 2.20703,-0.97266 0.33319,0.14828 0.69798,0.64988 1,0.44531 0.28294,-0.19158 -0.31206,-0.70467 -0.16211,-1.01172 0.24721,-0.50621 0.85152,-0.74394 1.22461,-1.16601 0.81155,-0.91812 0.63952,-1.4922 1.06836,-2.54688 -0.70818,0.62861 -1.34948,2.43007 -2.125,1.88672 -0.76212,-0.534 0.47192,-1.9981 1.26172,-2.49023 1.0924,-0.68071 2.64685,-0.10372 3.80468,-0.66602 0.32063,-0.15568 -0.26266,-0.66419 -0.35742,-1.00781 -0.0333,-0.12078 -0.14796,-0.35092 -0.0254,-0.37695 0.49344,-0.1048 1.00963,0.0408 1.51367,0.0605 0.29794,-0.28067 0.81809,-0.43931 0.89258,-0.84179 0.16016,-0.86537 -1.25457,-1.36979 -0.24219,-2.27344 0.51279,-0.45772 1.32417,-0.4536 1.86719,-0.875 0.49267,-0.38232 -0.98499,-1.94063 0.94141,-1.61719 0.19402,0.18326 0.43714,0.33069 0.6289,0.51563 -0.0627,-0.69293 0.0902,-1.32395 0.8086,-1.91016 0.23462,-0.19144 0.64684,-0.13202 0.95898,-0.18164 0.038,0.10711 0.0785,0.0794 0.11328,-0.0156 0.11498,-0.0341 0.20866,-0.0919 0.25391,-0.20703 0.0549,-0.13981 0.003,-0.26884 -0.0801,-0.39453 0.09,-0.32657 0.21122,-0.73937 0.41406,-1.26562 0.096,-0.2488 0.11431,-0.69222 0.38086,-0.70118 0.54579,-0.0184 1.32648,1.15308 1.50977,0.63868 0.9045,-2.53842 -4.09133,-0.96207 0.5918,-1.91993 1.64215,-1.75454 1.70561,-3.7226 0.92382,-5.23437 -0.44321,-0.24768 -0.92668,-0.42195 -1.43164,-0.50977 z m -4.44336,11.70118 c 0.0396,0.43796 0.16373,0.90061 0.28907,1.39453 0.0905,0.35669 0.097,-0.76995 -0.0625,-1.10157 -0.0543,-0.11277 -0.13664,-0.20624 -0.22657,-0.29296 z m -23.23828,23.33984 c 0.12451,0.11123 0.24853,0.2228 0.37305,0.33398 -0.11438,-0.13577 -0.24523,-0.55718 -0.3418,-0.4082 -0.0147,0.0227 -0.0182,0.0508 -0.0312,0.0742 z m -15.55859,21.64844 c -0.16601,-0.0139 -0.3321,-0.0244 -0.49805,-0.0371 -0.0269,0.0664 -0.0504,0.12658 -0.0781,0.19336 0.22957,0.017 0.45413,0.006 0.54101,-0.0996 0.0119,-0.0145 0.0234,-0.0398 0.0352,-0.0566 z m 36.92773,-46.90039 c 0.0899,0.0867 0.17229,0.18021 0.22657,0.29297 0.15951,0.33161 0.15299,1.45825 0.0625,1.10156 -0.12534,-0.49393 -0.24943,-0.95658 -0.28907,-1.39453 z m -56.845699,58.23632 c -0.06848,0.0303 -0.1337,0.063 -0.208985,0.0879 -0.06771,0.0224 -0.15408,0.027 -0.246094,0.0234 0.110234,0.29773 0.22753,0.63305 0.347657,0.97461 l 0.121093,0.084 c -0.03237,-0.007 -0.06504,-0.0137 -0.09766,-0.0215 0.414067,1.18183 0.856927,2.53031 1.322266,4.27344 0.04184,0.15653 -0.127408,-0.10985 -0.304688,-0.36328 -0.08139,0.11823 -0.170318,0.23464 -0.257812,0.35156 -0.0204,-0.0706 -0.03657,-0.14182 -0.05078,-0.21289 0.09907,-0.0559 0.188558,-0.11809 0.277343,-0.17969 0.01084,0.0147 0.02024,0.025 0.03125,0.0391 0.02792,-0.0406 0.06477,-0.0794 0.08789,-0.1211 -0.03417,0.0298 -0.08007,0.0531 -0.119141,0.0801 -0.152889,-0.21486 -0.303918,-0.40503 -0.314453,-0.26563 -0.01132,0.15008 0.0076,0.29789 0.03711,0.44532 -0.282945,0.15998 -0.566433,0.32005 -0.603516,0.61133 -0.01911,0.14985 0.205116,0.17995 0.425781,0.20703 -9.68e-4,-0.006 -0.006,-0.0193 -0.0059,-0.0274 -0.0084,-0.21232 0.10071,-0.39545 0.234375,-0.57422 0.167505,0.57722 0.503012,1.14219 0.433594,1.73047 -0.03313,0.28084 -0.279834,-0.0895 -0.464844,-0.50586 -0.390769,0.59868 -1.062955,1.03525 -1.482422,1.62891 -0.132796,0.18816 -0.0061,0.5587 -0.214844,0.65625 -0.763194,0.35639 -1.638121,0.39473 -2.457031,0.5918 -1.313398,0.34384 -2.482156,0.31186 -3.490234,0.0215 0.143977,0.4735 0.32488,0.93648 0.580078,1.36133 1.24172,0.74627 2.861393,1.03337 4.779297,0.53125 0.818918,-0.19709 1.693836,-0.23541 2.457031,-0.5918 0.20874,-0.0976 0.08197,-0.46811 0.214844,-0.65625 0.419478,-0.59366 1.091662,-1.03024 1.482421,-1.6289 0.185011,0.41636 0.431704,0.78671 0.464844,0.50586 0.06948,-0.58888 -0.266264,-1.15459 -0.433594,-1.73243 -0.134101,0.17912 -0.242815,0.36332 -0.234374,0.57617 2.76e-4,0.007 0.0053,0.02 0.0059,0.0273 -0.220666,-0.027 -0.444828,-0.0574 -0.425781,-0.20703 0.0371,-0.29128 0.320582,-0.45137 0.603515,-0.61133 -0.02949,-0.14751 -0.04843,-0.29524 -0.03711,-0.44531 0.01051,-0.13936 0.161648,0.0505 0.314453,0.26562 0.03911,-0.0271 0.08497,-0.0503 0.119141,-0.0801 -0.02305,0.0417 -0.05996,0.0805 -0.08789,0.1211 0.177624,0.254 0.346579,0.52215 0.304687,0.36523 -0.317344,-1.18876 -0.630885,-2.22186 -0.93164,-3.14453 -0.22219,0.061 -0.440045,0.0871 -0.404297,-0.0664 0.04477,-0.19264 0.117021,-0.37466 0.191406,-0.55664 0.06306,0.18605 0.11982,0.34191 0.181641,0.52539 -0.352972,-1.07672 -0.685318,-1.9893 -0.966797,-2.73046 l 0.330078,0.22851 c 0.327675,0.30748 0.670472,0.59712 1.003906,0.89844 0.03117,-0.0531 0.06001,-0.10729 0.0918,-0.16016 -0.878365,-0.76101 -1.747725,-1.53881 -2.603515,-2.33008 z m 2.802734,6.97071 c -0.01105,-0.0158 -0.0202,-0.0255 -0.03125,-0.041 -0.08877,0.0615 -0.178255,0.12367 -0.277344,0.17969 0.01433,0.0717 0.03015,0.14359 0.05078,0.21484 0.08778,-0.11724 0.176122,-0.23483 0.257813,-0.35351 z m 0.123047,-5.66406 c 0.01653,0.10267 0.04944,0.20313 0.09375,0.30273 0.02409,-0.0454 0.05323,-0.089 0.07617,-0.13477 -0.06789,-0.0658 -0.103799,-0.10353 -0.169922,-0.16796 z m -0.771484,0.11914 c 0.127223,0.27032 0.321872,0.55409 0.511718,0.79687 0.06265,-0.10477 0.121045,-0.21111 0.181641,-0.31641 z m 2.640624,1.79296 c 0.06615,0.0643 0.102013,0.10215 0.169922,0.16797 -0.02287,0.0457 -0.05222,0.0894 -0.07617,0.13477 -0.04432,-0.0995 -0.07718,-0.20017 -0.09375,-0.30274 z m -0.771484,0.11914 0.69336,0.48047 c -0.06055,0.10541 -0.119028,0.21175 -0.181641,0.31641 -0.189806,-0.2429 -0.384499,-0.52654 -0.511719,-0.79688 z m -0.191406,2.14258 c -0.0745,0.18194 -0.146638,0.36399 -0.191406,0.55664 -0.0358,0.15409 0.183356,0.12776 0.40625,0.0664 -0.07703,-0.2366 -0.140075,-0.4025 -0.214844,-0.62305 z"
       transform="matrix(0.72571402,0,0,0.72571402,26.606963,-273.6429)" />
  </g>
</svg>
