<?xml version="1.0" encoding="UTF-8" standalone="no"?>
<svg
   xmlns:dc="http://purl.org/dc/elements/1.1/"
   xmlns:cc="http://creativecommons.org/ns#"
   xmlns:rdf="http://www.w3.org/1999/02/22-rdf-syntax-ns#"
   xmlns:svg="http://www.w3.org/2000/svg"
   xmlns="http://www.w3.org/2000/svg"
   xmlns:xlink="http://www.w3.org/1999/xlink"
   xmlns:sodipodi="http://sodipodi.sourceforge.net/DTD/sodipodi-0.dtd"
   xmlns:inkscape="http://www.inkscape.org/namespaces/inkscape"
   inkscape:export-ydpi="96"
   inkscape:export-xdpi="96"
   inkscape:export-filename="D:\Calcatz\Icon Pack\VN Game Orient Express Theme\Visual Novel GUI\png\character_name_placeholder.png"
   sodipodi:docname="character_name_placeholder.svg"
   inkscape:version="1.0 (4035a4fb49, 2020-05-01)"
   id="svg1208"
   version="1.1"
   viewBox="0 0 214.58604 25.87389"
   height="97.791077"
   width="811.03387">
  <defs
     id="defs1202">
    <linearGradient
       y2="84.217667"
       x2="-9.101428"
       y1="76.079315"
       x1="-9.101428"
       gradientTransform="matrix(2.742857,0,0,2.742857,120.6184,-93.24265)"
       gradientUnits="userSpaceOnUse"
       id="linearGradient14230"
       xlink:href="#linearGradient1347"
       inkscape:collect="always" />
    <linearGradient
       id="linearGradient1347"
       inkscape:collect="always">
      <stop
         id="stop1343"
         offset="0"
         style="stop-color:#260b0b;stop-opacity:1" />
      <stop
         id="stop1345"
         offset="1"
         style="stop-color:#0d0303;stop-opacity:1" />
    </linearGradient>
    <linearGradient
       y2="84.404762"
       x2="-4.7695847"
       y1="76.266403"
       x1="-4.7695847"
       gradientTransform="matrix(2.6057141,0,0,2.6057141,119.9779,-82.15465)"
       gradientUnits="userSpaceOnUse"
       id="linearGradient14228"
       xlink:href="#linearGradient1319"
       inkscape:collect="always" />
    <linearGradient
       inkscape:collect="always"
       id="linearGradient1319">
      <stop
         style="stop-color:#310e0e;stop-opacity:1"
         offset="0"
         id="stop1315" />
      <stop
         style="stop-color:#180606;stop-opacity:1"
         offset="1"
         id="stop1317" />
    </linearGradient>
  </defs>
  <sodipodi:namedview
     inkscape:window-maximized="1"
     inkscape:window-y="-8"
     inkscape:window-x="-8"
     inkscape:window-height="705"
     inkscape:window-width="1366"
     fit-margin-bottom="10"
     fit-margin-right="10"
     fit-margin-left="10"
     fit-margin-top="10"
     units="px"
     lock-margins="true"
     showgrid="false"
     inkscape:document-rotation="0"
     inkscape:current-layer="layer1"
     inkscape:document-units="mm"
     inkscape:cy="121.62426"
     inkscape:cx="550.8788"
     inkscape:zoom="0.67114695"
     inkscape:pageshadow="2"
     inkscape:pageopacity="0.0"
     borderopacity="1.0"
     bordercolor="#666666"
     pagecolor="#ffffff"
     id="base" />
  <metadata
     id="metadata1205">
    <rdf:RDF>
      <cc:Work
         rdf:about="">
        <dc:format>image/svg+xml</dc:format>
        <dc:type
           rdf:resource="http://purl.org/dc/dcmitype/StillImage" />
        <dc:title></dc:title>
      </cc:Work>
    </rdf:RDF>
  </metadata>
  <g
     transform="translate(2.4289247,-115.58061)"
     id="layer1"
     inkscape:groupmode="layer"
     inkscape:label="Layer 1">
    <path
       id="path14092"
       style="fill:#603a00;fill-opacity:1;stroke:#e6b200;stroke-width:0.725713px;stroke-linecap:round;stroke-linejoin:round;stroke-opacity:1"
       d="m 15.2045,118.5893 c -3.5749,0 -3.3511,3.46415 -8.4676,3.46415 0,4.0286 -6.1572,6.41379 -6.1572,6.41379 0,0 6.0296,2.28244 6.0296,6.25785 5.1985,0 5.2225,3.72072 8.9793,3.72072 h 178.5496 c 3.7567,0 3.7822,-3.72072 8.9806,-3.72072 0,-3.97541 6.0297,-6.25785 6.0297,-6.25785 0,0 -6.1587,-2.38519 -6.1587,-6.41379 -5.1165,0 -4.8912,-3.46415 -8.4661,-3.46415 z"
       sodipodi:nodetypes="ccccccccccc" />
    <path
       id="path14094"
       style="fill:url(#linearGradient14230);fill-opacity:1;stroke:#603a00;stroke-width:0.725713px;stroke-linecap:round;stroke-linejoin:round;stroke-opacity:1"
       d="m 24.5055,118.5893 c -3.5749,0 -3.3511,3.46415 -8.4676,3.46415 0,4.0286 -6.1573,6.41379 -6.1573,6.41379 0,0 6.0297,2.28244 6.0297,6.25785 5.1985,0 5.2225,3.72072 8.9793,3.72072 h 159.9476 c 3.7568,0 3.7822,-3.72072 8.9807,-3.72072 0,-3.97541 6.0296,-6.25785 6.0296,-6.25785 0,0 -6.1586,-2.38519 -6.1586,-6.41379 -5.1165,0 -4.8913,-3.46415 -8.4662,-3.46415 z"
       sodipodi:nodetypes="ccccccccccc" />
    <path
       id="path14096"
       style="fill:url(#linearGradient14228);fill-opacity:1;stroke:#603a00;stroke-width:0.521143;stroke-linecap:round;stroke-linejoin:round;stroke-miterlimit:4;stroke-dasharray:none;stroke-opacity:1"
       d="m 25.3488,120.5005 c -2.8868,0 -3.4386,3.05582 -7.2685,3.05582 -0.8187,3.81325 -4.5411,4.9206 -4.5411,4.9206 0,0 3.7055,1.19674 4.438,4.66543 3.6377,0 4.6481,3.39226 7.6817,3.39226 h 158.502 c 3.0336,0 3.4502,-3.30915 7.648,-3.30915 0.7008,-3.14921 4.1986,-4.74854 4.1986,-4.74854 0,0 -3.3887,-1.43852 -4.3028,-4.93539 -3.705,0 -4.3458,-3.04103 -7.2325,-3.04103 z"
       sodipodi:nodetypes="ccccccccccc" />
    <path
       sodipodi:nodetypes="ccccccccccc"
       d="m 15.2045,118.5893 c -3.5749,0 -3.3511,3.46415 -8.4676,3.46415 0,4.0286 -6.1572,6.41379 -6.1572,6.41379 0,0 6.0296,2.28244 6.0296,6.25785 5.1985,0 5.2225,3.72072 8.9793,3.72072 h 178.5496 c 3.7567,0 3.7822,-3.72072 8.9806,-3.72072 0,-3.97541 6.0297,-6.25785 6.0297,-6.25785 0,0 -6.1587,-2.38519 -6.1587,-6.41379 -5.1165,0 -4.8912,-3.46415 -8.4661,-3.46415 z"
       style="fill:none;fill-opacity:1;stroke:#e6b200;stroke-width:0.725713px;stroke-linecap:round;stroke-linejoin:round;stroke-opacity:1"
       id="path14138" />
  </g>
</svg>
